<svg width="12" height="12" viewBox="0 0 12 12" fill="none" xmlns="http://www.w3.org/2000/svg">
<path fill-rule="evenodd" clip-rule="evenodd" d="M11.7046 0.295367C11.3108 -0.0984557 10.6723 -0.0984557 10.2785 0.295367L5.99998 4.57384L1.72151 0.295367C1.32769 -0.0984557 0.689174 -0.0984557 0.295352 0.295367C-0.0984709 0.68919 -0.0984709 1.3277 0.295352 1.72153L4.57383 6L0.295352 10.2785C-0.0984705 10.6723 -0.0984705 11.3108 0.295352 11.7046C0.689175 12.0985 1.32769 12.0985 1.72151 11.7046L5.99998 7.42616L10.2785 11.7046C10.6723 12.0985 11.3108 12.0985 11.7046 11.7046C12.0984 11.3108 12.0984 10.6723 11.7046 10.2785L7.42614 6L11.7046 1.72153C12.0984 1.3277 12.0984 0.68919 11.7046 0.295367Z" fill="currentColor"/>
</svg>
