<?xml version="1.0" standalone="no"?>
<!DOCTYPE svg PUBLIC "-//W3C//DTD SVG 20010904//EN"
 "http://www.w3.org/TR/2001/REC-SVG-20010904/DTD/svg10.dtd">
<svg version="1.0" xmlns="http://www.w3.org/2000/svg"
 width="548.000000pt" height="462.000000pt" viewBox="0 0 548.000000 462.000000"
 preserveAspectRatio="xMidYMid meet">

<g transform="translate(0.000000,462.000000) scale(0.100000,-0.100000)"
fill="#000000" stroke="none">
<path d="M1245 4484 c-108 -22 -138 -30 -190 -51 -208 -87 -390 -282 -469
-501 l-31 -87 -3 -1510 c-2 -1354 -1 -1518 13 -1590 53 -260 264 -498 535
-601 l75 -29 1535 -3 c1717 -3 1598 -8 1756 69 214 105 387 313 444 534 20 77
20 109 20 1579 0 1665 4 1567 -68 1718 -113 239 -341 421 -581 464 -62 11
-353 13 -1546 12 -808 0 -1479 -2 -1490 -4z m3117 -115 c109 -43 177 -88 273
-184 69 -69 100 -109 132 -170 85 -166 78 -3 81 -1680 2 -1332 1 -1498 -13
-1570 -42 -209 -198 -406 -400 -506 -149 -73 -52 -70 -1728 -67 l-1502 3 -73
27 c-181 66 -334 200 -422 368 -75 146 -70 22 -70 1712 l0 1517 25 78 c72 228
277 425 506 487 46 13 271 15 1589 13 l1535 -2 67 -26z"/>
<path d="M2627 2964 c-4 -4 -7 -124 -7 -266 l0 -258 -260 0 -260 0 0 -95 0
-95 260 0 260 0 2 -267 3 -268 95 0 95 0 3 268 2 267 260 0 260 0 0 95 0 95
-260 0 -260 0 -2 263 -3 262 -90 3 c-50 1 -94 0 -98 -4z"/>
</g>
</svg>
