<?xml version="1.0" standalone="no"?>
<!DOCTYPE svg PUBLIC "-//W3C//DTD SVG 20010904//EN"
 "http://www.w3.org/TR/2001/REC-SVG-20010904/DTD/svg10.dtd">
<svg version="1.0" xmlns="http://www.w3.org/2000/svg"
 width="548.000000pt" height="462.000000pt" viewBox="0 0 548.000000 462.000000"
 preserveAspectRatio="xMidYMid meet">

<g transform="translate(0.000000,462.000000) scale(0.100000,-0.100000)"
fill="#000000" stroke="none">
<path d="M1230 3925 l0 -185 215 0 215 0 0 185 0 185 -215 0 -215 0 0 -185z"/>
<path d="M3767 4104 c-4 -4 -7 -88 -7 -186 l0 -178 220 0 220 0 -2 183 -3 182
-211 3 c-115 1 -213 -1 -217 -4z"/>
<path d="M1640 3485 l0 -175 -205 0 -205 0 0 -185 0 -185 1465 0 1465 0 -2
183 -3 182 -207 3 -208 2 0 175 0 175 -220 0 -220 0 0 -175 0 -175 -610 0
-610 0 0 175 0 175 -220 0 -220 0 0 -175z"/>
<path d="M830 2685 l0 -175 -207 -2 -208 -3 -3 -182 -2 -183 2295 0 2295 0 0
185 0 185 -205 0 -205 0 0 175 0 175 -425 0 -425 0 0 -175 0 -175 -200 0 -200
0 0 175 0 175 -635 0 -635 0 0 -175 0 -175 -195 0 -195 0 0 175 0 175 -425 0
-425 0 0 -175z"/>
<path d="M410 1700 l0 -360 220 0 220 0 0 360 0 360 -220 0 -220 0 0 -360z"/>
<path d="M1320 1700 l0 -360 215 0 215 0 2 178 3 177 1028 2 1027 2 0 -179 0
-180 220 0 220 0 -2 358 -3 357 -1462 3 -1463 2 0 -360z"/>
<path d="M4550 1700 l0 -360 220 0 220 0 0 360 0 360 -220 0 -220 0 0 -360z"/>
<path d="M1720 1080 l0 -179 213 -3 c116 -2 308 -2 425 0 l212 3 0 179 0 180
-425 0 -425 0 0 -180z"/>
<path d="M3040 1080 l0 -179 213 -3 c116 -2 308 -2 425 0 l212 3 0 179 0 180
-425 0 -425 0 0 -180z"/>
</g>
</svg>
