<svg width="249" height="48" viewBox="0 0 249 48" fill="none" xmlns="http://www.w3.org/2000/svg">
<g clip-path="url(#clip0_432_878)">
<g clip-path="url(#clip1_432_878)">
<path d="M64.5822 34.104C63.1956 34.104 62.0116 33.8 61.0249 33.1973C60.0382 32.5946 59.2862 31.7893 58.7742 30.776C58.2622 29.7626 58.0062 28.6266 58.0062 27.3733V14.0986H63.7769V26.2586C63.7769 27.336 64.0436 28.1466 64.5822 28.68C65.1209 29.2133 65.8782 29.4853 66.8542 29.4853C67.7236 29.4853 68.4969 29.2826 69.1636 28.872C69.8302 28.4613 70.3636 27.8906 70.7582 27.16C71.1582 26.4293 71.3556 25.5866 71.3556 24.6426L71.8569 29.3733C71.2169 30.7866 70.2782 31.928 69.0462 32.7973C67.8142 33.672 66.3262 34.104 64.5822 34.104ZM71.4676 33.72V29.1013H71.3502V14.0986H77.1209V33.72H71.4676Z" fill="white"/>
<path d="M92.7482 34.1042C90.8762 34.1042 89.3775 33.6668 88.2469 32.7975C87.1162 31.9282 86.4495 30.7335 86.2469 29.2188L86.5562 29.1815V41.6082H80.7855V14.0935H86.4389V18.4402L86.0922 18.3655C86.3749 16.9308 87.1429 15.7948 88.4015 14.9628C89.6602 14.1308 91.2122 13.7148 93.0575 13.7148C94.9029 13.7148 96.3589 14.1308 97.6549 14.9628C98.9509 15.7948 99.9482 16.9682 100.658 18.4828C101.362 19.9975 101.714 21.7788 101.714 23.8322C101.714 25.8855 101.34 27.7202 100.599 29.2562C99.8522 30.7975 98.8175 31.9868 97.4842 32.8348C96.1509 33.6828 94.5722 34.1042 92.7535 34.1042H92.7482ZM91.1322 29.4855C92.4922 29.4855 93.5962 29.0002 94.4389 28.0242C95.2869 27.0482 95.7082 25.6668 95.7082 23.8695C95.7082 22.0722 95.2762 20.7015 94.4175 19.7522C93.5589 18.8028 92.4335 18.3282 91.0522 18.3282C89.6709 18.3282 88.6202 18.8082 87.7615 19.7735C86.9029 20.7335 86.4709 22.1148 86.4709 23.9068C86.4709 25.6988 86.8975 27.0802 87.7615 28.0402C88.6202 29.0002 89.7455 29.4855 91.1269 29.4855H91.1322Z" fill="white"/>
<path d="M112.864 34.1041C109.99 34.1041 107.707 33.5281 106.016 32.3708C104.326 31.2134 103.398 29.6241 103.248 27.5974H108.406C108.534 28.4668 108.976 29.1281 109.734 29.5761C110.491 30.0241 111.536 30.2481 112.87 30.2481C114.075 30.2481 114.955 30.0721 115.504 29.7308C116.054 29.3841 116.331 28.8934 116.331 28.2481C116.331 27.7628 116.171 27.3841 115.851 27.1121C115.531 26.8454 114.944 26.6214 114.102 26.4401L110.944 25.7841C108.608 25.2988 106.891 24.5574 105.787 23.5708C104.683 22.5841 104.134 21.3094 104.134 19.7414C104.134 17.8428 104.864 16.3601 106.326 15.2988C107.787 14.2321 109.824 13.7041 112.443 13.7041C115.062 13.7041 117.099 14.2214 118.635 15.2614C120.176 16.3014 121.019 17.7414 121.174 19.5921H116.016C115.915 18.9254 115.552 18.4188 114.939 18.0721C114.326 17.7254 113.451 17.5548 112.32 17.5548C111.296 17.5548 110.534 17.7041 110.032 17.9974C109.531 18.2908 109.28 18.7068 109.28 19.2454C109.28 19.7094 109.483 20.0721 109.894 20.3441C110.304 20.6108 110.982 20.8508 111.931 21.0534L115.472 21.7841C117.446 22.1948 118.939 22.9574 119.952 24.0721C120.966 25.1868 121.472 26.5041 121.472 28.0134C121.472 29.9388 120.72 31.4321 119.222 32.4934C117.723 33.5601 115.6 34.0881 112.854 34.0881L112.864 34.1041Z" fill="white"/>
<path d="M130.227 34.104C128.84 34.104 127.656 33.8 126.669 33.1973C125.683 32.5946 124.931 31.7893 124.419 30.776C123.907 29.7626 123.651 28.6266 123.651 27.3733V14.0986H129.421V26.2586C129.421 27.336 129.688 28.1466 130.227 28.68C130.765 29.2186 131.523 29.4853 132.499 29.4853C133.368 29.4853 134.141 29.2826 134.808 28.872C135.475 28.4613 136.008 27.8906 136.403 27.16C136.797 26.4293 137 25.5866 137 24.6426L137.501 29.3733C136.861 30.7866 135.923 31.928 134.691 32.7973C133.459 33.672 131.971 34.104 130.227 34.104ZM137.112 33.72V29.1013H136.995V14.0986H142.765V33.72H137.112Z" fill="white"/>
<path d="M146.422 33.7202V14.0935H152.076V18.7122H152.193V33.7148H146.422V33.7202ZM160.081 33.7255V21.5655C160.081 20.4882 159.804 19.6775 159.254 19.1442C158.705 18.6055 157.9 18.3388 156.849 18.3388C155.953 18.3388 155.148 18.5468 154.444 18.9522C153.74 19.3628 153.185 19.9282 152.79 20.6428C152.39 21.3628 152.193 22.2055 152.193 23.1815L151.692 18.4508C152.332 17.0162 153.276 15.8695 154.518 15.0055C155.761 14.1468 157.297 13.7148 159.116 13.7148C161.297 13.7148 162.961 14.3228 164.118 15.5442C165.27 16.7655 165.852 18.3975 165.852 20.4508V33.7255H160.081Z" fill="white"/>
<path d="M23.4042 12.5467C29.7829 12.5467 34.9402 17.7147 34.9402 24.0827H46.4762C46.4762 11.336 36.1456 1 23.3882 1C10.6309 1 0.310913 11.3253 0.310913 24.0773H11.8469C11.8736 17.6987 17.0416 12.5413 23.4042 12.5413V12.5467Z" fill="white"/>
<path d="M27.3122 34.93C31.7602 33.3247 34.9335 29.074 34.9335 24.082H11.8668C11.8668 29.074 15.0455 33.3354 19.4882 34.93V35.1274H3.14685C7.05618 42.29 14.6668 47.1487 23.4135 47.1487C32.1602 47.1487 39.7548 42.29 43.6802 35.1274H27.3122V34.93Z" fill="white"/>
</g>
</g>
<rect x="174.311" y="13.5" width="74.3273" height="21" rx="4" fill="#FAD2FB"/>
<path d="M238.202 28.422C237.402 28.422 236.766 28.246 236.294 27.894C235.822 27.542 235.554 27.046 235.49 26.406H236.642C236.698 26.758 236.858 27.03 237.122 27.222C237.394 27.406 237.762 27.498 238.226 27.498C238.634 27.498 238.946 27.426 239.162 27.282C239.378 27.138 239.486 26.934 239.486 26.67C239.486 26.478 239.422 26.318 239.294 26.19C239.174 26.054 238.934 25.942 238.574 25.854L237.59 25.626C236.974 25.474 236.514 25.25 236.21 24.954C235.914 24.65 235.766 24.278 235.766 23.838C235.766 23.286 235.97 22.854 236.378 22.542C236.794 22.222 237.362 22.062 238.082 22.062C238.794 22.062 239.366 22.222 239.798 22.542C240.238 22.862 240.486 23.31 240.542 23.886H239.39C239.342 23.598 239.202 23.378 238.97 23.226C238.746 23.066 238.438 22.986 238.046 22.986C237.678 22.986 237.394 23.054 237.194 23.19C237.002 23.318 236.906 23.498 236.906 23.73C236.906 23.922 236.978 24.082 237.122 24.21C237.274 24.338 237.522 24.446 237.866 24.534L238.874 24.786C239.458 24.93 239.898 25.166 240.194 25.494C240.49 25.814 240.638 26.202 240.638 26.658C240.638 27.21 240.422 27.642 239.99 27.954C239.566 28.266 238.97 28.422 238.202 28.422Z" fill="#2E062F"/>
<path d="M232.023 28.422C231.439 28.422 230.919 28.286 230.463 28.014C230.007 27.734 229.647 27.354 229.383 26.874C229.127 26.394 228.999 25.846 228.999 25.23C228.999 24.614 229.127 24.07 229.383 23.598C229.647 23.118 230.007 22.742 230.463 22.47C230.919 22.198 231.435 22.062 232.011 22.062C232.499 22.062 232.935 22.154 233.319 22.338C233.703 22.522 234.019 22.778 234.267 23.106C234.515 23.434 234.675 23.822 234.747 24.27H233.571C233.491 23.91 233.315 23.622 233.043 23.406C232.779 23.19 232.443 23.082 232.035 23.082C231.683 23.082 231.375 23.17 231.111 23.346C230.847 23.522 230.643 23.77 230.499 24.09C230.355 24.41 230.283 24.79 230.283 25.23C230.283 25.662 230.355 26.042 230.499 26.37C230.643 26.698 230.847 26.954 231.111 27.138C231.375 27.314 231.687 27.402 232.047 27.402C232.439 27.402 232.771 27.298 233.043 27.09C233.323 26.874 233.503 26.586 233.583 26.226H234.759C234.679 26.666 234.511 27.05 234.255 27.378C234.007 27.706 233.691 27.962 233.307 28.146C232.923 28.33 232.495 28.422 232.023 28.422Z" fill="#2E062F"/>
<path d="M225.053 28.422C224.429 28.422 223.881 28.286 223.409 28.014C222.937 27.734 222.569 27.354 222.305 26.874C222.041 26.386 221.909 25.834 221.909 25.218C221.909 24.594 222.041 24.046 222.305 23.574C222.577 23.102 222.945 22.734 223.409 22.47C223.881 22.198 224.429 22.062 225.053 22.062C225.685 22.062 226.237 22.198 226.709 22.47C227.181 22.734 227.545 23.102 227.801 23.574C228.065 24.046 228.197 24.594 228.197 25.218C228.197 25.834 228.065 26.386 227.801 26.874C227.545 27.354 227.181 27.734 226.709 28.014C226.237 28.286 225.685 28.422 225.053 28.422ZM225.053 27.402C225.429 27.402 225.753 27.31 226.025 27.126C226.305 26.942 226.525 26.686 226.685 26.358C226.845 26.03 226.925 25.646 226.925 25.206C226.925 24.55 226.749 24.034 226.397 23.658C226.053 23.274 225.605 23.082 225.053 23.082C224.509 23.082 224.061 23.274 223.709 23.658C223.365 24.042 223.193 24.558 223.193 25.206C223.193 25.646 223.269 26.03 223.421 26.358C223.581 26.686 223.801 26.942 224.081 27.126C224.369 27.31 224.693 27.402 225.053 27.402Z" fill="#2E062F"/>
<path d="M219.445 28.3021V26.8981L219.565 26.9341C219.437 27.3901 219.173 27.7541 218.773 28.0261C218.373 28.2901 217.893 28.4221 217.333 28.4221C216.781 28.4221 216.297 28.2901 215.881 28.0261C215.473 27.7621 215.153 27.3941 214.921 26.9221C214.697 26.4501 214.585 25.8981 214.585 25.2661C214.585 24.6261 214.701 24.0661 214.933 23.5861C215.165 23.1061 215.489 22.7341 215.905 22.4701C216.321 22.2061 216.809 22.0741 217.369 22.0741C217.953 22.0741 218.433 22.2141 218.809 22.4941C219.193 22.7661 219.445 23.1501 219.565 23.6461L219.397 23.6701V19.6621H220.633V28.3021H219.445ZM217.645 27.3781C218.197 27.3781 218.633 27.1901 218.953 26.8141C219.273 26.4301 219.433 25.9021 219.433 25.2301C219.433 24.5741 219.269 24.0581 218.941 23.6821C218.621 23.2981 218.185 23.1061 217.633 23.1061C217.089 23.1061 216.657 23.2981 216.337 23.6821C216.025 24.0581 215.869 24.5861 215.869 25.2661C215.869 25.9301 216.025 26.4501 216.337 26.8261C216.657 27.1941 217.093 27.3781 217.645 27.3781Z" fill="#2E062F"/>
<path d="M209.719 28.3021V26.8981L209.839 26.9341C209.711 27.3901 209.447 27.7541 209.047 28.0261C208.647 28.2901 208.167 28.4221 207.607 28.4221C207.055 28.4221 206.571 28.2901 206.155 28.0261C205.747 27.7621 205.427 27.3941 205.195 26.9221C204.971 26.4501 204.859 25.8981 204.859 25.2661C204.859 24.6261 204.975 24.0661 205.207 23.5861C205.439 23.1061 205.763 22.7341 206.179 22.4701C206.595 22.2061 207.083 22.0741 207.643 22.0741C208.227 22.0741 208.707 22.2141 209.083 22.4941C209.467 22.7661 209.719 23.1501 209.839 23.6461L209.671 23.6701V19.6621H210.907V28.3021H209.719ZM207.919 27.3781C208.471 27.3781 208.907 27.1901 209.227 26.8141C209.547 26.4301 209.707 25.9021 209.707 25.2301C209.707 24.5741 209.543 24.0581 209.215 23.6821C208.895 23.2981 208.459 23.1061 207.907 23.1061C207.363 23.1061 206.931 23.2981 206.611 23.6821C206.299 24.0581 206.143 24.5861 206.143 25.2661C206.143 25.9301 206.299 26.4501 206.611 26.8261C206.931 27.1941 207.367 27.3781 207.919 27.3781Z" fill="#2E062F"/>
<path d="M201.099 28.422C200.483 28.422 199.939 28.286 199.467 28.014C199.003 27.742 198.639 27.366 198.375 26.886C198.111 26.406 197.979 25.854 197.979 25.23C197.979 24.598 198.107 24.046 198.363 23.574C198.627 23.094 198.995 22.722 199.467 22.458C199.939 22.194 200.479 22.062 201.087 22.062C201.679 22.062 202.191 22.19 202.623 22.446C203.063 22.694 203.399 23.042 203.631 23.49C203.871 23.938 203.991 24.47 203.991 25.086C203.991 25.182 203.987 25.274 203.979 25.362C203.979 25.442 203.971 25.526 203.955 25.614H198.819V24.678H203.079L202.767 25.05C202.767 24.394 202.619 23.894 202.323 23.55C202.027 23.206 201.615 23.034 201.087 23.034C200.519 23.034 200.067 23.23 199.731 23.622C199.403 24.006 199.239 24.542 199.239 25.23C199.239 25.926 199.403 26.47 199.731 26.862C200.067 27.254 200.531 27.45 201.123 27.45C201.483 27.45 201.795 27.378 202.059 27.234C202.323 27.082 202.519 26.862 202.647 26.574H203.823C203.623 27.15 203.283 27.602 202.803 27.93C202.331 28.258 201.763 28.422 201.099 28.422Z" fill="#2E062F"/>
<path d="M196.249 28.3021L194.293 25.5061L191.809 22.1821H193.225L195.013 24.7381L197.665 28.3021H196.249ZM194.377 24.7381L196.201 22.1821H197.569L195.001 25.5901L194.377 24.7381ZM194.881 25.6261L192.913 28.3021H191.533L194.281 24.7501L194.881 25.6261Z" fill="#2E062F"/>
<path d="M189.295 28.3021V22.1821H190.543V28.3021H189.295ZM189.235 20.9821V19.5781H190.615V20.9821H189.235Z" fill="#2E062F"/>
<path d="M182.311 28.3021V19.6621H183.583V28.3021H182.311ZM182.935 24.7141V23.6701H187.687V24.7141H182.935ZM182.935 20.7061V19.6621H188.011V20.7061H182.935Z" fill="#2E062F"/>
<defs>
<clipPath id="clip0_432_878">
<rect width="166" height="48" fill="white" transform="translate(0.310913)"/>
</clipPath>
<clipPath id="clip1_432_878">
<rect width="165.541" height="46.1493" fill="white" transform="translate(0.310913 1)"/>
</clipPath>
</defs>
</svg>
