<svg width="115" height="32" viewBox="0 0 115 32" fill="none" xmlns="http://www.w3.org/2000/svg">
<path d="M49.274 16.3902C49.274 17.0484 49.1372 17.629 48.8598 18.1357C48.5825 18.6423 48.2163 19.038 47.7541 19.3228C47.2918 19.6075 46.7593 19.7481 46.1528 19.7481C45.476 19.7481 44.9509 19.5632 44.5774 19.1896C44.2039 18.8161 44.019 18.2577 44.019 17.5107V9.07893H40.0176V18.2836C40.0176 19.1564 40.1951 19.9441 40.5501 20.643C40.9051 21.3457 41.4266 21.9078 42.1107 22.322C42.7949 22.7399 43.6196 22.9507 44.5774 22.9507C45.7867 22.9507 46.8184 22.6474 47.6727 22.0446C48.3717 21.5491 48.9301 20.9204 49.3517 20.1734V22.6881H53.2717V9.07893H49.2703V16.3902H49.274Z" fill="white"/>
<path d="M67.5058 9.68173C66.6072 9.10482 65.5458 8.81636 64.318 8.81636C63.0903 8.81636 61.9623 9.10482 61.0896 9.68173C60.4572 10.0996 60.006 10.6321 59.7286 11.2719V9.08263H55.8086V28.1576H59.81V20.4359C60.043 21.0831 60.4313 21.6193 60.9823 22.0483C61.7663 22.6548 62.8055 22.9543 64.1035 22.9543C65.4016 22.9543 66.4593 22.6622 67.3838 22.0742C68.3083 21.4862 69.0295 20.6615 69.5435 19.5927C70.0575 18.524 70.3164 17.2703 70.3164 15.8317C70.3164 14.3932 70.0723 13.1728 69.5842 12.1225C69.096 11.0722 68.4008 10.2586 67.5021 9.68173H67.5058ZM65.2796 18.7385C64.6916 19.4152 63.926 19.7518 62.9867 19.7518C62.0474 19.7518 61.2486 19.4189 60.6532 18.7496C60.0578 18.0839 59.7582 17.1261 59.7582 15.8835C59.7582 14.6409 60.0541 13.6831 60.6532 13.0174C61.2486 12.3518 62.0104 12.0153 62.9349 12.0153C63.8595 12.0153 64.6731 12.3444 65.2685 13.0027C65.8639 13.6609 66.1634 14.6113 66.1634 15.8576C66.1634 17.1039 65.8713 18.0617 65.2833 18.7385H65.2796Z" fill="white"/>
<path d="M79.8724 14.4153L77.4168 13.9087C76.7586 13.7682 76.2889 13.6018 76.0042 13.4169C75.7194 13.2319 75.5789 12.9768 75.5789 12.655C75.5789 12.2815 75.7527 11.9931 76.1003 11.7897C76.4479 11.5863 76.9768 11.4827 77.6868 11.4827C78.4708 11.4827 79.0736 11.6011 79.5026 11.8414C79.9279 12.0818 80.1794 12.4331 80.2496 12.8954H83.8257C83.7185 11.6159 83.1305 10.6137 82.0654 9.89252C80.9967 9.17139 79.5655 8.81267 77.7719 8.81267C75.9783 8.81267 74.5434 9.18248 73.5301 9.91841C72.5168 10.658 72.0102 11.6824 72.0102 12.999C72.0102 14.0825 72.3911 14.9701 73.1566 15.6542C73.9221 16.3384 75.1129 16.8524 76.7327 17.189L78.922 17.6438C79.51 17.7696 79.9131 17.9249 80.135 18.1098C80.3569 18.2947 80.4678 18.561 80.4678 18.8975C80.4678 19.3413 80.2755 19.6852 79.8946 19.9256C79.5137 20.166 78.9035 20.2843 78.0677 20.2843C77.1432 20.2843 76.4184 20.129 75.8932 19.8183C75.3681 19.5077 75.0611 19.0491 74.9724 18.4463H71.3963C71.5035 19.8516 72.1433 20.9537 73.3156 21.7562C74.4879 22.555 76.0707 22.958 78.064 22.958C80.0573 22.958 81.4404 22.5882 82.4796 21.8523C83.5188 21.1127 84.0402 20.0772 84.0402 18.7459C84.0402 17.6956 83.6889 16.7859 82.9862 16.0129C82.2836 15.24 81.2481 14.7112 79.8798 14.4264L79.8724 14.4153Z" fill="white"/>
<path d="M94.787 16.3902C94.787 17.0484 94.6502 17.629 94.3728 18.1357C94.0955 18.6423 93.7293 19.038 93.2671 19.3228C92.8048 19.6075 92.2723 19.7481 91.6658 19.7481C90.989 19.7481 90.4639 19.5632 90.0904 19.1896C89.7169 18.8161 89.532 18.2577 89.532 17.5107V9.07893H85.5306V18.2836C85.5306 19.1564 85.7081 19.9441 86.0631 20.643C86.4181 21.3457 86.9396 21.9078 87.6237 22.322C88.3079 22.7399 89.1326 22.9507 90.0904 22.9507C91.2997 22.9507 92.3315 22.6474 93.1857 22.0446C93.8847 21.5491 94.4431 20.9204 94.8647 20.1734V22.6881H98.7847V9.07893H94.7833V16.3902H94.787Z" fill="white"/>
<path d="M113.596 10.0811C112.797 9.23795 111.639 8.81267 110.127 8.81267C108.862 8.81267 107.801 9.11222 106.939 9.70762C106.229 10.1958 105.671 10.8282 105.245 11.5863V9.07893H101.325V22.6844H105.327V15.3732C105.327 14.6964 105.464 14.1084 105.741 13.6129C106.015 13.1136 106.399 12.7253 106.887 12.4405C107.375 12.1558 107.93 12.0153 108.555 12.0153C109.284 12.0153 109.838 12.2002 110.223 12.5737C110.604 12.9472 110.796 13.5093 110.796 14.2526V22.6844H114.798V13.4797C114.798 12.0559 114.398 10.9243 113.596 10.0774V10.0811Z" fill="white"/>
<path d="M16.0129 0C7.17809 0 0.0110931 7.1596 0.0110931 16.0019H8.01017C8.02866 11.5789 11.6122 8.00277 16.024 8.00277C20.4359 8.00277 24.0231 11.5863 24.0231 16.0019H32.0222C32.0185 7.167 24.8589 0 16.0129 0Z" fill="white"/>
<path d="M24.0194 16.0018H8.02496C8.02496 19.4633 10.2291 22.4181 13.3096 23.5239V23.6607H1.9785C4.68924 28.6273 9.96649 31.9963 16.0314 31.9963C22.0964 31.9963 27.3625 28.6273 30.0844 23.6607H18.7348V23.5239C21.819 22.4107 24.0194 19.4633 24.0194 16.0018Z" fill="white"/>
</svg>
