<svg width="249" height="48" viewBox="0 0 249 48" fill="none" xmlns="http://www.w3.org/2000/svg">
<g clip-path="url(#clip0_426_831)">
<g clip-path="url(#clip1_426_831)">
<path d="M64.2627 34.104C62.876 34.104 61.692 33.8 60.7054 33.1973C59.7187 32.5946 58.9667 31.7893 58.4547 30.776C57.9427 29.7626 57.6867 28.6266 57.6867 27.3733V14.0986H63.4574V26.2586C63.4574 27.336 63.724 28.1466 64.2627 28.68C64.8014 29.2133 65.5587 29.4853 66.5347 29.4853C67.404 29.4853 68.1774 29.2826 68.844 28.872C69.5107 28.4613 70.044 27.8906 70.4387 27.16C70.8387 26.4293 71.036 25.5866 71.036 24.6426L71.5374 29.3733C70.8974 30.7866 69.9587 31.928 68.7267 32.7973C67.4947 33.672 66.0067 34.104 64.2627 34.104ZM71.148 33.72V29.1013H71.0307V14.0986H76.8014V33.72H71.148Z" fill="white"/>
<path d="M92.4287 34.1042C90.5567 34.1042 89.058 33.6668 87.9273 32.7975C86.7967 31.9282 86.13 30.7335 85.9273 29.2188L86.2367 29.1815V41.6082H80.466V14.0935H86.1193V18.4402L85.7727 18.3655C86.0553 16.9308 86.8233 15.7948 88.082 14.9628C89.3407 14.1308 90.8927 13.7148 92.738 13.7148C94.5833 13.7148 96.0393 14.1308 97.3353 14.9628C98.6313 15.7948 99.6287 16.9682 100.338 18.4828C101.042 19.9975 101.394 21.7788 101.394 23.8322C101.394 25.8855 101.021 27.7202 100.279 29.2562C99.5327 30.7975 98.498 31.9868 97.1647 32.8348C95.8313 33.6828 94.2527 34.1042 92.434 34.1042H92.4287ZM90.8127 29.4855C92.1727 29.4855 93.2767 29.0002 94.1193 28.0242C94.9673 27.0482 95.3887 25.6668 95.3887 23.8695C95.3887 22.0722 94.9567 20.7015 94.098 19.7522C93.2393 18.8028 92.114 18.3282 90.7327 18.3282C89.3513 18.3282 88.3007 18.8082 87.442 19.7735C86.5833 20.7335 86.1513 22.1148 86.1513 23.9068C86.1513 25.6988 86.578 27.0802 87.442 28.0402C88.3007 29.0002 89.426 29.4855 90.8073 29.4855H90.8127Z" fill="white"/>
<path d="M112.545 34.1041C109.67 34.1041 107.388 33.5281 105.697 32.3708C104.006 31.2134 103.078 29.6241 102.929 27.5974H108.086C108.214 28.4668 108.657 29.1281 109.414 29.5761C110.172 30.0241 111.217 30.2481 112.55 30.2481C113.756 30.2481 114.636 30.0721 115.185 29.7308C115.734 29.3841 116.012 28.8934 116.012 28.2481C116.012 27.7628 115.852 27.3841 115.532 27.1121C115.212 26.8454 114.625 26.6214 113.782 26.4401L110.625 25.7841C108.289 25.2988 106.572 24.5574 105.468 23.5708C104.364 22.5841 103.814 21.3094 103.814 19.7414C103.814 17.8428 104.545 16.3601 106.006 15.2988C107.468 14.2321 109.505 13.7041 112.124 13.7041C114.742 13.7041 116.78 14.2214 118.316 15.2614C119.857 16.3014 120.7 17.7414 120.854 19.5921H115.697C115.596 18.9254 115.233 18.4188 114.62 18.0721C114.006 17.7254 113.132 17.5548 112.001 17.5548C110.977 17.5548 110.214 17.7041 109.713 17.9974C109.212 18.2908 108.961 18.7068 108.961 19.2454C108.961 19.7094 109.164 20.0721 109.574 20.3441C109.985 20.6108 110.662 20.8508 111.612 21.0534L115.153 21.7841C117.126 22.1948 118.62 22.9574 119.633 24.0721C120.646 25.1868 121.153 26.5041 121.153 28.0134C121.153 29.9388 120.401 31.4321 118.902 32.4934C117.404 33.5601 115.281 34.0881 112.534 34.0881L112.545 34.1041Z" fill="white"/>
<path d="M129.907 34.104C128.521 34.104 127.337 33.8 126.35 33.1973C125.363 32.5946 124.611 31.7893 124.099 30.776C123.587 29.7626 123.331 28.6266 123.331 27.3733V14.0986H129.102V26.2586C129.102 27.336 129.369 28.1466 129.907 28.68C130.446 29.2186 131.203 29.4853 132.179 29.4853C133.049 29.4853 133.822 29.2826 134.489 28.872C135.155 28.4613 135.689 27.8906 136.083 27.16C136.478 26.4293 136.681 25.5866 136.681 24.6426L137.182 29.3733C136.542 30.7866 135.603 31.928 134.371 32.7973C133.139 33.672 131.651 34.104 129.907 34.104ZM136.793 33.72V29.1013H136.675V14.0986H142.446V33.72H136.793Z" fill="white"/>
<path d="M146.103 33.7202V14.0935H151.756V18.7122H151.873V33.7148H146.103V33.7202ZM159.761 33.7255V21.5655C159.761 20.4882 159.484 19.6775 158.935 19.1442C158.385 18.6055 157.58 18.3388 156.529 18.3388C155.633 18.3388 154.828 18.5468 154.124 18.9522C153.42 19.3628 152.865 19.9282 152.471 20.6428C152.071 21.3628 151.873 22.2055 151.873 23.1815L151.372 18.4508C152.012 17.0162 152.956 15.8695 154.199 15.0055C155.441 14.1468 156.977 13.7148 158.796 13.7148C160.977 13.7148 162.641 14.3228 163.799 15.5442C164.951 16.7655 165.532 18.3975 165.532 20.4508V33.7255H159.761Z" fill="white"/>
<path d="M23.0847 12.5467C29.4634 12.5467 34.6207 17.7147 34.6207 24.0827H46.1567C46.1567 11.336 35.8261 1 23.0687 1C10.3114 1 -0.00860596 11.3253 -0.00860596 24.0773H11.5274C11.5541 17.6987 16.7221 12.5413 23.0847 12.5413V12.5467Z" fill="white"/>
<path d="M26.9927 34.93C31.4407 33.3247 34.614 29.074 34.614 24.082H11.5473C11.5473 29.074 14.726 33.3354 19.1687 34.93V35.1274H2.82733C6.73666 42.29 14.3473 47.1487 23.094 47.1487C31.8407 47.1487 39.4353 42.29 43.3607 35.1274H26.9927V34.93Z" fill="white"/>
</g>
</g>
<rect x="173.991" y="13.5" width="74.3273" height="21" rx="4" fill="#D5F800"/>
<path d="M237.883 28.422C237.083 28.422 236.447 28.246 235.975 27.894C235.503 27.542 235.235 27.046 235.171 26.406H236.323C236.379 26.758 236.539 27.03 236.803 27.222C237.075 27.406 237.443 27.498 237.907 27.498C238.315 27.498 238.627 27.426 238.843 27.282C239.059 27.138 239.167 26.934 239.167 26.67C239.167 26.478 239.103 26.318 238.975 26.19C238.855 26.054 238.615 25.942 238.255 25.854L237.271 25.626C236.655 25.474 236.195 25.25 235.891 24.954C235.595 24.65 235.447 24.278 235.447 23.838C235.447 23.286 235.651 22.854 236.059 22.542C236.475 22.222 237.043 22.062 237.763 22.062C238.475 22.062 239.047 22.222 239.479 22.542C239.919 22.862 240.167 23.31 240.223 23.886H239.071C239.023 23.598 238.883 23.378 238.651 23.226C238.427 23.066 238.119 22.986 237.727 22.986C237.359 22.986 237.075 23.054 236.875 23.19C236.683 23.318 236.587 23.498 236.587 23.73C236.587 23.922 236.659 24.082 236.803 24.21C236.955 24.338 237.203 24.446 237.547 24.534L238.555 24.786C239.139 24.93 239.579 25.166 239.875 25.494C240.171 25.814 240.319 26.202 240.319 26.658C240.319 27.21 240.103 27.642 239.671 27.954C239.247 28.266 238.651 28.422 237.883 28.422Z" fill="#2B3200"/>
<path d="M231.703 28.422C231.119 28.422 230.599 28.286 230.143 28.014C229.687 27.734 229.327 27.354 229.063 26.874C228.807 26.394 228.679 25.846 228.679 25.23C228.679 24.614 228.807 24.07 229.063 23.598C229.327 23.118 229.687 22.742 230.143 22.47C230.599 22.198 231.115 22.062 231.691 22.062C232.179 22.062 232.615 22.154 232.999 22.338C233.383 22.522 233.699 22.778 233.947 23.106C234.195 23.434 234.355 23.822 234.427 24.27H233.251C233.171 23.91 232.995 23.622 232.723 23.406C232.459 23.19 232.123 23.082 231.715 23.082C231.363 23.082 231.055 23.17 230.791 23.346C230.527 23.522 230.323 23.77 230.179 24.09C230.035 24.41 229.963 24.79 229.963 25.23C229.963 25.662 230.035 26.042 230.179 26.37C230.323 26.698 230.527 26.954 230.791 27.138C231.055 27.314 231.367 27.402 231.727 27.402C232.119 27.402 232.451 27.298 232.723 27.09C233.003 26.874 233.183 26.586 233.263 26.226H234.439C234.359 26.666 234.191 27.05 233.935 27.378C233.687 27.706 233.371 27.962 232.987 28.146C232.603 28.33 232.175 28.422 231.703 28.422Z" fill="#2B3200"/>
<path d="M224.733 28.422C224.109 28.422 223.561 28.286 223.089 28.014C222.617 27.734 222.249 27.354 221.985 26.874C221.721 26.386 221.589 25.834 221.589 25.218C221.589 24.594 221.721 24.046 221.985 23.574C222.257 23.102 222.625 22.734 223.089 22.47C223.561 22.198 224.109 22.062 224.733 22.062C225.365 22.062 225.917 22.198 226.389 22.47C226.861 22.734 227.225 23.102 227.481 23.574C227.745 24.046 227.877 24.594 227.877 25.218C227.877 25.834 227.745 26.386 227.481 26.874C227.225 27.354 226.861 27.734 226.389 28.014C225.917 28.286 225.365 28.422 224.733 28.422ZM224.733 27.402C225.109 27.402 225.433 27.31 225.705 27.126C225.985 26.942 226.205 26.686 226.365 26.358C226.525 26.03 226.605 25.646 226.605 25.206C226.605 24.55 226.429 24.034 226.077 23.658C225.733 23.274 225.285 23.082 224.733 23.082C224.189 23.082 223.741 23.274 223.389 23.658C223.045 24.042 222.873 24.558 222.873 25.206C222.873 25.646 222.949 26.03 223.101 26.358C223.261 26.686 223.481 26.942 223.761 27.126C224.049 27.31 224.373 27.402 224.733 27.402Z" fill="#2B3200"/>
<path d="M219.126 28.3021V26.8981L219.246 26.9341C219.118 27.3901 218.854 27.7541 218.454 28.0261C218.054 28.2901 217.574 28.4221 217.014 28.4221C216.462 28.4221 215.978 28.2901 215.562 28.0261C215.154 27.7621 214.834 27.3941 214.602 26.9221C214.378 26.4501 214.266 25.8981 214.266 25.2661C214.266 24.6261 214.382 24.0661 214.614 23.5861C214.846 23.1061 215.17 22.7341 215.586 22.4701C216.002 22.2061 216.49 22.0741 217.05 22.0741C217.634 22.0741 218.114 22.2141 218.49 22.4941C218.874 22.7661 219.126 23.1501 219.246 23.6461L219.078 23.6701V19.6621H220.314V28.3021H219.126ZM217.326 27.3781C217.878 27.3781 218.314 27.1901 218.634 26.8141C218.954 26.4301 219.114 25.9021 219.114 25.2301C219.114 24.5741 218.95 24.0581 218.622 23.6821C218.302 23.2981 217.866 23.1061 217.314 23.1061C216.77 23.1061 216.338 23.2981 216.018 23.6821C215.706 24.0581 215.55 24.5861 215.55 25.2661C215.55 25.9301 215.706 26.4501 216.018 26.8261C216.338 27.1941 216.774 27.3781 217.326 27.3781Z" fill="#2B3200"/>
<path d="M209.399 28.3021V26.8981L209.519 26.9341C209.391 27.3901 209.127 27.7541 208.727 28.0261C208.327 28.2901 207.847 28.4221 207.287 28.4221C206.735 28.4221 206.251 28.2901 205.835 28.0261C205.427 27.7621 205.107 27.3941 204.875 26.9221C204.651 26.4501 204.539 25.8981 204.539 25.2661C204.539 24.6261 204.655 24.0661 204.887 23.5861C205.119 23.1061 205.443 22.7341 205.859 22.4701C206.275 22.2061 206.763 22.0741 207.323 22.0741C207.907 22.0741 208.387 22.2141 208.763 22.4941C209.147 22.7661 209.399 23.1501 209.519 23.6461L209.351 23.6701V19.6621H210.587V28.3021H209.399ZM207.599 27.3781C208.151 27.3781 208.587 27.1901 208.907 26.8141C209.227 26.4301 209.387 25.9021 209.387 25.2301C209.387 24.5741 209.223 24.0581 208.895 23.6821C208.575 23.2981 208.139 23.1061 207.587 23.1061C207.043 23.1061 206.611 23.2981 206.291 23.6821C205.979 24.0581 205.823 24.5861 205.823 25.2661C205.823 25.9301 205.979 26.4501 206.291 26.8261C206.611 27.1941 207.047 27.3781 207.599 27.3781Z" fill="#2B3200"/>
<path d="M200.78 28.422C200.164 28.422 199.62 28.286 199.148 28.014C198.684 27.742 198.32 27.366 198.056 26.886C197.792 26.406 197.66 25.854 197.66 25.23C197.66 24.598 197.788 24.046 198.044 23.574C198.308 23.094 198.676 22.722 199.148 22.458C199.62 22.194 200.16 22.062 200.768 22.062C201.36 22.062 201.872 22.19 202.304 22.446C202.744 22.694 203.08 23.042 203.312 23.49C203.552 23.938 203.672 24.47 203.672 25.086C203.672 25.182 203.668 25.274 203.66 25.362C203.66 25.442 203.652 25.526 203.636 25.614H198.5V24.678H202.76L202.448 25.05C202.448 24.394 202.3 23.894 202.004 23.55C201.708 23.206 201.296 23.034 200.768 23.034C200.2 23.034 199.748 23.23 199.412 23.622C199.084 24.006 198.92 24.542 198.92 25.23C198.92 25.926 199.084 26.47 199.412 26.862C199.748 27.254 200.212 27.45 200.804 27.45C201.164 27.45 201.476 27.378 201.74 27.234C202.004 27.082 202.2 26.862 202.328 26.574H203.504C203.304 27.15 202.964 27.602 202.484 27.93C202.012 28.258 201.444 28.422 200.78 28.422Z" fill="#2B3200"/>
<path d="M195.929 28.3021L193.973 25.5061L191.489 22.1821H192.905L194.693 24.7381L197.345 28.3021H195.929ZM194.057 24.7381L195.881 22.1821H197.249L194.681 25.5901L194.057 24.7381ZM194.561 25.6261L192.593 28.3021H191.213L193.961 24.7501L194.561 25.6261Z" fill="#2B3200"/>
<path d="M188.975 28.3021V22.1821H190.223V28.3021H188.975ZM188.915 20.9821V19.5781H190.295V20.9821H188.915Z" fill="#2B3200"/>
<path d="M181.991 28.3021V19.6621H183.263V28.3021H181.991ZM182.615 24.7141V23.6701H187.367V24.7141H182.615ZM182.615 20.7061V19.6621H187.691V20.7061H182.615Z" fill="#2B3200"/>
<defs>
<clipPath id="clip0_426_831">
<rect width="166" height="48" fill="white" transform="translate(-0.00860596)"/>
</clipPath>
<clipPath id="clip1_426_831">
<rect width="165.541" height="46.1493" fill="white" transform="translate(-0.00860596 1)"/>
</clipPath>
</defs>
</svg>
