<?xml version="1.0" encoding="utf-8"?>
<!-- Generator: Adobe Illustrator 21.1.0, SVG Export Plug-In . SVG Version: 6.00 Build 0)  -->
<svg version="1.1" id="Layer_1" xmlns="http://www.w3.org/2000/svg" xmlns:xlink="http://www.w3.org/1999/xlink" x="0px" y="0px"
	 viewBox="0 0 478 468" style="enable-background:new 0 0 478 468;" xml:space="preserve" width="478" height="468">
<style type="text/css">
	.st0{opacity:0.16;}
	.st1{clip-path:url(#SVGID_2_);}
	.st2{fill:#7171B1;}
	.st3{fill:none;stroke:#FFFFFF;stroke-width:1.88;stroke-miterlimit:10;}
	.st4{clip-path:url(#SVGID_4_);}
	.st5{fill:#FFFFFF;}
	.st6{clip-path:url(#SVGID_6_);}
	.st7{clip-path:url(#SVGID_8_);}
	.st8{clip-path:url(#SVGID_10_);}
	.st9{fill:none;stroke:#CFCFCE;stroke-width:3;stroke-miterlimit:10;}
	.st10{fill:#231F20;}
	.st11{font-family:'Gotham-Medium';}
	.st12{font-size:16px;}
	.st13{opacity:0.6;fill:#231F20;enable-background:new    ;}
	.st14{font-family:'Consolas';}
	.st15{font-size:14px;}
	.st16{opacity:0.6;fill:#010101;enable-background:new    ;}
	.st17{font-size:18px;}
</style>
<title>PS Architecture</title>
<g class="st0">
	<g>
		<g>
			<defs>
				<rect id="SVGID_1_" x="106.4" y="145.6" width="66.7" height="58.5"/>
			</defs>
			<clipPath id="SVGID_2_">
				<use xlink:href="#SVGID_1_"  style="overflow:visible;"/>
			</clipPath>
			<g class="st1">
				<polygon class="st2" points="155.8,204.1 122.4,203.4 106.4,174.1 123.7,145.6 157,146.3 173.1,175.5 				"/>
			</g>
		</g>
	</g>
</g>
<polygon points="126.8,151.3 112.9,174.3 125.8,197.8 152.8,198.3 166.6,175.4 153.6,151.9 "/>
<path class="st3" d="M130.2,166.9c13.8-2.8,19.6,13.3,19.6,13.3"/>
<polyline class="st3" points="146,179.3 150.2,180.9 151.8,176.7 "/>
<path class="st3" d="M151.8,166.9c-13.8-2.8-19.6,13.3-19.6,13.3"/>
<polyline class="st3" points="135.9,179.3 131.8,180.9 130.2,176.7 "/>
<polyline class="st3" points="144,182.9 141,186.1 137.9,182.9 "/>
<line class="st3" x1="141" y1="186.1" x2="141" y2="164.6"/>
<g class="st0">
	<g>
		<g>
			<defs>
				<rect id="SVGID_3_" x="105.8" y="254.8" width="66.7" height="58.5"/>
			</defs>
			<clipPath id="SVGID_4_">
				<use xlink:href="#SVGID_3_"  style="overflow:visible;"/>
			</clipPath>
			<g class="st4">
				<polygon class="st2" points="155.3,313.2 121.9,312.6 105.8,283.3 123.1,254.8 156.5,255.5 172.6,284.7 				"/>
			</g>
		</g>
	</g>
</g>
<polygon points="126.3,260.5 112.4,283.5 125.3,307 152.1,307.5 166,284.6 153.1,261 "/>
<g id="g4">
	<g id="g6">
		<path id="path8" class="st5" d="M125.2,279.2h4.9c1.2-0.1,2.3,0.4,3.1,1.2c0.7,1,0.9,2.2,0.6,3.4c-0.1,0.7-0.3,1.3-0.6,1.9
			s-0.7,1.2-1.2,1.7c-0.5,0.6-1.2,1-2,1.2c-0.7,0.2-1.4,0.3-2.2,0.3h-2.2l-0.7,3.5h-2.6L125.2,279.2 M127.3,281.3l-1.1,5.5h0.2h0.3
			c1,0,2-0.1,2.9-0.4c0.8-0.3,1.3-1.1,1.6-2.7c0.2-1.3,0-2-0.7-2.2c-0.8-0.2-1.6-0.3-2.4-0.3h-0.4L127.3,281.3L127.3,281.3"/>
		<path id="path10" class="st5" d="M136.8,275.7h2.5l-0.7,3.5h2.3c1-0.1,2,0.2,2.8,0.8c0.6,0.5,0.8,1.4,0.6,2.8l-1.2,6.1h-2.6
			l1.2-5.8c0.1-0.4,0.1-0.9-0.1-1.3c-0.3-0.3-0.8-0.4-1.3-0.4h-2l-1.5,7.5h-2.5L136.8,275.7"/>
		<path id="path12" class="st5" d="M147,279.2h4.9c1.2-0.1,2.3,0.4,3.1,1.2c0.7,1,0.9,2.2,0.6,3.4c-0.1,0.7-0.3,1.3-0.6,1.9
			s-0.7,1.2-1.2,1.7c-0.5,0.6-1.2,1-2,1.2c-0.7,0.2-1.4,0.3-2.2,0.3h-2.2l-0.7,3.5h-2.6L147,279.2 M149.1,281.3l-1.1,5.5h0.2h0.3
			c1,0,2-0.1,2.9-0.4c0.8-0.3,1.3-1.1,1.6-2.7c0.2-1.3,0-2-0.7-2.2c-0.8-0.2-1.6-0.3-2.4-0.3h-0.4L149.1,281.3L149.1,281.3"/>
	</g>
</g>
<g class="st0">
	<g>
		<g>
			<defs>
				<rect id="SVGID_5_" x="106.1" y="363.5" width="66.7" height="58.5"/>
			</defs>
			<clipPath id="SVGID_6_">
				<use xlink:href="#SVGID_5_"  style="overflow:visible;"/>
			</clipPath>
			<g class="st6">
				<polygon class="st2" points="155.5,421.9 122.2,421.2 106.1,392 123.4,363.5 156.8,364.1 172.8,393.4 				"/>
			</g>
		</g>
	</g>
</g>
<polygon points="126.5,369.2 112.6,392.1 125.5,415.6 152.4,416.2 166.3,393.2 153.3,369.7 "/>
<path class="st5" d="M133.4,385.5c-0.2,0-0.4,0-0.6,0.1l0,0l0,0c0.1,0.2,0.3,0.4,0.5,0.6c0.1,0.2,0.2,0.5,0.4,0.7l0,0
	c0.2-0.2,0.3-0.5,0.3-0.8c-0.1-0.1-0.1-0.2-0.2-0.3C133.8,385.7,133.5,385.6,133.4,385.5"/>
<path class="st5" d="M148.8,398.6c-1-0.1-2,0.1-2.9,0.4c-0.2,0.1-0.6,0.1-0.6,0.4c0.1,0.1,0.1,0.3,0.2,0.5c0.2,0.3,0.5,0.7,0.8,0.9
	c0.3,0.2,0.6,0.5,1,0.7c0.6,0.4,1.2,0.6,1.8,0.9c0.3,0.2,0.7,0.5,1,0.7c0.2,0.1,0.3,0.3,0.5,0.4l0,0c-0.1-0.1-0.1-0.3-0.2-0.5
	l-0.4-0.4c-0.4-0.6-1-1.1-1.6-1.5c-0.5-0.3-1.5-0.8-1.7-1.3l0,0c0.3-0.1,0.7-0.1,1-0.2c0.5-0.1,1-0.1,1.5-0.2l0.7-0.2V399
	c-0.3-0.3-0.5-0.6-0.8-0.9c-0.8-0.7-1.6-1.3-2.5-1.9c-0.5-0.3-1.1-0.5-1.6-0.8c-0.2-0.1-0.5-0.1-0.6-0.3c-0.2-0.4-0.5-0.8-0.6-1.2
	c-0.4-0.8-0.9-1.8-1.2-2.6c-0.2-0.6-0.5-1.2-0.8-1.7c-1.4-2.4-3.4-4.3-5.8-5.6c-0.6-0.3-1.3-0.5-1.9-0.6l-1.1-0.1
	c-0.2-0.2-0.5-0.3-0.7-0.5c-0.9-0.5-3.1-1.7-3.7-0.2c-0.4,1,0.6,2,1,2.5c0.3,0.4,0.6,0.7,0.8,1.1c0.1,0.3,0.1,0.5,0.2,0.8
	c0.2,0.7,0.5,1.3,0.8,2c0.2,0.3,0.3,0.6,0.6,0.9c0.1,0.2,0.3,0.2,0.4,0.5c-0.2,0.4-0.3,0.7-0.4,1.1c-0.5,1.7-0.4,3.5,0.4,5.1
	c0.2,0.4,0.8,1.2,1.6,0.9s0.5-1.1,0.7-1.9c0-0.2,0-0.3,0.1-0.4l0,0c0.2,0.4,0.4,0.8,0.6,1.2c0.6,0.8,1.2,1.4,2,2
	c0.4,0.3,0.6,0.7,1.1,0.9l0,0l0,0c-0.1-0.1-0.2-0.2-0.4-0.3c-0.3-0.3-0.6-0.6-0.8-0.9c-0.6-0.9-1.2-1.8-1.7-2.8
	c-0.2-0.5-0.4-1-0.6-1.5c-0.1-0.2-0.1-0.5-0.2-0.5c-0.3,0.3-0.5,0.6-0.7,1c-0.2,0.7-0.4,1.5-0.4,2.3c-0.1,0,0,0-0.1,0
	c-0.5-0.1-0.6-0.6-0.8-1c-0.5-1.3-0.5-2.7-0.1-4c0.1-0.3,0.6-1.3,0.4-1.6s-0.4-0.5-0.6-0.7c-0.2-0.3-0.4-0.7-0.5-1
	c-0.4-0.8-0.5-1.8-0.9-2.6c-0.2-0.4-0.5-0.8-0.8-1.2c-0.3-0.4-0.6-0.8-0.8-1.2c-0.1-0.2-0.2-0.4-0.1-0.6c0-0.1,0.1-0.2,0.2-0.2
	c0.2-0.2,0.8,0,1,0.1c0.5,0.2,1,0.4,1.5,0.8c0.2,0.1,0.4,0.4,0.7,0.5h0.3c0.5,0.1,1,0,1.5,0.2c0.8,0.2,1.5,0.6,2.2,1
	c2,1.3,3.6,3.1,4.7,5.2c0.2,0.4,0.3,0.7,0.4,1c0.3,0.7,0.7,1.5,1,2.2s0.6,1.4,1.1,2c0.2,0.3,1.1,0.5,1.5,0.6c0.3,0.1,0.7,0.3,1,0.4
	c0.5,0.3,1,0.7,1.5,1c0.2,0.2,1,0.6,1,0.9"/>
<g class="st0">
	<g>
		<g>
			<defs>
				<rect id="SVGID_7_" x="198.3" y="363.5" width="66.7" height="58.5"/>
			</defs>
			<clipPath id="SVGID_8_">
				<use xlink:href="#SVGID_7_"  style="overflow:visible;"/>
			</clipPath>
			<g class="st7">
				<polygon class="st2" points="247.8,421.9 214.4,421.2 198.3,392 215.6,363.5 249,364.1 265,393.4 				"/>
			</g>
		</g>
	</g>
</g>
<polygon points="218.8,369.2 204.8,392.1 217.8,415.6 244.6,416.2 258.5,393.2 245.6,369.7 "/>
<path class="st5" d="M242.4,395.5L242.4,395.5c-1.3,0.7-7.7,3.3-9.1,4c-1,0.7-2.2,0.7-3.2,0.2c-1.1-0.5-8-3.3-9.2-3.9l0,0l0,0
	c-1.2,0.5-1.2,0.9,0,1.5s8.1,3.4,9.2,3.9c1,0.6,2.3,0.5,3.2-0.2c1.4-0.7,7.8-3.4,9.1-4S243.8,395.9,242.4,395.5z"/>
<path class="st5" d="M242.4,391.6l-0.2-0.1c-1.6,0.8-7.6,3.2-8.9,3.9c-1,0.7-2.2,0.7-3.2,0.2s-7.5-3.1-9-3.8l-0.2,0.1
	c-1.2,0.5-1.2,0.9,0,1.5s8.1,3.4,9.2,3.9c1,0.6,2.3,0.5,3.2-0.2c1.4-0.7,7.8-3.4,9.1-4S243.8,392.1,242.4,391.6z"/>
<path class="st5" d="M242.4,387.6c-1.2-0.5-7.6-3-8.9-3.5c-1-0.5-2.2-0.4-3.2,0.1c-1.4,0.5-8.3,3.2-9.5,3.7s-1.2,0.9,0,1.5
	s8.1,3.4,9.2,3.9c1,0.6,2.3,0.5,3.2-0.2c1.4-0.7,7.8-3.4,9.1-4S243.8,388.1,242.4,387.6z M224,388.6c0-0.6,1.3-1.1,2.9-1.1
	s2.9,0.5,2.9,1.1s-1.3,1.1-2.9,1.1S224,389.2,224,388.6L224,388.6z M232.1,392.1l-3.8-1.6l5.4-0.8L232.1,392.1z M232.8,387l-0.4,1.1
	l-0.7-1.2l-2.3-0.2l1.8-0.6l-0.5-1l1.6,0.6l1.5-0.5l-0.4,1l1.6,0.6L232.8,387z"/>
<g class="st0">
	<g>
		<g>
			<defs>
				<rect id="SVGID_9_" x="11.3" y="363.5" width="66.7" height="58.5"/>
			</defs>
			<clipPath id="SVGID_10_">
				<use xlink:href="#SVGID_9_"  style="overflow:visible;"/>
			</clipPath>
			<g class="st8">
				<polygon class="st2" points="60.8,421.9 27.4,421.2 11.3,392 28.6,363.5 62,364.1 78,393.4 				"/>
			</g>
		</g>
	</g>
</g>
<polygon points="31.7,369.2 17.8,392.1 30.8,415.6 57.6,416.2 71.5,393.2 58.6,369.7 "/>
<path class="st5" d="M51.5,386.3l-9.2,10l11.6-5.3C53.5,389.2,52.7,387.6,51.5,386.3z"/>
<path class="st5" d="M44.7,383.3c-1.2,0-2.5,0.2-3.6,0.7l-1.2,10.4l6.2-11C45.6,383.4,45.1,383.4,44.7,383.3z"/>
<path class="st5" d="M53.9,391.5l-11,6.1l10.3-1.2c0.5-1.2,0.8-2.4,0.8-3.7C54,392.3,54,391.9,53.9,391.5z"/>
<path class="st5" d="M49.9,400.5c1.2-0.8,2.3-1.9,3-3.2l-9.6,1.9L49.9,400.5z"/>
<path class="st5" d="M46.6,383.5l-5.4,11.6l10-9.2C49.9,384.7,48.3,383.9,46.6,383.5z"/>
<path class="st5" d="M45.4,402c1-0.1,2-0.3,2.9-0.7l-5.4-0.6L45.4,402z"/>
<path class="st5" d="M36.1,388.9c-0.4,0.9-0.7,2-0.8,3l1.5,2.6L36.1,388.9z"/>
<path class="st5" d="M40.3,384.4c-1.3,0.7-2.5,1.7-3.3,3l1.4,6.8L40.3,384.4z"/>
<path class="st9" d="M45.3,363.7c0-14.3,18.1-25.9,40.5-25.9"/>
<path class="st9" d="M126,311.9c0,14.3-18.1,25.9-40.5,25.9"/>
<path class="st9" d="M233.2,363.7c0-14.3-18.1-25.9-40.5-25.9"/>
<path class="st9" d="M152.5,311.9c0,14.3,18.1,25.9,40.5,25.9"/>
<line class="st9" x1="139.9" y1="204.2" x2="139.9" y2="254.9"/>
<line class="st9" x1="140" y1="313" x2="140" y2="363.9"/>
<text transform="matrix(1 0 0 1 290.58 170.6)" class="st10 st11 st12">Router</text>
<text transform="matrix(1 0 0 1 290.58 189.42)" class="st13 st14 st15">.platform/routes.yaml</text>
<text transform="matrix(1 0 0 1 290.58 279.79)" class="st10 st11 st12">Application</text>
<text transform="matrix(1 0 0 1 290.58 298.61)" class="st13 st14 st15">.platform.app.yaml</text>
<text transform="matrix(1 0 0 1 290.58 388.47)" class="st10 st11 st12">Services</text>
<text transform="matrix(1 0 0 1 290.58 407.29)" class="st13 st14 st15">.platform/services.yaml</text>
<path class="st16" d="M148.4,90.5l-1.1-0.3c3-4.2,2.1-10-2.1-13c-4.2-3-10-2.1-13,2.1c-2.3,3.3-2.3,7.6,0,10.9l-1.1,0.3
	c-2.7,0.8-4.6,3.3-4.6,6.1V98c0,2.2,1.8,4,4,4l0,0H149c2.2,0,4-1.8,4-4v-1.4C153,93.8,151.1,91.3,148.4,90.5L148.4,90.5z
	 M132.9,84.8c0-3.8,3.1-6.8,6.9-6.8c3.8,0,6.8,3.1,6.8,6.8s-3.1,6.8-6.8,6.8C136,91.6,132.9,88.6,132.9,84.8L132.9,84.8L132.9,84.8z
	 M150.5,98c0,0.9-0.7,1.5-1.5,1.5h-18.5c-0.9,0-1.5-0.7-1.5-1.5l0,0v-1.4c0-1.7,1.1-3.2,2.8-3.7l2.4-0.7c3.3,2.5,7.9,2.5,11.2,0
	l2.4,0.7c1.7,0.5,2.8,2,2.8,3.7L150.5,98L150.5,98z"/>
<line class="st9" x1="140.9" y1="110" x2="140.9" y2="135.3"/>
<polyline class="st9" points="147.5,128.7 140.9,135.3 134.4,128.8 "/>
<text transform="matrix(1 0 0 1 92.3735 38)" class="st10 st11 st17">Typical Platform.sh Architecture</text>
</svg>
