<?xml version="1.0" encoding="utf-8"?>
<!-- Generator: Adobe Illustrator 21.1.0, SVG Export Plug-In . SVG Version: 6.00 Build 0)  -->
<svg version="1.1" id="Layer_1" xmlns="http://www.w3.org/2000/svg" xmlns:xlink="http://www.w3.org/1999/xlink" x="0px" y="0px"
	 viewBox="0 0 727 546.9" style="enable-background:new 0 0 727 546.9;" xml:space="preserve" width="727" height="547">
<style type="text/css">
	.st0{fill:none;stroke:#CFCFCE;stroke-width:3;stroke-miterlimit:10;}
	.st1{opacity:0.3;}
	.st2{opacity:0.16;}
	.st3{clip-path:url(#SVGID_2_);}
	.st4{fill:#7171B1;}
	.st5{fill:none;stroke:#FFFFFF;stroke-width:1.88;stroke-miterlimit:10;}
	.st6{clip-path:url(#SVGID_4_);}
	.st7{fill:#FFFFFF;}
	.st8{opacity:0.3;fill:none;stroke:#CFCFCE;stroke-width:3;stroke-miterlimit:10;enable-background:new    ;}
	.st9{opacity:0.6;fill:#010101;enable-background:new    ;}
	.st10{fill:#231F20;}
	.st11{font-family:'Gotham-Medium';}
	.st12{font-size:16px;}
	.st13{opacity:0.6;fill:#231F20;enable-background:new    ;}
	.st14{font-family:'Consolas';}
	.st15{font-size:14px;}
	.st16{fill:none;stroke:#333333;stroke-miterlimit:10;}
	.st17{fill:#333333;}
	.st18{font-size:12px;}
	.st19{enable-background:new    ;}
	.st20{fill:#4183C4;}
	.st21{fill:#42C160;}
	.st22{fill:#BF4343;}
	.st23{fill:#E8E8E8;stroke:#333333;stroke-miterlimit:10;}
	.st24{font-size:18px;}
	.st25{clip-path:url(#SVGID_6_);}
	.st26{clip-path:url(#SVGID_8_);}
	.st27{clip-path:url(#SVGID_10_);}
</style>
<title>Relationships</title>
<line class="st0" x1="225.5" y1="388.5" x2="225.5" y2="418.4"/>
<g class="st1">
	<g class="st2">
		<g>
			<defs>
				<rect id="SVGID_1_" x="106.3" y="145.8" width="66.7" height="58.5"/>
			</defs>
			<clipPath id="SVGID_2_">
				<use xlink:href="#SVGID_1_"  style="overflow:visible;"/>
			</clipPath>
			<g class="st3">
				<polygon class="st4" points="155.7,204.2 122.3,203.6 106.3,174.3 123.6,145.8 156.9,146.4 173,175.7 				"/>
			</g>
		</g>
	</g>
	<polygon points="126.7,151.5 112.8,174.4 125.7,198 152.6,198.5 166.5,175.6 153.5,152 	"/>
	<path class="st5" d="M130.1,167.1c13.8-2.8,19.6,13.3,19.6,13.3"/>
	<polyline class="st5" points="145.9,179.4 150.1,181.1 151.6,176.9 	"/>
	<path class="st5" d="M151.6,167.1c-13.8-2.8-19.6,13.3-19.6,13.3"/>
	<polyline class="st5" points="135.8,179.4 131.6,181.1 130.1,176.9 	"/>
	<polyline class="st5" points="143.9,183.1 140.9,186.3 137.8,183.1 	"/>
	<line class="st5" x1="140.9" y1="186.3" x2="140.9" y2="164.8"/>
</g>
<g class="st2">
	<g>
		<defs>
			<rect id="SVGID_3_" x="105.7" y="254.5" width="66.7" height="58.5"/>
		</defs>
		<clipPath id="SVGID_4_">
			<use xlink:href="#SVGID_3_"  style="overflow:visible;"/>
		</clipPath>
		<g class="st6">
			<polygon class="st4" points="155.2,313 121.8,312.3 105.7,283 123,254.5 156.4,255.2 172.5,284.4 			"/>
		</g>
	</g>
</g>
<polygon points="126.2,260.2 112.3,283.2 125.2,306.7 152,307.2 165.9,284.3 153,260.8 "/>
<g id="g4">
	<g id="g6">
		<path id="path8" class="st7" d="M125.1,278.9h4.9c1.2-0.1,2.3,0.4,3.1,1.2c0.7,1,0.9,2.2,0.6,3.4c-0.1,0.7-0.3,1.3-0.6,1.9
			c-0.3,0.6-0.7,1.2-1.2,1.7c-0.5,0.6-1.2,1-2,1.2c-0.7,0.2-1.4,0.3-2.2,0.3h-2.2L125,292h-2.6L125.1,278.9 M127.2,281l-1.1,5.5h0.2
			h0.3c1,0,2-0.1,2.9-0.4c0.8-0.3,1.3-1.1,1.6-2.7c0.2-1.3,0-2-0.7-2.2c-0.8-0.2-1.6-0.3-2.4-0.3h-0.4L127.2,281L127.2,281"/>
		<path id="path10" class="st7" d="M136.7,275.4h2.5l-0.7,3.5h2.3c1-0.1,2,0.2,2.8,0.8c0.6,0.5,0.8,1.4,0.6,2.8l-1.2,6.1h-2.6
			l1.2-5.8c0.1-0.4,0.1-0.9-0.1-1.3c-0.3-0.3-0.8-0.4-1.3-0.4h-2l-1.5,7.5h-2.5L136.7,275.4"/>
		<path id="path12" class="st7" d="M146.9,278.9h4.9c1.2-0.1,2.3,0.4,3.1,1.2c0.7,1,0.9,2.2,0.6,3.4c-0.1,0.7-0.3,1.3-0.6,1.9
			c-0.3,0.6-0.7,1.2-1.2,1.7c-0.5,0.6-1.2,1-2,1.2c-0.7,0.2-1.4,0.3-2.2,0.3h-2.2l-0.7,3.5h-2.6L146.9,278.9 M149,281l-1.1,5.5h0.2
			h0.3c1,0,2-0.1,2.9-0.4c0.8-0.3,1.3-1.1,1.6-2.7c0.2-1.3,0-2-0.7-2.2c-0.8-0.2-1.6-0.3-2.4-0.3h-0.4L149,281L149,281"/>
	</g>
</g>
<line class="st8" x1="139.8" y1="204.2" x2="139.8" y2="254.9"/>
<g class="st1">
	<path class="st9" d="M148.3,90.5l-1.1-0.3c3-4.2,2.1-10-2.1-13c-4.2-3-10-2.1-13,2.1c-2.3,3.3-2.3,7.6,0,10.9l-1.1,0.3
		c-2.7,0.8-4.6,3.3-4.6,6.1V98c0,2.2,1.8,4,4,4l0,0h18.5c2.2,0,4-1.8,4-4v-1.4C152.9,93.8,151,91.3,148.3,90.5L148.3,90.5z
		 M132.8,84.8c0-3.8,3.1-6.8,6.9-6.8c3.8,0,6.8,3.1,6.8,6.8s-3.1,6.8-6.8,6.8C135.9,91.6,132.8,88.6,132.8,84.8
		C132.8,84.8,132.8,84.8,132.8,84.8L132.8,84.8z M150.4,98c0,0.9-0.7,1.5-1.5,1.5h-18.5c-0.9,0-1.5-0.7-1.5-1.5v0v-1.4
		c0-1.7,1.1-3.2,2.8-3.7l2.4-0.7c3.3,2.5,7.9,2.5,11.2,0l2.4,0.7c1.7,0.5,2.8,2,2.8,3.7L150.4,98L150.4,98z"/>
	<line class="st0" x1="140.8" y1="110" x2="140.8" y2="135.3"/>
	<polyline class="st0" points="147.4,128.7 140.8,135.3 134.3,128.8 	"/>
</g>
<g class="st1">
	<text transform="matrix(1 0 0 1 541.68 170.6)" class="st10 st11 st12">Router</text>
	<text transform="matrix(1 0 0 1 541.68 189.42)" class="st13 st14 st15">.platform/routes.yaml</text>
</g>
<text transform="matrix(1 0 0 1 541.68 332.68)" class="st10 st11 st12">Application</text>
<text transform="matrix(1 0 0 1 541.68 351.5)" class="st13 st14 st15">.platform.app.yaml</text>
<path class="st0" d="M45.2,416.9c0-7.9,18.1-14.2,40.5-14.2"/>
<path class="st0" d="M125.9,388.5c0,7.9-18.1,14.2-40.5,14.2"/>
<path class="st0" d="M406.3,418.4c0-8.3-26.1-15-58.2-15"/>
<path class="st0" d="M290.4,388.5c0,8.3,26.1,15,58.2,15"/>
<text transform="matrix(1 0 0 1 541.68 437.12)" class="st10 st11 st12">Services</text>
<text transform="matrix(1 0 0 1 541.68 455.94)" class="st13 st14 st15">.platform/services.yaml</text>
<polygon class="st16" points="313.1,388.6 106.3,388.6 106.3,298.6 293.3,298.6 313.1,318.8 "/>
<text transform="matrix(1 0 0 1 123.12 325.15)" class="st17 st14 st18">relationships:</text>
<text transform="matrix(1 0 0 1 143.12 339.55)" class="st19"><tspan x="0" y="0" class="st17 st14 st18">solr: </tspan><tspan x="39.6" y="0" class="st20 st14 st18">solrsearch</tspan><tspan x="105.6" y="0" class="st17 st14 st18">:solr</tspan></text>
<text transform="matrix(1 0 0 1 143.12 353.95)" class="st19"><tspan x="0" y="0" class="st17 st14 st18">database: </tspan><tspan x="66" y="0" class="st21 st14 st18">mysqldb</tspan><tspan x="112.2" y="0" class="st17 st14 st18">:mysql</tspan></text>
<text transform="matrix(1 0 0 1 143.12 368.35)" class="st19"><tspan x="0" y="0" class="st17 st14 st18">redis: </tspan><tspan x="46.2" y="0" class="st22 st14 st18">rediscache</tspan><tspan x="112.2" y="0" class="st17 st14 st18">:redis</tspan></text>
<polyline class="st23" points="312.5,318.9 292.7,318.9 292.7,299.1 "/>
<polygon class="st16" points="171.7,534.4 12.9,534.4 12.9,460.4 151.8,460.4 171.7,480.6 "/>
<text transform="matrix(1 0 0 1 29.66 486.95)" class="st19"><tspan x="0" y="0" class="st20 st14 st18">solrsearch</tspan><tspan x="66" y="0" class="st17 st14 st18">:</tspan></text>
<text transform="matrix(1 0 0 1 49.66 501.35)" class="st17 st14 st18">type: solr:4.10</text>
<text transform="matrix(1 0 0 1 49.66 515.75)" class="st17 st14 st18">disk: 1024</text>
<polyline class="st23" points="171.1,480.7 151.3,480.7 151.3,460.9 "/>
<polygon class="st16" points="351.7,534.4 192.9,534.4 192.9,460.4 331.9,460.4 351.7,480.6 "/>
<text transform="matrix(1 0 0 1 209.72 486.95)" class="st19"><tspan x="0" y="0" class="st21 st14 st18">mysqldb</tspan><tspan x="46.2" y="0" class="st17 st14 st18">:</tspan></text>
<text transform="matrix(1 0 0 1 229.72 501.35)" class="st17 st14 st18">type: mysql:10.0</text>
<text transform="matrix(1 0 0 1 229.72 515.75)" class="st17 st14 st18">disk: 2048</text>
<polyline class="st23" points="351.1,480.7 331.3,480.7 331.3,460.9 "/>
<polygon class="st16" points="532.2,534.4 373.4,534.4 373.4,460.4 512.3,460.4 532.2,480.6 "/>
<text transform="matrix(1 0 0 1 390.15 486.95)" class="st19"><tspan x="0" y="0" class="st22 st14 st18">rediscache</tspan><tspan x="66" y="0" class="st17 st14 st18">:</tspan></text>
<text transform="matrix(1 0 0 1 410.15 501.35)" class="st17 st14 st18">type: redis:3.0</text>
<polyline class="st23" points="531.6,480.7 511.8,480.7 511.8,460.9 "/>
<text transform="matrix(1 0 0 1 285.26 38)" class="st10 st11 st24">Relationships</text>
<g class="st2">
	<g>
		<defs>
			<rect id="SVGID_5_" x="191.7" y="416.9" width="66.7" height="58.5"/>
		</defs>
		<clipPath id="SVGID_6_">
			<use xlink:href="#SVGID_5_"  style="overflow:visible;"/>
		</clipPath>
		<g class="st25">
			<polygon class="st4" points="241.1,475.4 207.8,474.7 191.7,445.4 209,416.9 242.3,417.6 258.4,446.8 			"/>
		</g>
	</g>
</g>
<polygon points="212.1,422.6 198.2,445.6 211.1,469.1 238,469.6 251.9,446.7 238.9,423.2 "/>
<path class="st7" d="M219,439c-0.2,0-0.4,0-0.6,0.1l0,0l0,0c0.1,0.2,0.3,0.4,0.5,0.6c0.1,0.2,0.2,0.5,0.4,0.7l0,0
	c0.2-0.2,0.3-0.5,0.3-0.8c-0.1-0.1-0.1-0.2-0.2-0.3C219.3,439.2,219.1,439.1,219,439"/>
<path class="st7" d="M234.4,452.1c-1-0.1-2,0.1-2.9,0.4c-0.2,0.1-0.6,0.1-0.6,0.4c0.1,0.1,0.1,0.3,0.2,0.5c0.2,0.3,0.5,0.7,0.8,0.9
	c0.3,0.2,0.6,0.5,1,0.7c0.6,0.4,1.2,0.6,1.8,0.9c0.3,0.2,0.7,0.5,1,0.7c0.2,0.1,0.3,0.3,0.5,0.4l0,0c-0.1-0.1-0.1-0.3-0.2-0.5
	l-0.4-0.4c-0.4-0.6-1-1.1-1.6-1.5c-0.5-0.3-1.5-0.8-1.7-1.3l0,0c0.3-0.1,0.7-0.1,1-0.2c0.5-0.1,1-0.1,1.5-0.2l0.7-0.2v-0.1
	c-0.3-0.3-0.5-0.6-0.8-0.9c-0.8-0.7-1.6-1.3-2.5-1.9c-0.5-0.3-1.1-0.5-1.6-0.8c-0.2-0.1-0.5-0.1-0.6-0.3c-0.2-0.4-0.5-0.8-0.6-1.2
	c-0.4-0.8-0.9-1.8-1.2-2.6c-0.2-0.6-0.5-1.2-0.8-1.7c-1.4-2.4-3.4-4.3-5.8-5.6c-0.6-0.3-1.3-0.5-1.9-0.6l-1.1-0.1
	c-0.2-0.2-0.5-0.3-0.7-0.5c-0.9-0.5-3.1-1.7-3.7-0.2c-0.4,1,0.6,2,1,2.5c0.3,0.4,0.6,0.7,0.8,1.1c0.1,0.3,0.1,0.5,0.2,0.8
	c0.2,0.7,0.5,1.3,0.8,2c0.2,0.3,0.3,0.6,0.6,0.9c0.1,0.2,0.3,0.2,0.4,0.5c-0.2,0.4-0.3,0.7-0.4,1.1c-0.5,1.7-0.4,3.5,0.4,5.1
	c0.2,0.4,0.8,1.2,1.6,0.9s0.5-1.1,0.7-1.9c0-0.2,0-0.3,0.1-0.4l0,0c0.2,0.4,0.4,0.8,0.6,1.2c0.6,0.8,1.2,1.4,2,2
	c0.4,0.3,0.6,0.7,1.1,0.9l0,0l0,0c-0.1-0.1-0.2-0.2-0.4-0.3c-0.3-0.3-0.6-0.6-0.8-0.9c-0.6-0.9-1.2-1.8-1.7-2.8
	c-0.2-0.5-0.4-1-0.6-1.5c-0.1-0.2-0.1-0.5-0.2-0.5c-0.3,0.3-0.5,0.6-0.7,1c-0.2,0.7-0.4,1.5-0.4,2.3c-0.1,0,0,0-0.1,0
	c-0.5-0.1-0.6-0.6-0.8-1c-0.5-1.3-0.5-2.7-0.1-4c0.1-0.3,0.6-1.3,0.4-1.6s-0.4-0.5-0.6-0.7c-0.2-0.3-0.4-0.7-0.5-1
	c-0.4-0.8-0.5-1.8-0.9-2.6c-0.2-0.4-0.5-0.8-0.8-1.2c-0.3-0.4-0.6-0.8-0.8-1.2c-0.1-0.2-0.2-0.4-0.1-0.6c0-0.1,0.1-0.2,0.2-0.2
	c0.2-0.2,0.8,0,1,0.1c0.5,0.2,1,0.4,1.5,0.8c0.2,0.1,0.4,0.4,0.7,0.5h0.3c0.5,0.1,1,0,1.5,0.2c0.8,0.2,1.5,0.6,2.2,1
	c2,1.3,3.6,3.1,4.7,5.2c0.2,0.4,0.3,0.7,0.4,1c0.3,0.7,0.7,1.5,1,2.2c0.3,0.7,0.6,1.4,1.1,2c0.2,0.3,1.1,0.5,1.5,0.6
	c0.3,0.1,0.7,0.3,1,0.4c0.5,0.3,1,0.7,1.5,1c0.2,0.2,1,0.6,1,0.9"/>
<g class="st2">
	<g>
		<defs>
			<rect id="SVGID_7_" x="373" y="418.4" width="66.7" height="58.5"/>
		</defs>
		<clipPath id="SVGID_8_">
			<use xlink:href="#SVGID_7_"  style="overflow:visible;"/>
		</clipPath>
		<g class="st26">
			<polygon class="st4" points="422.4,476.9 389,476.2 373,447 390.2,418.4 423.6,419.1 439.7,448.4 			"/>
		</g>
	</g>
</g>
<polygon points="393.4,424.1 379.5,447.1 392.4,470.6 419.3,471.2 433.2,448.2 420.2,424.7 "/>
<path class="st7" d="M417.1,450.5L417.1,450.5c-1.3,0.7-7.7,3.3-9,4c-1,0.7-2.2,0.7-3.2,0.2c-1.1-0.5-8-3.3-9.2-3.9l0,0l0,0
	c-1.2,0.5-1.2,0.9,0,1.5s8.1,3.4,9.2,3.9c1,0.6,2.3,0.5,3.2-0.2c1.4-0.7,7.8-3.4,9.1-4S418.3,450.9,417.1,450.5z"/>
<path class="st7" d="M417.1,446.6l-0.2-0.1c-1.6,0.8-7.6,3.2-8.9,3.9c-1,0.7-2.2,0.7-3.2,0.2c-1-0.5-7.5-3.1-9-3.8l-0.2,0.1
	c-1.2,0.5-1.2,0.9,0,1.5s8.1,3.4,9.2,3.9c1,0.6,2.3,0.5,3.2-0.2c1.4-0.7,7.8-3.4,9.1-4S418.3,447,417.1,446.6z"/>
<path class="st7" d="M417.1,442.6c-1.2-0.5-7.6-3-8.9-3.5c-1-0.5-2.2-0.4-3.2,0.1c-1.5,0.5-8.3,3.2-9.5,3.7s-1.2,0.9,0,1.5
	s8.1,3.4,9.2,3.9c1,0.6,2.3,0.5,3.2-0.2c1.4-0.7,7.8-3.4,9.1-4S418.3,443,417.1,442.6z M398.6,443.5c0-0.6,1.3-1.1,2.9-1.1
	s2.9,0.5,2.9,1.1s-1.3,1.1-2.9,1.1S398.7,444.1,398.6,443.5L398.6,443.5z M406.8,447.1l-3.8-1.6l5.4-0.8L406.8,447.1z M407.4,442
	l-0.5,1.1l-0.7-1.2l-2.3-0.2l1.8-0.6l-0.5-1l1.6,0.6l1.5-0.5l-0.4,1l1.6,0.6L407.4,442z"/>
<g class="st2">
	<g>
		<defs>
			<rect id="SVGID_9_" x="11.2" y="416.9" width="66.7" height="58.5"/>
		</defs>
		<clipPath id="SVGID_10_">
			<use xlink:href="#SVGID_9_"  style="overflow:visible;"/>
		</clipPath>
		<g class="st27">
			<polygon class="st4" points="60.7,475.4 27.3,474.7 11.2,445.4 28.5,416.9 61.9,417.6 77.9,446.8 			"/>
		</g>
	</g>
</g>
<polygon points="31.6,422.6 17.7,445.6 30.7,469.1 57.5,469.6 71.4,446.7 58.5,423.2 "/>
<path class="st7" d="M51.4,439.7l-9.2,10l11.6-5.3C53.4,442.7,52.6,441,51.4,439.7z"/>
<path class="st7" d="M44.6,436.8c-1.2,0-2.5,0.2-3.6,0.7l-1.2,10.4l6.2-11C45.5,436.8,45,436.8,44.6,436.8z"/>
<path class="st7" d="M53.8,444.9l-11,6.1l10.3-1.2c0.5-1.2,0.8-2.4,0.8-3.7C53.9,445.7,53.9,445.3,53.8,444.9z"/>
<path class="st7" d="M49.8,453.9c1.2-0.8,2.3-1.9,3-3.2l-9.6,1.9L49.8,453.9z"/>
<path class="st7" d="M46.5,437l-5.4,11.6l10-9.2C49.8,438.2,48.2,437.3,46.5,437z"/>
<path class="st7" d="M45.3,455.5c1-0.1,2-0.3,2.9-0.7l-5.4-0.6L45.3,455.5z"/>
<path class="st7" d="M36,442.3c-0.4,0.9-0.7,2-0.8,3l1.5,2.6L36,442.3z"/>
<path class="st7" d="M40.2,437.9c-1.3,0.7-2.5,1.7-3.3,3l1.4,6.8L40.2,437.9z"/>
</svg>
