<?xml version="1.0" encoding="utf-8"?>
<!-- Generator: Adobe Illustrator 21.1.0, SVG Export Plug-In . SVG Version: 6.00 Build 0)  -->
<svg version="1.1" id="Layer_1" xmlns="http://www.w3.org/2000/svg" xmlns:xlink="http://www.w3.org/1999/xlink" x="0px" y="0px"
	 viewBox="0 0 580.2 520" style="enable-background:new 0 0 580.2 520;" xml:space="preserve" width="580" height="520">
<style type="text/css">
	.st0{fill:#231F20;}
	.st1{font-family:'Gotham-Medium';}
	.st2{font-size:18px;}
	.st3{fill:none;stroke:#CFCFCE;stroke-width:3;stroke-miterlimit:10;}
	.st4{fill:none;stroke:#333333;stroke-miterlimit:10;}
	.st5{fill:#333333;}
	.st6{font-family:'Consolas';}
	.st7{font-size:12px;}
	.st8{fill:#4183C4;}
	.st9{fill:#E8E8E8;stroke:#333333;stroke-miterlimit:10;}
	.st10{opacity:0.16;}
	.st11{clip-path:url(#SVGID_2_);}
	.st12{fill:#7171B1;}
	.st13{fill:none;stroke:#FFFFFF;stroke-width:1.88;stroke-miterlimit:10;}
	.st14{opacity:0.3;}
	.st15{opacity:0.6;fill:#010101;enable-background:new    ;}
	.st16{font-size:16px;}
	.st17{opacity:0.6;fill:#231F20;enable-background:new    ;}
	.st18{font-size:14px;}
	.st19{clip-path:url(#SVGID_4_);}
	.st20{fill:#FFFFFF;}
	.st21{clip-path:url(#SVGID_6_);}
	.st22{clip-path:url(#SVGID_8_);}
	.st23{clip-path:url(#SVGID_10_);}
</style>
<title>Routes - files</title>
<text transform="matrix(1 0 0 1 258.49 38)" class="st0 st1 st2">Routes</text>
<line class="st3" x1="139.8" y1="269.4" x2="139.8" y2="299.4"/>
<polygon class="st4" points="297.6,269.4 98.8,269.4 98.8,189.4 277.8,189.4 297.6,209.6 "/>
<text transform="matrix(1 0 0 1 115.61 215.96)" class="st5 st6 st7">https://www.{default}:</text>
<text transform="matrix(1 0 0 1 135.61 230.36)" class="st5 st6 st7">type: upstream</text>
<text transform="matrix(1 0 0 1 135.61 244.76)" class="st5 st6 st7">upstream: </text>
<text transform="matrix(1 0 0 1 203.01 244.76)" class="st8 st6 st7">myapp</text>
<text transform="matrix(1 0 0 1 236.01 244.76)" class="st5 st6 st7">:http</text>
<polyline class="st9" points="297,209.7 277.2,209.7 277.2,189.9 "/>
<g class="st10">
	<g>
		<g>
			<defs>
				<rect id="SVGID_1_" x="106.3" y="145.8" width="66.7" height="58.5"/>
			</defs>
			<clipPath id="SVGID_2_">
				<use xlink:href="#SVGID_1_"  style="overflow:visible;"/>
			</clipPath>
			<g class="st11">
				<polygon class="st12" points="155.7,204.2 122.3,203.6 106.3,174.3 123.6,145.8 156.9,146.4 173,175.7 				"/>
			</g>
		</g>
	</g>
</g>
<polygon points="126.7,151.5 112.8,174.4 125.7,198 152.6,198.5 166.5,175.6 153.5,152 "/>
<path class="st13" d="M130.1,167.1c13.8-2.8,19.6,13.3,19.6,13.3"/>
<polyline class="st13" points="145.9,179.4 150.1,181.1 151.6,176.9 "/>
<path class="st13" d="M151.6,167.1c-13.8-2.8-19.6,13.3-19.6,13.3"/>
<polyline class="st13" points="135.8,179.4 131.6,181.1 130.1,176.9 "/>
<polyline class="st13" points="143.9,183.1 140.9,186.3 137.8,183.1 "/>
<line class="st13" x1="140.9" y1="186.3" x2="140.9" y2="164.8"/>
<g class="st14">
	<path class="st15" d="M148.3,90.5l-1.1-0.3c3-4.2,2.1-10-2.1-13c-4.2-3-10-2.1-13,2.1c-2.3,3.3-2.3,7.6,0,10.9l-1.1,0.3
		c-2.7,0.8-4.6,3.3-4.6,6.1V98c0,2.2,1.8,4,4,4l0,0h18.5c2.2,0,4-1.8,4-4v-1.4C152.9,93.8,151,91.3,148.3,90.5L148.3,90.5z
		 M132.8,84.8c0-3.8,3.1-6.8,6.9-6.8c3.8,0,6.8,3.1,6.8,6.8s-3.1,6.8-6.8,6.8C135.9,91.6,132.8,88.6,132.8,84.8L132.8,84.8
		L132.8,84.8z M150.4,98c0,0.9-0.7,1.5-1.5,1.5h-18.5c-0.9,0-1.5-0.7-1.5-1.5l0,0v-1.4c0-1.7,1.1-3.2,2.8-3.7l2.4-0.7
		c3.3,2.5,7.9,2.5,11.2,0l2.4,0.7c1.7,0.5,2.8,2,2.8,3.7L150.4,98L150.4,98z"/>
	<line class="st3" x1="140.8" y1="110" x2="140.8" y2="135.3"/>
	<polyline class="st3" points="147.4,128.7 140.8,135.3 134.3,128.8 	"/>
</g>
<text transform="matrix(1 0 0 1 359.11 170.6)" class="st0 st1 st16">Router</text>
<text transform="matrix(1 0 0 1 359.11 189.42)" class="st17 st6 st18">.platform/routes.yaml</text>
<text transform="matrix(1 0 0 1 359.11 316.51)" class="st0 st1 st16">Application</text>
<text transform="matrix(1 0 0 1 359.11 335.33)" class="st17 st6 st18">.platform.app.yaml</text>
<g class="st14">
	<g class="st10">
		<g>
			<g>
				<defs>
					<rect id="SVGID_3_" x="99" y="444.5" width="66.7" height="58.5"/>
				</defs>
				<clipPath id="SVGID_4_">
					<use xlink:href="#SVGID_3_"  style="overflow:visible;"/>
				</clipPath>
				<g class="st19">
					<polygon class="st12" points="148.4,502.9 115.1,502.2 99,473 116.3,444.5 149.6,445.1 165.7,474.4 					"/>
				</g>
			</g>
		</g>
	</g>
	<polygon points="119.4,450.2 105.5,473.1 118.4,496.6 145.3,497.2 159.2,474.2 146.2,450.7 	"/>
	<path class="st20" d="M126.3,466.5c-0.2,0-0.4,0-0.6,0.1l0,0l0,0c0.1,0.2,0.3,0.4,0.5,0.6c0.1,0.2,0.2,0.5,0.3,0.7l0,0
		c0.2-0.2,0.3-0.5,0.3-0.8c-0.1-0.1-0.1-0.2-0.2-0.3C126.6,466.7,126.4,466.6,126.3,466.5"/>
	<path class="st20" d="M141.7,479.6c-1-0.1-2,0.1-2.9,0.4c-0.2,0.1-0.6,0.1-0.6,0.4c0.1,0.1,0.1,0.3,0.2,0.5
		c0.2,0.3,0.5,0.7,0.8,0.9c0.3,0.2,0.6,0.5,1,0.7c0.6,0.4,1.2,0.6,1.8,0.9c0.3,0.2,0.7,0.5,1,0.7c0.2,0.1,0.3,0.3,0.5,0.4l0,0
		c-0.1-0.1-0.1-0.3-0.2-0.5l-0.4-0.4c-0.4-0.6-1-1.1-1.6-1.5c-0.5-0.3-1.5-0.8-1.7-1.3l0,0c0.3-0.1,0.7-0.1,1-0.2
		c0.5-0.1,1-0.1,1.5-0.2l0.7-0.2V480c-0.3-0.3-0.5-0.6-0.8-0.9c-0.8-0.7-1.6-1.3-2.5-1.9c-0.5-0.3-1.1-0.5-1.6-0.8
		c-0.2-0.1-0.5-0.1-0.6-0.3c-0.2-0.4-0.5-0.8-0.6-1.2c-0.4-0.8-0.9-1.8-1.2-2.6c-0.2-0.6-0.5-1.2-0.8-1.7c-1.4-2.4-3.4-4.3-5.8-5.6
		c-0.6-0.3-1.3-0.5-1.9-0.6l-1.1-0.1c-0.2-0.2-0.5-0.3-0.7-0.5c-0.9-0.5-3.1-1.7-3.7-0.2c-0.4,1,0.6,2,1,2.5
		c0.3,0.4,0.6,0.7,0.8,1.1c0.1,0.3,0.1,0.5,0.2,0.8c0.2,0.7,0.5,1.3,0.8,2c0.2,0.3,0.3,0.6,0.6,0.9c0.1,0.2,0.3,0.2,0.4,0.5
		c-0.2,0.4-0.3,0.7-0.3,1.1c-0.5,1.7-0.4,3.5,0.4,5.1c0.2,0.4,0.8,1.2,1.6,0.9s0.5-1.1,0.7-1.9c0-0.2,0-0.3,0.1-0.4l0,0
		c0.2,0.4,0.4,0.8,0.6,1.2c0.6,0.8,1.2,1.4,2,2c0.4,0.3,0.6,0.7,1.1,0.9l0,0l0,0c-0.1-0.1-0.2-0.2-0.4-0.3c-0.3-0.3-0.6-0.6-0.8-0.9
		c-0.6-0.9-1.2-1.8-1.7-2.8c-0.2-0.5-0.4-1-0.7-1.5c-0.1-0.2-0.1-0.5-0.2-0.5c-0.3,0.3-0.5,0.6-0.7,1c-0.2,0.7-0.4,1.5-0.4,2.3
		c-0.1,0,0,0-0.1,0c-0.5-0.1-0.7-0.6-0.8-1c-0.5-1.3-0.5-2.7-0.1-4c0.1-0.3,0.6-1.3,0.4-1.6s-0.4-0.5-0.6-0.7
		c-0.2-0.3-0.4-0.7-0.5-1c-0.4-0.8-0.5-1.8-0.9-2.6c-0.2-0.4-0.5-0.8-0.8-1.2c-0.3-0.4-0.6-0.8-0.8-1.2c-0.1-0.2-0.2-0.4-0.1-0.6
		c0-0.1,0.1-0.2,0.2-0.2c0.2-0.2,0.8,0,1,0.1c0.5,0.2,1,0.4,1.5,0.8c0.2,0.1,0.4,0.4,0.7,0.5h0.3c0.5,0.1,1,0,1.5,0.2
		c0.8,0.2,1.5,0.6,2.2,1c2,1.3,3.6,3.1,4.7,5.2c0.2,0.4,0.3,0.7,0.4,1c0.3,0.7,0.7,1.5,1,2.2s0.6,1.4,1.1,2c0.2,0.3,1.1,0.5,1.5,0.6
		c0.3,0.1,0.7,0.3,1,0.4c0.5,0.3,1,0.7,1.5,1c0.2,0.2,1,0.6,1,0.9"/>
	<g class="st10">
		<g>
			<g>
				<defs>
					<rect id="SVGID_5_" x="191.2" y="444.6" width="66.7" height="58.5"/>
				</defs>
				<clipPath id="SVGID_6_">
					<use xlink:href="#SVGID_5_"  style="overflow:visible;"/>
				</clipPath>
				<g class="st21">
					<polygon class="st12" points="240.6,503.1 207.3,502.4 191.2,473.2 208.5,444.6 241.9,445.3 257.9,474.5 					"/>
				</g>
			</g>
		</g>
	</g>
	<polygon points="211.6,450.3 197.7,473.3 210.7,496.8 237.5,497.4 251.4,474.4 238.5,450.9 	"/>
	<path class="st20" d="M235.3,476.6L235.3,476.6c-1.3,0.7-7.7,3.3-9.1,4c-1,0.7-2.2,0.7-3.2,0.2c-1.1-0.5-8-3.3-9.2-3.9l0,0l0,0
		c-1.2,0.5-1.2,0.9,0,1.5s8.1,3.4,9.2,3.9c1,0.6,2.3,0.5,3.2-0.2c1.4-0.7,7.8-3.4,9.1-4S236.6,477.1,235.3,476.6z"/>
	<path class="st20" d="M235.3,472.8l-0.2-0.1c-1.6,0.8-7.6,3.2-8.9,3.9c-1,0.7-2.2,0.7-3.2,0.2s-7.5-3.1-9-3.8l-0.2,0.1
		c-1.2,0.5-1.2,0.9,0,1.5s8.1,3.4,9.2,3.9c1,0.6,2.3,0.5,3.2-0.2c1.4-0.7,7.8-3.4,9.1-4S236.6,473.2,235.3,472.8z"/>
	<path class="st20" d="M235.3,468.8c-1.2-0.5-7.6-3-8.9-3.5c-1-0.5-2.2-0.4-3.2,0.1c-1.4,0.5-8.3,3.2-9.5,3.7s-1.2,0.9,0,1.5
		s8.1,3.4,9.2,3.9c1,0.6,2.3,0.5,3.2-0.2c1.4-0.7,7.8-3.4,9.1-4S236.6,469.2,235.3,468.8z M216.9,469.7c0-0.6,1.3-1.1,2.9-1.1
		s2.9,0.5,2.9,1.1s-1.3,1.1-2.9,1.1S216.9,470.3,216.9,469.7L216.9,469.7z M225,473.3l-3.8-1.6l5.4-0.8L225,473.3z M225.6,468.2
		l-0.4,1.1l-0.7-1.2l-2.3-0.2l1.8-0.6l-0.5-1l1.6,0.6l1.5-0.5l-0.4,1l1.6,0.6L225.6,468.2z"/>
	<g class="st10">
		<g>
			<g>
				<defs>
					<rect id="SVGID_7_" x="4.2" y="444.5" width="66.7" height="58.5"/>
				</defs>
				<clipPath id="SVGID_8_">
					<use xlink:href="#SVGID_7_"  style="overflow:visible;"/>
				</clipPath>
				<g class="st22">
					<polygon class="st12" points="53.7,502.9 20.3,502.2 4.2,473 21.5,444.5 54.9,445.1 70.9,474.4 					"/>
				</g>
			</g>
		</g>
	</g>
	<polygon points="24.6,450.2 10.7,473.1 23.7,496.6 50.5,497.2 64.4,474.2 51.5,450.7 	"/>
	<path class="st20" d="M44.4,467.3l-9.2,10l11.6-5.3C46.4,470.2,45.6,468.6,44.4,467.3z"/>
	<path class="st20" d="M37.6,464.3c-1.2,0-2.5,0.2-3.6,0.7l-1.2,10.4l6.2-11C38.5,464.4,38,464.4,37.6,464.3z"/>
	<path class="st20" d="M46.8,472.5l-11,6.1l10.3-1.2c0.5-1.2,0.8-2.4,0.8-3.7C46.9,473.3,46.9,472.9,46.8,472.5z"/>
	<path class="st20" d="M42.8,481.5c1.2-0.8,2.3-1.9,3-3.2l-9.6,1.9L42.8,481.5z"/>
	<path class="st20" d="M39.5,464.5l-5.4,11.6l10-9.2C42.8,465.7,41.2,464.9,39.5,464.5z"/>
	<path class="st20" d="M38.3,483c1-0.1,2-0.3,2.9-0.7l-5.4-0.6L38.3,483z"/>
	<path class="st20" d="M29,469.9c-0.4,0.9-0.7,2-0.8,3l1.5,2.6L29,469.9z"/>
	<path class="st20" d="M33.2,465.4c-1.3,0.7-2.5,1.7-3.3,3l1.4,6.8L33.2,465.4z"/>
	<path class="st3" d="M38.2,444.6c0-14.3,18.1-25.9,40.5-25.9"/>
	<path class="st3" d="M118.9,392.8c0,14.3-18.1,25.9-40.5,25.9"/>
	<path class="st3" d="M226.1,444.6c0-14.3-18.1-25.9-40.5-25.9"/>
	<path class="st3" d="M145.4,392.8c0,14.3,18.1,25.9,40.5,25.9"/>
	<line class="st3" x1="132.9" y1="393.9" x2="132.9" y2="444.7"/>
</g>
<g class="st14">
	<text transform="matrix(1 0 0 1 359.11 467.84)" class="st0 st1 st16">Services</text>
	<text transform="matrix(1 0 0 1 359.11 486.66)" class="st17 st6 st18">.platform/services.yaml</text>
</g>
<polygon class="st4" points="224.1,392.8 105.3,392.8 105.3,344.8 204.3,344.8 224.1,365 "/>
<text transform="matrix(1 0 0 1 122.14 371.33)" class="st5 st6 st7">name: </text>
<text transform="matrix(1 0 0 1 161.74 371.33)" class="st8 st6 st7">myapp</text>
<polyline class="st9" points="223.6,365 203.8,365 203.8,345.2 "/>
<g class="st10">
	<g>
		<g>
			<defs>
				<rect id="SVGID_9_" x="105.7" y="298.4" width="66.7" height="58.5"/>
			</defs>
			<clipPath id="SVGID_10_">
				<use xlink:href="#SVGID_9_"  style="overflow:visible;"/>
			</clipPath>
			<g class="st23">
				<polygon class="st12" points="155.2,356.9 121.8,356.2 105.7,327 123,298.4 156.4,299.1 172.5,328.4 				"/>
			</g>
		</g>
	</g>
</g>
<polygon points="126.2,304.1 112.3,327.1 125.2,350.6 152,351.2 165.9,328.2 153,304.7 "/>
<g id="g4">
	<g id="g6">
		<path id="path8" class="st20" d="M125.1,322.9h4.9c1.2-0.1,2.3,0.4,3.1,1.2c0.7,1,0.9,2.2,0.6,3.4c-0.1,0.7-0.3,1.3-0.6,1.9
			s-0.7,1.2-1.2,1.7c-0.5,0.6-1.2,1-2,1.2c-0.7,0.2-1.4,0.3-2.2,0.3h-2.2L125,336h-2.6L125.1,322.9 M127.2,325l-1.1,5.5h0.2h0.3
			c1,0,2-0.1,2.9-0.4c0.8-0.3,1.3-1.1,1.6-2.7c0.2-1.3,0-2-0.7-2.2c-0.8-0.2-1.6-0.3-2.4-0.3h-0.4L127.2,325L127.2,325"/>
		<path id="path10" class="st20" d="M136.7,319.4h2.5l-0.7,3.5h2.3c1-0.1,2,0.2,2.8,0.8c0.6,0.5,0.8,1.4,0.6,2.8l-1.2,6.1h-2.6
			l1.2-5.8c0.1-0.4,0.1-0.9-0.1-1.3c-0.3-0.3-0.8-0.4-1.3-0.4h-2l-1.5,7.5h-2.5L136.7,319.4"/>
		<path id="path12" class="st20" d="M146.9,322.9h4.9c1.2-0.1,2.3,0.4,3.1,1.2c0.7,1,0.9,2.2,0.6,3.4c-0.1,0.7-0.3,1.3-0.6,1.9
			s-0.7,1.2-1.2,1.7c-0.5,0.6-1.2,1-2,1.2c-0.7,0.2-1.4,0.3-2.2,0.3h-2.2l-0.7,3.5H144L146.9,322.9 M149,324.9l-1.1,5.5h0.2h0.3
			c1,0,2-0.1,2.9-0.4c0.8-0.3,1.3-1.1,1.6-2.7c0.2-1.3,0-2-0.7-2.2c-0.8-0.2-1.6-0.3-2.4-0.3h-0.4L149,324.9L149,324.9"/>
	</g>
</g>
</svg>
