<svg id="Layer_1" data-name="Layer 1" xmlns="http://www.w3.org/2000/svg" xmlns:xlink="http://www.w3.org/1999/xlink" viewBox="0 0 477.67 468" width="478" height="468"><defs><style>.cls-1,.cls-15,.cls-5{fill:none;}.cls-2{opacity:0.16;}.cls-3{clip-path:url(#clip-path);}.cls-4{fill:#7171b1;}.cls-5{stroke:#fff;stroke-width:1.88px;}.cls-15,.cls-5{stroke-miterlimit:10;}.cls-6{font-size:16px;}.cls-17,.cls-6,.cls-7{fill:#231f20;}.cls-17,.cls-6{font-family:Gotham-Medium, Gotham;}.cls-16,.cls-7{opacity:0.6;}.cls-7{font-size:14px;font-family:Consolas, Consolas;}.cls-8{opacity:0.3;}.cls-9{clip-path:url(#clip-path-2);}.cls-10,.cls-12{fill:#fff;}.cls-11{clip-path:url(#clip-path-3);}.cls-12{fill-rule:evenodd;}.cls-13{clip-path:url(#clip-path-4);}.cls-14{clip-path:url(#clip-path-5);}.cls-15{stroke:#cfcfce;stroke-width:3px;}.cls-16{fill:#010101;}.cls-17{font-size:18px;}</style><clipPath id="clip-path"><rect class="cls-1" x="106.27" y="145.58" width="66.73" height="58.48"/></clipPath><clipPath id="clip-path-2"><rect class="cls-1" x="105.73" y="254.77" width="66.73" height="58.48"/></clipPath><clipPath id="clip-path-3"><rect class="cls-1" x="105.98" y="363.45" width="66.73" height="58.48"/></clipPath><clipPath id="clip-path-4"><rect class="cls-1" x="198.21" y="363.45" width="66.73" height="58.48"/></clipPath><clipPath id="clip-path-5"><rect class="cls-1" x="11.21" y="363.45" width="66.73" height="58.48"/></clipPath></defs><title>Routes</title><g class="cls-2"><g class="cls-3"><polygon class="cls-4" points="155.71 204.06 122.35 203.37 106.27 174.13 123.55 145.58 156.91 146.27 173 175.51 155.71 204.06"/></g></g><polygon points="126.7 151.3 112.79 174.26 125.73 197.78 152.56 198.34 166.47 175.38 153.53 151.86 126.7 151.3"/><path class="cls-5" d="M130.1,166.93c13.78-2.82,19.57,13.32,19.57,13.32"/><polyline class="cls-5" points="145.92 179.27 150.07 180.91 151.61 176.71"/><path class="cls-5" d="M151.61,166.93C137.83,164.11,132,180.24,132,180.24"/><polyline class="cls-5" points="135.78 179.27 131.63 180.91 130.09 176.71"/><polyline class="cls-5" points="143.93 182.91 140.85 186.08 137.78 182.91"/><line class="cls-5" x1="140.85" y1="186.08" x2="140.85" y2="164.57"/><text class="cls-6" transform="translate(290.43 170.6)">Router</text><text class="cls-7" transform="translate(290.43 189.42)">.platform/routes.yaml</text><g class="cls-8"><g class="cls-2"><g class="cls-9"><polygon class="cls-4" points="155.17 313.25 121.81 312.56 105.73 283.32 123.01 254.77 156.38 255.46 172.46 284.71 155.17 313.25"/></g></g><polygon points="126.16 260.49 112.26 283.45 125.19 306.97 152.03 307.53 165.93 284.57 152.99 261.05 126.16 260.49"/><g id="g4"><g id="g6"><path id="path8" class="cls-10" d="M125.12,279.2H130a3.82,3.82,0,0,1,3.14,1.24,4.15,4.15,0,0,1,.64,3.35,6.4,6.4,0,0,1-.57,1.9,5.65,5.65,0,0,1-1.18,1.68,4.11,4.11,0,0,1-2,1.21,9.1,9.1,0,0,1-2.17.26h-2.2l-.7,3.47h-2.55l2.63-13.11m2.15,2.08-1.1,5.49.22,0h.26a9.71,9.71,0,0,0,2.94-.35q1.18-.38,1.58-2.67.33-1.92-.66-2.21a8.28,8.28,0,0,0-2.44-.27l-.42,0h-.39l0,0"/><path id="path10" class="cls-10" d="M136.74,275.71h2.54l-.72,3.49h2.28a4.59,4.59,0,0,1,2.79.77q.94.73.55,2.78l-1.23,6.09h-2.57l1.18-5.81a1.64,1.64,0,0,0-.11-1.3,1.57,1.57,0,0,0-1.27-.38l-2,0-1.51,7.51h-2.54l2.65-13.13"/><path id="path12" class="cls-10" d="M146.9,279.2h4.92a3.82,3.82,0,0,1,3.14,1.24,4.15,4.15,0,0,1,.64,3.35,6.4,6.4,0,0,1-.57,1.9,5.65,5.65,0,0,1-1.18,1.68,4.11,4.11,0,0,1-2,1.21,9.1,9.1,0,0,1-2.17.26h-2.2l-.7,3.47h-2.55l2.63-13.11m2.15,2.08-1.1,5.49.22,0h.26a9.71,9.71,0,0,0,2.94-.35q1.18-.38,1.58-2.67.33-1.92-.66-2.21a8.28,8.28,0,0,0-2.44-.27l-.42,0H149l0,0"/></g></g><g class="cls-2"><g class="cls-11"><polygon class="cls-4" points="155.43 421.93 122.06 421.24 105.98 392 123.27 363.45 156.63 364.14 172.71 393.39 155.43 421.93"/></g></g><polygon points="126.41 369.17 112.51 392.13 125.44 415.65 152.28 416.21 166.18 393.25 153.25 369.73 126.41 369.17"/><path class="cls-12" d="M133.3,385.53a2.41,2.41,0,0,0-.62.08v0h0a5.1,5.1,0,0,0,.48.62c.12.24.23.48.35.72l0,0a.85.85,0,0,0,.32-.75,3.4,3.4,0,0,1-.18-.32c-.09-.15-.29-.23-.41-.35"/><path class="cls-12" d="M148.69,398.65a7,7,0,0,0-2.93.42c-.23.09-.59.09-.62.38.12.12.14.32.24.48a3.52,3.52,0,0,0,.78.92c.32.24.63.48,1,.69.59.36,1.25.57,1.82.94.33.21.66.48,1,.71.17.12.27.32.48.39v0c-.11-.14-.14-.33-.24-.48l-.45-.44a7.19,7.19,0,0,0-1.57-1.52c-.48-.33-1.54-.79-1.74-1.34l0,0a6.07,6.07,0,0,0,1-.24c.51-.14,1-.1,1.51-.24l.73-.21v-.14c-.27-.27-.47-.63-.76-.89a20.21,20.21,0,0,0-2.49-1.86c-.47-.3-1.07-.5-1.57-.75-.18-.09-.48-.14-.59-.29a6.06,6.06,0,0,1-.62-1.16c-.44-.83-.86-1.75-1.24-2.63a16.14,16.14,0,0,0-.77-1.72,15.22,15.22,0,0,0-5.84-5.64,7.23,7.23,0,0,0-1.93-.62l-1.13-.06a6,6,0,0,1-.69-.53c-.86-.54-3.08-1.72-3.71-.17-.41,1,.6,1.95,1,2.45a7.07,7.07,0,0,1,.77,1.13c.11.26.14.53.24.8a18,18,0,0,0,.78,2,7.13,7.13,0,0,0,.56.93c.12.17.33.24.38.51a4.32,4.32,0,0,0-.35,1.13,6.65,6.65,0,0,0,.44,5.07c.24.38.81,1.21,1.58.89s.53-1.13.72-1.89c0-.18,0-.3.11-.42v0c.21.42.42.83.62,1.25a8.61,8.61,0,0,0,2,2c.36.27.65.74,1.1.91v0h0a1.66,1.66,0,0,0-.35-.3,7.42,7.42,0,0,1-.79-.91,19.32,19.32,0,0,1-1.69-2.75c-.24-.47-.45-1-.65-1.45-.09-.18-.09-.45-.24-.54a5.66,5.66,0,0,0-.72,1,8.54,8.54,0,0,0-.42,2.28c-.06,0,0,0-.06,0-.48-.12-.65-.62-.83-1a6.53,6.53,0,0,1-.14-4c.11-.32.56-1.31.38-1.61s-.39-.45-.56-.68a6,6,0,0,1-.54-1c-.36-.84-.54-1.78-.94-2.63a8.06,8.06,0,0,0-.75-1.16,7.47,7.47,0,0,1-.83-1.18c-.07-.17-.18-.44-.06-.62a.24.24,0,0,1,.21-.2c.2-.17.75,0,1,.14a7.67,7.67,0,0,1,1.49.75c.21.15.44.44.71.51h.32c.48.1,1,0,1.48.17a9.66,9.66,0,0,1,2.17,1,13.39,13.39,0,0,1,4.71,5.16c.18.35.26.66.42,1,.32.74.71,1.5,1,2.22a9.92,9.92,0,0,0,1.07,2c.23.32,1.13.48,1.54.65a10.81,10.81,0,0,1,1,.42c.51.32,1,.68,1.51,1,.24.18,1,.56,1,.86"/><g class="cls-2"><g class="cls-13"><polygon class="cls-4" points="247.65 421.93 214.29 421.24 198.21 392 215.49 363.45 248.86 364.14 264.94 393.39 247.65 421.93"/></g></g><polygon points="218.64 369.17 204.74 392.13 217.67 415.65 244.51 416.21 258.41 393.25 245.47 369.73 218.64 369.17"/><path class="cls-10" d="M242.33,395.48h0c-1.33.68-7.69,3.3-9.05,4a3.07,3.07,0,0,1-3.23.19c-1.09-.52-8-3.3-9.21-3.89h0l0,0c-1.22.48-1.19.88,0,1.48s8.12,3.37,9.21,3.89a3.07,3.07,0,0,0,3.23-.19c1.38-.72,7.84-3.38,9.09-4S243.55,395.92,242.33,395.48Z"/><path class="cls-10" d="M242.33,391.62l-.19-.07c-1.62.79-7.57,3.24-8.89,3.93a3.07,3.07,0,0,1-3.23.19c-1-.5-7.47-3.1-9-3.82l-.21.08c-1.22.48-1.19.88,0,1.48s8.12,3.37,9.21,3.89a3.07,3.07,0,0,0,3.23-.19c1.38-.72,7.84-3.38,9.09-4S243.55,392.07,242.33,391.62Z"/><path class="cls-10" d="M242.33,387.63c-1.22-.45-7.64-3-8.87-3.45a3.67,3.67,0,0,0-3.18.09c-1.45.52-8.29,3.2-9.5,3.68s-1.19.88,0,1.48,8.12,3.37,9.21,3.89a3.07,3.07,0,0,0,3.23-.19c1.38-.72,7.84-3.38,9.09-4S243.55,388.07,242.33,387.63Zm-18.44.92c0-.62,1.3-1.12,2.9-1.12s2.9.5,2.9,1.12-1.3,1.12-2.9,1.12S223.9,389.16,223.9,388.54Zm8.14,3.57-3.78-1.57,5.42-.83Zm.57-5.09-.45,1.09-.73-1.22-2.34-.21,1.75-.63-.52-1,1.63.64,1.54-.5-.42,1,1.57.59Z"/><g class="cls-2"><g class="cls-14"><polygon class="cls-4" points="60.66 421.93 27.3 421.24 11.21 392 28.5 363.45 61.86 364.14 77.94 393.39 60.66 421.93"/></g></g><polygon points="31.64 369.17 17.74 392.13 30.68 415.65 57.51 416.21 71.42 393.25 58.48 369.73 31.64 369.17"/><path class="cls-10" d="M51.39,386.3l-9.21,10,11.57-5.34A9.34,9.34,0,0,0,51.39,386.3Z"/><path class="cls-10" d="M44.56,383.34a9.34,9.34,0,0,0-3.6.72l-1.24,10.41,6.17-11A9.44,9.44,0,0,0,44.56,383.34Z"/><path class="cls-10" d="M53.84,391.49l-11,6.14,10.29-1.22a9.33,9.33,0,0,0,.76-3.7A9.44,9.44,0,0,0,53.84,391.49Z"/><path class="cls-10" d="M49.8,400.47a9.41,9.41,0,0,0,3-3.24l-9.64,1.91Z"/><path class="cls-10" d="M46.46,383.54,41.1,395.17l10-9.21A9.34,9.34,0,0,0,46.46,383.54Z"/><path class="cls-10" d="M45.34,402a9.31,9.31,0,0,0,2.94-.74l-5.4-.64Z"/><path class="cls-10" d="M36,388.86a9.31,9.31,0,0,0-.79,3l1.45,2.6Z"/><path class="cls-10" d="M40.15,384.44a9.41,9.41,0,0,0-3.3,2.95l1.36,6.84Z"/><path class="cls-15" d="M45.18,363.73c0-14.32,18.14-25.92,40.52-25.92"/><path class="cls-15" d="M125.87,311.89c0,14.32-18.14,25.92-40.52,25.92"/><path class="cls-15" d="M233.08,363.73c0-14.32-18.14-25.92-40.52-25.92"/><path class="cls-15" d="M152.39,311.89c0,14.32,18.14,25.92,40.52,25.92"/><line class="cls-15" x1="139.83" y1="204.24" x2="139.83" y2="254.86"/><line class="cls-15" x1="139.85" y1="312.97" x2="139.85" y2="363.85"/><text class="cls-6" transform="translate(290.43 279.79)">Application</text><text class="cls-7" transform="translate(290.43 298.61)">.platform.app.yaml</text><text class="cls-6" transform="translate(290.43 388.47)">Services</text><text class="cls-7" transform="translate(290.43 407.29)">.platform/services.yaml</text></g><g class="cls-8"><path class="cls-16" d="M148.32,90.53l-1.1-.31a9.34,9.34,0,1,0-15.17,0l-1.1.31a6.34,6.34,0,0,0-4.6,6.1V98a4,4,0,0,0,4,4h18.51a4,4,0,0,0,4-4V96.63a6.34,6.34,0,0,0-4.6-6.1Zm-15.53-5.76a6.85,6.85,0,1,1,6.85,6.85A6.85,6.85,0,0,1,132.79,84.77ZM150.43,98a1.54,1.54,0,0,1-1.54,1.54H130.38A1.54,1.54,0,0,1,128.84,98V96.63a3.85,3.85,0,0,1,2.8-3.71l2.39-.69a9.34,9.34,0,0,0,11.21,0l2.39.69a3.86,3.86,0,0,1,2.8,3.71V98Z"/><line class="cls-15" x1="140.83" y1="110" x2="140.83" y2="135.31"/><polyline class="cls-15" points="147.45 128.69 140.83 135.31 134.3 128.79"/></g><text class="cls-17" transform="translate(207.21 38)">Routes</text></svg>
