<?xml version="1.0" encoding="utf-8"?>
<!-- Generator: Adobe Illustrator 19.2.0, SVG Export Plug-In . SVG Version: 6.00 Build 0)  -->
<svg version="1.1" id="Layer_1" xmlns="http://www.w3.org/2000/svg" xmlns:xlink="http://www.w3.org/1999/xlink" x="0px" y="0px"
	 viewBox="0 0 189.3 55.3" style="enable-background:new 0 0 189.3 55.3;" xml:space="preserve">
<style type="text/css">
	.st0{fill:#16A9E1;}
	.st1{fill:#3E3A3A;}
</style>
<g>
	<g>
		<rect x="150.7" y="10.7" class="st0" width="28.5" height="11.3"/>
		<rect x="150.7" y="35.4" class="st0" width="28.5" height="3.9"/>
		<rect x="150.7" y="25.7" class="st0" width="28.5" height="5.8"/>
	</g>
	<g>
		<path class="st1" d="M6.6,24.5h3.6v2.1c0.5-0.7,1.1-1.3,1.9-1.8c0.8-0.5,1.7-0.7,2.7-0.7c1.7,0,3.1,0.7,4.3,2
			c1.2,1.3,1.8,3.2,1.8,5.6c0,2.4-0.6,4.3-1.8,5.7c-1.2,1.4-2.6,2-4.3,2c-0.8,0-1.5-0.2-2.2-0.5c-0.7-0.3-1.3-0.9-2.1-1.7v7.4H6.6
			V24.5z M10.4,31.6c0,1.6,0.3,2.9,1,3.6c0.7,0.8,1.4,1.2,2.4,1.2c0.9,0,1.6-0.4,2.2-1.1c0.6-0.7,0.9-1.9,0.9-3.5
			c0-1.5-0.3-2.7-0.9-3.4c-0.6-0.7-1.4-1.1-2.3-1.1c-0.9,0-1.7,0.4-2.4,1.1C10.7,29.1,10.4,30.2,10.4,31.6z"/>
		<path class="st1" d="M22.7,39.2V19h3.9v20.2H22.7z"/>
		<path class="st1" d="M32.1,29l-3.5-0.6c0.4-1.4,1.1-2.5,2-3.1c1-0.7,2.4-1,4.3-1c1.7,0,3,0.2,3.9,0.6c0.8,0.4,1.4,0.9,1.8,1.6
			c0.3,0.6,0.5,1.8,0.5,3.5l0,4.5c0,1.3,0.1,2.2,0.2,2.8c0.1,0.6,0.4,1.3,0.7,2h-3.8c-0.1-0.3-0.2-0.6-0.4-1.1
			c-0.1-0.2-0.1-0.4-0.1-0.5c-0.7,0.6-1.4,1.1-2.1,1.5c-0.8,0.3-1.6,0.5-2.4,0.5c-1.5,0-2.7-0.4-3.6-1.2c-0.9-0.8-1.3-1.9-1.3-3.1
			c0-0.8,0.2-1.6,0.6-2.2c0.4-0.6,0.9-1.1,1.7-1.5c0.7-0.3,1.7-0.6,3.1-0.9c1.8-0.3,3.1-0.7,3.8-1v-0.4c0-0.7-0.2-1.3-0.6-1.6
			c-0.4-0.3-1.1-0.5-2.1-0.5c-0.7,0-1.2,0.1-1.6,0.4C32.6,27.8,32.3,28.3,32.1,29z M37.3,32.1c-0.5,0.2-1.3,0.4-2.4,0.6
			c-1.1,0.2-1.8,0.5-2.1,0.7c-0.5,0.4-0.8,0.8-0.8,1.4c0,0.5,0.2,1,0.6,1.4c0.4,0.4,0.9,0.6,1.5,0.6c0.7,0,1.4-0.2,2-0.7
			c0.5-0.3,0.8-0.8,0.9-1.3c0.1-0.3,0.2-1,0.2-1.9V32.1z"/>
		<path class="st1" d="M50.4,24.5v3.1h-2.6v5.9c0,1.2,0,1.9,0.1,2.1c0,0.2,0.2,0.4,0.3,0.5c0.2,0.1,0.4,0.2,0.7,0.2
			c0.4,0,0.9-0.1,1.6-0.4l0.3,3c-0.9,0.4-1.9,0.6-3.1,0.6c-0.7,0-1.3-0.1-1.9-0.4c-0.6-0.2-1-0.5-1.2-0.9c-0.3-0.4-0.4-0.9-0.5-1.5
			c-0.1-0.4-0.1-1.4-0.1-2.7v-6.4h-1.8v-3.1h1.8v-2.9l3.9-2.3v5.2H50.4z"/>
		<path class="st1" d="M51.5,24.5h2.2v-1.1c0-1.2,0.1-2.2,0.4-2.8c0.3-0.6,0.7-1.1,1.4-1.5c0.7-0.4,1.6-0.6,2.7-0.6
			c1.1,0,2.2,0.2,3.2,0.5l-0.5,2.7c-0.6-0.1-1.2-0.2-1.8-0.2c-0.6,0-1,0.1-1.2,0.4c-0.2,0.3-0.4,0.8-0.4,1.5v1h2.9v3h-2.9v11.6h-3.9
			V27.6h-2.2V24.5z"/>
		<path class="st1" d="M61.2,31.6c0-1.3,0.3-2.5,1-3.7c0.6-1.2,1.5-2.1,2.7-2.8c1.2-0.6,2.5-0.9,3.9-0.9c2.2,0,4,0.7,5.4,2.2
			c1.4,1.4,2.1,3.3,2.1,5.4c0,2.2-0.7,4.1-2.1,5.5c-1.4,1.5-3.2,2.2-5.4,2.2c-1.3,0-2.6-0.3-3.8-0.9c-1.2-0.6-2.1-1.5-2.8-2.7
			C61.5,34.8,61.2,33.3,61.2,31.6z M65.2,31.9c0,1.5,0.3,2.6,1,3.3c0.7,0.8,1.5,1.2,2.5,1.2c1,0,1.9-0.4,2.5-1.2
			c0.7-0.8,1-1.9,1-3.4c0-1.4-0.3-2.5-1-3.3c-0.7-0.8-1.5-1.2-2.5-1.2c-1,0-1.9,0.4-2.5,1.2C65.5,29.3,65.2,30.4,65.2,31.9z"/>
		<path class="st1" d="M81.6,39.2h-3.9V24.5h3.6v2.1c0.6-1,1.2-1.6,1.7-1.9c0.5-0.3,1-0.5,1.7-0.5c0.9,0,1.7,0.2,2.5,0.7L86,28.3
			c-0.7-0.4-1.3-0.6-1.8-0.6c-0.5,0-1,0.1-1.4,0.4c-0.4,0.3-0.7,0.8-0.9,1.6c-0.2,0.8-0.3,2.4-0.3,4.9V39.2z"/>
		<path class="st1" d="M88.4,24.5h3.6v2c1.3-1.6,2.8-2.3,4.6-2.3c0.9,0,1.8,0.2,2.4,0.6c0.7,0.4,1.3,1,1.7,1.8
			c0.6-0.8,1.3-1.4,2.1-1.8c0.7-0.4,1.5-0.6,2.4-0.6c1.1,0,2,0.2,2.7,0.7c0.7,0.4,1.3,1.1,1.7,1.9c0.3,0.6,0.4,1.6,0.4,3v9.4H106
			v-8.4c0-1.5-0.1-2.4-0.4-2.8c-0.4-0.6-0.9-0.8-1.7-0.8c-0.5,0-1.1,0.2-1.5,0.5c-0.5,0.3-0.8,0.8-1,1.5c-0.2,0.6-0.3,1.7-0.3,3v7
			h-3.9v-8c0-1.4-0.1-2.3-0.2-2.8c-0.1-0.4-0.4-0.7-0.6-0.9c-0.3-0.2-0.7-0.3-1.2-0.3c-0.6,0-1.1,0.2-1.6,0.5
			c-0.5,0.3-0.8,0.8-1,1.4c-0.2,0.6-0.3,1.6-0.3,3v7.1h-3.9V24.5z"/>
		<path class="st1" d="M111.8,39.2v-3.9h3.9v3.9H111.8z"/>
		<path class="st1" d="M117.2,35l3.9-0.6c0.2,0.8,0.5,1.3,1,1.7c0.5,0.4,1.2,0.6,2.1,0.6c1,0,1.8-0.2,2.3-0.6c0.3-0.3,0.5-0.6,0.5-1
			c0-0.3-0.1-0.5-0.3-0.7c-0.2-0.2-0.6-0.4-1.3-0.5c-3.1-0.7-5.1-1.3-5.9-1.9c-1.2-0.8-1.7-1.9-1.7-3.3c0-1.3,0.5-2.3,1.5-3.2
			c1-0.9,2.6-1.3,4.7-1.3c2,0,3.5,0.3,4.5,1c1,0.7,1.6,1.6,2,2.9l-3.7,0.7c-0.2-0.6-0.5-1-0.9-1.3c-0.4-0.3-1.1-0.5-1.9-0.5
			c-1,0-1.8,0.1-2.2,0.4c-0.3,0.2-0.4,0.5-0.4,0.8c0,0.3,0.1,0.5,0.4,0.7c0.4,0.3,1.6,0.6,3.6,1.1c2.1,0.5,3.5,1,4.3,1.7
			c0.8,0.7,1.2,1.7,1.2,2.9c0,1.3-0.6,2.5-1.7,3.5c-1.1,1-2.8,1.5-5,1.5c-2,0-3.6-0.4-4.7-1.2C118.3,37.5,117.5,36.4,117.2,35z"/>
		<path class="st1" d="M136.3,19v7.4c1.2-1.5,2.7-2.2,4.5-2.2c0.9,0,1.7,0.2,2.4,0.5c0.7,0.3,1.3,0.8,1.6,1.3
			c0.4,0.5,0.6,1.1,0.7,1.7c0.1,0.6,0.2,1.6,0.2,2.9v8.6h-3.9v-7.7c0-1.5-0.1-2.5-0.2-2.9c-0.1-0.4-0.4-0.7-0.8-1
			c-0.4-0.2-0.8-0.4-1.4-0.4c-0.6,0-1.2,0.2-1.7,0.5c-0.5,0.3-0.9,0.8-1.1,1.4c-0.2,0.6-0.4,1.6-0.4,2.8v7.3h-3.9V19H136.3z"/>
	</g>
</g>
</svg>
