<svg id="Layer_1" data-name="Layer 1" xmlns="http://www.w3.org/2000/svg" viewBox="0 0 162.11 32.12"><defs><style>.cls-1{fill:#00aeef;}.cls-2{fill:#fff;}</style></defs><title>platform-logo</title><rect class="cls-1" x="135.39" width="26.71" height="10.62"/><rect class="cls-1" x="135.39" y="23.11" width="26.71" height="3.61"/><rect class="cls-1" x="135.39" y="14.05" width="26.71" height="5.45"/><path class="cls-2" d="M8.07,22.73h3.29v2a4.92,4.92,0,0,1,1.73-1.63,4.78,4.78,0,0,1,2.42-.63,5.09,5.09,0,0,1,3.94,1.82,7.37,7.37,0,0,1,1.62,5.07,7.59,7.59,0,0,1-1.63,5.19,5.09,5.09,0,0,1-4,1.85,4.5,4.5,0,0,1-2-.44,6.75,6.75,0,0,1-1.89-1.51v6.72H8.07Zm3.49,6.44a5.13,5.13,0,0,0,.89,3.32,2.73,2.73,0,0,0,2.17,1.07,2.55,2.55,0,0,0,2-1,5.07,5.07,0,0,0,.82-3.23,4.82,4.82,0,0,0-.84-3.11,2.6,2.6,0,0,0-2.08-1,2.71,2.71,0,0,0-2.15,1A4.44,4.44,0,0,0,11.56,29.17Z" transform="translate(-8.07 -9.01)"/><path class="cls-2" d="M23.17,36.06V17.65H26.7V36.06Z" transform="translate(-8.07 -9.01)"/><path class="cls-2" d="M32.23,26.8,29,26.22a5,5,0,0,1,1.86-2.86,6.8,6.8,0,0,1,3.92-.93,8.44,8.44,0,0,1,3.52.56,3.51,3.51,0,0,1,1.63,1.42,7.27,7.27,0,0,1,.47,3.16l0,4.12a14.37,14.37,0,0,0,.17,2.59,7.57,7.57,0,0,0,.63,1.79H37.69q-.14-.35-.34-1c-.06-.21-.1-.35-.13-.42a6.36,6.36,0,0,1-1.93,1.32,5.54,5.54,0,0,1-2.2.44,4.54,4.54,0,0,1-3.25-1.12,3.71,3.71,0,0,1-1.19-2.83,3.79,3.79,0,0,1,.54-2,3.52,3.52,0,0,1,1.51-1.36,11.82,11.82,0,0,1,2.81-.82A19.21,19.21,0,0,0,37,27.36V27a1.83,1.83,0,0,0-.5-1.45,3,3,0,0,0-1.9-.43,2.53,2.53,0,0,0-1.47.37A2.57,2.57,0,0,0,32.23,26.8ZM37,29.66q-.68.23-2.15.54a6.44,6.44,0,0,0-1.92.62,1.47,1.47,0,0,0-.69,1.24,1.73,1.73,0,0,0,.55,1.28,1.93,1.93,0,0,0,1.41.54A3.05,3.05,0,0,0,36,33.25a2.21,2.21,0,0,0,.84-1.17A7,7,0,0,0,37,30.36Z" transform="translate(-8.07 -9.01)"/><path class="cls-2" d="M49.26,22.73v2.81H46.85v5.38a13.21,13.21,0,0,0,.07,1.9.77.77,0,0,0,.31.45,1,1,0,0,0,.6.18,4.55,4.55,0,0,0,1.42-.34l.3,2.74a7,7,0,0,1-2.79.53A4.43,4.43,0,0,1,45,36a2.52,2.52,0,0,1-1.12-.83,3.29,3.29,0,0,1-.5-1.37,17.16,17.16,0,0,1-.11-2.49V25.54H41.69V22.73h1.62V20.08L46.85,18v4.71Z" transform="translate(-8.07 -9.01)"/><path class="cls-2" d="M50.33,22.73h2v-1a6.69,6.69,0,0,1,.36-2.51A2.84,2.84,0,0,1,54,17.86a5.05,5.05,0,0,1,2.43-.52,9.84,9.84,0,0,1,3,.45l-.48,2.46a7,7,0,0,0-1.62-.2,1.45,1.45,0,0,0-1.1.36,2.08,2.08,0,0,0-.33,1.38v.94h2.64V25.5H55.82V36.06H52.29V25.5h-2Z" transform="translate(-8.07 -9.01)"/><path class="cls-2" d="M59.2,29.21a7.21,7.21,0,0,1,.87-3.4,5.94,5.94,0,0,1,2.46-2.51,7.28,7.28,0,0,1,3.55-.87,6.66,6.66,0,0,1,5,2,6.79,6.79,0,0,1,1.93,5,6.87,6.87,0,0,1-2,5,6.6,6.6,0,0,1-4.92,2,7.74,7.74,0,0,1-3.5-.83,5.68,5.68,0,0,1-2.53-2.43A8.09,8.09,0,0,1,59.2,29.21Zm3.62.19a4.42,4.42,0,0,0,.94,3,3.08,3.08,0,0,0,4.64,0,4.48,4.48,0,0,0,.94-3.06,4.4,4.4,0,0,0-.94-3,3.08,3.08,0,0,0-4.64,0A4.42,4.42,0,0,0,62.82,29.4Z" transform="translate(-8.07 -9.01)"/><path class="cls-2" d="M78.4,36.06H74.87V22.73h3.28v1.9a5.7,5.7,0,0,1,1.51-1.77,2.78,2.78,0,0,1,1.53-.43,4.49,4.49,0,0,1,2.32.67l-1.09,3.08a3.09,3.09,0,0,0-1.66-.58,2,2,0,0,0-1.26.41,2.79,2.79,0,0,0-.81,1.48,20.93,20.93,0,0,0-.29,4.47Z" transform="translate(-8.07 -9.01)"/><path class="cls-2" d="M84.36,22.73h3.25v1.82a5.23,5.23,0,0,1,4.16-2.12A4.47,4.47,0,0,1,94,23a4,4,0,0,1,1.54,1.59A6.16,6.16,0,0,1,97.44,23a4.64,4.64,0,0,1,2.17-.53,4.84,4.84,0,0,1,2.49.6,3.66,3.66,0,0,1,1.52,1.75,7.59,7.59,0,0,1,.36,2.76v8.53h-3.53V28.44a5.68,5.68,0,0,0-.36-2.56,1.67,1.67,0,0,0-1.51-.75,2.41,2.41,0,0,0-1.39.45,2.51,2.51,0,0,0-.94,1.33A9.51,9.51,0,0,0,96,29.66v6.4H92.42V28.76a10.12,10.12,0,0,0-.19-2.51,1.6,1.6,0,0,0-.58-.84,1.85,1.85,0,0,0-1.07-.28,2.57,2.57,0,0,0-1.47.44,2.41,2.41,0,0,0-.94,1.27,9.43,9.43,0,0,0-.28,2.75v6.48H84.36Z" transform="translate(-8.07 -9.01)"/><path class="cls-2" d="M106.74,36.06V32.54h3.53v3.53Z" transform="translate(-8.07 -9.01)"/><path class="cls-2" d="M112.09,32.26l3.54-.54a2.6,2.6,0,0,0,.92,1.56,3.1,3.1,0,0,0,1.93.53,3.49,3.49,0,0,0,2.06-.5,1.12,1.12,0,0,0,.46-.94.92.92,0,0,0-.25-.67,2.81,2.81,0,0,0-1.18-.46,19,19,0,0,1-5.41-1.72,3.44,3.44,0,0,1-1.58-3,3.7,3.7,0,0,1,1.37-2.91,6.39,6.39,0,0,1,4.25-1.18,7.41,7.41,0,0,1,4.07.89A4.56,4.56,0,0,1,124.09,26l-3.33.62a2.06,2.06,0,0,0-.81-1.19,3,3,0,0,0-1.7-.41,3.83,3.83,0,0,0-2,.39.83.83,0,0,0-.4.72.78.78,0,0,0,.35.64,13.25,13.25,0,0,0,3.3,1,9.83,9.83,0,0,1,3.94,1.57,3.26,3.26,0,0,1,1.11,2.63A4,4,0,0,1,123,35a6.78,6.78,0,0,1-4.53,1.32,7.44,7.44,0,0,1-4.31-1.11A5.09,5.09,0,0,1,112.09,32.26Z" transform="translate(-8.07 -9.01)"/><path class="cls-2" d="M130.19,17.65v6.77a5.29,5.29,0,0,1,6.28-1.54A3.6,3.6,0,0,1,137.95,24a4.2,4.2,0,0,1,.68,1.56,13.86,13.86,0,0,1,.18,2.65v7.82h-3.53V29a10.39,10.39,0,0,0-.2-2.66,1.75,1.75,0,0,0-.71-.9,2.28,2.28,0,0,0-1.27-.33,2.93,2.93,0,0,0-1.57.43,2.47,2.47,0,0,0-1,1.29,7.67,7.67,0,0,0-.32,2.54v6.68h-3.53V17.65Z" transform="translate(-8.07 -9.01)"/></svg>