<?xml version="1.0" encoding="UTF-8" standalone="no"?>
<!DOCTYPE svg PUBLIC "-//W3C//DTD SVG 1.1//EN"
 "http://www.w3.org/Graphics/SVG/1.1/DTD/svg11.dtd">
<!-- Generated by graphviz version 2.38.0 (20140413.2041)
 -->
<!-- Title: Build &amp; Deploy Pipeline Pages: 1 -->
<svg width="434pt" height="687pt"
 viewBox="0.00 0.00 433.71 687.15" xmlns="http://www.w3.org/2000/svg" xmlns:xlink="http://www.w3.org/1999/xlink">
<g id="graph0" class="graph" transform="scale(1 1) rotate(0) translate(4 683.148)">
<title>Build &amp; Deploy Pipeline</title>
<polygon fill="white" stroke="none" points="-4,4 -4,-683.148 429.705,-683.148 429.705,4 -4,4"/>
<g id="clust1" class="cluster"><title>cluster_build</title>
<polygon fill="none" stroke="white" points="8,-56.4189 8,-671.148 158,-671.148 158,-56.4189 8,-56.4189"/>
<text text-anchor="middle" x="83" y="-655.948" font-family="Open Sans" font-size="14.00" fill="#333333">Build Phase</text>
</g>
<g id="clust2" class="cluster"><title>cluster_deploy</title>
<polygon fill="none" stroke="white" points="166,-8 166,-647.026 318,-647.026 318,-8 166,-8"/>
<text text-anchor="middle" x="242" y="-631.826" font-family="Open Sans" font-size="14.00" fill="#333333">Deploy Phase</text>
</g>
<!-- Push -->
<g id="node1" class="node"><title>Push</title>
<ellipse fill="#3ba9e0" stroke="#3ba9e0" cx="83" cy="-593.46" rx="42.7455" ry="42.7455"/>
<text text-anchor="middle" x="83" y="-592.031" font-family="Open Sans" font-size="12.00" fill="white">Git Push</text>
</g>
<!-- Container -->
<g id="node3" class="node"><title>Container</title>
<polygon fill="#3ba9e0" stroke="#3ba9e0" points="32.1226,-478.338 32.1226,-514.338 133.877,-514.338 133.877,-478.338 32.1226,-478.338"/>
<text text-anchor="middle" x="83" y="-495.266" font-family="Open Sans" font-size="9.00" fill="white">Pull container image</text>
</g>
<!-- Push&#45;&gt;Container -->
<g id="edge1" class="edge"><title>Push&#45;&gt;Container</title>
<path fill="none" stroke="black" d="M83,-550.738C83,-541.853 83,-532.691 83,-524.519"/>
<polygon fill="black" stroke="black" points="86.5001,-524.454 83,-514.454 79.5001,-524.454 86.5001,-524.454"/>
</g>
<!-- Validate -->
<g id="node2" class="node"><title>Validate</title>
<polygon fill="#3ba9e0" stroke="#3ba9e0" points="29.1211,-405.338 29.1211,-441.338 136.879,-441.338 136.879,-405.338 29.1211,-405.338"/>
<text text-anchor="middle" x="83" y="-422.266" font-family="Open Sans" font-size="9.00" fill="white">Validate configuration</text>
</g>
<!-- Dependencies -->
<g id="node5" class="node"><title>Dependencies</title>
<polygon fill="#3ba9e0" stroke="#3ba9e0" points="31.9775,-332.338 31.9775,-368.338 134.022,-368.338 134.022,-332.338 31.9775,-332.338"/>
<text text-anchor="middle" x="83" y="-349.266" font-family="Open Sans" font-size="9.00" fill="white">Install dependencies</text>
</g>
<!-- Validate&#45;&gt;Dependencies -->
<g id="edge3" class="edge"><title>Validate&#45;&gt;Dependencies</title>
<path fill="none" stroke="black" d="M83,-405.151C83,-397.127 83,-387.385 83,-378.407"/>
<polygon fill="black" stroke="black" points="86.5001,-378.367 83,-368.367 79.5001,-378.367 86.5001,-378.367"/>
</g>
<!-- Container&#45;&gt;Validate -->
<g id="edge2" class="edge"><title>Container&#45;&gt;Validate</title>
<path fill="none" stroke="black" d="M83,-478.151C83,-470.127 83,-460.385 83,-451.407"/>
<polygon fill="black" stroke="black" points="86.5001,-451.367 83,-441.367 79.5001,-451.367 86.5001,-451.367"/>
</g>
<!-- PshBuild -->
<g id="node4" class="node"><title>PshBuild</title>
<polygon fill="#3ba9e0" stroke="#3ba9e0" points="16.3022,-259.338 16.3022,-295.338 149.698,-295.338 149.698,-259.338 16.3022,-259.338"/>
<text text-anchor="middle" x="83" y="-276.266" font-family="Open Sans" font-size="9.00" fill="white">Run Build Flavor commands</text>
</g>
<!-- BuildHook -->
<g id="node6" class="node"><title>BuildHook</title>
<polygon fill="#3ba9e0" stroke="#3ba9e0" points="43.2429,-186.338 43.2429,-222.338 122.757,-222.338 122.757,-186.338 43.2429,-186.338"/>
<text text-anchor="middle" x="83" y="-203.266" font-family="Open Sans" font-size="9.00" fill="white">Run build hook</text>
</g>
<!-- PshBuild&#45;&gt;BuildHook -->
<g id="edge5" class="edge"><title>PshBuild&#45;&gt;BuildHook</title>
<path fill="none" stroke="black" d="M83,-259.151C83,-251.127 83,-241.385 83,-232.407"/>
<polygon fill="black" stroke="black" points="86.5001,-232.367 83,-222.367 79.5001,-232.367 86.5001,-232.367"/>
</g>
<!-- Dependencies&#45;&gt;PshBuild -->
<g id="edge4" class="edge"><title>Dependencies&#45;&gt;PshBuild</title>
<path fill="none" stroke="black" d="M83,-332.151C83,-324.127 83,-314.385 83,-305.407"/>
<polygon fill="black" stroke="black" points="86.5001,-305.367 83,-295.367 79.5001,-305.367 86.5001,-305.367"/>
</g>
<!-- Freeze -->
<g id="node7" class="node"><title>Freeze</title>
<polygon fill="#3ba9e0" stroke="#3ba9e0" points="30.9646,-64.9189 30.9646,-100.919 135.035,-100.919 135.035,-64.9189 30.9646,-64.9189"/>
<text text-anchor="middle" x="83" y="-81.847" font-family="Open Sans" font-size="9.00" fill="white">Freeze app container</text>
</g>
<!-- BuildHook&#45;&gt;Freeze -->
<g id="edge6" class="edge"><title>BuildHook&#45;&gt;Freeze</title>
<path fill="none" stroke="black" d="M83,-186.228C83,-166.63 83,-134.257 83,-111.176"/>
<polygon fill="black" stroke="black" points="86.5001,-110.997 83,-100.997 79.5001,-110.997 86.5001,-110.997"/>
</g>
<!-- Close -->
<g id="node8" class="node"><title>Close</title>
<polygon fill="#3ba9e0" stroke="#3ba9e0" points="204.699,-575.46 204.699,-611.46 279.301,-611.46 279.301,-575.46 204.699,-575.46"/>
<text text-anchor="middle" x="242" y="-592.388" font-family="Open Sans" font-size="9.00" fill="white">Hold requests</text>
</g>
<!-- Freeze&#45;&gt;Close -->
<g id="edge7" class="edge"><title>Freeze&#45;&gt;Close</title>
<path fill="none" stroke="#3ba9e0" stroke-width="6" d="M99.0088,-100.926C112.389,-114.288 132.71,-132.721 157.48,-147.105"/>
<polygon fill="#3ba9e0" stroke="#3ba9e0" stroke-width="6" points="155.131,-151.804 166.423,-152.008 160.179,-142.597 155.131,-151.804"/>
</g>
<!-- Unmount -->
<g id="node9" class="node"><title>Unmount</title>
<polygon fill="#3ba9e0" stroke="#3ba9e0" points="174.122,-478.338 174.122,-514.338 309.878,-514.338 309.878,-478.338 174.122,-478.338"/>
<text text-anchor="middle" x="242" y="-495.266" font-family="Open Sans" font-size="9.00" fill="white">Unmount current containers</text>
</g>
<!-- Close&#45;&gt;Unmount -->
<g id="edge8" class="edge"><title>Close&#45;&gt;Unmount</title>
<path fill="none" stroke="black" d="M242,-575.454C242,-561.339 242,-540.997 242,-524.61"/>
<polygon fill="black" stroke="black" points="245.5,-524.517 242,-514.517 238.5,-524.517 245.5,-524.517"/>
</g>
<!-- Mount -->
<g id="node10" class="node"><title>Mount</title>
<polygon fill="#3ba9e0" stroke="#3ba9e0" points="194.436,-405.338 194.436,-441.338 289.564,-441.338 289.564,-405.338 194.436,-405.338"/>
<text text-anchor="middle" x="242" y="-422.266" font-family="Open Sans" font-size="9.00" fill="white">Mount file systems</text>
</g>
<!-- Unmount&#45;&gt;Mount -->
<g id="edge9" class="edge"><title>Unmount&#45;&gt;Mount</title>
<path fill="none" stroke="black" d="M242,-478.151C242,-470.127 242,-460.385 242,-451.407"/>
<polygon fill="black" stroke="black" points="245.5,-451.367 242,-441.367 238.5,-451.367 245.5,-451.367"/>
</g>
<!-- Services -->
<g id="node11" class="node"><title>Services</title>
<polygon fill="#3ba9e0" stroke="#3ba9e0" points="201.109,-332.338 201.109,-368.338 282.891,-368.338 282.891,-332.338 201.109,-332.338"/>
<text text-anchor="middle" x="242" y="-349.266" font-family="Open Sans" font-size="9.00" fill="white">Expose services</text>
</g>
<!-- Mount&#45;&gt;Services -->
<g id="edge10" class="edge"><title>Mount&#45;&gt;Services</title>
<path fill="none" stroke="black" d="M242,-405.151C242,-397.127 242,-387.385 242,-378.407"/>
<polygon fill="black" stroke="black" points="245.5,-378.367 242,-368.367 238.5,-378.367 245.5,-378.367"/>
</g>
<!-- Start -->
<g id="node12" class="node"><title>Start</title>
<polygon fill="#3ba9e0" stroke="#3ba9e0" points="192.439,-259.338 192.439,-295.338 291.561,-295.338 291.561,-259.338 192.439,-259.338"/>
<text text-anchor="middle" x="242" y="-276.266" font-family="Open Sans" font-size="9.00" fill="white">Run start command</text>
</g>
<!-- Services&#45;&gt;Start -->
<g id="edge11" class="edge"><title>Services&#45;&gt;Start</title>
<path fill="none" stroke="black" d="M242,-332.151C242,-324.127 242,-314.385 242,-305.407"/>
<polygon fill="black" stroke="black" points="245.5,-305.367 242,-295.367 238.5,-305.367 245.5,-305.367"/>
</g>
<!-- DeployHook -->
<g id="node13" class="node"><title>DeployHook</title>
<polygon fill="#3ba9e0" stroke="#3ba9e0" points="198.2,-186.338 198.2,-222.338 285.8,-222.338 285.8,-186.338 198.2,-186.338"/>
<text text-anchor="middle" x="242" y="-203.266" font-family="Open Sans" font-size="9.00" fill="white">Run Deploy hook</text>
</g>
<!-- Start&#45;&gt;DeployHook -->
<g id="edge12" class="edge"><title>Start&#45;&gt;DeployHook</title>
<path fill="none" stroke="black" d="M242,-259.151C242,-251.127 242,-241.385 242,-232.407"/>
<polygon fill="black" stroke="black" points="245.5,-232.367 242,-222.367 238.5,-232.367 245.5,-232.367"/>
</g>
<!-- Open -->
<g id="node14" class="node"><title>Open</title>
<ellipse fill="#3ba9e0" stroke="#3ba9e0" cx="242" cy="-82.9189" rx="66.8378" ry="66.8378"/>
<text text-anchor="middle" x="242" y="-81.4898" font-family="Open Sans" font-size="12.00" fill="white">Serve requests</text>
</g>
<!-- DeployHook&#45;&gt;Open -->
<g id="edge13" class="edge"><title>DeployHook&#45;&gt;Open</title>
<path fill="none" stroke="black" d="M242,-186.228C242,-178.952 242,-169.916 242,-160.248"/>
<polygon fill="black" stroke="black" points="245.5,-159.992 242,-149.992 238.5,-159.992 245.5,-159.992"/>
</g>
</g>
</svg>
