<?xml version="1.0" encoding="UTF-8" standalone="no"?>
<!DOCTYPE svg PUBLIC "-//W3C//DTD SVG 1.1//EN"
 "http://www.w3.org/Graphics/SVG/1.1/DTD/svg11.dtd">
<!-- Generated by graphviz version 2.38.0 (20140413.2041)
 -->
<!-- Title: Build pipeline Pages: 1 -->
<svg width="216pt" height="987pt"
 viewBox="0.00 0.00 216.00 987.00" xmlns="http://www.w3.org/2000/svg" xmlns:xlink="http://www.w3.org/1999/xlink">
<g id="graph0" class="graph" transform="scale(1 1) rotate(0) translate(4 983)">
<title>Build pipeline</title>
<polygon fill="white" stroke="none" points="-4,4 -4,-983 212,-983 212,4 -4,4"/>
<g id="clust1" class="cluster"><title>cluster_build</title>
<polygon fill="none" stroke="black" points="8,-530 8,-971 200,-971 200,-530 8,-530"/>
<text text-anchor="middle" x="104" y="-955.8" font-family="Times,serif" font-size="14.00">Build Phase</text>
</g>
<g id="clust2" class="cluster"><title>cluster_deploy</title>
<polygon fill="none" stroke="black" points="11,-8 11,-522 197,-522 197,-8 11,-8"/>
<text text-anchor="middle" x="104" y="-506.8" font-family="Times,serif" font-size="14.00">Deploy Phase</text>
</g>
<!-- Push -->
<g id="node1" class="node"><title>Push</title>
<polygon fill="none" stroke="black" points="72,-903.5 72,-939.5 136,-939.5 136,-903.5 72,-903.5"/>
<text text-anchor="middle" x="104" y="-917.8" font-family="Times,serif" font-size="14.00">Git Push</text>
</g>
<!-- Container -->
<g id="node2" class="node"><title>Container</title>
<polygon fill="none" stroke="black" points="41.5,-830.5 41.5,-866.5 166.5,-866.5 166.5,-830.5 41.5,-830.5"/>
<text text-anchor="middle" x="104" y="-844.8" font-family="Times,serif" font-size="14.00">Assemble container</text>
</g>
<!-- Push&#45;&gt;Container -->
<g id="edge1" class="edge"><title>Push&#45;&gt;Container</title>
<path fill="none" stroke="black" d="M104,-903.313C104,-895.289 104,-885.547 104,-876.569"/>
<polygon fill="black" stroke="black" points="107.5,-876.529 104,-866.529 100.5,-876.529 107.5,-876.529"/>
</g>
<!-- Dependencies -->
<g id="node4" class="node"><title>Dependencies</title>
<polygon fill="none" stroke="black" points="40.5,-757.5 40.5,-793.5 167.5,-793.5 167.5,-757.5 40.5,-757.5"/>
<text text-anchor="middle" x="104" y="-771.8" font-family="Times,serif" font-size="14.00">Install dependencies</text>
</g>
<!-- Container&#45;&gt;Dependencies -->
<g id="edge2" class="edge"><title>Container&#45;&gt;Dependencies</title>
<path fill="none" stroke="black" d="M104,-830.313C104,-822.289 104,-812.547 104,-803.569"/>
<polygon fill="black" stroke="black" points="107.5,-803.529 104,-793.529 100.5,-803.529 107.5,-803.529"/>
</g>
<!-- PshBuild -->
<g id="node3" class="node"><title>PshBuild</title>
<polygon fill="none" stroke="black" points="16,-684.5 16,-720.5 192,-720.5 192,-684.5 16,-684.5"/>
<text text-anchor="middle" x="104" y="-698.8" font-family="Times,serif" font-size="14.00">Run Build Flavor commands</text>
</g>
<!-- BuildHook -->
<g id="node5" class="node"><title>BuildHook</title>
<polygon fill="none" stroke="black" points="53.5,-611.5 53.5,-647.5 154.5,-647.5 154.5,-611.5 53.5,-611.5"/>
<text text-anchor="middle" x="104" y="-625.8" font-family="Times,serif" font-size="14.00">Run build hook</text>
</g>
<!-- PshBuild&#45;&gt;BuildHook -->
<g id="edge4" class="edge"><title>PshBuild&#45;&gt;BuildHook</title>
<path fill="none" stroke="black" d="M104,-684.313C104,-676.289 104,-666.547 104,-657.569"/>
<polygon fill="black" stroke="black" points="107.5,-657.529 104,-647.529 100.5,-657.529 107.5,-657.529"/>
</g>
<!-- Dependencies&#45;&gt;PshBuild -->
<g id="edge3" class="edge"><title>Dependencies&#45;&gt;PshBuild</title>
<path fill="none" stroke="black" d="M104,-757.313C104,-749.289 104,-739.547 104,-730.569"/>
<polygon fill="black" stroke="black" points="107.5,-730.529 104,-720.529 100.5,-730.529 107.5,-730.529"/>
</g>
<!-- Freeze -->
<g id="node6" class="node"><title>Freeze</title>
<polygon fill="none" stroke="black" points="39,-538.5 39,-574.5 169,-574.5 169,-538.5 39,-538.5"/>
<text text-anchor="middle" x="104" y="-552.8" font-family="Times,serif" font-size="14.00">Freeze app container</text>
</g>
<!-- BuildHook&#45;&gt;Freeze -->
<g id="edge5" class="edge"><title>BuildHook&#45;&gt;Freeze</title>
<path fill="none" stroke="black" d="M104,-611.313C104,-603.289 104,-593.547 104,-584.569"/>
<polygon fill="black" stroke="black" points="107.5,-584.529 104,-574.529 100.5,-584.529 107.5,-584.529"/>
</g>
<!-- Close -->
<g id="node7" class="node"><title>Close</title>
<polygon fill="none" stroke="black" points="58,-454.5 58,-490.5 150,-490.5 150,-454.5 58,-454.5"/>
<text text-anchor="middle" x="104" y="-468.8" font-family="Times,serif" font-size="14.00">Hold requests</text>
</g>
<!-- Freeze&#45;&gt;Close -->
<g id="edge6" class="edge"><title>Freeze&#45;&gt;Close</title>
<path fill="none" stroke="black" d="M104,-538.11C104,-536.115 104,-534.008 104,-531.819"/>
<polygon fill="black" stroke="black" points="107.5,-531.808 104,-521.808 100.5,-531.808 107.5,-531.808"/>
</g>
<!-- Unmount -->
<g id="node8" class="node"><title>Unmount</title>
<polygon fill="none" stroke="black" points="19,-381.5 19,-417.5 189,-417.5 189,-381.5 19,-381.5"/>
<text text-anchor="middle" x="104" y="-395.8" font-family="Times,serif" font-size="14.00">Unmount current containers</text>
</g>
<!-- Close&#45;&gt;Unmount -->
<g id="edge7" class="edge"><title>Close&#45;&gt;Unmount</title>
<path fill="none" stroke="black" d="M104,-454.313C104,-446.289 104,-436.547 104,-427.569"/>
<polygon fill="black" stroke="black" points="107.5,-427.529 104,-417.529 100.5,-427.529 107.5,-427.529"/>
</g>
<!-- Mount -->
<g id="node9" class="node"><title>Mount</title>
<polygon fill="none" stroke="black" points="43,-308.5 43,-344.5 165,-344.5 165,-308.5 43,-308.5"/>
<text text-anchor="middle" x="104" y="-322.8" font-family="Times,serif" font-size="14.00">Mount file systems</text>
</g>
<!-- Unmount&#45;&gt;Mount -->
<g id="edge8" class="edge"><title>Unmount&#45;&gt;Mount</title>
<path fill="none" stroke="black" d="M104,-381.313C104,-373.289 104,-363.547 104,-354.569"/>
<polygon fill="black" stroke="black" points="107.5,-354.529 104,-344.529 100.5,-354.529 107.5,-354.529"/>
</g>
<!-- Services -->
<g id="node10" class="node"><title>Services</title>
<polygon fill="none" stroke="black" points="52,-235.5 52,-271.5 156,-271.5 156,-235.5 52,-235.5"/>
<text text-anchor="middle" x="104" y="-249.8" font-family="Times,serif" font-size="14.00">Expose services</text>
</g>
<!-- Mount&#45;&gt;Services -->
<g id="edge9" class="edge"><title>Mount&#45;&gt;Services</title>
<path fill="none" stroke="black" d="M104,-308.313C104,-300.289 104,-290.547 104,-281.569"/>
<polygon fill="black" stroke="black" points="107.5,-281.529 104,-271.529 100.5,-281.529 107.5,-281.529"/>
</g>
<!-- Start -->
<g id="node11" class="node"><title>Start</title>
<polygon fill="none" stroke="black" points="41.5,-162.5 41.5,-198.5 166.5,-198.5 166.5,-162.5 41.5,-162.5"/>
<text text-anchor="middle" x="104" y="-176.8" font-family="Times,serif" font-size="14.00">Run start command</text>
</g>
<!-- Services&#45;&gt;Start -->
<g id="edge10" class="edge"><title>Services&#45;&gt;Start</title>
<path fill="none" stroke="black" d="M104,-235.313C104,-227.289 104,-217.547 104,-208.569"/>
<polygon fill="black" stroke="black" points="107.5,-208.529 104,-198.529 100.5,-208.529 107.5,-208.529"/>
</g>
<!-- DeployHook -->
<g id="node12" class="node"><title>DeployHook</title>
<polygon fill="none" stroke="black" points="47.5,-89.5 47.5,-125.5 160.5,-125.5 160.5,-89.5 47.5,-89.5"/>
<text text-anchor="middle" x="104" y="-103.8" font-family="Times,serif" font-size="14.00">Run Deploy hook</text>
</g>
<!-- Start&#45;&gt;DeployHook -->
<g id="edge11" class="edge"><title>Start&#45;&gt;DeployHook</title>
<path fill="none" stroke="black" d="M104,-162.313C104,-154.289 104,-144.547 104,-135.569"/>
<polygon fill="black" stroke="black" points="107.5,-135.529 104,-125.529 100.5,-135.529 107.5,-135.529"/>
</g>
<!-- Open -->
<g id="node13" class="node"><title>Open</title>
<polygon fill="none" stroke="black" points="56.5,-16.5 56.5,-52.5 151.5,-52.5 151.5,-16.5 56.5,-16.5"/>
<text text-anchor="middle" x="104" y="-30.8" font-family="Times,serif" font-size="14.00">Serve requests</text>
</g>
<!-- DeployHook&#45;&gt;Open -->
<g id="edge12" class="edge"><title>DeployHook&#45;&gt;Open</title>
<path fill="none" stroke="black" d="M104,-89.3129C104,-81.2895 104,-71.5475 104,-62.5691"/>
<polygon fill="black" stroke="black" points="107.5,-62.5288 104,-52.5288 100.5,-62.5289 107.5,-62.5288"/>
</g>
</g>
</svg>
