<svg width="242" height="48" viewBox="0 0 242 48" fill="none" xmlns="http://www.w3.org/2000/svg">
<g clip-path="url(#clip0_426_844)">
<g clip-path="url(#clip1_426_844)">
<path d="M64.59 34.104C63.2034 34.104 62.0194 33.8 61.0327 33.1973C60.046 32.5946 59.294 31.7893 58.782 30.776C58.27 29.7626 58.014 28.6266 58.014 27.3733V14.0986H63.7847V26.2586C63.7847 27.336 64.0514 28.1466 64.59 28.68C65.1287 29.2133 65.886 29.4853 66.862 29.4853C67.7314 29.4853 68.5047 29.2826 69.1714 28.872C69.838 28.4613 70.3714 27.8906 70.766 27.16C71.166 26.4293 71.3634 25.5866 71.3634 24.6426L71.8647 29.3733C71.2247 30.7866 70.286 31.928 69.054 32.7973C67.822 33.672 66.334 34.104 64.59 34.104ZM71.4754 33.72V29.1013H71.358V14.0986H77.1287V33.72H71.4754Z" fill="white"/>
<path d="M92.756 34.1042C90.884 34.1042 89.3853 33.6668 88.2547 32.7975C87.124 31.9282 86.4573 30.7335 86.2547 29.2188L86.564 29.1815V41.6082H80.7933V14.0935H86.4467V18.4402L86.1 18.3655C86.3827 16.9308 87.1507 15.7948 88.4093 14.9628C89.668 14.1308 91.22 13.7148 93.0653 13.7148C94.9107 13.7148 96.3667 14.1308 97.6627 14.9628C98.9587 15.7948 99.956 16.9682 100.665 18.4828C101.369 19.9975 101.721 21.7788 101.721 23.8322C101.721 25.8855 101.348 27.7202 100.607 29.2562C99.86 30.7975 98.8253 31.9868 97.492 32.8348C96.1587 33.6828 94.58 34.1042 92.7613 34.1042H92.756ZM91.14 29.4855C92.5 29.4855 93.604 29.0002 94.4467 28.0242C95.2947 27.0482 95.716 25.6668 95.716 23.8695C95.716 22.0722 95.284 20.7015 94.4253 19.7522C93.5667 18.8028 92.4413 18.3282 91.06 18.3282C89.6787 18.3282 88.628 18.8082 87.7693 19.7735C86.9107 20.7335 86.4787 22.1148 86.4787 23.9068C86.4787 25.6988 86.9053 27.0802 87.7693 28.0402C88.628 29.0002 89.7533 29.4855 91.1347 29.4855H91.14Z" fill="white"/>
<path d="M112.872 34.1041C109.998 34.1041 107.715 33.5281 106.024 32.3708C104.334 31.2134 103.406 29.6241 103.256 27.5974H108.414C108.542 28.4668 108.984 29.1281 109.742 29.5761C110.499 30.0241 111.544 30.2481 112.878 30.2481C114.083 30.2481 114.963 30.0721 115.512 29.7308C116.062 29.3841 116.339 28.8934 116.339 28.2481C116.339 27.7628 116.179 27.3841 115.859 27.1121C115.539 26.8454 114.952 26.6214 114.11 26.4401L110.952 25.7841C108.616 25.2988 106.899 24.5574 105.795 23.5708C104.691 22.5841 104.142 21.3094 104.142 19.7414C104.142 17.8428 104.872 16.3601 106.334 15.2988C107.795 14.2321 109.832 13.7041 112.451 13.7041C115.07 13.7041 117.107 14.2214 118.643 15.2614C120.184 16.3014 121.027 17.7414 121.182 19.5921H116.024C115.923 18.9254 115.56 18.4188 114.947 18.0721C114.334 17.7254 113.459 17.5548 112.328 17.5548C111.304 17.5548 110.542 17.7041 110.04 17.9974C109.539 18.2908 109.288 18.7068 109.288 19.2454C109.288 19.7094 109.491 20.0721 109.902 20.3441C110.312 20.6108 110.99 20.8508 111.939 21.0534L115.48 21.7841C117.454 22.1948 118.947 22.9574 119.96 24.0721C120.974 25.1868 121.48 26.5041 121.48 28.0134C121.48 29.9388 120.728 31.4321 119.23 32.4934C117.731 33.5601 115.608 34.0881 112.862 34.0881L112.872 34.1041Z" fill="white"/>
<path d="M130.235 34.104C128.848 34.104 127.664 33.8 126.677 33.1973C125.691 32.5946 124.939 31.7893 124.427 30.776C123.915 29.7626 123.659 28.6266 123.659 27.3733V14.0986H129.429V26.2586C129.429 27.336 129.696 28.1466 130.235 28.68C130.773 29.2186 131.531 29.4853 132.507 29.4853C133.376 29.4853 134.149 29.2826 134.816 28.872C135.483 28.4613 136.016 27.8906 136.411 27.16C136.805 26.4293 137.008 25.5866 137.008 24.6426L137.509 29.3733C136.869 30.7866 135.931 31.928 134.699 32.7973C133.467 33.672 131.979 34.104 130.235 34.104ZM137.12 33.72V29.1013H137.003V14.0986H142.773V33.72H137.12Z" fill="white"/>
<path d="M146.43 33.7202V14.0935H152.083V18.7122H152.201V33.7148H146.43V33.7202ZM160.089 33.7255V21.5655C160.089 20.4882 159.811 19.6775 159.262 19.1442C158.713 18.6055 157.907 18.3388 156.857 18.3388C155.961 18.3388 155.155 18.5468 154.451 18.9522C153.747 19.3628 153.193 19.9282 152.798 20.6428C152.398 21.3628 152.201 22.2055 152.201 23.1815L151.699 18.4508C152.339 17.0162 153.283 15.8695 154.526 15.0055C155.769 14.1468 157.305 13.7148 159.123 13.7148C161.305 13.7148 162.969 14.3228 164.126 15.5442C165.278 16.7655 165.859 18.3975 165.859 20.4508V33.7255H160.089Z" fill="white"/>
<path d="M23.4121 12.5467C29.7907 12.5467 34.9481 17.7147 34.9481 24.0827H46.4841C46.4841 11.336 36.1534 1 23.3961 1C10.6387 1 0.318726 11.3253 0.318726 24.0773H11.8547C11.8814 17.6987 17.0494 12.5413 23.4121 12.5413V12.5467Z" fill="white"/>
<path d="M27.32 34.93C31.768 33.3247 34.9413 29.074 34.9413 24.082H11.8747C11.8747 29.074 15.0533 33.3354 19.496 34.93V35.1274H3.15466C7.064 42.29 14.6747 47.1487 23.4213 47.1487C32.168 47.1487 39.7627 42.29 43.688 35.1274H27.32V34.93Z" fill="white"/>
</g>
</g>
<rect x="174.319" y="13.5" width="67.3195" height="21" rx="4" fill="#D5F800"/>
<path d="M231.202 28.38C230.402 28.38 229.766 28.204 229.294 27.852C228.822 27.5 228.554 27.004 228.49 26.364H229.642C229.698 26.716 229.858 26.988 230.122 27.18C230.394 27.364 230.762 27.456 231.226 27.456C231.634 27.456 231.946 27.384 232.162 27.24C232.378 27.096 232.486 26.892 232.486 26.628C232.486 26.436 232.422 26.276 232.294 26.148C232.174 26.012 231.934 25.9 231.574 25.812L230.59 25.584C229.974 25.432 229.514 25.208 229.21 24.912C228.914 24.608 228.766 24.236 228.766 23.796C228.766 23.244 228.97 22.812 229.378 22.5C229.794 22.18 230.362 22.02 231.082 22.02C231.794 22.02 232.366 22.18 232.798 22.5C233.238 22.82 233.486 23.268 233.542 23.844H232.39C232.342 23.556 232.202 23.336 231.97 23.184C231.746 23.024 231.438 22.944 231.046 22.944C230.678 22.944 230.394 23.012 230.194 23.148C230.002 23.276 229.906 23.456 229.906 23.688C229.906 23.88 229.978 24.04 230.122 24.168C230.274 24.296 230.522 24.404 230.866 24.492L231.874 24.744C232.458 24.888 232.898 25.124 233.194 25.452C233.49 25.772 233.638 26.16 233.638 26.616C233.638 27.168 233.422 27.6 232.99 27.912C232.566 28.224 231.97 28.38 231.202 28.38Z" fill="#2B3200"/>
<path d="M225.023 28.38C224.439 28.38 223.919 28.244 223.463 27.972C223.007 27.692 222.647 27.312 222.383 26.832C222.127 26.352 221.999 25.804 221.999 25.188C221.999 24.572 222.127 24.028 222.383 23.556C222.647 23.076 223.007 22.7 223.463 22.428C223.919 22.156 224.435 22.02 225.011 22.02C225.499 22.02 225.935 22.112 226.319 22.296C226.703 22.48 227.019 22.736 227.267 23.064C227.515 23.392 227.675 23.78 227.747 24.228H226.571C226.491 23.868 226.315 23.58 226.043 23.364C225.779 23.148 225.443 23.04 225.035 23.04C224.683 23.04 224.375 23.128 224.111 23.304C223.847 23.48 223.643 23.728 223.499 24.048C223.355 24.368 223.283 24.748 223.283 25.188C223.283 25.62 223.355 26 223.499 26.328C223.643 26.656 223.847 26.912 224.111 27.096C224.375 27.272 224.687 27.36 225.047 27.36C225.439 27.36 225.771 27.256 226.043 27.048C226.323 26.832 226.503 26.544 226.583 26.184H227.759C227.679 26.624 227.511 27.008 227.255 27.336C227.007 27.664 226.691 27.92 226.307 28.104C225.923 28.288 225.495 28.38 225.023 28.38Z" fill="#2B3200"/>
<path d="M218.053 28.38C217.429 28.38 216.881 28.244 216.409 27.972C215.937 27.692 215.569 27.312 215.305 26.832C215.041 26.344 214.909 25.792 214.909 25.176C214.909 24.552 215.041 24.004 215.305 23.532C215.577 23.06 215.945 22.692 216.409 22.428C216.881 22.156 217.429 22.02 218.053 22.02C218.685 22.02 219.237 22.156 219.709 22.428C220.181 22.692 220.545 23.06 220.801 23.532C221.065 24.004 221.197 24.552 221.197 25.176C221.197 25.792 221.065 26.344 220.801 26.832C220.545 27.312 220.181 27.692 219.709 27.972C219.237 28.244 218.685 28.38 218.053 28.38ZM218.053 27.36C218.429 27.36 218.753 27.268 219.025 27.084C219.305 26.9 219.525 26.644 219.685 26.316C219.845 25.988 219.925 25.604 219.925 25.164C219.925 24.508 219.749 23.992 219.397 23.616C219.053 23.232 218.605 23.04 218.053 23.04C217.509 23.04 217.061 23.232 216.709 23.616C216.365 24 216.193 24.516 216.193 25.164C216.193 25.604 216.269 25.988 216.421 26.316C216.581 26.644 216.801 26.9 217.081 27.084C217.369 27.268 217.693 27.36 218.053 27.36Z" fill="#2B3200"/>
<path d="M212.445 28.2601V26.8561L212.565 26.8921C212.437 27.3481 212.173 27.7121 211.773 27.9841C211.373 28.2481 210.893 28.3801 210.333 28.3801C209.781 28.3801 209.297 28.2481 208.881 27.9841C208.473 27.7201 208.153 27.3521 207.921 26.8801C207.697 26.4081 207.585 25.8561 207.585 25.2241C207.585 24.5841 207.701 24.0241 207.933 23.5441C208.165 23.0641 208.489 22.6921 208.905 22.4281C209.321 22.1641 209.809 22.0321 210.369 22.0321C210.953 22.0321 211.433 22.1721 211.809 22.4521C212.193 22.7241 212.445 23.1081 212.565 23.6041L212.397 23.6281V19.6201H213.633V28.2601H212.445ZM210.645 27.3361C211.197 27.3361 211.633 27.1481 211.953 26.7721C212.273 26.3881 212.433 25.8601 212.433 25.1881C212.433 24.5321 212.269 24.0161 211.941 23.6401C211.621 23.2561 211.185 23.0641 210.633 23.0641C210.089 23.0641 209.657 23.2561 209.337 23.6401C209.025 24.0161 208.869 24.5441 208.869 25.2241C208.869 25.8881 209.025 26.4081 209.337 26.7841C209.657 27.1521 210.093 27.3361 210.645 27.3361Z" fill="#2B3200"/>
<path d="M203.018 28.2601L201.062 25.4641L198.578 22.1401H199.994L201.782 24.6961L204.434 28.2601H203.018ZM201.146 24.6961L202.97 22.1401H204.338L201.77 25.5481L201.146 24.6961ZM201.65 25.5841L199.682 28.2601H198.302L201.05 24.7081L201.65 25.5841Z" fill="#2B3200"/>
<path d="M195.119 28.38C194.503 28.38 193.959 28.244 193.487 27.972C193.023 27.7 192.659 27.324 192.395 26.844C192.131 26.364 191.999 25.812 191.999 25.188C191.999 24.556 192.127 24.004 192.383 23.532C192.647 23.052 193.015 22.68 193.487 22.416C193.959 22.152 194.499 22.02 195.107 22.02C195.699 22.02 196.211 22.148 196.643 22.404C197.083 22.652 197.419 23 197.651 23.448C197.891 23.896 198.011 24.428 198.011 25.044C198.011 25.14 198.007 25.232 197.999 25.32C197.999 25.4 197.991 25.484 197.975 25.572H192.839V24.636H197.099L196.787 25.008C196.787 24.352 196.639 23.852 196.343 23.508C196.047 23.164 195.635 22.992 195.107 22.992C194.539 22.992 194.087 23.188 193.751 23.58C193.423 23.964 193.259 24.5 193.259 25.188C193.259 25.884 193.423 26.428 193.751 26.82C194.087 27.212 194.551 27.408 195.143 27.408C195.503 27.408 195.815 27.336 196.079 27.192C196.343 27.04 196.539 26.82 196.667 26.532H197.843C197.643 27.108 197.303 27.56 196.823 27.888C196.351 28.216 195.783 28.38 195.119 28.38Z" fill="#2B3200"/>
<path d="M189.479 28.2601V19.6201H190.727V28.2601H189.479Z" fill="#2B3200"/>
<path d="M182.319 28.2601V19.6201H183.591V28.2601H182.319ZM182.943 24.6721V23.6281H187.695V24.6721H182.943ZM182.943 20.6641V19.6201H188.019V20.6641H182.943Z" fill="#2B3200"/>
<defs>
<clipPath id="clip0_426_844">
<rect width="166" height="48" fill="white" transform="translate(0.318726)"/>
</clipPath>
<clipPath id="clip1_426_844">
<rect width="165.541" height="46.1493" fill="white" transform="translate(0.318726 1)"/>
</clipPath>
</defs>
</svg>
