<svg width="114" height="43" viewBox="0 0 114 43" fill="none" xmlns="http://www.w3.org/2000/svg">
<g clip-path="url(#clip0_8360_8293)">
<g clip-path="url(#clip1_8360_8293)">
<path d="M44.3166 22.8259C43.3605 22.8259 42.5441 22.6163 41.8638 22.2008C41.1834 21.7852 40.6649 21.2299 40.3119 20.5312C39.9589 19.8325 39.7823 19.0492 39.7823 18.185V9.03194H43.7613V17.4165C43.7613 18.1593 43.9452 18.7183 44.3166 19.086C44.688 19.4537 45.2102 19.6413 45.8832 19.6413C46.4826 19.6413 47.0158 19.5016 47.4755 19.2184C47.9352 18.9352 48.3029 18.5417 48.5751 18.0379C48.8509 17.5341 48.9869 16.9531 48.9869 16.3022L49.3326 19.5641C48.8913 20.5386 48.2441 21.3256 47.3946 21.925C46.5451 22.5281 45.5191 22.8259 44.3166 22.8259ZM49.0642 22.5612V19.3765H48.9833V9.03194H52.9622V22.5612H49.0642Z" fill="white"/>
<path d="M63.737 22.8257C62.4463 22.8257 61.4129 22.5242 60.6333 21.9248C59.8537 21.3254 59.394 20.5016 59.2543 19.4572L59.4676 19.4315V27.9999H55.4886V9.02806H59.3867V12.0252L59.1476 11.9737C59.3425 10.9845 59.8721 10.2012 60.7399 9.62748C61.6078 9.05381 62.6779 8.76697 63.9503 8.76697C65.2227 8.76697 66.2267 9.05381 67.1203 9.62748C68.0139 10.2012 68.7016 11.0102 69.1906 12.0546C69.6761 13.099 69.9188 14.3272 69.9188 15.743C69.9188 17.1588 69.6614 18.4239 69.1502 19.483C68.6354 20.5457 67.9219 21.3658 67.0026 21.9505C66.0832 22.5352 64.9947 22.8257 63.7407 22.8257H63.737ZM62.6228 19.6411C63.5605 19.6411 64.3217 19.3064 64.9028 18.6335C65.4875 17.9605 65.778 17.0081 65.778 15.7688C65.778 14.5295 65.4801 13.5844 64.8881 12.9298C64.296 12.2752 63.5201 11.9479 62.5676 11.9479C61.6152 11.9479 60.8907 12.2789 60.2987 12.9445C59.7066 13.6065 59.4087 14.5589 59.4087 15.7945C59.4087 17.0301 59.7029 17.9826 60.2987 18.6445C60.8907 19.3065 61.6667 19.6411 62.6191 19.6411H62.6228Z" fill="white"/>
<path d="M77.6082 22.8259C75.626 22.8259 74.0521 22.4287 72.8864 21.6307C71.7206 20.8327 71.0808 19.7368 70.9778 18.3394H74.5338C74.6221 18.9388 74.9273 19.3948 75.4495 19.7037C75.9717 20.0126 76.6925 20.1671 77.6119 20.1671C78.4429 20.1671 79.0497 20.0457 79.4285 19.8104C79.8073 19.5713 79.9985 19.233 79.9985 18.788C79.9985 18.4534 79.8882 18.1923 79.6675 18.0048C79.4469 17.8209 79.0424 17.6664 78.4613 17.5414L76.2843 17.0891C74.6736 16.7544 73.4895 16.2433 72.7282 15.563C71.967 14.8826 71.5882 14.0037 71.5882 12.9226C71.5882 11.6134 72.092 10.5911 73.0997 9.85928C74.1073 9.12379 75.512 8.75973 77.3177 8.75973C79.1233 8.75973 80.528 9.11644 81.5871 9.83353C82.6499 10.5506 83.2309 11.5435 83.3376 12.8196H79.7815C79.7117 12.3599 79.4616 12.0106 79.0387 11.7715C78.6158 11.5325 78.0127 11.4148 77.2331 11.4148C76.527 11.4148 76.0011 11.5178 75.6555 11.7201C75.3098 11.9223 75.1369 12.2091 75.1369 12.5806C75.1369 12.9005 75.2767 13.1506 75.5598 13.3381C75.843 13.522 76.31 13.6875 76.9646 13.8272L79.4064 14.331C80.7671 14.6142 81.7968 15.14 82.4955 15.9086C83.1942 16.6772 83.5435 17.5855 83.5435 18.6262C83.5435 19.9538 83.025 20.9835 81.9917 21.7153C80.9583 22.4508 79.4947 22.8148 77.6008 22.8148L77.6082 22.8259Z" fill="white"/>
<path d="M89.5783 22.8259C88.6221 22.8259 87.8057 22.6163 87.1254 22.2008C86.4451 21.7852 85.9266 21.2299 85.5736 20.5312C85.2205 19.8325 85.044 19.0492 85.044 18.185V9.03194H89.023V17.4165C89.023 18.1593 89.2068 18.7183 89.5783 19.086C89.9497 19.4574 90.4719 19.6413 91.1448 19.6413C91.7443 19.6413 92.2775 19.5016 92.7372 19.2184C93.1968 18.9352 93.5646 18.5417 93.8367 18.0379C94.1088 17.5341 94.2486 16.9531 94.2486 16.3022L94.5943 19.5641C94.153 20.5386 93.5058 21.3256 92.6563 21.925C91.8068 22.5281 90.7808 22.8259 89.5783 22.8259ZM94.3258 22.5612V19.3765H94.2449V9.03194H98.2239V22.5612H94.3258Z" fill="white"/>
<path d="M100.747 22.561V9.02806H104.645V12.2127H104.726V22.5573H100.747V22.561ZM110.164 22.5646V14.1801C110.164 13.4373 109.973 12.8783 109.594 12.5106C109.216 12.1392 108.66 11.9553 107.936 11.9553C107.318 11.9553 106.763 12.0987 106.277 12.3782C105.792 12.6614 105.41 13.0512 105.137 13.5439C104.862 14.0404 104.726 14.6214 104.726 15.2944L104.38 12.0325C104.821 11.0433 105.472 10.2526 106.329 9.6569C107.186 9.06484 108.245 8.76697 109.499 8.76697C111.003 8.76697 112.15 9.18619 112.948 10.0283C113.743 10.8705 114.143 11.9957 114.143 13.4115V22.5646H110.164Z" fill="white"/>
<path d="M15.9232 7.96161C20.3214 7.96161 23.8775 11.525 23.8775 15.9159H31.8317C31.8317 7.12684 24.7086 0 15.9122 0C7.11581 0 0 7.11948 0 15.9122H7.95426C7.97264 11.514 11.5361 7.95793 15.9232 7.95793V7.96161Z" fill="white"/>
<path d="M18.6187 23.3955C21.6857 22.2886 23.8738 19.3577 23.8738 15.9156H7.96894C7.96894 19.3577 10.1607 22.2959 13.224 23.3955V23.5315H1.95636C4.65191 28.4703 9.89958 31.8204 15.9306 31.8204C21.9615 31.8204 27.1982 28.4703 29.9047 23.5315H18.6187V23.3955Z" fill="white"/>
</g>
<path d="M39.7162 40.8718V36.1049H41.6881C42.0243 36.1049 42.311 36.1623 42.548 36.277C42.7851 36.3918 42.9661 36.5551 43.0911 36.767C43.2204 36.9788 43.2851 37.2304 43.2851 37.5217C43.2851 37.8175 43.2204 38.0735 43.0911 38.2897C42.9661 38.5016 42.7829 38.6671 42.5416 38.7863C42.3045 38.9055 42.02 38.965 41.6881 38.965H40.2399V38.3824H41.6558C41.9618 38.3824 42.1946 38.3074 42.3541 38.1573C42.5178 38.0072 42.5997 37.7976 42.5997 37.5284C42.5997 37.2547 42.52 37.045 42.3605 36.8994C42.201 36.7537 41.9661 36.6809 41.6558 36.6809H40.4015V40.8718H39.7162Z" fill="white"/>
<path d="M45.4304 40.938C45.0942 40.938 44.7989 40.863 44.5446 40.7129C44.2903 40.5584 44.092 40.3488 43.9498 40.0839C43.8076 39.8147 43.7364 39.5101 43.7364 39.1703C43.7364 38.826 43.8076 38.5237 43.9498 38.2632C44.0963 38.0028 44.2946 37.7998 44.5446 37.6541C44.7989 37.5041 45.0942 37.429 45.4304 37.429C45.7709 37.429 46.0683 37.5041 46.3226 37.6541C46.5769 37.7998 46.773 38.0028 46.9109 38.2632C47.0532 38.5237 47.1243 38.826 47.1243 39.1703C47.1243 39.5101 47.0532 39.8147 46.9109 40.0839C46.773 40.3488 46.5769 40.5584 46.3226 40.7129C46.0683 40.863 45.7709 40.938 45.4304 40.938ZM45.4304 40.3752C45.6329 40.3752 45.8075 40.3245 45.9541 40.223C46.1049 40.1214 46.2234 39.9802 46.3096 39.7992C46.3959 39.6183 46.439 39.4064 46.439 39.1637C46.439 38.8017 46.3441 38.517 46.1545 38.3096C45.9691 38.0977 45.7278 37.9918 45.4304 37.9918C45.1373 37.9918 44.8959 38.0977 44.7062 38.3096C44.5209 38.5215 44.4282 38.8061 44.4282 39.1637C44.4282 39.4064 44.4692 39.6183 44.5511 39.7992C44.6373 39.9802 44.7558 40.1214 44.9067 40.223C45.0618 40.3245 45.2364 40.3752 45.4304 40.3752Z" fill="white"/>
<path d="M48.6183 40.8718L47.6097 37.4953H48.3015L48.9868 40.2097H48.8898L49.7239 37.4953H50.3057L51.1398 40.2097H51.0493L51.7281 37.4953H52.3876L51.379 40.8718H50.7907L49.9566 38.2037H50.0536L49.2066 40.8718H48.6183Z" fill="white"/>
<path d="M54.55 40.938C54.2181 40.938 53.925 40.863 53.6707 40.7129C53.4207 40.5628 53.2246 40.3554 53.0824 40.0906C52.9401 39.8257 52.869 39.5212 52.869 39.1769C52.869 38.8282 52.938 38.5237 53.0759 38.2632C53.2181 37.9984 53.4164 37.7932 53.6707 37.6475C53.925 37.5019 54.216 37.429 54.5435 37.429C54.8625 37.429 55.1384 37.4997 55.3711 37.6409C55.6082 37.7777 55.7892 37.9697 55.9142 38.2169C56.0435 38.4641 56.1082 38.7576 56.1082 39.0975C56.1082 39.1504 56.106 39.2012 56.1017 39.2497C56.1017 39.2939 56.0974 39.3402 56.0888 39.3888H53.3216V38.8723H55.6168L55.4487 39.0776C55.4487 38.7157 55.369 38.4398 55.2095 38.25C55.05 38.0602 54.828 37.9653 54.5435 37.9653C54.2375 37.9653 53.994 38.0735 53.813 38.2897C53.6362 38.5016 53.5479 38.7973 53.5479 39.1769C53.5479 39.5609 53.6362 39.861 53.813 40.0773C53.994 40.2936 54.244 40.4017 54.5629 40.4017C54.7569 40.4017 54.925 40.362 55.0672 40.2826C55.2095 40.1987 55.3151 40.0773 55.384 39.9184H56.0176C55.9099 40.2362 55.7267 40.4856 55.4681 40.6665C55.2138 40.8475 54.9078 40.938 54.55 40.938Z" fill="white"/>
<path d="M56.9899 40.8718V37.4953H57.63V38.3361H57.6623V40.8718H56.9899ZM57.6623 39.1107L57.5783 38.3096C57.6559 38.0227 57.7895 37.8042 57.9791 37.6541C58.1688 37.5041 58.3951 37.429 58.658 37.429C58.7571 37.429 58.8261 37.4379 58.8649 37.4555V38.1044C58.8433 38.0955 58.8132 38.0911 58.7744 38.0911C58.7356 38.0867 58.6882 38.0845 58.6321 38.0845C58.3089 38.0845 58.0653 38.1706 57.9015 38.3427C57.7421 38.5148 57.6623 38.7708 57.6623 39.1107Z" fill="white"/>
<path d="M60.9866 40.938C60.6547 40.938 60.3616 40.863 60.1073 40.7129C59.8573 40.5628 59.6612 40.3554 59.5189 40.0906C59.3767 39.8257 59.3056 39.5212 59.3056 39.1769C59.3056 38.8282 59.3746 38.5237 59.5125 38.2632C59.6547 37.9984 59.853 37.7932 60.1073 37.6475C60.3616 37.5019 60.6525 37.429 60.9801 37.429C61.2991 37.429 61.5749 37.4997 61.8077 37.6409C62.0447 37.7777 62.2258 37.9697 62.3508 38.2169C62.4801 38.4641 62.5447 38.7576 62.5447 39.0975C62.5447 39.1504 62.5426 39.2012 62.5383 39.2497C62.5383 39.2939 62.534 39.3402 62.5253 39.3888H59.7582V38.8723H62.0534L61.8853 39.0776C61.8853 38.7157 61.8055 38.4398 61.646 38.25C61.4866 38.0602 61.2646 37.9653 60.9801 37.9653C60.6741 37.9653 60.4306 38.0735 60.2495 38.2897C60.0728 38.5016 59.9844 38.7973 59.9844 39.1769C59.9844 39.5609 60.0728 39.861 60.2495 40.0773C60.4306 40.2936 60.6806 40.4017 60.9995 40.4017C61.1935 40.4017 61.3616 40.362 61.5038 40.2826C61.646 40.1987 61.7516 40.0773 61.8206 39.9184H62.4542C62.3465 40.2362 62.1633 40.4856 61.9047 40.6665C61.6504 40.8475 61.3443 40.938 60.9866 40.938Z" fill="white"/>
<path d="M65.8247 40.8718V40.0972L65.8894 40.117C65.8204 40.3686 65.6782 40.5694 65.4626 40.7195C65.2471 40.8652 64.9885 40.938 64.6868 40.938C64.3894 40.938 64.1286 40.8652 63.9045 40.7195C63.6847 40.5739 63.5123 40.3708 63.3873 40.1104C63.2666 39.85 63.2062 39.5454 63.2062 39.1968C63.2062 38.8437 63.2687 38.5347 63.3937 38.2699C63.5187 38.005 63.6933 37.7998 63.9174 37.6541C64.1415 37.5085 64.4045 37.4357 64.7062 37.4357C65.0208 37.4357 65.2795 37.5129 65.482 37.6674C65.6889 37.8175 65.8247 38.0293 65.8894 38.303L65.7988 38.3162V36.1049H66.4648V40.8718H65.8247ZM64.8549 40.362C65.1523 40.362 65.3872 40.2583 65.5596 40.0508C65.732 39.839 65.8182 39.5477 65.8182 39.1769C65.8182 38.815 65.7299 38.5303 65.5532 38.3228C65.3807 38.111 65.1458 38.005 64.8484 38.005C64.5553 38.005 64.3226 38.111 64.1502 38.3228C63.9821 38.5303 63.898 38.8216 63.898 39.1968C63.898 39.5631 63.9821 39.85 64.1502 40.0574C64.3226 40.2605 64.5575 40.362 64.8549 40.362Z" fill="white"/>
<path d="M70.8324 40.9314C70.5221 40.9314 70.2635 40.8563 70.0566 40.7063C69.8497 40.5518 69.7139 40.3377 69.6493 40.0641L69.7139 40.0508V40.8718H69.0738V36.1049H69.7462V38.2699L69.6751 38.25C69.7484 37.994 69.8906 37.7932 70.1018 37.6475C70.3174 37.5019 70.576 37.429 70.8777 37.429C71.1751 37.429 71.4316 37.5019 71.6471 37.6475C71.8669 37.7932 72.035 37.9962 72.1514 38.2566C72.272 38.517 72.3324 38.8216 72.3324 39.1703C72.3324 39.5234 72.2699 39.8323 72.1449 40.0972C72.0199 40.362 71.8453 40.5672 71.6212 40.7129C71.3971 40.8585 71.1341 40.9314 70.8324 40.9314ZM70.6902 40.362C70.9833 40.362 71.216 40.2561 71.3884 40.0442C71.5609 39.8323 71.6471 39.541 71.6471 39.1703C71.6471 38.8039 71.5609 38.5192 71.3884 38.3162C71.216 38.1088 70.9811 38.005 70.6837 38.005C70.3906 38.005 70.1557 38.111 69.979 38.3228C69.8066 38.5303 69.7204 38.8194 69.7204 39.1901C69.7204 39.5521 69.8066 39.839 69.979 40.0508C70.1557 40.2583 70.3928 40.362 70.6902 40.362Z" fill="white"/>
<path d="M73.3839 42.229L74.1791 40.3686L74.3149 40.1501L75.317 37.4953H76.0153L74.0757 42.229H73.3839ZM74.1468 40.8718L72.7373 37.4953H73.4679L74.664 40.5341L74.1468 40.8718Z" fill="white"/>
<path d="M78.2364 40.8718V36.1049H80.2083C80.5445 36.1049 80.8312 36.1623 81.0682 36.277C81.3053 36.3918 81.4863 36.5551 81.6113 36.767C81.7406 36.9788 81.8053 37.2304 81.8053 37.5217C81.8053 37.8175 81.7406 38.0735 81.6113 38.2897C81.4863 38.5016 81.3031 38.6671 81.0617 38.7863C80.8247 38.9055 80.5402 38.965 80.2083 38.965H78.7601V38.3824H80.176C80.482 38.3824 80.7148 38.3074 80.8743 38.1573C81.038 38.0072 81.1199 37.7976 81.1199 37.5284C81.1199 37.2547 81.0402 37.045 80.8807 36.8994C80.7212 36.7537 80.4863 36.6809 80.176 36.6809H78.9217V40.8718H78.2364Z" fill="white"/>
<path d="M82.6983 40.8718V36.1049H83.3707V40.8718H82.6983Z" fill="white"/>
<path d="M86.5517 40.8718C86.5301 40.7879 86.5151 40.6952 86.5064 40.5937C86.5021 40.4922 86.5 40.3686 86.5 40.223H86.4677V38.6141C86.4677 38.3979 86.4138 38.2368 86.306 38.1308C86.2026 38.0205 86.0366 37.9653 85.8082 37.9653C85.5884 37.9653 85.4116 38.0095 85.278 38.0977C85.1487 38.186 85.0733 38.3118 85.0517 38.4751H84.4117C84.4418 38.1573 84.5819 37.9035 84.8319 37.7137C85.0819 37.5239 85.416 37.429 85.834 37.429C86.2651 37.429 86.5883 37.5328 86.8038 37.7402C87.0194 37.9432 87.1271 38.2434 87.1271 38.6406V40.223C87.1271 40.3245 87.1336 40.4282 87.1465 40.5341C87.1594 40.6401 87.1788 40.7526 87.2047 40.8718H86.5517ZM85.4138 40.938C85.0776 40.938 84.8104 40.8541 84.6121 40.6864C84.4138 40.5143 84.3147 40.2826 84.3147 39.9912C84.3147 39.6911 84.4181 39.455 84.625 39.2828C84.8362 39.1063 85.1379 38.9871 85.5302 38.9253L86.6164 38.7466V39.2299L85.6336 39.3888C85.4138 39.4241 85.2479 39.4837 85.1358 39.5675C85.028 39.6514 84.9742 39.7728 84.9742 39.9317C84.9742 40.0861 85.0237 40.2031 85.1229 40.2826C85.2263 40.3576 85.375 40.3951 85.569 40.3951C85.8276 40.3951 86.0409 40.3311 86.209 40.2031C86.3814 40.0751 86.4677 39.914 86.4677 39.7198L86.5517 40.2097C86.4741 40.4437 86.3362 40.6246 86.1379 40.7526C85.9396 40.8762 85.6983 40.938 85.4138 40.938Z" fill="white"/>
<path d="M89.5024 40.938C89.1188 40.938 88.8365 40.8475 88.6555 40.6665C88.4787 40.4812 88.3904 40.2097 88.3904 39.8522V36.7206L89.0563 36.4624V39.8588C89.0563 40.0354 89.1016 40.1656 89.1921 40.2494C89.2826 40.3333 89.4292 40.3752 89.6317 40.3752C89.7093 40.3752 89.7783 40.3686 89.8386 40.3554C89.899 40.3421 89.9507 40.3267 89.9938 40.309V40.8652C89.9464 40.8872 89.8796 40.9049 89.7934 40.9181C89.7072 40.9314 89.6102 40.938 89.5024 40.938ZM87.7309 38.0448V37.4953H89.9938V38.0448H87.7309Z" fill="white"/>
<path d="M91.1724 40.8718V37.1046C91.1724 36.7604 91.2672 36.4977 91.4569 36.3168C91.6465 36.1314 91.931 36.0387 92.3103 36.0387C92.3965 36.0387 92.4676 36.0431 92.5237 36.0519C92.5797 36.0608 92.6293 36.074 92.6724 36.0917V36.6213C92.6422 36.6125 92.6013 36.6037 92.5495 36.5948C92.5021 36.586 92.4482 36.5816 92.3879 36.5816C92.1983 36.5816 92.0603 36.6302 91.9741 36.7273C91.8879 36.8199 91.8448 36.9524 91.8448 37.1245V40.8718H91.1724ZM90.5388 38.0448V37.4953H92.6013V38.0448H90.5388Z" fill="white"/>
<path d="M94.7464 40.938C94.4102 40.938 94.115 40.863 93.8607 40.7129C93.6064 40.5584 93.4081 40.3488 93.2659 40.0839C93.1236 39.8147 93.0525 39.5101 93.0525 39.1703C93.0525 38.826 93.1236 38.5237 93.2659 38.2632C93.4124 38.0028 93.6107 37.7998 93.8607 37.6541C94.115 37.5041 94.4102 37.429 94.7464 37.429C95.087 37.429 95.3844 37.5041 95.6387 37.6541C95.893 37.7998 96.0891 38.0028 96.227 38.2632C96.3693 38.5237 96.4404 38.826 96.4404 39.1703C96.4404 39.5101 96.3693 39.8147 96.227 40.0839C96.0891 40.3488 95.893 40.5584 95.6387 40.7129C95.3844 40.863 95.087 40.938 94.7464 40.938ZM94.7464 40.3752C94.949 40.3752 95.1236 40.3245 95.2701 40.223C95.421 40.1214 95.5395 39.9802 95.6257 39.7992C95.7119 39.6183 95.7551 39.4064 95.7551 39.1637C95.7551 38.8017 95.6602 38.517 95.4706 38.3096C95.2852 38.0977 95.0439 37.9918 94.7464 37.9918C94.4534 37.9918 94.212 38.0977 94.0223 38.3096C93.837 38.5215 93.7443 38.8061 93.7443 39.1637C93.7443 39.4064 93.7853 39.6183 93.8672 39.7992C93.9534 39.9802 94.0719 40.1214 94.2228 40.223C94.3779 40.3245 94.5525 40.3752 94.7464 40.3752Z" fill="white"/>
<path d="M97.325 40.8718V37.4953H97.965V38.3361H97.9974V40.8718H97.325ZM97.9974 39.1107L97.9133 38.3096C97.9909 38.0227 98.1245 37.8042 98.3142 37.6541C98.5038 37.5041 98.7301 37.429 98.993 37.429C99.0922 37.429 99.1611 37.4379 99.1999 37.4555V38.1044C99.1784 38.0955 99.1482 38.0911 99.1094 38.0911C99.0706 38.0867 99.0232 38.0845 98.9672 38.0845C98.6439 38.0845 98.4004 38.1706 98.2366 38.3427C98.0771 38.5148 97.9974 38.7708 97.9974 39.1107Z" fill="white"/>
<path d="M99.994 40.8718V37.4953H100.634V38.2897H100.666V40.8718H99.994ZM102.218 40.8718V38.6671C102.218 38.4376 102.166 38.2699 102.063 38.1639C101.959 38.058 101.811 38.005 101.617 38.005C101.436 38.005 101.272 38.0492 101.125 38.1375C100.983 38.2213 100.871 38.3405 100.789 38.495C100.707 38.645 100.666 38.8238 100.666 39.0312L100.582 38.2434C100.69 37.9918 100.852 37.7932 101.067 37.6475C101.287 37.5019 101.533 37.429 101.804 37.429C102.132 37.429 102.393 37.5261 102.587 37.7204C102.785 37.9146 102.884 38.1706 102.884 38.4884V40.8718H102.218ZM104.442 40.8718V38.6671C104.442 38.4376 104.388 38.2699 104.28 38.1639C104.177 38.058 104.028 38.005 103.834 38.005C103.658 38.005 103.496 38.0492 103.349 38.1375C103.207 38.2213 103.093 38.3405 103.007 38.495C102.925 38.645 102.884 38.8238 102.884 39.0312L102.748 38.2434C102.86 37.9918 103.028 37.7932 103.252 37.6475C103.481 37.5019 103.735 37.429 104.015 37.429C104.347 37.429 104.612 37.5284 104.811 37.727C105.009 37.9212 105.108 38.1816 105.108 38.5082V40.8718H104.442Z" fill="white"/>
<path d="M105.952 40.8718V40.0508H106.747V40.8718H105.952Z" fill="white"/>
<path d="M108.864 40.938C108.433 40.938 108.09 40.8409 107.836 40.6467C107.582 40.4525 107.437 40.1788 107.403 39.8257H108.023C108.054 40.0199 108.14 40.17 108.282 40.2759C108.429 40.3774 108.627 40.4282 108.877 40.4282C109.097 40.4282 109.265 40.3885 109.381 40.309C109.498 40.2296 109.556 40.117 109.556 39.9714C109.556 39.8654 109.521 39.7772 109.452 39.7066C109.388 39.6315 109.258 39.5697 109.064 39.5212L108.534 39.3954C108.202 39.3115 107.955 39.1879 107.791 39.0246C107.631 38.8569 107.552 38.6517 107.552 38.4089C107.552 38.1044 107.661 37.866 107.881 37.6939C108.105 37.5173 108.411 37.429 108.799 37.429C109.183 37.429 109.491 37.5173 109.724 37.6939C109.961 37.8704 110.095 38.1176 110.125 38.4354H109.504C109.478 38.2765 109.403 38.1551 109.278 38.0712C109.157 37.983 108.991 37.9388 108.78 37.9388C108.582 37.9388 108.429 37.9764 108.321 38.0514C108.217 38.122 108.166 38.2213 108.166 38.3493C108.166 38.4552 108.205 38.5435 108.282 38.6141C108.364 38.6848 108.498 38.7443 108.683 38.7929L109.226 38.9319C109.541 39.0114 109.778 39.1416 109.937 39.3226C110.097 39.4991 110.176 39.7132 110.176 39.9648C110.176 40.2693 110.06 40.5077 109.827 40.6798C109.599 40.8519 109.278 40.938 108.864 40.938Z" fill="white"/>
<path d="M110.994 40.8718V36.1049H111.666V40.8718H110.994ZM113.334 40.8718V38.7002C113.334 38.4663 113.276 38.2919 113.16 38.1772C113.047 38.0624 112.879 38.005 112.655 38.005C112.461 38.005 112.289 38.0492 112.138 38.1375C111.991 38.2257 111.875 38.3471 111.789 38.5016C111.707 38.6561 111.666 38.8392 111.666 39.0511L111.582 38.2434C111.69 37.9918 111.856 37.7932 112.08 37.6475C112.304 37.5019 112.565 37.429 112.862 37.429C113.216 37.429 113.494 37.5306 113.696 37.7336C113.899 37.9366 114 38.2059 114 38.5413V40.8718H113.334Z" fill="white"/>
</g>
<defs>
<clipPath id="clip0_8360_8293">
<rect width="114" height="42.2903" fill="white"/>
</clipPath>
<clipPath id="clip1_8360_8293">
<rect width="114.143" height="31.8207" fill="white"/>
</clipPath>
</defs>
</svg>
