<svg width="209" height="48" viewBox="0 0 209 48" fill="none" xmlns="http://www.w3.org/2000/svg">
<g clip-path="url(#clip0_360_189)">
<path d="M64.2713 34.104C62.8846 34.104 61.7006 33.8 60.714 33.1973C59.7273 32.5946 58.9753 31.7893 58.4633 30.776C57.9513 29.7626 57.6953 28.6266 57.6953 27.3733V14.0986H63.466V26.2586C63.466 27.336 63.7326 28.1466 64.2713 28.68C64.81 29.2133 65.5673 29.4853 66.5433 29.4853C67.4126 29.4853 68.186 29.2826 68.8526 28.872C69.5193 28.4613 70.0526 27.8906 70.4473 27.16C70.8473 26.4293 71.0446 25.5866 71.0446 24.6426L71.546 29.3733C70.906 30.7866 69.9673 31.928 68.7353 32.7973C67.5033 33.672 66.0153 34.104 64.2713 34.104ZM71.1566 33.72V29.1013H71.0393V14.0986H76.81V33.72H71.1566Z" fill="#0E1113"/>
<path d="M92.4373 34.1042C90.5653 34.1042 89.0666 33.6668 87.9359 32.7975C86.8053 31.9282 86.1386 30.7335 85.9359 29.2188L86.2453 29.1815V41.6082H80.4746V14.0935H86.1279V18.4402L85.7813 18.3655C86.0639 16.9308 86.8319 15.7948 88.0906 14.9628C89.3493 14.1308 90.9013 13.7148 92.7466 13.7148C94.5919 13.7148 96.0479 14.1308 97.3439 14.9628C98.6399 15.7948 99.6373 16.9682 100.347 18.4828C101.051 19.9975 101.403 21.7788 101.403 23.8322C101.403 25.8855 101.029 27.7202 100.288 29.2562C99.5413 30.7975 98.5066 31.9868 97.1733 32.8348C95.8399 33.6828 94.2613 34.1042 92.4426 34.1042H92.4373ZM90.8213 29.4855C92.1813 29.4855 93.2853 29.0002 94.1279 28.0242C94.9759 27.0482 95.3973 25.6668 95.3973 23.8695C95.3973 22.0722 94.9653 20.7015 94.1066 19.7522C93.2479 18.8028 92.1226 18.3282 90.7413 18.3282C89.3599 18.3282 88.3093 18.8082 87.4506 19.7735C86.5919 20.7335 86.1599 22.1148 86.1599 23.9068C86.1599 25.6988 86.5866 27.0802 87.4506 28.0402C88.3093 29.0002 89.4346 29.4855 90.8159 29.4855H90.8213Z" fill="#0E1113"/>
<path d="M112.553 34.1041C109.679 34.1041 107.396 33.5281 105.706 32.3708C104.015 31.2134 103.087 29.6241 102.938 27.5974H108.095C108.223 28.4668 108.666 29.1281 109.423 29.5761C110.18 30.0241 111.226 30.2481 112.559 30.2481C113.764 30.2481 114.644 30.0721 115.194 29.7308C115.743 29.3841 116.02 28.8934 116.02 28.2481C116.02 27.7628 115.86 27.3841 115.54 27.1121C115.22 26.8454 114.634 26.6214 113.791 26.4401L110.634 25.7841C108.298 25.2988 106.58 24.5574 105.476 23.5708C104.372 22.5841 103.823 21.3094 103.823 19.7414C103.823 17.8428 104.554 16.3601 106.015 15.2988C107.476 14.2321 109.514 13.7041 112.132 13.7041C114.751 13.7041 116.788 14.2214 118.324 15.2614C119.866 16.3014 120.708 17.7414 120.863 19.5921H115.706C115.604 18.9254 115.241 18.4188 114.628 18.0721C114.015 17.7254 113.14 17.5548 112.01 17.5548C110.986 17.5548 110.223 17.7041 109.722 17.9974C109.22 18.2908 108.97 18.7068 108.97 19.2454C108.97 19.7094 109.172 20.0721 109.583 20.3441C109.994 20.6108 110.671 20.8508 111.62 21.0534L115.161 21.7841C117.135 22.1948 118.628 22.9574 119.642 24.0721C120.655 25.1868 121.161 26.5041 121.161 28.0134C121.161 29.9388 120.41 31.4321 118.911 32.4934C117.412 33.5601 115.29 34.0881 112.543 34.0881L112.553 34.1041Z" fill="#0E1113"/>
<path d="M129.916 34.104C128.529 34.104 127.345 33.8 126.359 33.1973C125.372 32.5946 124.62 31.7893 124.108 30.776C123.596 29.7626 123.34 28.6266 123.34 27.3733V14.0986H129.111V26.2586C129.111 27.336 129.377 28.1466 129.916 28.68C130.455 29.2186 131.212 29.4853 132.188 29.4853C133.057 29.4853 133.831 29.2826 134.497 28.872C135.164 28.4613 135.697 27.8906 136.092 27.16C136.487 26.4293 136.689 25.5866 136.689 24.6426L137.191 29.3733C136.551 30.7866 135.612 31.928 134.38 32.7973C133.148 33.672 131.66 34.104 129.916 34.104ZM136.801 33.72V29.1013H136.684V14.0986H142.455V33.72H136.801Z" fill="#0E1113"/>
<path d="M146.111 33.7202V14.0935H151.765V18.7122H151.882V33.7148H146.111V33.7202ZM159.77 33.7255V21.5655C159.77 20.4882 159.493 19.6775 158.943 19.1442C158.394 18.6055 157.589 18.3388 156.538 18.3388C155.642 18.3388 154.837 18.5468 154.133 18.9522C153.429 19.3628 152.874 19.9282 152.479 20.6428C152.079 21.3628 151.882 22.2055 151.882 23.1815L151.381 18.4508C152.021 17.0162 152.965 15.8695 154.207 15.0055C155.45 14.1468 156.986 13.7148 158.805 13.7148C160.986 13.7148 162.65 14.3228 163.807 15.5442C164.959 16.7655 165.541 18.3975 165.541 20.4508V33.7255H159.77Z" fill="#0E1113"/>
<path d="M23.0933 12.5467C29.472 12.5467 34.6293 17.7147 34.6293 24.0827H46.1653C46.1653 11.336 35.8347 1 23.0773 1C10.32 1 0 11.3253 0 24.0773H11.536C11.5627 17.6987 16.7307 12.5413 23.0933 12.5413V12.5467Z" fill="#0E1113"/>
<path d="M27.0013 34.93C31.4493 33.3247 34.6226 29.074 34.6226 24.082H11.5559C11.5559 29.074 14.7346 33.3354 19.1773 34.93V35.1274H2.83594C6.74527 42.29 14.3559 47.1487 23.1026 47.1487C31.8493 47.1487 39.4439 42.29 43.3693 35.1274H27.0013V34.93Z" fill="#0E1113"/>
</g>
<rect x="174" y="14" width="34.4869" height="20" rx="4" fill="#D5F800"/>
<path d="M199.215 28.3202V19.6802H200.487V28.3202H199.215Z" fill="#2B3200"/>
<path d="M191.281 28.3202V19.6802H194.941C195.565 19.6802 196.097 19.7842 196.537 19.9922C196.977 20.2002 197.313 20.4962 197.545 20.8802C197.785 21.2642 197.905 21.7202 197.905 22.2482C197.905 22.7842 197.785 23.2482 197.545 23.6402C197.313 24.0242 196.973 24.3242 196.525 24.5402C196.085 24.7562 195.557 24.8642 194.941 24.8642H192.253V23.8082H194.881C195.449 23.8082 195.881 23.6722 196.177 23.4002C196.481 23.1282 196.633 22.7482 196.633 22.2602C196.633 21.7642 196.485 21.3842 196.189 21.1202C195.893 20.8562 195.457 20.7242 194.881 20.7242H192.553V28.3202H191.281Z" fill="#2B3200"/>
<path d="M182 28.3202L185.252 19.6802H186.356L183.248 28.3202H182ZM188.684 28.3202L185.576 19.6802H186.74L190.004 28.3202H188.684ZM183.644 24.8762H188.276V25.9322H183.644V24.8762Z" fill="#2B3200"/>
<defs>
<clipPath id="clip0_360_189">
<rect width="165.541" height="46.1493" fill="white" transform="translate(0 1)"/>
</clipPath>
</defs>
</svg>
