<?xml version="1.0" encoding="utf-8"?>
<svg id="master-artboard" viewBox="0 0 825 110" version="1.1" xmlns="http://www.w3.org/2000/svg" x="0px" y="0px" style="enable-background:new 0 0 825 110;" width="825px" height="110px"><defs><linearGradient id="gradient-0" gradientUnits="userSpaceOnUse" x1="825.6015625" y1="39" x2="825.6015625" y2="191.640625">
                <stop offset="0" style="stop-color: #000000"/>
                <stop offset="1" style="stop-color: #000000"/>
              </linearGradient></defs><g transform="matrix(0.18524706363677979, 0, 0, 0.18524706363677979, -8.278151988983154, 4.098542213439941)"><path d="m438.819 210.133c-8.471-16.228-17.06-32.609-24.41-49.906-6.4-15.057-11.679-29.655-16.635-43.337-19.878-54.796-42.404-116.89-119.656-116.89-76.913 0-100.712 65.15-121.693 122.61-5.228 14.293-10.694 29.316-17.196 44.406-7.537 17.433-16.313 32.965-24.817 47.988-22.067 39.008-44.882 79.341-44.882 148.293 0 109.998 89.679 192.937 208.588 192.937s208.588-82.94 208.588-192.937c0-61.448-24.342-108.079-47.887-153.164zm-160.702 241.808c-57.511 0-104.294-46.783-104.294-104.294s46.783-104.294 104.294-104.294 104.294 46.783 104.294 104.294-46.782 104.294-104.294 104.294z"/></g><path d="M 496.2666931152344 194.8939971923828 C 494.77337646484375 195.7340087890625 492.8133544921875 196.45733642578125 490.3866882324219 197.0640106201172 C 487.96002197265625 197.67066955566406 485.3466796875 197.9739990234375 482.54669189453125 197.9739990234375 C 478.9067077636719 197.9739990234375 475.61669921875 196.97067260742188 472.67669677734375 194.96400451660156 C 469.7366943359375 192.95733642578125 467.6133728027344 190.08734130859375 466.30670166015625 186.35400390625 C 457.72003173828125 194.66067504882812 448.66668701171875 198.8140106201172 439.1466979980469 198.8140106201172 C 432.8000183105469 198.8140106201172 427.48004150390625 196.99400329589844 423.18670654296875 193.35400390625 C 418.89337158203125 189.71400451660156 416.7467041015625 184.48733520507812 416.7467041015625 177.67401123046875 C 416.7467041015625 172.91400146484375 418.12335205078125 168.83067321777344 420.876708984375 165.42401123046875 C 423.6300354003906 162.017333984375 427.1300354003906 159.4739990234375 431.376708984375 157.79400634765625 C 435.62335205078125 156.11399841308594 440.0333557128906 155.2740020751953 444.606689453125 155.2740020751953 C 448.6200256347656 155.2740020751953 452.2366943359375 155.6473388671875 455.4566955566406 156.39401245117188 C 458.67669677734375 157.1406707763672 461.87335205078125 158.21400451660156 465.04669189453125 159.61399841308594 L 465.04669189453125 155.5540008544922 C 465.04669189453125 152.75399780273438 463.62335205078125 150.63067626953125 460.7767028808594 149.1840057373047 C 457.9300231933594 147.73733520507812 454.2666931152344 147.01400756835938 449.78668212890625 147.01400756835938 C 446.52001953125 147.01400756835938 442.7400207519531 147.4806671142578 438.4466857910156 148.41400146484375 C 434.1533508300781 149.3473358154297 429.72003173828125 150.70066833496094 425.1466979980469 152.4739990234375 L 420.9466857910156 136.51400756835938 C 432.7066955566406 131.66067504882812 443.3467102050781 129.2340087890625 452.86669921875 129.2340087890625 C 463.4133605957031 129.2340087890625 471.4400329589844 131.70733642578125 476.94671630859375 136.6540069580078 C 482.453369140625 141.60067749023438 485.2066955566406 148.2273406982422 485.2066955566406 156.53399658203125 L 485.2066955566406 176.41400146484375 C 485.2066955566406 179.12066650390625 486.37335205078125 180.4739990234375 488.7066955566406 180.4739990234375 C 489.9200439453125 180.4739990234375 491.0867004394531 180.28733825683594 492.2066955566406 179.91400146484375 L 496.2666931152344 194.8939971923828 M 437.8866882324219 176.5540008544922 C 437.8866882324219 178.2340087890625 438.5867004394531 179.47067260742188 439.9866943359375 180.26400756835938 C 441.3866882324219 181.05734252929688 443.2066955566406 181.45401000976562 445.4466857910156 181.45401000976562 C 447.68670654296875 181.45401000976562 450.55670166015625 180.77734375 454.05670166015625 179.42401123046875 C 457.55670166015625 178.0706787109375 461.22003173828125 175.99400329589844 465.04669189453125 173.19400024414062 L 465.04669189453125 172.91400146484375 C 459.9133605957031 171.1406707763672 454.54669189453125 170.25399780273438 448.9466857910156 170.25399780273438 C 445.77337646484375 170.3473358154297 443.1366882324219 170.90733337402344 441.03668212890625 171.9340057373047 C 438.93670654296875 172.96066284179688 437.8866882324219 174.50067138671875 437.8866882324219 176.5540008544922 ZM 581.2454223632812 147.57400512695312 L 572.845458984375 147.57400512695312 L 544.5654296875 198.67401123046875 L 532.6654052734375 198.67401123046875 L 503.4054260253906 147.57400512695312 L 495.4254150390625 147.57400512695312 L 495.4254150390625 130.91400146484375 L 534.0654296875 130.91400146484375 L 534.0654296875 145.75399780273438 L 525.6654052734375 145.75399780273438 L 540.785400390625 174.31399536132812 L 555.2054443359375 145.75399780273438 L 545.9654541015625 145.75399780273438 L 545.9654541015625 130.91400146484375 L 581.2454223632812 130.91400146484375 L 581.2454223632812 147.57400512695312 ZM 622.8240966796875 198.8140106201172 C 616.1973876953125 198.8140106201172 609.9674072265625 197.36734008789062 604.1340942382812 194.4739990234375 C 598.3007202148438 191.58067321777344 593.6107177734375 187.4739990234375 590.0640869140625 182.1540069580078 C 586.5173950195312 176.83399963378906 584.7440795898438 170.767333984375 584.7440795898438 163.95401000976562 C 584.7440795898438 157.1406707763672 586.5173950195312 151.07400512695312 590.0640869140625 145.75399780273438 C 593.6107177734375 140.4340057373047 598.3007202148438 136.32733154296875 604.1340942382812 133.4340057373047 C 609.9674072265625 130.54067993164062 616.1973876953125 129.093994140625 622.8240966796875 129.093994140625 C 629.2640380859375 129.093994140625 635.4007568359375 130.54067993164062 641.2340698242188 133.4340057373047 C 647.0673828125 136.32733154296875 651.8040771484375 140.4340057373047 655.444091796875 145.75399780273438 C 659.0840454101562 151.07400512695312 660.904052734375 157.1406707763672 660.904052734375 163.95401000976562 C 660.904052734375 170.767333984375 659.1773681640625 176.83399963378906 655.7240600585938 182.1540069580078 C 652.270751953125 187.4739990234375 647.6273803710938 191.58067321777344 641.7940673828125 194.4739990234375 C 635.9607543945312 197.36734008789062 629.6373901367188 198.8140106201172 622.8240966796875 198.8140106201172 M 622.8240966796875 182.1540069580078 C 627.3040771484375 182.1540069580078 631.0607299804688 180.49734497070312 634.0940551757812 177.1840057373047 C 637.1273803710938 173.87066650390625 638.64404296875 169.46066284179688 638.64404296875 163.95401000976562 C 638.64404296875 158.4473419189453 637.1273803710938 154.03733825683594 634.0940551757812 150.7239990234375 C 631.0607299804688 147.41067504882812 627.3040771484375 145.75399780273438 622.8240966796875 145.75399780273438 C 618.3440551757812 145.75399780273438 614.58740234375 147.41067504882812 611.5540771484375 150.7239990234375 C 608.520751953125 154.03733825683594 607.0040893554688 158.4473419189453 607.0040893554688 163.95401000976562 C 607.0040893554688 169.46066284179688 608.520751953125 173.87066650390625 611.5540771484375 177.1840057373047 C 614.58740234375 180.49734497070312 618.3440551757812 182.1540069580078 622.8240966796875 182.1540069580078 ZM 736.36279296875 186.63400268554688 C 732.0694580078125 190.5540008544922 727.1928100585938 193.5640106201172 721.7327880859375 195.66400146484375 C 716.2727661132812 197.76400756835938 710.6494750976562 198.8140106201172 704.86279296875 198.8140106201172 C 698.1427612304688 198.8140106201172 691.9827880859375 197.2740020751953 686.3828125 194.19400024414062 C 680.7827758789062 191.11399841308594 676.3494262695312 186.8906707763672 673.082763671875 181.5240020751953 C 669.8161010742188 176.15733337402344 668.1828002929688 170.16067504882812 668.1828002929688 163.53399658203125 C 668.1828002929688 157.28067016601562 669.699462890625 151.517333984375 672.7327880859375 146.24400329589844 C 675.76611328125 140.97067260742188 679.8261108398438 136.79400634765625 684.9127807617188 133.71400451660156 C 689.9994506835938 130.63400268554688 695.4360961914062 129.093994140625 701.2227783203125 129.093994140625 C 705.4227905273438 129.093994140625 708.9927978515625 129.67733764648438 711.9328002929688 130.843994140625 C 714.872802734375 132.01068115234375 717.5094604492188 133.80734252929688 719.8427734375 136.2340087890625 L 719.8427734375 130.91400146484375 L 734.4027709960938 130.91400146484375 L 734.4027709960938 154.99400329589844 L 725.4428100585938 155.5540008544922 C 720.6828002929688 149.39401245117188 714.8961181640625 146.31399536132812 708.082763671875 146.31399536132812 C 702.949462890625 146.31399536132812 698.7261352539062 147.87733459472656 695.4127807617188 151.00399780273438 C 692.0994262695312 154.13067626953125 690.4428100585938 158.21400451660156 690.4428100585938 163.25399780273438 C 690.4428100585938 168.4806671142578 692.0761108398438 172.75067138671875 695.3427734375 176.06399536132812 C 698.6094360351562 179.37733459472656 702.7161254882812 181.03399658203125 707.6627807617188 181.03399658203125 C 711.3961181640625 181.03399658203125 714.8027954101562 180.35733032226562 717.8828125 179.00399780273438 C 720.9627685546875 177.65066528320312 724.2294311523438 175.57400512695312 727.6828002929688 172.7740020751953 L 736.36279296875 186.63400268554688 ZM 822.8816528320312 194.8939971923828 C 821.3883056640625 195.7340087890625 819.4283447265625 196.45733642578125 817.0016479492188 197.0640106201172 C 814.5750122070312 197.67066955566406 811.961669921875 197.9739990234375 809.1616821289062 197.9739990234375 C 805.5216674804688 197.9739990234375 802.231689453125 196.97067260742188 799.2916259765625 194.96400451660156 C 796.3516845703125 192.95733642578125 794.2283325195312 190.08734130859375 792.921630859375 186.35400390625 C 784.3349609375 194.66067504882812 775.2816772460938 198.8140106201172 765.7616577148438 198.8140106201172 C 759.4149780273438 198.8140106201172 754.094970703125 196.99400329589844 749.8016357421875 193.35400390625 C 745.50830078125 189.71400451660156 743.3616333007812 184.48733520507812 743.3616333007812 177.67401123046875 C 743.3616333007812 172.91400146484375 744.7383422851562 168.83067321777344 747.4916381835938 165.42401123046875 C 750.2449951171875 162.017333984375 753.7449951171875 159.4739990234375 757.9916381835938 157.79400634765625 C 762.2383422851562 156.11399841308594 766.6483154296875 155.2740020751953 771.2216796875 155.2740020751953 C 775.2349853515625 155.2740020751953 778.8516845703125 155.6473388671875 782.0716552734375 156.39401245117188 C 785.2916259765625 157.1406707763672 788.4883422851562 158.21400451660156 791.6616821289062 159.61399841308594 L 791.6616821289062 155.5540008544922 C 791.6616821289062 152.75399780273438 790.2383422851562 150.63067626953125 787.3916625976562 149.1840057373047 C 784.5449829101562 147.73733520507812 780.8816528320312 147.01400756835938 776.4016723632812 147.01400756835938 C 773.135009765625 147.01400756835938 769.35498046875 147.4806671142578 765.0616455078125 148.41400146484375 C 760.768310546875 149.3473358154297 756.3349609375 150.70066833496094 751.7616577148438 152.4739990234375 L 747.5616455078125 136.51400756835938 C 759.3216552734375 131.66067504882812 769.961669921875 129.2340087890625 779.481689453125 129.2340087890625 C 790.0283203125 129.2340087890625 798.0549926757812 131.70733642578125 803.5616455078125 136.6540069580078 C 809.0682983398438 141.60067749023438 811.8216552734375 148.2273406982422 811.8216552734375 156.53399658203125 L 811.8216552734375 176.41400146484375 C 811.8216552734375 179.12066650390625 812.9883422851562 180.4739990234375 815.3216552734375 180.4739990234375 C 816.5349731445312 180.4739990234375 817.70166015625 180.28733825683594 818.8216552734375 179.91400146484375 L 822.8816528320312 194.8939971923828 M 764.5016479492188 176.5540008544922 C 764.5016479492188 178.2340087890625 765.20166015625 179.47067260742188 766.6016845703125 180.26400756835938 C 768.0016479492188 181.05734252929688 769.8216552734375 181.45401000976562 772.0616455078125 181.45401000976562 C 774.3016357421875 181.45401000976562 777.171630859375 180.77734375 780.671630859375 179.42401123046875 C 784.171630859375 178.0706787109375 787.8349609375 175.99400329589844 791.6616821289062 173.19400024414062 L 791.6616821289062 172.91400146484375 C 786.5283203125 171.1406707763672 781.1616821289062 170.25399780273438 775.5616455078125 170.25399780273438 C 772.3883056640625 170.3473358154297 769.7516479492188 170.90733337402344 767.6516723632812 171.9340057373047 C 765.5516357421875 172.96066284179688 764.5016479492188 174.50067138671875 764.5016479492188 176.5540008544922 ZM 914.3003540039062 194.8939971923828 C 912.8070068359375 195.7340087890625 910.870361328125 196.45733642578125 908.4903564453125 197.0640106201172 C 906.1103515625 197.67066955566406 903.6603393554688 197.9739990234375 901.1403198242188 197.9739990234375 C 897.406982421875 197.9739990234375 894.0703125 197.13400268554688 891.13037109375 195.45401000976562 C 888.1903076171875 193.7740020751953 885.9736938476562 191.3939971923828 884.4803466796875 188.3140106201172 C 876.9203491210938 195.3140106201172 868.70703125 198.8140106201172 859.84033203125 198.8140106201172 C 854.0536499023438 198.8140106201172 848.6403198242188 197.29733276367188 843.600341796875 194.26400756835938 C 838.5603637695312 191.2306671142578 834.5003662109375 187.07733154296875 831.4203491210938 181.8040008544922 C 828.34033203125 176.53067016601562 826.8003540039062 170.67401123046875 826.8003540039062 164.2340087890625 C 826.8003540039062 157.60733032226562 828.3170166015625 151.63400268554688 831.350341796875 146.31399536132812 C 834.3836669921875 140.99400329589844 838.5836791992188 136.79400634765625 843.9503173828125 133.71400451660156 C 849.3170166015625 130.63400268554688 855.3603515625 129.093994140625 862.080322265625 129.093994140625 C 869.5469970703125 129.093994140625 876.3136596679688 131.5673370361328 882.38037109375 136.51400756835938 L 882.38037109375 117.47400665283203 L 869.3603515625 117.47400665283203 L 869.3603515625 100.81400299072266 L 903.2403564453125 100.81400299072266 L 903.2403564453125 176.41400146484375 C 903.2403564453125 179.12066650390625 904.3603515625 180.4739990234375 906.600341796875 180.4739990234375 C 907.906982421875 180.4739990234375 909.0269775390625 180.28733825683594 909.9603271484375 179.91400146484375 L 914.3003540039062 194.8939971923828 M 849.0603637695312 164.2340087890625 C 849.0603637695312 169.08734130859375 850.5536499023438 173.10067749023438 853.5403442382812 176.2740020751953 C 856.5269775390625 179.4473419189453 860.5870361328125 181.03399658203125 865.7203369140625 181.03399658203125 C 870.7603149414062 181.03399658203125 876.3136596679688 178.6540069580078 882.38037109375 173.89401245117188 L 882.38037109375 152.4739990234375 C 877.2470092773438 148.74066162109375 872.3469848632812 146.87400817871094 867.6803588867188 146.87400817871094 C 861.9869995117188 146.87400817871094 857.4603271484375 148.46066284179688 854.100341796875 151.63400268554688 C 850.7403564453125 154.80734252929688 849.0603637695312 159.00733947753906 849.0603637695312 164.2340087890625 ZM 956.9989013671875 198.8140106201172 C 950.3722534179688 198.8140106201172 944.1422729492188 197.36734008789062 938.3089599609375 194.4739990234375 C 932.4755859375 191.58067321777344 927.7855834960938 187.4739990234375 924.2389526367188 182.1540069580078 C 920.6922607421875 176.83399963378906 918.9189453125 170.767333984375 918.9189453125 163.95401000976562 C 918.9189453125 157.1406707763672 920.6922607421875 151.07400512695312 924.2389526367188 145.75399780273438 C 927.7855834960938 140.4340057373047 932.4755859375 136.32733154296875 938.3089599609375 133.4340057373047 C 944.1422729492188 130.54067993164062 950.3722534179688 129.093994140625 956.9989013671875 129.093994140625 C 963.4389038085938 129.093994140625 969.5756225585938 130.54067993164062 975.408935546875 133.4340057373047 C 981.2422485351562 136.32733154296875 985.9789428710938 140.4340057373047 989.618896484375 145.75399780273438 C 993.2589111328125 151.07400512695312 995.0789184570312 157.1406707763672 995.0789184570312 163.95401000976562 C 995.0789184570312 170.767333984375 993.352294921875 176.83399963378906 989.89892578125 182.1540069580078 C 986.4456176757812 187.4739990234375 981.80224609375 191.58067321777344 975.9689331054688 194.4739990234375 C 970.1356201171875 197.36734008789062 963.812255859375 198.8140106201172 956.9989013671875 198.8140106201172 M 956.9989013671875 182.1540069580078 C 961.4789428710938 182.1540069580078 965.235595703125 180.49734497070312 968.2689208984375 177.1840057373047 C 971.30224609375 173.87066650390625 972.8189086914062 169.46066284179688 972.8189086914062 163.95401000976562 C 972.8189086914062 158.4473419189453 971.30224609375 154.03733825683594 968.2689208984375 150.7239990234375 C 965.235595703125 147.41067504882812 961.4789428710938 145.75399780273438 956.9989013671875 145.75399780273438 C 952.5189208984375 145.75399780273438 948.7622680664062 147.41067504882812 945.7289428710938 150.7239990234375 C 942.6956176757812 154.03733825683594 941.178955078125 158.4473419189453 941.178955078125 163.95401000976562 C 941.178955078125 169.46066284179688 942.6956176757812 173.87066650390625 945.7289428710938 177.1840057373047 C 948.7622680664062 180.49734497070312 952.5189208984375 182.1540069580078 956.9989013671875 182.1540069580078 ZM 1070.53759765625 186.63400268554688 C 1066.2442626953125 190.5540008544922 1061.36767578125 193.5640106201172 1055.9075927734375 195.66400146484375 C 1050.4476318359375 197.76400756835938 1044.8243408203125 198.8140106201172 1039.03759765625 198.8140106201172 C 1032.317626953125 198.8140106201172 1026.1575927734375 197.2740020751953 1020.5576782226562 194.19400024414062 C 1014.9576416015625 191.11399841308594 1010.5242919921875 186.8906707763672 1007.2576293945312 181.5240020751953 C 1003.990966796875 176.15733337402344 1002.357666015625 170.16067504882812 1002.357666015625 163.53399658203125 C 1002.357666015625 157.28067016601562 1003.8743286132812 151.517333984375 1006.9076538085938 146.24400329589844 C 1009.9409790039062 140.97067260742188 1014.0009765625 136.79400634765625 1019.087646484375 133.71400451660156 C 1024.17431640625 130.63400268554688 1029.6109619140625 129.093994140625 1035.397705078125 129.093994140625 C 1039.59765625 129.093994140625 1043.1676025390625 129.67733764648438 1046.107666015625 130.843994140625 C 1049.047607421875 132.01068115234375 1051.684326171875 133.80734252929688 1054.0177001953125 136.2340087890625 L 1054.0177001953125 130.91400146484375 L 1068.57763671875 130.91400146484375 L 1068.57763671875 154.99400329589844 L 1059.61767578125 155.5540008544922 C 1054.857666015625 149.39401245117188 1049.071044921875 146.31399536132812 1042.2576904296875 146.31399536132812 C 1037.124267578125 146.31399536132812 1032.9010009765625 147.87733459472656 1029.587646484375 151.00399780273438 C 1026.2742919921875 154.13067626953125 1024.61767578125 158.21400451660156 1024.61767578125 163.25399780273438 C 1024.61767578125 168.4806671142578 1026.2509765625 172.75067138671875 1029.5177001953125 176.06399536132812 C 1032.7843017578125 179.37733459472656 1036.8909912109375 181.03399658203125 1041.837646484375 181.03399658203125 C 1045.571044921875 181.03399658203125 1048.9776611328125 180.35733032226562 1052.0576171875 179.00399780273438 C 1055.1376953125 177.65066528320312 1058.404296875 175.57400512695312 1061.857666015625 172.7740020751953 L 1070.53759765625 186.63400268554688 ZM 1113.7965087890625 155.13400268554688 C 1122.289794921875 157.6540069580078 1128.70654296875 160.82733154296875 1133.0465087890625 164.6540069580078 C 1137.386474609375 168.4806671142578 1139.5565185546875 173.28733825683594 1139.5565185546875 179.07400512695312 C 1139.5565185546875 182.80734252929688 1138.483154296875 186.16734313964844 1136.3365478515625 189.1540069580078 C 1134.1898193359375 192.1406707763672 1131.2032470703125 194.49734497070312 1127.37646484375 196.2239990234375 C 1123.5498046875 197.95066833496094 1119.2098388671875 198.8140106201172 1114.3565673828125 198.8140106201172 C 1104.9298095703125 198.8140106201172 1097.2298583984375 196.10733032226562 1091.2564697265625 190.69400024414062 L 1091.2564697265625 196.99400329589844 L 1076.41650390625 196.99400329589844 L 1076.41650390625 175.01400756835938 L 1085.7965087890625 174.31399536132812 C 1088.0364990234375 177.58067321777344 1091.5364990234375 180.2406768798828 1096.2965087890625 182.29400634765625 C 1101.0565185546875 184.3473358154297 1105.349853515625 185.37400817871094 1109.176513671875 185.37400817871094 C 1111.789794921875 185.37400817871094 1113.81982421875 184.9773406982422 1115.2664794921875 184.1840057373047 C 1116.713134765625 183.3906707763672 1117.4365234375 182.34066772460938 1117.4365234375 181.03399658203125 C 1117.4365234375 179.63400268554688 1116.3165283203125 178.28067016601562 1114.0765380859375 176.9739990234375 C 1111.8365478515625 175.66734313964844 1107.4031982421875 174.08067321777344 1100.7764892578125 172.21400451660156 C 1092.283203125 169.88067626953125 1086.0299072265625 166.89401245117188 1082.0164794921875 163.25399780273438 C 1078.003173828125 159.61399841308594 1075.99658203125 154.90066528320312 1075.99658203125 149.11399841308594 C 1075.99658203125 145.4739990234375 1076.9765625 142.1373291015625 1078.9365234375 139.10400390625 C 1080.896484375 136.0706787109375 1083.696533203125 133.64401245117188 1087.3365478515625 131.82400512695312 C 1090.9765625 130.00399780273438 1095.1298828125 129.093994140625 1099.7965087890625 129.093994140625 C 1108.196533203125 129.093994140625 1115.1031494140625 131.75399780273438 1120.5164794921875 137.07400512695312 L 1120.5164794921875 130.91400146484375 L 1135.3565673828125 130.91400146484375 L 1135.3565673828125 152.75399780273438 L 1126.1165771484375 153.59400939941406 C 1121.1697998046875 146.22067260742188 1114.543212890625 142.53399658203125 1106.236572265625 142.53399658203125 C 1103.716552734375 142.53399658203125 1101.733154296875 142.90733337402344 1100.2864990234375 143.6540069580078 C 1098.83984375 144.40066528320312 1098.1165771484375 145.42733764648438 1098.1165771484375 146.7340087890625 C 1098.1165771484375 148.13400268554688 1099.213134765625 149.41732788085938 1101.406494140625 150.58399963378906 C 1103.599853515625 151.75067138671875 1107.7298583984375 153.267333984375 1113.7965087890625 155.13400268554688 Z" transform="matrix(1, 0, 0, 1, -320.9200134277344, -97.26670837402344)" style="fill: rgb(0, 0, 0); white-space: pre; color: rgb(0, 0, 0);"/></svg>