<svg version="1.1" viewBox="0.0 0.0 981.8188976377953 398.48556430446195" fill="none" stroke="none" stroke-linecap="square" stroke-miterlimit="10" xmlns:xlink="http://www.w3.org/1999/xlink" xmlns="http://www.w3.org/2000/svg"><clipPath id="p.0"><path d="m0 0l981.8189 0l0 398.48557l-981.8189 0l0 -398.48557z" clip-rule="nonzero"/></clipPath><g clip-path="url(#p.0)"><path fill="#000000" fill-opacity="0.0" d="m0 0l981.8189 0l0 398.48557l-981.8189 0z" fill-rule="evenodd"/><path fill="#ffffff" d="m0.7493438 0l978.80316 0l0 397.35434l-978.80316 0z" fill-rule="evenodd"/><path stroke="#ffffff" stroke-width="1.0" stroke-linejoin="round" stroke-linecap="butt" d="m0.7493438 0l978.80316 0l0 397.35434l-978.80316 0z" fill-rule="evenodd"/><path fill="#ffdf9c" d="m12.138636 202.3477l226.07874 0l0 -30.40944l60.81891 60.818893l-60.81891 60.818893l0 -30.409454l-226.07874 0z" fill-rule="evenodd"/><path stroke="#ffdf9c" stroke-width="1.0" stroke-linejoin="round" stroke-linecap="butt" d="m12.138636 202.3477l226.07874 0l0 -30.40944l60.81891 60.818893l-60.81891 60.818893l0 -30.409454l-226.07874 0z" fill-rule="evenodd"/><path fill="#000000" fill-opacity="0.0" d="m34.60759 213.33742l209.07086 0l0 43.622055l-209.07086 0z" fill-rule="evenodd"/><path fill="#000000" d="m62.162483 241.77179q-1.40625 0 -2.4375 -0.640625q-1.03125 -0.65625 -1.59375 -1.84375q-0.5625 -1.203125 -0.5625 -2.84375q0 -1.65625 0.5625 -2.859375q0.578125 -1.203125 1.609375 -1.84375q1.046875 -0.65625 2.453125 -0.65625q1.59375 0 2.640625 0.734375q1.0625 0.734375 1.53125 2.171875l-2.375 0.796875q-0.234375 -0.640625 -0.703125 -0.984375q-0.453125 -0.34375 -1.046875 -0.34375q-0.984375 0 -1.5625 0.796875q-0.5625 0.796875 -0.5625 2.1875q0 1.359375 0.5625 2.15625q0.5625 0.796875 1.5 0.796875q0.671875 0 1.140625 -0.375q0.484375 -0.390625 0.71875 -1.109375l2.359375 0.703125q-0.453125 1.578125 -1.53125 2.375q-1.078125 0.78125 -2.703125 0.78125zm10.16748 0q-1.703125 0 -2.65625 -1.0625q-0.9375 -1.0625 -0.9375 -3.015625l0 -6.375l2.5 0l0 5.59375q0 1.296875 0.4375 1.890625q0.453125 0.578125 1.40625 0.578125q1.015625 0 1.5 -0.59375q0.484375 -0.59375 0.484375 -1.828125l0 -5.640625l2.484375 0l0 10.21875l-2.484375 0l0 -0.953125q-0.46875 0.59375 -1.15625 0.890625q-0.6875 0.296875 -1.578125 0.296875zm8.375626 -0.234375l0 -10.21875l2.5 0l0 1.09375q0.28125 -0.578125 0.875 -0.953125q0.609375 -0.375 1.265625 -0.375q1.09375 0 1.84375 0.75l-0.359375 2.28125q-0.40625 -0.34375 -0.796875 -0.484375q-0.390625 -0.140625 -0.859375 -0.140625q-0.625 0 -1.0625 0.296875q-0.4375 0.296875 -0.671875 0.84375q-0.234375 0.546875 -0.234375 1.3125l0 5.59375l-2.5 0zm8.32373 0l0 -13.3125l2.5 -1.125l0 14.4375l-2.5 0zm14.929367 0.234375q-1.46875 0 -2.53125 -0.65625q-1.0625 -0.65625 -1.640625 -1.859375q-0.578125 -1.203125 -0.578125 -2.84375q0 -1.640625 0.578125 -2.84375q0.59375 -1.203125 1.65625 -1.84375q1.0625 -0.640625 2.515625 -0.640625q1.25 0 2.25 0.515625q1.015625 0.515625 1.609375 1.59375q0.609375 1.078125 0.609375 2.734375q0 0.265625 -0.015625 0.640625q-0.015625 0.375 -0.0625 0.75l-6.671875 0q0.046875 0.703125 0.328125 1.234375q0.28125 0.515625 0.78125 0.8125q0.5 0.28125 1.1875 0.28125q0.734375 0 1.265625 -0.234375q0.546875 -0.25 1.015625 -0.796875l1.453125 1.484375q-0.671875 0.75 -1.609375 1.21875q-0.921875 0.453125 -2.140625 0.453125zm-2.265625 -6.40625l4.3125 0q-0.046875 -0.671875 -0.296875 -1.15625q-0.25 -0.484375 -0.703125 -0.734375q-0.453125 -0.265625 -1.09375 -0.265625q-0.875 0 -1.5 0.546875q-0.625 0.53125 -0.71875 1.609375zm7.7537384 6.171875l3.71875 -5.296875l-3.46875 -4.921875l2.890625 0l1.40625 2.015625q0.171875 0.25 0.34375 0.515625q0.171875 0.25 0.28125 0.453125q0.109375 -0.203125 0.265625 -0.46875q0.171875 -0.265625 0.34375 -0.5l1.421875 -2.015625l2.890625 0l-3.484375 4.921875l3.734375 5.296875l-2.890625 0l-1.6875 -2.375q-0.15625 -0.234375 -0.328125 -0.5q-0.15625 -0.265625 -0.265625 -0.46875q-0.109375 0.203125 -0.296875 0.46875q-0.171875 0.265625 -0.328125 0.484375l-1.65625 2.390625l-2.890625 0zm15.2443695 0.234375q-1.671875 0 -2.65625 -0.890625q-0.96875 -0.90625 -0.96875 -2.46875q0 -1.0 0.5 -1.75q0.515625 -0.75 1.421875 -1.15625q0.90625 -0.421875 2.109375 -0.421875q0.671875 0 1.296875 0.125q0.625 0.125 1.09375 0.34375l0 -0.640625q0 -0.859375 -0.484375 -1.28125q-0.484375 -0.4375 -1.421875 -0.4375q-0.75 0 -1.546875 0.265625q-0.78125 0.265625 -1.59375 0.796875l-0.75 -1.96875q0.875 -0.578125 1.953125 -0.890625q1.09375 -0.3125 2.1875 -0.3125q2.0625 0 3.0781326 0.96875q1.015625 0.96875 1.015625 2.90625l0 6.578125l-2.4375076 0l0 -0.8125q-0.515625 0.515625 -1.234375 0.78125q-0.703125 0.265625 -1.5625 0.265625zm0.578125 -2.109375q0.625 0 1.203125 -0.234375q0.578125 -0.25 1.015625 -0.703125l0 -1.203125q-0.421875 -0.21875 -0.953125 -0.328125q-0.515625 -0.109375 -1.046875 -0.109375q-0.921875 0 -1.46875 0.359375q-0.53125 0.34375 -0.53125 0.96875q0 0.59375 0.46875 0.921875q0.46875 0.328125 1.3125 0.328125zm7.666237 1.875l0 -10.21875l2.5 0l0 0.953125q0.484375 -0.625 1.09375 -0.90625q0.625 -0.28125 1.40625 -0.28125q0.90625 0 1.546875 0.375q0.65625 0.359375 1.015625 1.0625q0.515625 -0.6875 1.3125 -1.0625q0.796875 -0.375 1.8125 -0.375q1.875 0 2.828125 1.015625q0.96875 1.0 0.96875 2.984375l0 6.453125l-2.484375 0l0 -5.59375q0 -1.28125 -0.421875 -1.875q-0.421875 -0.609375 -1.296875 -0.609375q-0.609375 0 -1.0 0.265625q-0.390625 0.265625 -0.59375 0.8125q-0.203125 0.546875 -0.203125 1.375l0 5.625l-2.484375 0l0 -5.59375q0 -1.28125 -0.421875 -1.875q-0.40625 -0.609375 -1.296875 -0.609375q-0.90625 0 -1.34375 0.59375q-0.4375 0.578125 -0.4375 1.828125l0 5.65625l-2.5 0zm17.639984 4.0625l0 -14.28125l2.5 0l0 0.75q0.84375 -0.984375 2.25 -0.984375q1.3125 0 2.25 0.640625q0.953125 0.640625 1.46875 1.84375q0.515625 1.203125 0.515625 2.859375q0 1.609375 -0.53125 2.8125q-0.53125 1.203125 -1.5 1.875q-0.953125 0.65625 -2.234375 0.65625q-0.703125 0 -1.265625 -0.25q-0.5625 -0.25 -0.953125 -0.75l0 3.703125l-2.5 1.125zm4.34375 -6.21875q1.03125 0 1.578125 -0.765625q0.546875 -0.78125 0.546875 -2.1875q0 -1.40625 -0.5625 -2.1875q-0.5625 -0.78125 -1.5625 -0.78125q-0.609375 0 -1.0625 0.21875q-0.453125 0.21875 -0.78125 0.671875l0 4.125q0.265625 0.4375 0.75 0.671875q0.5 0.234375 1.09375 0.234375zm7.3099823 2.15625l0 -13.3125l2.4999847 -1.125l0 14.4375l-2.4999847 0zm9.929367 0.234375q-1.46875 0 -2.53125 -0.65625q-1.0625 -0.65625 -1.640625 -1.859375q-0.578125 -1.203125 -0.578125 -2.84375q0 -1.640625 0.578125 -2.84375q0.59375 -1.203125 1.65625 -1.84375q1.0625 -0.640625 2.515625 -0.640625q1.25 0 2.25 0.515625q1.015625 0.515625 1.609375 1.59375q0.609375 1.078125 0.609375 2.734375q0 0.265625 -0.015625 0.640625q-0.015625 0.375 -0.0625 0.75l-6.671875 0q0.046875 0.703125 0.328125 1.234375q0.28125 0.515625 0.78125 0.8125q0.5 0.28125 1.1875 0.28125q0.734375 0 1.265625 -0.234375q0.546875 -0.25 1.015625 -0.796875l1.453125 1.484375q-0.671875 0.75 -1.609375 1.21875q-0.921875 0.453125 -2.140625 0.453125zm-2.265625 -6.40625l4.3125 0q-0.046875 -0.671875 -0.296875 -1.15625q-0.25 -0.484375 -0.703125 -0.734375q-0.453125 -0.265625 -1.09375 -0.265625q-0.875 0 -1.5 0.546875q-0.625 0.53125 -0.71875 1.609375zm9.9218445 6.421875q-0.703125 0 -1.171875 -0.46875q-0.46875 -0.46875 -0.46875 -1.140625q0 -0.671875 0.46875 -1.15625q0.46875 -0.484375 1.171875 -0.484375q0.703125 0 1.171875 0.484375q0.484375 0.484375 0.484375 1.15625q0 0.671875 -0.484375 1.140625q-0.46875 0.46875 -1.171875 0.46875zm8.077515 -0.015625q-1.40625 0 -2.4375 -0.640625q-1.03125 -0.65625 -1.59375 -1.84375q-0.5625 -1.203125 -0.5625 -2.84375q0 -1.65625 0.5625 -2.859375q0.578125 -1.203125 1.609375 -1.84375q1.046875 -0.65625 2.453125 -0.65625q1.59375 0 2.640625 0.734375q1.0625 0.734375 1.53125 2.171875l-2.375 0.796875q-0.234375 -0.640625 -0.703125 -0.984375q-0.453125 -0.34375 -1.046875 -0.34375q-0.984375 0 -1.5625 0.796875q-0.5625 0.796875 -0.5625 2.1875q0 1.359375 0.5625 2.15625q0.5625 0.796875 1.5 0.796875q0.671875 0 1.140625 -0.375q0.484375 -0.390625 0.71875 -1.109375l2.359375 0.703125q-0.453125 1.578125 -1.53125 2.375q-1.078125 0.78125 -2.703125 0.78125zm10.868103 0q-2.171875 0 -3.421875 -1.421875q-1.25 -1.4375 -1.25 -3.90625q0 -1.640625 0.5625 -2.84375q0.578125 -1.21875 1.625 -1.859375q1.046875 -0.65625 2.484375 -0.65625q1.40625 0 2.453125 0.65625q1.046875 0.640625 1.59375 1.84375q0.5625 1.1875 0.5625 2.84375q0 1.65625 -0.5625 2.859375q-0.546875 1.203125 -1.59375 1.84375q-1.03125 0.640625 -2.453125 0.640625zm0 -2.390625q1.0 0 1.5625 -0.765625q0.5625 -0.78125 0.5625 -2.1875q0 -1.40625 -0.5625 -2.1875q-0.5625 -0.78125 -1.5625 -0.78125q-1.015625 0 -1.59375 0.796875q-0.5625 0.78125 -0.5625 2.1875q0 1.375 0.5625 2.15625q0.578125 0.78125 1.59375 0.78125zm7.014984 2.15625l0 -10.21875l2.5 0l0 0.953125q0.484375 -0.625 1.09375 -0.90625q0.625 -0.28125 1.40625 -0.28125q0.90625 0 1.546875 0.375q0.65625 0.359375 1.015625 1.0625q0.515625 -0.6875 1.3125 -1.0625q0.796875 -0.375 1.8125 -0.375q1.875 0 2.828125 1.015625q0.96875 1.0 0.96875 2.984375l0 6.453125l-2.484375 0l0 -5.59375q0 -1.28125 -0.421875 -1.875q-0.421875 -0.609375 -1.296875 -0.609375q-0.609375 0 -1.0 0.265625q-0.390625 0.265625 -0.59375 0.8125q-0.203125 0.546875 -0.203125 1.375l0 5.625l-2.484375 0l0 -5.59375q0 -1.28125 -0.421875 -1.875q-0.40625 -0.609375 -1.296875 -0.609375q-0.90625 0 -1.34375 0.59375q-0.4375 0.578125 -0.4375 1.828125l0 5.65625l-2.5 0z" fill-rule="nonzero"/><path fill="#c3e1ff" d="m299.01044 191.46777l130.74014 0l0 82.55118l-130.74014 0z" fill-rule="evenodd"/><path stroke="#c3e1ff" stroke-width="1.0" stroke-linejoin="round" stroke-linecap="butt" d="m299.01044 191.46777l130.74014 0l0 82.55118l-130.74014 0z" fill-rule="evenodd"/><path fill="#000000" fill-opacity="0.0" d="m299.01044 213.3386l130.74014 0l0 43.62204l-130.74014 0z" fill-rule="evenodd"/><path fill="#000000" d="m338.4918 241.53859l0 -14.0l9.3125 0l0 2.453125l-6.71875 0l0 3.09375l4.296875 0l0 2.453125l-4.296875 0l0 6.0l-2.59375 0zm12.691864 0.234375q-1.671875 0 -2.65625 -0.890625q-0.96875 -0.90625 -0.96875 -2.46875q0 -1.0 0.5 -1.75q0.515625 -0.75 1.421875 -1.15625q0.90625 -0.421875 2.109375 -0.421875q0.671875 0 1.296875 0.125q0.625 0.125 1.09375 0.34375l0 -0.640625q0 -0.859375 -0.484375 -1.28125q-0.484375 -0.4375 -1.421875 -0.4375q-0.75 0 -1.546875 0.265625q-0.78125 0.265625 -1.59375 0.796875l-0.75 -1.96875q0.875 -0.578125 1.953125 -0.890625q1.09375 -0.3125 2.1875 -0.3125q2.0625 0 3.078125 0.96875q1.015625 0.96875 1.015625 2.90625l0 6.578125l-2.4375 0l0 -0.8125q-0.515625 0.515625 -1.234375 0.78125q-0.703125 0.265625 -1.5625 0.265625zm0.578125 -2.109375q0.625 0 1.203125 -0.234375q0.578125 -0.25 1.015625 -0.703125l0 -1.203125q-0.421875 -0.21875 -0.953125 -0.328125q-0.515625 -0.109375 -1.046875 -0.109375q-0.921875 0 -1.46875 0.359375q-0.53125 0.34375 -0.53125 0.96875q0 0.59375 0.46875 0.921875q0.46875 0.328125 1.3125 0.328125zm10.889984 2.109375q-1.203125 0 -2.296875 -0.5q-1.09375 -0.515625 -1.734375 -1.375l1.640625 -1.375q0.5 0.53125 1.171875 0.859375q0.671875 0.3125 1.28125 0.3125q0.765625 0 1.171875 -0.25q0.40625 -0.265625 0.40625 -0.71875q0 -0.3125 -0.203125 -0.546875q-0.1875 -0.234375 -0.671875 -0.46875q-0.484375 -0.25 -1.375 -0.578125q-1.734375 -0.625 -2.453125 -1.359375q-0.71875 -0.734375 -0.71875 -1.859375q0 -1.265625 1.015625 -2.046875q1.03125 -0.78125 2.671875 -0.78125q1.125 0 2.0625 0.421875q0.9375 0.40625 1.625 1.21875l-1.625 1.359375q-0.90625 -0.921875 -2.109375 -0.921875q-0.609375 0 -0.984375 0.234375q-0.359375 0.21875 -0.359375 0.59375q0 0.375 0.4375 0.671875q0.4375 0.28125 1.625 0.671875q1.171875 0.375 1.90625 0.84375q0.734375 0.46875 1.078125 1.09375q0.34375 0.609375 0.34375 1.421875q0 1.4375 -1.046875 2.265625q-1.03125 0.8125 -2.859375 0.8125zm9.190613 0q-1.234375 0 -1.84375 -0.65625q-0.609375 -0.671875 -0.609375 -2.015625l0 -5.59375l-1.484375 0l0 -2.1875l1.484375 0l0 -3.03125l2.484375 -1.1875l0 4.21875l2.328125 0l0 2.1875l-2.328125 0l0 5.15625q0 0.46875 0.1875 0.703125q0.203125 0.234375 0.625 0.234375q0.734375 0 1.625 -0.46875l-0.296875 2.1875q-0.453125 0.234375 -1.0 0.34375q-0.53125 0.109375 -1.171875 0.109375zm4.559387 -0.234375l0 -13.3125l2.5 -1.125l0 14.4375l-2.5 0zm7.007477 3.875l1.546875 -4.0625l-3.828125 -10.03125l2.5625 0l2.234375 5.984375q0.09375 0.203125 0.171875 0.453125q0.078125 0.25 0.15625 0.5q0.046875 -0.25 0.125 -0.484375q0.09375 -0.25 0.1875 -0.46875l2.234375 -5.984375l2.5625 0l-5.375 14.09375l-2.578125 0z" fill-rule="nonzero"/><path fill="#000000" fill-opacity="0.0" d="m429.75058 235.14961l53.275604 0l0 -23.46457l53.275574 0" fill-rule="evenodd"/><path stroke="#666666" stroke-width="2.0" stroke-linejoin="round" stroke-linecap="butt" d="m429.75058 235.14961l53.275574 0l0 -23.46457l44.275604 0" fill-rule="evenodd"/><path fill="#666666" stroke="#666666" stroke-width="2.0" stroke-linecap="butt" d="m527.30176 213.89659l6.076172 -2.2115479l-6.076172 -2.211563z" fill-rule="evenodd"/><path fill="#c3e1ff" d="m536.3365 188.77364l153.03937 0l0 94.488205l-153.03937 0z" fill-rule="evenodd"/><path stroke="#c3e1ff" stroke-width="1.0" stroke-linejoin="round" stroke-linecap="butt" d="m536.3365 188.77364l153.03937 0l0 94.488205l-153.03937 0z" fill-rule="evenodd"/><path fill="#000000" fill-opacity="0.0" d="m531.10016 206.21655l164.09448 0l0 67.87402l-164.09448 0z" fill-rule="evenodd"/><path fill="#000000" d="m548.4837 234.41655l0 -14.0l2.59375 0l0 11.484375l6.765625 0l0 2.515625l-9.359375 0zm15.351257 0.234375q-2.171875 0 -3.421875 -1.421875q-1.25 -1.4375 -1.25 -3.90625q0 -1.640625 0.5625 -2.84375q0.578125 -1.21875 1.625 -1.859375q1.046875 -0.65625 2.484375 -0.65625q1.40625 0 2.453125 0.65625q1.046875 0.640625 1.59375 1.84375q0.5625 1.1875 0.5625 2.84375q0 1.65625 -0.5625 2.859375q-0.546875 1.203125 -1.59375 1.84375q-1.03125 0.640625 -2.453125 0.640625zm0 -2.390625q1.0 0 1.5625 -0.765625q0.5625 -0.78125 0.5625 -2.1875q0 -1.40625 -0.5625 -2.1875q-0.5625 -0.78125 -1.5625 -0.78125q-1.015625 0 -1.59375 0.796875q-0.5625 0.78125 -0.5625 2.1875q0 1.375 0.5625 2.15625q0.578125 0.78125 1.59375 0.78125zm10.310608 2.390625q-1.671875 0 -2.65625 -0.890625q-0.96875 -0.90625 -0.96875 -2.46875q0 -1.0 0.5 -1.75q0.515625 -0.75 1.421875 -1.15625q0.90625 -0.421875 2.109375 -0.421875q0.671875 0 1.296875 0.125q0.625 0.125 1.09375 0.34375l0 -0.640625q0 -0.859375 -0.484375 -1.28125q-0.484375 -0.4375 -1.421875 -0.4375q-0.75 0 -1.546875 0.265625q-0.78125 0.265625 -1.59375 0.796875l-0.75 -1.96875q0.875 -0.578125 1.953125 -0.890625q1.09375 -0.3125 2.1875 -0.3125q2.0625 0 3.078125 0.96875q1.015625 0.96875 1.015625 2.90625l0 6.578125l-2.4375 0l0 -0.8125q-0.515625 0.515625 -1.234375 0.78125q-0.703125 0.265625 -1.5625 0.265625zm0.578125 -2.109375q0.625 0 1.203125 -0.234375q0.578125 -0.25 1.015625 -0.703125l0 -1.203125q-0.421875 -0.21875 -0.953125 -0.328125q-0.515625 -0.109375 -1.046875 -0.109375q-0.921875 0 -1.46875 0.359375q-0.53125 0.34375 -0.53125 0.96875q0 0.59375 0.46875 0.921875q0.46875 0.328125 1.3125 0.328125zm11.318115 2.109375q-1.96875 0 -3.09375 -1.40625q-1.125 -1.421875 -1.125 -3.953125q0 -1.59375 0.53125 -2.796875q0.53125 -1.203125 1.484375 -1.859375q0.953125 -0.671875 2.234375 -0.671875q1.359375 0 2.21875 1.0l0 -3.859375l2.5 -1.125l0 14.4375l-2.5 0l0 -0.84375q-0.734375 1.078125 -2.25 1.078125zm0.40625 -2.390625q0.640625 0 1.09375 -0.21875q0.453125 -0.21875 0.75 -0.671875l0 -4.140625q-0.296875 -0.40625 -0.796875 -0.640625q-0.5 -0.25 -1.046875 -0.25q-1.015625 0 -1.5625 0.765625q-0.546875 0.765625 -0.546875 2.1875q0 0.9375 0.25 1.609375q0.25 0.671875 0.71875 1.015625q0.46875 0.34375 1.140625 0.34375zm17.102478 2.390625q-0.703125 0 -1.21875 -0.25q-0.5 -0.25 -0.921875 -0.796875l0 0.8125l-2.5 0l0 -13.3125l2.5 -1.125l0 5.015625q0.390625 -0.5 0.953125 -0.765625q0.578125 -0.265625 1.265625 -0.265625q1.265625 0 2.21875 0.671875q0.953125 0.65625 1.484375 1.875q0.53125 1.203125 0.53125 2.78125q0 2.53125 -1.140625 3.953125q-1.140625 1.40625 -3.171875 1.40625zm-0.296875 -2.390625q1.015625 0 1.5625 -0.765625q0.546875 -0.765625 0.546875 -2.203125q0 -1.421875 -0.546875 -2.1875q-0.546875 -0.765625 -1.5625 -0.765625q-0.5625 0 -1.0625 0.25q-0.5 0.234375 -0.78125 0.640625l0 4.140625q0.3125 0.4375 0.75 0.671875q0.453125 0.21875 1.09375 0.21875zm10.30188 2.390625q-1.671875 0 -2.65625 -0.890625q-0.96875 -0.90625 -0.96875 -2.46875q0 -1.0 0.5 -1.75q0.515625 -0.75 1.421875 -1.15625q0.90625 -0.421875 2.109375 -0.421875q0.671875 0 1.296875 0.125q0.625 0.125 1.09375 0.34375l0 -0.640625q0 -0.859375 -0.484375 -1.28125q-0.484375 -0.4375 -1.421875 -0.4375q-0.75 0 -1.546875 0.265625q-0.78125 0.265625 -1.59375 0.796875l-0.75 -1.96875q0.875 -0.578125 1.953125 -0.890625q1.09375 -0.3125 2.1875 -0.3125q2.0625 0 3.078125 0.96875q1.015625 0.96875 1.015625 2.90625l0 6.578125l-2.4375 0l0 -0.8125q-0.515625 0.515625 -1.234375 0.78125q-0.703125 0.265625 -1.5625 0.265625zm0.578125 -2.109375q0.625 0 1.203125 -0.234375q0.578125 -0.25 1.015625 -0.703125l0 -1.203125q-0.421875 -0.21875 -0.953125 -0.328125q-0.515625 -0.109375 -1.046875 -0.109375q-0.921875 0 -1.46875 0.359375q-0.53125 0.34375 -0.53125 0.96875q0 0.59375 0.46875 0.921875q0.46875 0.328125 1.3125 0.328125zm7.6400146 1.875l0 -13.3125l2.5 -1.125l0 14.4375l-2.5 0zm8.741821 0.234375q-1.671875 0 -2.65625 -0.890625q-0.96875 -0.90625 -0.96875 -2.46875q0 -1.0 0.5 -1.75q0.515625 -0.75 1.421875 -1.15625q0.90625 -0.421875 2.109375 -0.421875q0.671875 0 1.296875 0.125q0.625 0.125 1.09375 0.34375l0 -0.640625q0 -0.859375 -0.484375 -1.28125q-0.484375 -0.4375 -1.421875 -0.4375q-0.75 0 -1.546875 0.265625q-0.78125 0.265625 -1.59375 0.796875l-0.75 -1.96875q0.875 -0.578125 1.953125 -0.890625q1.09375 -0.3125 2.1875 -0.3125q2.0625 0 3.078125 0.96875q1.015625 0.96875 1.015625 2.90625l0 6.578125l-2.4375 0l0 -0.8125q-0.515625 0.515625 -1.234375 0.78125q-0.703125 0.265625 -1.5625 0.265625zm0.578125 -2.109375q0.625 0 1.203125 -0.234375q0.578125 -0.25 1.015625 -0.703125l0 -1.203125q-0.421875 -0.21875 -0.953125 -0.328125q-0.515625 -0.109375 -1.046875 -0.109375q-0.921875 0 -1.46875 0.359375q-0.53125 0.34375 -0.53125 0.96875q0 0.59375 0.46875 0.921875q0.46875 0.328125 1.3125 0.328125zm7.66626 1.875l0 -10.21875l2.5 0l0 0.984375q0.484375 -0.609375 1.171875 -0.90625q0.6875 -0.3125 1.5625 -0.3125q1.71875 0 2.640625 1.0625q0.9375 1.046875 0.9375 3.015625l0 6.375l-2.5 0l0 -5.59375q0 -1.296875 -0.453125 -1.890625q-0.4375 -0.59375 -1.375 -0.59375q-1.015625 0 -1.5 0.59375q-0.484375 0.59375 -0.484375 1.84375l0 5.640625l-2.5 0zm15.986877 0.234375q-1.40625 0 -2.4375 -0.640625q-1.03125 -0.65625 -1.59375 -1.84375q-0.5625 -1.203125 -0.5625 -2.84375q0 -1.65625 0.5625 -2.859375q0.578125 -1.203125 1.609375 -1.84375q1.046875 -0.65625 2.453125 -0.65625q1.59375 0 2.640625 0.734375q1.0625 0.734375 1.53125 2.171875l-2.375 0.796875q-0.234375 -0.640625 -0.703125 -0.984375q-0.453125 -0.34375 -1.046875 -0.34375q-0.984375 0 -1.5625 0.796875q-0.5625 0.796875 -0.5625 2.1875q0 1.359375 0.5625 2.15625q0.5625 0.796875 1.5 0.796875q0.671875 0 1.140625 -0.375q0.484375 -0.390625 0.71875 -1.109375l2.359375 0.703125q-0.453125 1.578125 -1.53125 2.375q-1.078125 0.78125 -2.703125 0.78125zm10.946228 0q-1.46875 0 -2.53125 -0.65625q-1.0625 -0.65625 -1.640625 -1.859375q-0.578125 -1.203125 -0.578125 -2.84375q0 -1.640625 0.578125 -2.84375q0.59375 -1.203125 1.65625 -1.84375q1.0625 -0.640625 2.515625 -0.640625q1.25 0 2.25 0.515625q1.015625 0.515625 1.609375 1.59375q0.609375 1.078125 0.609375 2.734375q0 0.265625 -0.015625 0.640625q-0.015625 0.375 -0.0625 0.75l-6.671875 0q0.046875 0.703125 0.328125 1.234375q0.28125 0.515625 0.78125 0.8125q0.5 0.28125 1.1875 0.28125q0.734375 0 1.265625 -0.234375q0.546875 -0.25 1.015625 -0.796875l1.453125 1.484375q-0.671875 0.75 -1.609375 1.21875q-0.921875 0.453125 -2.140625 0.453125zm-2.265625 -6.40625l4.3125 0q-0.046875 -0.671875 -0.296875 -1.15625q-0.25 -0.484375 -0.703125 -0.734375q-0.453125 -0.265625 -1.09375 -0.265625q-0.875 0 -1.5 0.546875q-0.625 0.53125 -0.71875 1.609375zm9.272522 6.171875l0 -10.21875l2.5 0l0 1.09375q0.28125 -0.578125 0.875 -0.953125q0.609375 -0.375 1.265625 -0.375q1.09375 0 1.84375 0.75l-0.359375 2.28125q-0.40625 -0.34375 -0.796875 -0.484375q-0.390625 -0.140625 -0.859375 -0.140625q-0.625 0 -1.0625 0.296875q-0.4375 0.296875 -0.671875 0.84375q-0.234375 0.546875 -0.234375 1.3125l0 5.59375l-2.5 0z" fill-rule="nonzero"/><path fill="#000000" d="m583.63806 258.6509q-1.46875 0 -2.53125 -0.65625q-1.0625 -0.65625 -1.640625 -1.859375q-0.578125 -1.2031097 -0.578125 -2.8437347q0 -1.640625 0.578125 -2.84375q0.59375 -1.203125 1.65625 -1.84375q1.0625 -0.640625 2.515625 -0.640625q1.25 0 2.25 0.515625q1.015625 0.515625 1.609375 1.59375q0.609375 1.078125 0.609375 2.734375q0 0.265625 -0.015625 0.640625q-0.015625 0.375 -0.0625 0.75l-6.671875 0q0.046875 0.703125 0.328125 1.234375q0.28125 0.515625 0.78125 0.81248474q0.5 0.28125 1.1875 0.28125q0.734375 0 1.265625 -0.234375q0.546875 -0.25 1.015625 -0.79685974l1.453125 1.4843597q-0.671875 0.75 -1.609375 1.21875q-0.921875 0.453125 -2.140625 0.453125zm-2.265625 -6.4062347l4.3125 0q-0.046875 -0.671875 -0.296875 -1.15625q-0.25 -0.484375 -0.703125 -0.734375q-0.453125 -0.265625 -1.09375 -0.265625q-0.875 0 -1.5 0.546875q-0.625 0.53125 -0.71875 1.609375zm13.171875 10.437485l-1.375 -2.09375q1.453125 -0.109375 2.25 -0.328125q0.8125 -0.21875 1.125 -0.640625q0.328125 -0.40625 0.328125 -1.0625l0 -0.734375q-0.78125 0.828125 -2.203125 0.828125q-1.328125 0 -2.296875 -0.640625q-0.953125 -0.640625 -1.46875 -1.84375q-0.515625 -1.2031097 -0.515625 -2.8749847q0 -1.609375 0.53125 -2.8125q0.546875 -1.203125 1.5 -1.859375q0.96875 -0.65625 2.265625 -0.65625q0.6875 0 1.25 0.203125q0.5625 0.203125 0.9375 0.609375l0 -0.578125l2.484375 0l0 9.29686q0 1.359375 -0.25 2.296875q-0.25 0.9375 -0.8125 1.53125q-0.5625 0.609375 -1.484375 0.921875q-0.921875 0.328125 -2.265625 0.4375zm0.53125 -6.421875q0.53125 0 1.0 -0.234375q0.46875 -0.24998474 0.796875 -0.67185974l0 -4.125q-0.28125 -0.375 -0.78125 -0.625q-0.484375 -0.265625 -0.984375 -0.265625q-1.078125 0 -1.640625 0.765625q-0.5625 0.75 -0.5625 2.1875q0 0.9375 0.25 1.609375q0.265625 0.671875 0.75 1.015625q0.484375 0.34373474 1.171875 0.34373474zm8.378723 2.40625q-0.703125 0 -1.171875 -0.46875q-0.46875 -0.46875 -0.46875 -1.140625q0 -0.671875 0.46875 -1.1562347q0.46875 -0.484375 1.171875 -0.484375q0.703125 0 1.171875 0.484375q0.484375 0.48435974 0.484375 1.1562347q0 0.671875 -0.484375 1.140625q-0.46875 0.46875 -1.171875 0.46875zm9.09436 -0.25l0 -13.999985l9.46875 0l0 2.453125l-6.875 0l0 3.09375l4.0625 0l0 2.453125l-4.0625 0l0 3.515625l7.296875 0l0 2.4843597l-9.890625 0zm12.410034 0l0 -13.999985l2.59375 0l0 11.484375l6.765625 0l0 2.5156097l-9.359375 0zm11.319946 0l0 -13.999985l6.046875 0q1.703125 0 2.6875 0.546875q1.0 0.546875 1.421875 1.40625q0.421875 0.859375 0.421875 1.8125q0 0.9375 -0.421875 1.71875q-0.40625 0.765625 -1.328125 1.1875q0.75 0.265625 1.25 0.78125q0.5 0.5 0.734375 1.140625q0.234375 0.625 0.234375 1.28125q0 0.734375 -0.25 1.46875q-0.25 0.73435974 -0.796875 1.3437347q-0.546875 0.59375 -1.453125 0.953125q-0.90625 0.359375 -2.21875 0.359375l-6.328125 0zm2.59375 -2.4374847l3.90625 0q0.75 0 1.171875 -0.25q0.421875 -0.265625 0.59375 -0.65625q0.171875 -0.390625 0.171875 -0.78125q0 -0.484375 -0.203125 -0.921875q-0.203125 -0.4375 -0.75 -0.71875q-0.546875 -0.28125 -1.578125 -0.28125l-3.3125 0l0 3.609375zm0 -5.9375l3.125 0q1.140625 0 1.6875 -0.4375q0.546875 -0.453125 0.546875 -1.1875q0 -0.375 -0.140625 -0.734375q-0.140625 -0.375 -0.546875 -0.609375q-0.390625 -0.25 -1.171875 -0.25l-3.5 0l0 3.21875z" fill-rule="nonzero"/><path fill="#c3e1ff" d="m775.30054 48.77005l169.10236 0l0 320.50394l-169.10236 0z" fill-rule="evenodd"/><path stroke="#eeeeee" stroke-width="1.0" stroke-linejoin="round" stroke-linecap="butt" d="m775.30054 48.77005l169.10236 0l0 320.50394l-169.10236 0z" fill-rule="evenodd"/><path fill="#ffffff" d="m789.26416 69.21552l136.18896 0l0 82.551186l-136.18896 0z" fill-rule="evenodd"/><path stroke="#ffffff" stroke-width="1.0" stroke-linejoin="round" stroke-linecap="butt" d="m789.26416 69.21552l136.18896 0l0 82.551186l-136.18896 0z" fill-rule="evenodd"/><path fill="#000000" fill-opacity="0.0" d="m791.97 91.086334l130.74017 0l0 43.622055l-130.74017 0z" fill-rule="evenodd"/><path fill="#000000" d="m823.99634 119.28634l0 -14.0l2.59375 0l0 5.546875l5.921875 0l0 -5.546875l2.59375 0l0 14.0l-2.59375 0l0 -5.984375l-5.921875 0l0 5.984375l-2.59375 0zm18.451233 0.234375q-2.171875 0 -3.421875 -1.421875q-1.25 -1.4375 -1.25 -3.90625q0 -1.640625 0.5625 -2.84375q0.578125 -1.21875 1.625 -1.859375q1.046875 -0.65625 2.484375 -0.65625q1.40625 0 2.453125 0.65625q1.046875 0.640625 1.59375 1.84375q0.5625 1.1875 0.5625 2.84375q0 1.65625 -0.5625 2.859375q-0.546875 1.203125 -1.59375 1.84375q-1.03125 0.640625 -2.453125 0.640625zm0 -2.390625q1.0 0 1.5625 -0.765625q0.5625 -0.78125 0.5625 -2.1875q0 -1.40625 -0.5625 -2.1875q-0.5625 -0.78125 -1.5625 -0.78125q-1.015625 0 -1.59375 0.796875q-0.5625 0.78125 -0.5625 2.1875q0 1.375 0.5625 2.15625q0.578125 0.78125 1.59375 0.78125zm10.358765 2.390625q-1.203125 0 -2.296875 -0.5q-1.09375 -0.515625 -1.734375 -1.375l1.640625 -1.375q0.5 0.53125 1.171875 0.859375q0.671875 0.3125 1.28125 0.3125q0.765625 0 1.171875 -0.25q0.40625 -0.265625 0.40625 -0.71875q0 -0.3125 -0.203125 -0.546875q-0.1875 -0.234375 -0.671875 -0.46875q-0.484375 -0.25 -1.375 -0.578125q-1.734375 -0.625 -2.453125 -1.359375q-0.71875 -0.734375 -0.71875 -1.859375q0 -1.265625 1.015625 -2.046875q1.03125 -0.78125 2.671875 -0.78125q1.125 0 2.0625 0.421875q0.9375 0.40625 1.625 1.21875l-1.625 1.359375q-0.90625 -0.921875 -2.109375 -0.921875q-0.609375 0 -0.984375 0.234375q-0.359375 0.21875 -0.359375 0.59375q0 0.375 0.4375 0.671875q0.4375 0.28125 1.625 0.671875q1.171875 0.375 1.90625 0.84375q0.734375 0.46875 1.078125 1.09375q0.34375 0.609375 0.34375 1.421875q0 1.4375 -1.046875 2.265625q-1.03125 0.8125 -2.859375 0.8125zm9.190613 0q-1.234375 0 -1.84375 -0.65625q-0.609375 -0.671875 -0.609375 -2.015625l0 -5.59375l-1.484375 0l0 -2.1875l1.484375 0l0 -3.03125l2.484375 -1.1875l0 4.21875l2.328125 0l0 2.1875l-2.328125 0l0 5.15625q0 0.46875 0.1875 0.703125q0.203125 0.234375 0.625 0.234375q0.734375 0 1.625 -0.46875l-0.296875 2.1875q-0.453125 0.234375 -1.0 0.34375q-0.53125 0.109375 -1.171875 0.109375zm10.818726 -0.234375l0.53125 -3.5625l-2.140625 0l0.3125 -2.171875l2.15625 0l0.421875 -2.859375l-2.109375 0l0.296875 -2.15625l2.171875 0l0.46875 -3.25l2.21875 0l-0.484375 3.25l2.40625 0l0.515625 -3.25l2.203125 0l-0.5 3.25l2.15625 0l-0.296875 2.15625l-2.1875 0l-0.421875 2.859375l2.125 0l-0.328125 2.171875l-2.125 0l-0.53125 3.5625l-2.234375 0l0.546875 -3.5625l-2.40625 0l-0.5625 3.5625l-2.203125 0zm3.078125 -5.734375l2.421875 0l0.421875 -2.859375l-2.40625 0l-0.4375 2.859375zm11.289978 5.734375l0 -10.453125l-2.15625 0l0 -2.03125q0.671875 0 1.203125 -0.140625q0.546875 -0.140625 0.921875 -0.46875q0.375 -0.328125 0.5625 -0.90625l2.0625 0l0 14.0l-2.59375 0z" fill-rule="nonzero"/><path fill="#ffffff" d="m789.9161 170.14372l136.18896 0l0 82.55118l-136.18896 0z" fill-rule="evenodd"/><path stroke="#ffffff" stroke-width="1.0" stroke-linejoin="round" stroke-linecap="butt" d="m789.9161 170.14372l136.18896 0l0 82.55118l-136.18896 0z" fill-rule="evenodd"/><path fill="#000000" fill-opacity="0.0" d="m792.6219 192.01454l130.74017 0l0 43.622055l-130.74017 0z" fill-rule="evenodd"/><path fill="#000000" d="m822.53326 220.21454l0 -14.0l2.59375 0l0 5.546875l5.921875 0l0 -5.546875l2.59375 0l0 14.0l-2.59375 0l0 -5.984375l-5.921875 0l0 5.984375l-2.59375 0zm18.451233 0.234375q-2.171875 0 -3.421875 -1.421875q-1.25 -1.4375 -1.25 -3.90625q0 -1.640625 0.5625 -2.84375q0.578125 -1.21875 1.625 -1.859375q1.046875 -0.65625 2.484375 -0.65625q1.40625 0 2.453125 0.65625q1.046875 0.640625 1.59375 1.84375q0.5625 1.1875 0.5625 2.84375q0 1.65625 -0.5625 2.859375q-0.546875 1.203125 -1.59375 1.84375q-1.03125 0.640625 -2.453125 0.640625zm0 -2.390625q1.0 0 1.5625 -0.765625q0.5625 -0.78125 0.5625 -2.1875q0 -1.40625 -0.5625 -2.1875q-0.5625 -0.78125 -1.5625 -0.78125q-1.015625 0 -1.59375 0.796875q-0.5625 0.78125 -0.5625 2.1875q0 1.375 0.5625 2.15625q0.578125 0.78125 1.59375 0.78125zm10.358704 2.390625q-1.203125 0 -2.296875 -0.5q-1.09375 -0.515625 -1.734375 -1.375l1.640625 -1.375q0.5 0.53125 1.171875 0.859375q0.671875 0.3125 1.28125 0.3125q0.765625 0 1.171875 -0.25q0.40625 -0.265625 0.40625 -0.71875q0 -0.3125 -0.203125 -0.546875q-0.1875 -0.234375 -0.671875 -0.46875q-0.484375 -0.25 -1.375 -0.578125q-1.734375 -0.625 -2.453125 -1.359375q-0.71875 -0.734375 -0.71875 -1.859375q0 -1.265625 1.015625 -2.046875q1.03125 -0.78125 2.671875 -0.78125q1.125 0 2.0625 0.421875q0.9375 0.40625 1.625 1.21875l-1.625 1.359375q-0.90625 -0.921875 -2.109375 -0.921875q-0.609375 0 -0.984375 0.234375q-0.359375 0.21875 -0.359375 0.59375q0 0.375 0.4375 0.671875q0.4375 0.28125 1.625 0.671875q1.171875 0.375 1.90625 0.84375q0.734375 0.46875 1.078125 1.09375q0.34375 0.609375 0.34375 1.421875q0 1.4375 -1.046875 2.265625q-1.03125 0.8125 -2.859375 0.8125zm9.190613 0q-1.234375 0 -1.84375 -0.65625q-0.609375 -0.671875 -0.609375 -2.015625l0 -5.59375l-1.484375 0l0 -2.1875l1.484375 0l0 -3.03125l2.484375 -1.1875l0 4.21875l2.328125 0l0 2.1875l-2.328125 0l0 5.15625q0 0.46875 0.1875 0.703125q0.203125 0.234375 0.625 0.234375q0.734375 0 1.625 -0.46875l-0.296875 2.1875q-0.453125 0.234375 -1.0 0.34375q-0.53125 0.109375 -1.171875 0.109375zm10.818787 -0.234375l0.53125 -3.5625l-2.140625 0l0.3125 -2.171875l2.15625 0l0.421875 -2.859375l-2.109375 0l0.296875 -2.15625l2.171875 0l0.46875 -3.25l2.21875 0l-0.484375 3.25l2.40625 0l0.515625 -3.25l2.203125 0l-0.5 3.25l2.15625 0l-0.296875 2.15625l-2.1875 0l-0.421875 2.859375l2.125 0l-0.328125 2.171875l-2.125 0l-0.53125 3.5625l-2.234375 0l0.546875 -3.5625l-2.40625 0l-0.5625 3.5625l-2.203125 0zm3.078125 -5.734375l2.421875 0l0.421875 -2.859375l-2.40625 0l-0.4375 2.859375zm9.743103 5.734375q0 -1.546875 0.359375 -2.703125q0.375 -1.171875 1.015625 -2.0625q0.65625 -0.890625 1.515625 -1.5625q0.859375 -0.6875 1.8125 -1.21875q0.5625 -0.328125 1.0625 -0.6875q0.5 -0.359375 0.8125 -0.796875q0.3125 -0.453125 0.3125 -1.046875q0 -0.796875 -0.53125 -1.25q-0.515625 -0.46875 -1.390625 -0.46875q-0.921875 0 -1.515625 0.4375q-0.59375 0.421875 -0.9375 1.203125l-2.296875 -1.046875q0.546875 -1.390625 1.828125 -2.203125q1.296875 -0.828125 2.890625 -0.828125q1.4375 0 2.453125 0.546875q1.015625 0.53125 1.546875 1.46875q0.53125 0.921875 0.53125 2.078125q0 1.21875 -0.4375 2.046875q-0.421875 0.8125 -1.171875 1.421875q-0.75 0.59375 -1.671875 1.125q-0.90625 0.546875 -1.546875 1.0q-0.625 0.453125 -1.03125 0.9375q-0.390625 0.484375 -0.59375 1.125l6.578125 0l0 2.484375l-9.59375 0z" fill-rule="nonzero"/><path fill="#ffffff" d="m790.8858 271.07193l136.18896 0l0 82.55118l-136.18896 0z" fill-rule="evenodd"/><path stroke="#ffffff" stroke-width="1.0" stroke-linejoin="round" stroke-linecap="butt" d="m790.8858 271.07193l136.18896 0l0 82.55118l-136.18896 0z" fill-rule="evenodd"/><path fill="#000000" fill-opacity="0.0" d="m793.5916 292.94275l130.74011 0l0 43.62204l-130.74011 0z" fill-rule="evenodd"/><path fill="#000000" d="m823.623 321.14273l0 -14.0l2.59375 0l0 5.546875l5.921875 0l0 -5.546875l2.59375 0l0 14.0l-2.59375 0l0 -5.984375l-5.921875 0l0 5.984375l-2.59375 0zm18.451233 0.234375q-2.171875 0 -3.421875 -1.421875q-1.25 -1.4375 -1.25 -3.90625q0 -1.640625 0.5625 -2.84375q0.578125 -1.21875 1.625 -1.859375q1.046875 -0.65625 2.484375 -0.65625q1.40625 0 2.453125 0.65625q1.046875 0.640625 1.59375 1.84375q0.5625 1.1875 0.5625 2.84375q0 1.65625 -0.5625 2.859375q-0.546875 1.203125 -1.59375 1.84375q-1.03125 0.640625 -2.453125 0.640625zm0 -2.390625q1.0 0 1.5625 -0.765625q0.5625 -0.78125 0.5625 -2.1875q0 -1.40625 -0.5625 -2.1875q-0.5625 -0.78125 -1.5625 -0.78125q-1.015625 0 -1.59375 0.796875q-0.5625 0.78125 -0.5625 2.1875q0 1.375 0.5625 2.15625q0.578125 0.78125 1.59375 0.78125zm10.358704 2.390625q-1.203125 0 -2.296875 -0.5q-1.09375 -0.515625 -1.734375 -1.375l1.640625 -1.375q0.5 0.53125 1.171875 0.859375q0.671875 0.3125 1.28125 0.3125q0.765625 0 1.171875 -0.25q0.40625 -0.265625 0.40625 -0.71875q0 -0.3125 -0.203125 -0.546875q-0.1875 -0.234375 -0.671875 -0.46875q-0.484375 -0.25 -1.375 -0.578125q-1.734375 -0.625 -2.453125 -1.359375q-0.71875 -0.734375 -0.71875 -1.859375q0 -1.265625 1.015625 -2.046875q1.03125 -0.78125 2.671875 -0.78125q1.125 0 2.0625 0.421875q0.9375 0.40625 1.625 1.21875l-1.625 1.359375q-0.90625 -0.921875 -2.109375 -0.921875q-0.609375 0 -0.984375 0.234375q-0.359375 0.21875 -0.359375 0.59375q0 0.375 0.4375 0.671875q0.4375 0.28125 1.625 0.671875q1.171875 0.375 1.90625 0.84375q0.734375 0.46875 1.078125 1.09375q0.34375 0.609375 0.34375 1.421875q0 1.4375 -1.046875 2.265625q-1.03125 0.8125 -2.859375 0.8125zm9.190613 0q-1.234375 0 -1.84375 -0.65625q-0.609375 -0.671875 -0.609375 -2.015625l0 -5.59375l-1.484375 0l0 -2.1875l1.484375 0l0 -3.03125l2.484375 -1.1875l0 4.21875l2.328125 0l0 2.1875l-2.328125 0l0 5.15625q0 0.46875 0.1875 0.703125q0.203125 0.234375 0.625 0.234375q0.734375 0 1.625 -0.46875l-0.296875 2.1875q-0.453125 0.234375 -1.0 0.34375q-0.53125 0.109375 -1.171875 0.109375zm10.818726 -0.234375l0.53125 -3.5625l-2.140625 0l0.3125 -2.171875l2.15625 0l0.421875 -2.859375l-2.109375 0l0.296875 -2.15625l2.171875 0l0.46875 -3.25l2.21875 0l-0.484375 3.25l2.40625 0l0.515625 -3.25l2.203125 0l-0.5 3.25l2.15625 0l-0.296875 2.15625l-2.1875 0l-0.421875 2.859375l2.125 0l-0.328125 2.171875l-2.125 0l-0.53125 3.5625l-2.234375 0l0.546875 -3.5625l-2.40625 0l-0.5625 3.5625l-2.203125 0zm3.078125 -5.734375l2.421875 0l0.421875 -2.859375l-2.40625 0l-0.4375 2.859375zm14.368164 5.96875q-1.765625 0 -3.0625 -0.84375q-1.28125 -0.859375 -1.90625 -2.453125l2.328125 -0.9375q0.890625 1.796875 2.640625 1.796875q1.015625 0 1.59375 -0.5q0.59375 -0.5 0.59375 -1.375q0 -0.828125 -0.609375 -1.3125q-0.59375 -0.484375 -1.59375 -0.484375l-1.359375 0l0 -2.46875l1.3125 0q0.828125 0 1.296875 -0.46875q0.46875 -0.484375 0.46875 -1.28125q0 -0.75 -0.484375 -1.21875q-0.484375 -0.484375 -1.28125 -0.484375q-0.671875 0 -1.21875 0.359375q-0.546875 0.34375 -0.921875 1.03125l-2.34375 -0.90625q0.65625 -1.390625 1.828125 -2.15625q1.171875 -0.765625 2.671875 -0.765625q1.28125 0 2.265625 0.5q0.984375 0.484375 1.53125 1.375q0.546875 0.875 0.546875 2.03125q0 0.96875 -0.453125 1.78125q-0.4375 0.796875 -1.234375 1.296875q1.015625 0.40625 1.59375 1.328125q0.578125 0.90625 0.578125 2.109375q0 1.1875 -0.609375 2.109375q-0.609375 0.90625 -1.703125 1.421875q-1.078125 0.515625 -2.46875 0.515625z" fill-rule="nonzero"/><path fill="#000000" fill-opacity="0.0" d="m677.94476 240.28226l57.338562 0l0 -26.456696l57.338562 0" fill-rule="evenodd"/><path stroke="#666666" stroke-width="2.0" stroke-linejoin="round" stroke-linecap="butt" d="m677.9447 240.28226l57.338623 0l0 -26.456696l48.338562 0" fill-rule="evenodd"/><path fill="#666666" stroke="#666666" stroke-width="2.0" stroke-linecap="butt" d="m783.6219 216.03711l6.076172 -2.2115479l-6.076172 -2.2115479z" fill-rule="evenodd"/><path fill="#000000" fill-opacity="0.0" d="m679.27704 208.45642l56.346497 0l0 -95.55906l56.346436 0" fill-rule="evenodd"/><path stroke="#666666" stroke-width="2.0" stroke-linejoin="round" stroke-linecap="butt" d="m679.27704 208.45642l56.346497 0l0 -95.55906l47.346436 0" fill-rule="evenodd"/><path fill="#666666" stroke="#666666" stroke-width="2.0" stroke-linecap="butt" d="m782.97 115.10892l6.076233 -2.2115555l-6.076233 -2.2115555z" fill-rule="evenodd"/><path fill="#000000" fill-opacity="0.0" d="m675.8819 269.00635l67.68506 0l0 68.59842l67.68506 0" fill-rule="evenodd"/><path stroke="#666666" stroke-width="2.0" stroke-linejoin="round" stroke-linecap="butt" d="m675.8819 269.00635l67.68506 0l0 68.59842l58.684998 0" fill-rule="evenodd"/><path fill="#666666" stroke="#666666" stroke-width="2.0" stroke-linecap="butt" d="m802.25195 339.81635l6.076233 -2.2115784l-6.076233 -2.2115479z" fill-rule="evenodd"/><path fill="#000000" fill-opacity="0.0" d="m761.435 8.69692l196.81891 0l0 43.622047l-196.81891 0z" fill-rule="evenodd"/><path fill="#000000" d="m777.8858 36.89692l0 -14.0l4.71875 0q1.828125 0 3.109375 0.59375q1.28125 0.59375 2.0625 1.609375q0.796875 1.0 1.15625 2.25q0.375 1.234375 0.375 2.546875q0 1.203125 -0.34375 2.4375q-0.34375 1.21875 -1.125 2.265625q-0.78125 1.03125 -2.09375 1.671875q-1.296875 0.625 -3.21875 0.625l-4.640625 0zm2.59375 -2.453125l2.3125 0q1.078125 0 1.796875 -0.40625q0.734375 -0.40625 1.171875 -1.0625q0.453125 -0.671875 0.65625 -1.46875q0.21875 -0.8125 0.21875 -1.609375q0 -0.84375 -0.21875 -1.640625q-0.203125 -0.8125 -0.65625 -1.46875q-0.4375 -0.671875 -1.125 -1.0625q-0.671875 -0.390625 -1.609375 -0.390625l-2.546875 0l0 9.109375zm15.415588 2.6875q-1.46875 0 -2.53125 -0.65625q-1.0625 -0.65625 -1.640625 -1.859375q-0.578125 -1.203125 -0.578125 -2.84375q0 -1.640625 0.578125 -2.84375q0.59375 -1.203125 1.65625 -1.84375q1.0625 -0.640625 2.515625 -0.640625q1.25 0 2.25 0.515625q1.015625 0.515625 1.609375 1.59375q0.609375 1.078125 0.609375 2.734375q0 0.265625 -0.015625 0.640625q-0.015625 0.375 -0.0625 0.75l-6.671875 0q0.046875 0.703125 0.328125 1.234375q0.28125 0.515625 0.78125 0.8125q0.5 0.28125 1.1875 0.28125q0.734375 0 1.265625 -0.234375q0.546875 -0.25 1.015625 -0.796875l1.453125 1.484375q-0.671875 0.75 -1.609375 1.21875q-0.921875 0.453125 -2.140625 0.453125zm-2.265625 -6.40625l4.3125 0q-0.046875 -0.671875 -0.296875 -1.15625q-0.25 -0.484375 -0.703125 -0.734375q-0.453125 -0.265625 -1.09375 -0.265625q-0.875 0 -1.5 0.546875q-0.625 0.53125 -0.71875 1.609375zm13.234375 6.40625q-1.96875 0 -3.09375 -1.40625q-1.125 -1.421875 -1.125 -3.953125q0 -1.59375 0.53125 -2.796875q0.53125 -1.203125 1.484375 -1.859375q0.953125 -0.671875 2.234375 -0.671875q1.359375 0 2.21875 1.0l0 -3.859375l2.5 -1.125l0 14.4375l-2.5 0l0 -0.84375q-0.734375 1.078125 -2.25 1.078125zm0.40625 -2.390625q0.640625 0 1.09375 -0.21875q0.453125 -0.21875 0.75 -0.671875l0 -4.140625q-0.296875 -0.40625 -0.796875 -0.640625q-0.5 -0.25 -1.046875 -0.25q-1.015625 0 -1.5625 0.765625q-0.546875 0.765625 -0.546875 2.1875q0 0.9375 0.25 1.609375q0.25 0.671875 0.71875 1.015625q0.46875 0.34375 1.140625 0.34375zm7.477478 2.15625l0 -10.21875l2.5 0l0 10.21875l-2.5 0zm1.25 -11.5q-0.59375 0 -1.03125 -0.4375q-0.4375 -0.4375 -0.4375 -1.03125q0 -0.59375 0.421875 -1.015625q0.4375 -0.4375 1.046875 -0.4375q0.625 0 1.046875 0.421875q0.421875 0.421875 0.421875 1.03125q0 0.609375 -0.421875 1.046875q-0.421875 0.421875 -1.046875 0.421875zm8.441223 11.734375q-1.40625 0 -2.4375 -0.640625q-1.03125 -0.65625 -1.59375 -1.84375q-0.5625 -1.203125 -0.5625 -2.84375q0 -1.65625 0.5625 -2.859375q0.578125 -1.203125 1.609375 -1.84375q1.046875 -0.65625 2.453125 -0.65625q1.59375 0 2.640625 0.734375q1.0625 0.734375 1.53125 2.171875l-2.375 0.796875q-0.234375 -0.640625 -0.703125 -0.984375q-0.453125 -0.34375 -1.046875 -0.34375q-0.984375 0 -1.5625 0.796875q-0.5625 0.796875 -0.5625 2.1875q0 1.359375 0.5625 2.15625q0.5625 0.796875 1.5 0.796875q0.671875 0 1.140625 -0.375q0.484375 -0.390625 0.71875 -1.109375l2.359375 0.703125q-0.453125 1.578125 -1.53125 2.375q-1.078125 0.78125 -2.703125 0.78125zm9.69873 0q-1.671875 0 -2.65625 -0.890625q-0.96875 -0.90625 -0.96875 -2.46875q0 -1.0 0.5 -1.75q0.515625 -0.75 1.421875 -1.15625q0.90625 -0.421875 2.109375 -0.421875q0.671875 0 1.296875 0.125q0.625 0.125 1.09375 0.34375l0 -0.640625q0 -0.859375 -0.484375 -1.28125q-0.484375 -0.4375 -1.421875 -0.4375q-0.75 0 -1.546875 0.265625q-0.78125 0.265625 -1.59375 0.796875l-0.75 -1.96875q0.875 -0.578125 1.953125 -0.890625q1.09375 -0.3125 2.1875 -0.3125q2.0625 0 3.078125 0.96875q1.015625 0.96875 1.015625 2.90625l0 6.578125l-2.4375 0l0 -0.8125q-0.515625 0.515625 -1.234375 0.78125q-0.703125 0.265625 -1.5625 0.265625zm0.578125 -2.109375q0.625 0 1.203125 -0.234375q0.578125 -0.25 1.015625 -0.703125l0 -1.203125q-0.421875 -0.21875 -0.953125 -0.328125q-0.515625 -0.109375 -1.046875 -0.109375q-0.921875 0 -1.46875 0.359375q-0.53125 0.34375 -0.53125 0.96875q0 0.59375 0.46875 0.921875q0.46875 0.328125 1.3125 0.328125zm10.230652 2.109375q-1.234375 0 -1.84375 -0.65625q-0.609375 -0.671875 -0.609375 -2.015625l0 -5.59375l-1.484375 0l0 -2.1875l1.484375 0l0 -3.03125l2.484375 -1.1875l0 4.21875l2.328125 0l0 2.1875l-2.328125 0l0 5.15625q0 0.46875 0.1875 0.703125q0.203125 0.234375 0.625 0.234375q0.734375 0 1.625 -0.46875l-0.296875 2.1875q-0.453125 0.234375 -1.0 0.34375q-0.53125 0.109375 -1.171875 0.109375zm8.968689 0q-1.46875 0 -2.53125 -0.65625q-1.0625 -0.65625 -1.640625 -1.859375q-0.578125 -1.203125 -0.578125 -2.84375q0 -1.640625 0.578125 -2.84375q0.59375 -1.203125 1.65625 -1.84375q1.0625 -0.640625 2.515625 -0.640625q1.25 0 2.25 0.515625q1.015625 0.515625 1.609375 1.59375q0.609375 1.078125 0.609375 2.734375q0 0.265625 -0.015625 0.640625q-0.015625 0.375 -0.0625 0.75l-6.671875 0q0.046875 0.703125 0.328125 1.234375q0.28125 0.515625 0.78125 0.8125q0.5 0.28125 1.1875 0.28125q0.734375 0 1.265625 -0.234375q0.546875 -0.25 1.015625 -0.796875l1.453125 1.484375q-0.671875 0.75 -1.609375 1.21875q-0.921875 0.453125 -2.140625 0.453125zm-2.265625 -6.40625l4.3125 0q-0.046875 -0.671875 -0.296875 -1.15625q-0.25 -0.484375 -0.703125 -0.734375q-0.453125 -0.265625 -1.09375 -0.265625q-0.875 0 -1.5 0.546875q-0.625 0.53125 -0.71875 1.609375zm13.234375 6.40625q-1.96875 0 -3.09375 -1.40625q-1.125 -1.421875 -1.125 -3.953125q0 -1.59375 0.53125 -2.796875q0.53125 -1.203125 1.484375 -1.859375q0.953125 -0.671875 2.234375 -0.671875q1.359375 0 2.21875 1.0l0 -3.859375l2.5 -1.125l0 14.4375l-2.5 0l0 -0.84375q-0.734375 1.078125 -2.25 1.078125zm0.40625 -2.390625q0.640625 0 1.09375 -0.21875q0.453125 -0.21875 0.75 -0.671875l0 -4.140625q-0.296875 -0.40625 -0.796875 -0.640625q-0.5 -0.25 -1.046875 -0.25q-1.015625 0 -1.5625 0.765625q-0.546875 0.765625 -0.546875 2.1875q0 0.9375 0.25 1.609375q0.25 0.671875 0.71875 1.015625q0.46875 0.34375 1.140625 0.34375zm17.883728 2.375q-1.625 0 -2.75 -0.625q-1.125 -0.640625 -1.8125 -1.671875q-0.6875 -1.046875 -1.0 -2.328125q-0.296875 -1.28125 -0.296875 -2.59375q0 -1.234375 0.3125 -2.515625q0.3125 -1.28125 1.0 -2.34375q0.703125 -1.078125 1.8125 -1.71875q1.125 -0.65625 2.734375 -0.65625q1.328125 0 2.3125 0.453125q0.984375 0.4375 1.625 1.140625q0.640625 0.703125 0.984375 1.46875l-2.3125 1.078125q-0.34375 -0.515625 -0.703125 -0.890625q-0.359375 -0.375 -0.8125 -0.578125q-0.453125 -0.203125 -1.09375 -0.203125q-0.890625 0 -1.5 0.4375q-0.609375 0.421875 -0.984375 1.140625q-0.375 0.703125 -0.53125 1.546875q-0.15625 0.84375 -0.15625 1.640625q0 0.84375 0.171875 1.6875q0.1875 0.84375 0.578125 1.53125q0.390625 0.6875 0.984375 1.109375q0.609375 0.40625 1.4375 0.40625q0.90625 0 1.515625 -0.5q0.625 -0.5 1.09375 -1.296875l2.375 0.890625q-0.453125 0.96875 -1.140625 1.75q-0.671875 0.765625 -1.625 1.203125q-0.9375 0.4375 -2.21875 0.4375zm7.4418945 -0.21875l0 -13.3125l2.5 -1.125l0 14.4375l-2.5 0zm9.210571 0.234375q-1.703125 0 -2.65625 -1.0625q-0.9375 -1.0625 -0.9375 -3.015625l0 -6.375l2.5 0l0 5.59375q0 1.296875 0.4375 1.890625q0.453125 0.578125 1.40625 0.578125q1.015625 0 1.5 -0.59375q0.484375 -0.59375 0.484375 -1.828125l0 -5.640625l2.484375 0l0 10.21875l-2.484375 0l0 -0.953125q-0.46875 0.59375 -1.15625 0.890625q-0.6875 0.296875 -1.578125 0.296875zm11.699402 0q-1.203125 0 -2.296875 -0.5q-1.09375 -0.515625 -1.734375 -1.375l1.640625 -1.375q0.5 0.53125 1.171875 0.859375q0.671875 0.3125 1.28125 0.3125q0.765625 0 1.171875 -0.25q0.40625 -0.265625 0.40625 -0.71875q0 -0.3125 -0.203125 -0.546875q-0.1875 -0.234375 -0.671875 -0.46875q-0.484375 -0.25 -1.375 -0.578125q-1.734375 -0.625 -2.453125 -1.359375q-0.71875 -0.734375 -0.71875 -1.859375q0 -1.265625 1.015625 -2.046875q1.03125 -0.78125 2.671875 -0.78125q1.125 0 2.0625 0.421875q0.9375 0.40625 1.625 1.21875l-1.625 1.359375q-0.90625 -0.921875 -2.109375 -0.921875q-0.609375 0 -0.984375 0.234375q-0.359375 0.21875 -0.359375 0.59375q0 0.375 0.4375 0.671875q0.4375 0.28125 1.625 0.671875q1.171875 0.375 1.90625 0.84375q0.734375 0.46875 1.078125 1.09375q0.34375 0.609375 0.34375 1.421875q0 1.4375 -1.046875 2.265625q-1.03125 0.8125 -2.859375 0.8125zm9.190613 0q-1.234375 0 -1.84375 -0.65625q-0.609375 -0.671875 -0.609375 -2.015625l0 -5.59375l-1.484375 0l0 -2.1875l1.484375 0l0 -3.03125l2.484375 -1.1875l0 4.21875l2.328125 0l0 2.1875l-2.328125 0l0 5.15625q0 0.46875 0.1875 0.703125q0.203125 0.234375 0.625 0.234375q0.734375 0 1.625 -0.46875l-0.296875 2.1875q-0.453125 0.234375 -1.0 0.34375q-0.53125 0.109375 -1.171875 0.109375zm8.96875 0q-1.46875 0 -2.53125 -0.65625q-1.0625 -0.65625 -1.640625 -1.859375q-0.578125 -1.203125 -0.578125 -2.84375q0 -1.640625 0.578125 -2.84375q0.59375 -1.203125 1.65625 -1.84375q1.0625 -0.640625 2.515625 -0.640625q1.25 0 2.25 0.515625q1.015625 0.515625 1.609375 1.59375q0.609375 1.078125 0.609375 2.734375q0 0.265625 -0.015625 0.640625q-0.015625 0.375 -0.0625 0.75l-6.671875 0q0.046875 0.703125 0.328125 1.234375q0.28125 0.515625 0.78125 0.8125q0.5 0.28125 1.1875 0.28125q0.734375 0 1.265625 -0.234375q0.546875 -0.25 1.015625 -0.796875l1.453125 1.484375q-0.671875 0.75 -1.609375 1.21875q-0.921875 0.453125 -2.140625 0.453125zm-2.265625 -6.40625l4.3125 0q-0.046875 -0.671875 -0.296875 -1.15625q-0.25 -0.484375 -0.703125 -0.734375q-0.453125 -0.265625 -1.09375 -0.265625q-0.875 0 -1.5 0.546875q-0.625 0.53125 -0.71875 1.609375zm9.272461 6.171875l0 -10.21875l2.5 0l0 1.09375q0.28125 -0.578125 0.875 -0.953125q0.609375 -0.375 1.265625 -0.375q1.09375 0 1.84375 0.75l-0.359375 2.28125q-0.40625 -0.34375 -0.796875 -0.484375q-0.390625 -0.140625 -0.859375 -0.140625q-0.625 0 -1.0625 0.296875q-0.4375 0.296875 -0.671875 0.84375q-0.234375 0.546875 -0.234375 1.3125l0 5.59375l-2.5 0z" fill-rule="nonzero"/></g></svg>