<svg version="1.1" viewBox="0.0 0.0 1161.6430446194227 357.53543307086613" fill="none" stroke="none" stroke-linecap="square" stroke-miterlimit="10" xmlns:xlink="http://www.w3.org/1999/xlink" xmlns="http://www.w3.org/2000/svg"><clipPath id="p.0"><path d="m0 0l1161.6431 0l0 357.53543l-1161.6431 0l0 -357.53543z" clip-rule="nonzero"/></clipPath><g clip-path="url(#p.0)"><path fill="#000000" fill-opacity="0.0" d="m0 0l1161.6431 0l0 357.53543l-1161.6431 0z" fill-rule="evenodd"/><path fill="#ffffff" d="m-3.6194227 0l1168.8818 0l0 368.59842l-1168.8818 0z" fill-rule="evenodd"/><path stroke="#ffffff" stroke-width="1.0" stroke-linejoin="round" stroke-linecap="butt" d="m-3.6194227 0l1168.8818 0l0 368.59842l-1168.8818 0z" fill-rule="evenodd"/><path fill="#ffdf9c" d="m7.768557 173.5813l226.07874 0l0 -30.409454l60.81891 60.81891l-60.81891 60.81891l0 -30.40947l-226.07874 0z" fill-rule="evenodd"/><path stroke="#ffdf9c" stroke-width="1.0" stroke-linejoin="round" stroke-linecap="butt" d="m7.768557 173.5813l226.07874 0l0 -30.409454l60.81891 60.81891l-60.81891 60.81891l0 -30.40947l-226.07874 0z" fill-rule="evenodd"/><path fill="#000000" fill-opacity="0.0" d="m22.708645 183.78477l215.65353 0l0 43.622055l-215.65353 0z" fill-rule="evenodd"/><path fill="#000000" d="m38.911747 212.21915q-1.203125 0 -2.296875 -0.5q-1.09375 -0.515625 -1.734375 -1.375l1.640625 -1.375q0.5 0.53125 1.171875 0.859375q0.671875 0.3125 1.28125 0.3125q0.765625 0 1.171875 -0.25q0.40625 -0.265625 0.40625 -0.71875q0 -0.3125 -0.203125 -0.546875q-0.1875 -0.234375 -0.671875 -0.46875q-0.484375 -0.25 -1.375 -0.578125q-1.734375 -0.625 -2.453125 -1.359375q-0.71875 -0.734375 -0.71875 -1.859375q0 -1.265625 1.015625 -2.046875q1.03125 -0.78125 2.671875 -0.78125q1.125 0 2.0625 0.421875q0.9375 0.40625 1.625 1.21875l-1.625 1.359375q-0.90625 -0.921875 -2.109375 -0.921875q-0.609375 0 -0.984375 0.234375q-0.359375 0.21875 -0.359375 0.59375q0 0.375 0.4375 0.671875q0.4375 0.28125 1.625 0.671875q1.171875 0.375 1.90625 0.84375q0.734375 0.46875 1.078125 1.09375q0.34375 0.609375 0.34375 1.421875q0 1.4375 -1.046875 2.265625q-1.03125 0.8125 -2.859375 0.8125zm9.849991 0q-1.203125 0 -2.296875 -0.5q-1.09375 -0.515625 -1.734375 -1.375l1.640625 -1.375q0.5 0.53125 1.171875 0.859375q0.671875 0.3125 1.28125 0.3125q0.765625 0 1.171875 -0.25q0.40625 -0.265625 0.40625 -0.71875q0 -0.3125 -0.203125 -0.546875q-0.1875 -0.234375 -0.671875 -0.46875q-0.484375 -0.25 -1.375 -0.578125q-1.734375 -0.625 -2.453125 -1.359375q-0.71875 -0.734375 -0.71875 -1.859375q0 -1.265625 1.015625 -2.046875q1.03125 -0.78125 2.671875 -0.78125q1.125 0 2.0625 0.421875q0.9375 0.40625 1.625 1.21875l-1.625 1.359375q-0.90625 -0.921875 -2.109375 -0.921875q-0.609375 0 -0.984375 0.234375q-0.359375 0.21875 -0.359375 0.59375q0 0.375 0.4375 0.671875q0.4375 0.28125 1.625 0.671875q1.171875 0.375 1.90625 0.84375q0.734375 0.46875 1.078125 1.09375q0.34375 0.609375 0.34375 1.421875q0 1.4375 -1.046875 2.265625q-1.03125 0.8125 -2.859375 0.8125zm6.506241 -0.234375l0 -13.296875l2.5 -1.140625l0 5.203125q0.484375 -0.609375 1.171875 -0.90625q0.6875 -0.3125 1.5625 -0.3125q1.1875 0 1.96875 0.5q0.796875 0.484375 1.203125 1.40625q0.4062538 0.90625 0.4062538 2.171875l0 6.375l-2.5000038 0l0 -5.59375q0 -1.265625 -0.4375 -1.875q-0.421875 -0.609375 -1.390625 -0.609375q-1.015625 0 -1.5 0.59375q-0.484375 0.59375 -0.484375 1.84375l0 5.640625l-2.5 0zm17.4025 0l0 -8.03125l-1.4375 0l0 -2.1875l1.4375 0l0 -1.578125q0 -1.203125 0.625 -1.8125q0.640625 -0.625 1.84375 -0.625q0.6875 0 1.21875 0.125q0.53125 0.125 1.03125 0.375l0 2.03125q-0.40625 -0.171875 -0.78125 -0.265625q-0.375 -0.09375 -0.6875 -0.09375q-0.375 0 -0.5625 0.1875q-0.1875 0.1875 -0.1875 0.5625l0 1.09375l2.21875 0l0 2.1875l-2.21875 0l0 8.03125l-2.5 0zm10.382492 0.234375q-2.171875 0 -3.421875 -1.421875q-1.25 -1.4375 -1.25 -3.90625q0 -1.640625 0.5625 -2.84375q0.578125 -1.21875 1.625 -1.859375q1.046875 -0.65625 2.484375 -0.65625q1.40625 0 2.453125 0.65625q1.046875 0.640625 1.59375 1.84375q0.5625 1.1875 0.5625 2.84375q0 1.65625 -0.5625 2.859375q-0.546875 1.203125 -1.59375 1.84375q-1.03125 0.640625 -2.453125 0.640625zm0 -2.390625q1.0 0 1.5625 -0.765625q0.5625 -0.78125 0.5625 -2.1875q0 -1.40625 -0.5625 -2.1875q-0.5625 -0.78125 -1.5625 -0.78125q-1.015625 0 -1.59375 0.796875q-0.5625 0.78125 -0.5625 2.1875q0 1.375 0.5625 2.15625q0.578125 0.78125 1.59375 0.78125zm11.449982 2.390625q-2.171875 0 -3.421875 -1.421875q-1.25 -1.4375 -1.25 -3.90625q0 -1.640625 0.5625 -2.84375q0.578125 -1.21875 1.625 -1.859375q1.046875 -0.65625 2.484375 -0.65625q1.40625 0 2.453125 0.65625q1.046875 0.640625 1.59375 1.84375q0.5625 1.1875 0.5625 2.84375q0 1.65625 -0.5625 2.859375q-0.546875 1.203125 -1.59375 1.84375q-1.03125 0.640625 -2.453125 0.640625zm0 -2.390625q1.0 0 1.5625 -0.765625q0.5625 -0.78125 0.5625 -2.1875q0 -1.40625 -0.5625 -2.1875q-0.5625 -0.78125 -1.5625 -0.78125q-1.015625 0 -1.59375 0.796875q-0.5625 0.78125 -0.5625 2.1875q0 1.375 0.5625 2.15625q0.578125 0.78125 1.59375 0.78125zm7.3349915 -2.5625l0 -2.390625l5.171875 0l0 2.390625l-5.171875 0zm8.289993 0l0 -2.390625l5.171875 0l0 2.390625l-5.171875 0zm8.024368 4.71875q0 -1.546875 0.359375 -2.703125q0.375 -1.171875 1.015625 -2.0625q0.65625 -0.890625 1.515625 -1.5625q0.859375 -0.6875 1.8125 -1.21875q0.5625 -0.328125 1.0625 -0.6875q0.5 -0.359375 0.8125 -0.796875q0.3125 -0.453125 0.3125 -1.046875q0 -0.796875 -0.53125 -1.25q-0.515625 -0.46875 -1.390625 -0.46875q-0.921875 0 -1.515625 0.4375q-0.59375 0.421875 -0.9375 1.203125l-2.296875 -1.046875q0.546875 -1.390625 1.828125 -2.203125q1.296875 -0.828125 2.890625 -0.828125q1.4375 0 2.453125 0.546875q1.015625 0.53125 1.546875 1.46875q0.53125 0.921875 0.53125 2.078125q0 1.21875 -0.4375 2.046875q-0.421875 0.8125 -1.171875 1.421875q-0.75 0.59375 -1.671875 1.125q-0.90625 0.546875 -1.546875 1.0q-0.625 0.453125 -1.03125 0.9375q-0.390625 0.484375 -0.59375 1.125l6.578125 0l0 2.484375l-9.59375 0zm19.401863 0.234375q-2.15625 0 -3.8125 -0.8125q-1.640625 -0.828125 -2.578125 -2.375q-0.921875 -1.5625 -0.921875 -3.8125q0 -1.640625 0.578125 -3.0q0.59375 -1.375 1.625 -2.375q1.03125 -1.0 2.390625 -1.546875q1.375 -0.546875 2.9375 -0.546875q2.0625 0 3.59375 0.796875q1.546875 0.78125 2.390625 2.140625q0.84375 1.359375 0.84375 3.046875q0 1.484375 -0.546875 2.640625q-0.53125 1.140625 -1.484375 1.796875q-0.9375 0.65625 -2.140625 0.65625q-0.328125 0 -0.6875 -0.109375q-0.359375 -0.109375 -0.640625 -0.359375q-0.28125 -0.25 -0.390625 -0.640625q-0.234375 0.421875 -0.546875 0.671875q-0.296875 0.234375 -0.671875 0.34375q-0.375 0.109375 -0.796875 0.109375q-0.84375 0 -1.5 -0.421875q-0.640625 -0.421875 -1.015625 -1.1875q-0.375 -0.765625 -0.375 -1.8125q0 -1.0 0.46875 -1.9375q0.46875 -0.953125 1.296875 -1.578125q0.84375 -0.625 2.0 -0.625q0.640625 0 1.0625 0.28125q0.4375 0.28125 0.59375 0.6875l0.125 -0.703125l1.890625 0l-0.703125 3.8125q-0.0625 0.40625 -0.140625 0.8125q-0.0625 0.40625 -0.0625 0.5q0 0.1875 0.109375 0.3125q0.125 0.125 0.34375 0.125q0.5 0 0.9375 -0.390625q0.453125 -0.40625 0.71875 -1.15625q0.28125 -0.75 0.28125 -1.8125q0 -1.171875 -0.546875 -2.09375q-0.53125 -0.9375 -1.609375 -1.46875q-1.078125 -0.546875 -2.703125 -0.546875q-1.265625 0 -2.3125 0.421875q-1.03125 0.40625 -1.78125 1.15625q-0.734375 0.75 -1.140625 1.78125q-0.390625 1.015625 -0.390625 2.25q0 1.609375 0.65625 2.75q0.671875 1.125 1.875 1.734375q1.21875 0.59375 2.859375 0.59375q0.65625 0 1.375 -0.109375q0.71875 -0.109375 1.453125 -0.296875l-0.5625 2.109375q-0.59375 0.078125 -1.1875 0.125q-0.578125 0.0625 -1.15625 0.0625zm-0.59375 -5.234375q0.5625 0 0.953125 -0.34375q0.40625 -0.359375 0.609375 -0.890625q0.21875 -0.53125 0.21875 -1.09375q0 -0.6875 -0.3125 -1.078125q-0.296875 -0.40625 -0.84375 -0.40625q-0.546875 0 -0.953125 0.3125q-0.40625 0.3125 -0.625 0.84375q-0.21875 0.515625 -0.21875 1.140625q0 0.6875 0.3125 1.109375q0.3125 0.40625 0.859375 0.40625zm13.870605 5.234375q-1.46875 0 -2.53125 -0.65625q-1.0625 -0.65625 -1.640625 -1.859375q-0.578125 -1.203125 -0.578125 -2.84375q0 -1.640625 0.578125 -2.84375q0.59375 -1.203125 1.65625 -1.84375q1.0625 -0.640625 2.515625 -0.640625q1.25 0 2.25 0.515625q1.015625 0.515625 1.609375 1.59375q0.609375 1.078125 0.609375 2.734375q0 0.265625 -0.015625 0.640625q-0.015625 0.375 -0.0625 0.75l-6.671875 0q0.046875 0.703125 0.328125 1.234375q0.28125 0.515625 0.78125 0.8125q0.5 0.28125 1.1875 0.28125q0.734375 0 1.265625 -0.234375q0.546875 -0.25 1.015625 -0.796875l1.453125 1.484375q-0.671875 0.75 -1.609375 1.21875q-0.921875 0.453125 -2.140625 0.453125zm-2.265625 -6.40625l4.3125 0q-0.046875 -0.671875 -0.296875 -1.15625q-0.25 -0.484375 -0.703125 -0.734375q-0.453125 -0.265625 -1.09375 -0.265625q-0.875 0 -1.5 0.546875q-0.625 0.53125 -0.71875 1.609375zm12.686859 6.40625q-1.703125 0 -2.65625 -1.0625q-0.9375 -1.0625 -0.9375 -3.015625l0 -6.375l2.5 0l0 5.59375q0 1.296875 0.4375 1.890625q0.453125 0.578125 1.40625 0.578125q1.015625 0 1.5 -0.59375q0.484375 -0.59375 0.484375 -1.828125l0 -5.640625l2.484375 0l0 10.21875l-2.484375 0l0 -0.953125q-0.46875 0.59375 -1.15625 0.890625q-0.6875 0.296875 -1.578125 0.296875zm8.355621 -4.953125l0 -2.390625l5.171875 0l0 2.390625l-5.171875 0zm14.211884 4.71875l0 -2.90625l-7.15625 0l0 -1.609375l7.203125 -9.484375l2.484375 0l0 8.703125l1.765625 0l0 2.390625l-1.765625 0l0 2.90625l-2.53125 0zm-3.796875 -5.296875l3.796875 0l0 -5.109375l-3.796875 5.109375zm11.544373 5.546875q-0.703125 0 -1.171875 -0.46875q-0.46875 -0.46875 -0.46875 -1.140625q0 -0.671875 0.46875 -1.15625q0.46875 -0.484375 1.171875 -0.484375q0.703125 0 1.171875 0.484375q0.484375 0.484375 0.484375 1.15625q0 0.671875 -0.484375 1.140625q-0.46875 0.46875 -1.171875 0.46875zm4.0006104 3.8125l0 -14.28125l2.5 0l0 0.75q0.84375 -0.984375 2.25 -0.984375q1.3125 0 2.25 0.640625q0.953125 0.640625 1.46875 1.84375q0.515625 1.203125 0.515625 2.859375q0 1.609375 -0.53125 2.8125q-0.53125 1.203125 -1.5 1.875q-0.953125 0.65625 -2.234375 0.65625q-0.703125 0 -1.265625 -0.25q-0.5625 -0.25 -0.953125 -0.75l0 3.703125l-2.5 1.125zm4.34375 -6.21875q1.03125 0 1.578125 -0.765625q0.546875 -0.78125 0.546875 -2.1875q0 -1.40625 -0.5625 -2.1875q-0.5625 -0.78125 -1.5625 -0.78125q-0.609375 0 -1.0625 0.21875q-0.453125 0.21875 -0.78125 0.671875l0 4.125q0.265625 0.4375 0.75 0.671875q0.5 0.234375 1.09375 0.234375zm10.369995 2.390625q-1.203125 0 -2.296875 -0.5q-1.09375 -0.515625 -1.734375 -1.375l1.640625 -1.375q0.5 0.53125 1.171875 0.859375q0.671875 0.3125 1.28125 0.3125q0.765625 0 1.171875 -0.25q0.40625 -0.265625 0.40625 -0.71875q0 -0.3125 -0.203125 -0.546875q-0.1875 -0.234375 -0.671875 -0.46875q-0.484375 -0.25 -1.375 -0.578125q-1.734375 -0.625 -2.453125 -1.359375q-0.71875 -0.734375 -0.71875 -1.859375q0 -1.265625 1.015625 -2.046875q1.03125 -0.78125 2.671875 -0.78125q1.125 0 2.0625 0.421875q0.9375 0.40625 1.625 1.21875l-1.625 1.359375q-0.90625 -0.921875 -2.109375 -0.921875q-0.609375 0 -0.984375 0.234375q-0.359375 0.21875 -0.359375 0.59375q0 0.375 0.4375 0.671875q0.4375 0.28125 1.625 0.671875q1.171875 0.375 1.90625 0.84375q0.734375 0.46875 1.078125 1.09375q0.34375 0.609375 0.34375 1.421875q0 1.4375 -1.046875 2.265625q-1.03125 0.8125 -2.859375 0.8125zm6.5062256 -0.234375l0 -13.296875l2.5 -1.140625l0 5.203125q0.484375 -0.609375 1.171875 -0.90625q0.6875 -0.3125 1.5625 -0.3125q1.1875 0 1.96875 0.5q0.796875 0.484375 1.203125 1.40625q0.40625 0.90625 0.40625 2.171875l0 6.375l-2.5 0l0 -5.59375q0 -1.265625 -0.4375 -1.875q-0.421875 -0.609375 -1.390625 -0.609375q-1.015625 0 -1.5 0.59375q-0.484375 0.59375 -0.484375 1.84375l0 5.640625l-2.5 0z" fill-rule="nonzero"/><path fill="#c3e1ff" d="m294.6404 162.71391l286.89767 0l0 82.55118l-286.89767 0z" fill-rule="evenodd"/><path stroke="#c3e1ff" stroke-width="1.0" stroke-linejoin="round" stroke-linecap="butt" d="m294.6404 162.71391l286.89767 0l0 82.55118l-286.89767 0z" fill-rule="evenodd"/><path fill="#000000" fill-opacity="0.0" d="m299.01846 182.1779l278.1417 0l0 43.62204l-278.1417 0z" fill-rule="evenodd"/><path fill="#000000" d="m374.38315 210.61227q-1.609375 0 -2.765625 -0.59375q-1.15625 -0.609375 -1.890625 -1.640625q-0.734375 -1.046875 -1.09375 -2.328125q-0.34375 -1.296875 -0.34375 -2.671875q0 -1.3125 0.359375 -2.59375q0.359375 -1.28125 1.109375 -2.328125q0.75 -1.046875 1.890625 -1.671875q1.15625 -0.640625 2.734375 -0.640625q1.34375 0 2.265625 0.421875q0.921875 0.40625 1.5625 1.09375q0.640625 0.671875 1.109375 1.421875l-2.28125 1.296875q-0.46875 -0.703125 -1.09375 -1.234375q-0.625 -0.53125 -1.5625 -0.53125q-0.984375 0 -1.640625 0.4375q-0.640625 0.4375 -1.03125 1.15625q-0.390625 0.703125 -0.5625 1.546875q-0.171875 0.828125 -0.171875 1.625q0 0.90625 0.1875 1.765625q0.1875 0.84375 0.59375 1.53125q0.421875 0.671875 1.0625 1.078125q0.65625 0.390625 1.5625 0.390625q0.6875 0 1.25 -0.3125q0.578125 -0.3125 0.90625 -0.828125q0.328125 -0.53125 0.328125 -1.1875l0 -0.265625l-2.390625 0l0 -2.453125l5.0625 0l0 2.015625q0 1.78125 -0.6875 3.015625q-0.6875 1.21875 -1.859375 1.859375q-1.15625 0.625 -2.609375 0.625zm7.973755 -0.234375l0 -10.21875l2.5 0l0 1.09375q0.28125 -0.578125 0.875 -0.953125q0.609375 -0.375 1.265625 -0.375q1.09375 0 1.84375 0.75l-0.359375 2.28125q-0.40625 -0.34375 -0.796875 -0.484375q-0.390625 -0.140625 -0.859375 -0.140625q-0.625 0 -1.0625 0.296875q-0.4375 0.296875 -0.671875 0.84375q-0.234375 0.546875 -0.234375 1.3125l0 5.59375l-2.5 0zm8.245605 0l0 -10.21875l2.5 0l0 10.21875l-2.5 0zm1.25 -11.5q-0.59375 0 -1.03125 -0.4375q-0.4375 -0.4375 -0.4375 -1.03125q0 -0.59375 0.421875 -1.015625q0.4375 -0.4375 1.046875 -0.4375q0.625 0 1.046875 0.421875q0.421875 0.421875 0.421875 1.03125q0 0.609375 -0.421875 1.046875q-0.421875 0.421875 -1.046875 0.421875zm8.066223 11.734375q-1.96875 0 -3.09375 -1.40625q-1.125 -1.421875 -1.125 -3.953125q0 -1.59375 0.53125 -2.796875q0.53125 -1.203125 1.484375 -1.859375q0.953125 -0.671875 2.234375 -0.671875q1.359375 0 2.21875 1.0l0 -3.859375l2.5 -1.125l0 14.4375l-2.5 0l0 -0.84375q-0.734375 1.078125 -2.25 1.078125zm0.40625 -2.390625q0.640625 0 1.09375 -0.21875q0.453125 -0.21875 0.75 -0.671875l0 -4.140625q-0.296875 -0.40625 -0.796875 -0.640625q-0.5 -0.25 -1.046875 -0.25q-1.015625 0 -1.5625 0.765625q-0.546875 0.765625 -0.546875 2.1875q0 0.9375 0.25 1.609375q0.25 0.671875 0.71875 1.015625q0.46875 0.34375 1.140625 0.34375zm16.665009 2.390625q-1.46875 0 -2.53125 -0.65625q-1.0625 -0.65625 -1.640625 -1.859375q-0.578125 -1.203125 -0.578125 -2.84375q0 -1.640625 0.578125 -2.84375q0.59375 -1.203125 1.65625 -1.84375q1.0625 -0.640625 2.515625 -0.640625q1.25 0 2.25 0.515625q1.015625 0.515625 1.609375 1.59375q0.609375 1.078125 0.609375 2.734375q0 0.265625 -0.015625 0.640625q-0.015625 0.375 -0.0625 0.75l-6.671875 0q0.046875 0.703125 0.328125 1.234375q0.28125 0.515625 0.78125 0.8125q0.5 0.28125 1.1875 0.28125q0.734375 0 1.265625 -0.234375q0.546875 -0.25 1.015625 -0.796875l1.453125 1.484375q-0.671875 0.75 -1.609375 1.21875q-0.921875 0.453125 -2.140625 0.453125zm-2.265625 -6.40625l4.3125 0q-0.046875 -0.671875 -0.296875 -1.15625q-0.25 -0.484375 -0.703125 -0.734375q-0.453125 -0.265625 -1.09375 -0.265625q-0.875 0 -1.5 0.546875q-0.625 0.53125 -0.71875 1.609375zm9.272491 6.171875l0 -10.21875l2.5 0l0 0.984375q0.484375 -0.609375 1.171875 -0.90625q0.6875 -0.3125 1.5625 -0.3125q1.71875 0 2.640625 1.0625q0.9375 1.046875 0.9375 3.015625l0 6.375l-2.5 0l0 -5.59375q0 -1.296875 -0.453125 -1.890625q-0.4375 -0.59375 -1.375 -0.59375q-1.015625 0 -1.5 0.59375q-0.484375 0.59375 -0.484375 1.84375l0 5.640625l-2.5 0zm14.524353 0.234375q-1.234375 0 -1.84375 -0.65625q-0.609375 -0.671875 -0.609375 -2.015625l0 -5.59375l-1.484375 0l0 -2.1875l1.484375 0l0 -3.03125l2.484375 -1.1875l0 4.21875l2.328125 0l0 2.1875l-2.328125 0l0 5.15625q0 0.46875 0.1875 0.703125q0.203125 0.234375 0.625 0.234375q0.734375 0 1.625 -0.46875l-0.296875 2.1875q-0.453125 0.234375 -1.0 0.34375q-0.53125 0.109375 -1.171875 0.109375zm4.065613 -0.234375l0 -10.21875l2.5 0l0 1.09375q0.28125 -0.578125 0.875 -0.953125q0.609375 -0.375 1.265625 -0.375q1.09375 0 1.84375 0.75l-0.359375 2.28125q-0.40625 -0.34375 -0.796875 -0.484375q-0.390625 -0.140625 -0.859375 -0.140625q-0.625 0 -1.0625 0.296875q-0.4375 0.296875 -0.671875 0.84375q-0.234375 0.546875 -0.234375 1.3125l0 5.59375l-2.5 0zm9.791229 3.875l1.546875 -4.0625l-3.828125 -10.03125l2.5625 0l2.234375 5.984375q0.09375 0.203125 0.171875 0.453125q0.078125 0.25 0.15625 0.5q0.046875 -0.25 0.125 -0.484375q0.09375 -0.25 0.1875 -0.46875l2.234375 -5.984375l2.5625 0l-5.375 14.09375l-2.578125 0zm10.138733 0.1875l0 -14.28125l2.5 0l0 0.75q0.84375 -0.984375 2.25 -0.984375q1.3125 0 2.25 0.640625q0.953125 0.640625 1.46875 1.84375q0.515625 1.203125 0.515625 2.859375q0 1.609375 -0.53125 2.8125q-0.53125 1.203125 -1.5 1.875q-0.953125 0.65625 -2.234375 0.65625q-0.703125 0 -1.265625 -0.25q-0.5625 -0.25 -0.953125 -0.75l0 3.703125l-2.5 1.125zm4.34375 -6.21875q1.03125 0 1.578125 -0.765625q0.546875 -0.78125 0.546875 -2.1875q0 -1.40625 -0.5625 -2.1875q-0.5625 -0.78125 -1.5625 -0.78125q-0.609375 0 -1.0625 0.21875q-0.453125 0.21875 -0.78125 0.671875l0 4.125q0.265625 0.4375 0.75 0.671875q0.5 0.234375 1.09375 0.234375zm11.461243 2.390625q-2.171875 0 -3.421875 -1.421875q-1.25 -1.4375 -1.25 -3.90625q0 -1.640625 0.5625 -2.84375q0.578125 -1.21875 1.625 -1.859375q1.046875 -0.65625 2.484375 -0.65625q1.40625 0 2.453125 0.65625q1.046875 0.640625 1.59375 1.84375q0.5625 1.1875 0.5625 2.84375q0 1.65625 -0.5625 2.859375q-0.546875 1.203125 -1.59375 1.84375q-1.03125 0.640625 -2.453125 0.640625zm0 -2.390625q1.0 0 1.5625 -0.765625q0.5625 -0.78125 0.5625 -2.1875q0 -1.40625 -0.5625 -2.1875q-0.5625 -0.78125 -1.5625 -0.78125q-1.015625 0 -1.59375 0.796875q-0.5625 0.78125 -0.5625 2.1875q0 1.375 0.5625 2.15625q0.578125 0.78125 1.59375 0.78125zm7.2206116 2.15625l0 -10.21875l2.5 0l0 10.21875l-2.5 0zm1.25 -11.5q-0.59375 0 -1.03125 -0.4375q-0.4375 -0.4375 -0.4375 -1.03125q0 -0.59375 0.421875 -1.015625q0.4375 -0.4375 1.046875 -0.4375q0.625 0 1.046875 0.421875q0.421875 0.421875 0.421875 1.03125q0 0.609375 -0.421875 1.046875q-0.421875 0.421875 -1.046875 0.421875zm4.394348 11.5l0 -10.21875l2.5 0l0 0.984375q0.484375 -0.609375 1.171875 -0.90625q0.6875 -0.3125 1.5625 -0.3125q1.71875 0 2.640625 1.0625q0.9375 1.046875 0.9375 3.015625l0 6.375l-2.5 0l0 -5.59375q0 -1.296875 -0.453125 -1.890625q-0.4375 -0.59375 -1.375 -0.59375q-1.015625 0 -1.5 0.59375q-0.484375 0.59375 -0.484375 1.84375l0 5.640625l-2.5 0zm14.524384 0.234375q-1.234375 0 -1.84375 -0.65625q-0.609375 -0.671875 -0.609375 -2.015625l0 -5.59375l-1.484375 0l0 -2.1875l1.484375 0l0 -3.03125l2.484375 -1.1875l0 4.21875l2.328125 0l0 2.1875l-2.328125 0l0 5.15625q0 0.46875 0.1875 0.703125q0.203125 0.234375 0.625 0.234375q0.734375 0 1.625 -0.46875l-0.296875 2.1875q-0.453125 0.234375 -1.0 0.34375q-0.53125 0.109375 -1.171875 0.109375z" fill-rule="nonzero"/><path fill="#c3e1ff" d="m668.7992 20.003645l169.10236 0l0 320.50394l-169.10236 0z" fill-rule="evenodd"/><path stroke="#eeeeee" stroke-width="1.0" stroke-linejoin="round" stroke-linecap="butt" d="m668.7992 20.003645l169.10236 0l0 320.50394l-169.10236 0z" fill-rule="evenodd"/><path fill="#ffffff" d="m682.7629 40.44912l136.18896 0l0 82.55118l-136.18896 0z" fill-rule="evenodd"/><path stroke="#ffffff" stroke-width="1.0" stroke-linejoin="round" stroke-linecap="butt" d="m682.7629 40.44912l136.18896 0l0 82.55118l-136.18896 0z" fill-rule="evenodd"/><path fill="#000000" fill-opacity="0.0" d="m685.48706 48.528595l130.74011 0l0 67.874016l-130.74011 0z" fill-rule="evenodd"/><path fill="#000000" d="m717.5134 76.72859l0 -14.0l2.59375 0l0 5.546875l5.921875 0l0 -5.546875l2.59375 0l0 14.0l-2.59375 0l0 -5.984375l-5.921875 0l0 5.984375l-2.59375 0zm18.451233 0.234375q-2.171875 0 -3.421875 -1.421875q-1.25 -1.4375 -1.25 -3.90625q0 -1.640625 0.5625 -2.84375q0.578125 -1.21875 1.625 -1.859375q1.046875 -0.65625 2.484375 -0.65625q1.40625 0 2.453125 0.65625q1.046875 0.640625 1.59375 1.84375q0.5625 1.1875 0.5625 2.84375q0 1.65625 -0.5625 2.859375q-0.546875 1.203125 -1.59375 1.84375q-1.03125 0.640625 -2.453125 0.640625zm0 -2.390625q1.0 0 1.5625 -0.765625q0.5625 -0.78125 0.5625 -2.1875q0 -1.40625 -0.5625 -2.1875q-0.5625 -0.78125 -1.5625 -0.78125q-1.015625 0 -1.59375 0.796875q-0.5625 0.78125 -0.5625 2.1875q0 1.375 0.5625 2.15625q0.578125 0.78125 1.59375 0.78125zm10.358704 2.390625q-1.203125 0 -2.296875 -0.5q-1.09375 -0.515625 -1.734375 -1.375l1.640625 -1.375q0.5 0.53125 1.171875 0.859375q0.671875 0.3125 1.28125 0.3125q0.765625 0 1.171875 -0.25q0.40625 -0.265625 0.40625 -0.71875q0 -0.3125 -0.203125 -0.546875q-0.1875 -0.234375 -0.671875 -0.46875q-0.484375 -0.25 -1.375 -0.578125q-1.734375 -0.625 -2.453125 -1.359375q-0.71875 -0.734375 -0.71875 -1.859375q0 -1.265625 1.015625 -2.046875q1.03125 -0.78125 2.671875 -0.78125q1.125 0 2.0625 0.421875q0.9375 0.40625 1.625 1.21875l-1.625 1.359375q-0.90625 -0.921875 -2.109375 -0.921875q-0.609375 0 -0.984375 0.234375q-0.359375 0.21875 -0.359375 0.59375q0 0.375 0.4375 0.671875q0.4375 0.28125 1.625 0.671875q1.171875 0.375 1.90625 0.84375q0.734375 0.46875 1.078125 1.09375q0.34375 0.609375 0.34375 1.421875q0 1.4375 -1.046875 2.265625q-1.03125 0.8125 -2.859375 0.8125zm9.190613 0q-1.234375 0 -1.84375 -0.65625q-0.609375 -0.671875 -0.609375 -2.015625l0 -5.59375l-1.484375 0l0 -2.1875l1.484375 0l0 -3.03125l2.484375 -1.1875l0 4.21875l2.328125 0l0 2.1875l-2.328125 0l0 5.15625q0 0.46875 0.1875 0.703125q0.203125 0.234375 0.625 0.234375q0.734375 0 1.625 -0.46875l-0.296875 2.1875q-0.453125 0.234375 -1.0 0.34375q-0.53125 0.109375 -1.171875 0.109375zm10.818726 -0.234375l0.53125 -3.5625l-2.140625 0l0.3125 -2.171875l2.15625 0l0.421875 -2.859375l-2.109375 0l0.296875 -2.15625l2.171875 0l0.46875 -3.25l2.21875 0l-0.484375 3.25l2.40625 0l0.515625 -3.25l2.203125 0l-0.5 3.25l2.15625 0l-0.296875 2.15625l-2.1875 0l-0.421875 2.859375l2.125 0l-0.328125 2.171875l-2.125 0l-0.53125 3.5625l-2.234375 0l0.546875 -3.5625l-2.40625 0l-0.5625 3.5625l-2.203125 0zm3.078125 -5.734375l2.421875 0l0.421875 -2.859375l-2.40625 0l-0.4375 2.859375zm11.290039 5.734375l0 -10.453125l-2.15625 0l0 -2.03125q0.671875 0 1.203125 -0.140625q0.546875 -0.140625 0.921875 -0.46875q0.375 -0.328125 0.5625 -0.90625l2.0625 0l0 14.0l-2.59375 0z" fill-rule="nonzero"/><path fill="#000000" d="m705.45026 100.72859l0 -14.0l8.328125 0l0 1.640625l-6.578125 0l0 4.296875l4.34375 0l0 1.640625l-4.34375 0l0 4.765625l7.015625 0l0 1.65625l-8.765625 0zm11.58313 0l0 -10.21875l1.75 0l0 1.03125q0.46875 -0.640625 1.125 -0.953125q0.65625 -0.3125 1.515625 -0.3125q1.859375 0 2.75 1.125q0.90625 1.125 0.90625 3.453125l0 5.875l-1.75 0l0 -6.1875q0 -1.28125 -0.578125 -1.96875q-0.5625 -0.703125 -1.609375 -0.703125q-1.171875 0 -1.765625 0.671875q-0.59375 0.65625 -0.59375 1.96875l0 6.21875l-1.75 0zm13.803772 0.234375q-1.046875 0 -1.609375 -0.625q-0.546875 -0.625 -0.546875 -1.8125l0 -6.5l-1.65625 0l0 -1.515625l1.65625 0l0 -3.375l1.734375 -0.84375l0 4.21875l2.515625 0l0 1.515625l-2.515625 0l0 5.921875q0 0.734375 0.25 1.078125q0.265625 0.328125 0.8125 0.328125q0.703125 0 1.515625 -0.546875l-0.203125 1.703125q-0.4375 0.234375 -0.921875 0.34375q-0.484375 0.109375 -1.03125 0.109375zm3.9161987 -0.234375l0 -10.21875l1.75 0l0 1.34375q0.34375 -0.78125 0.953125 -1.171875q0.625 -0.40625 1.453125 -0.40625q0.9375 0 1.59375 0.515625l-0.265625 1.640625q-0.328125 -0.234375 -0.6875 -0.328125q-0.359375 -0.109375 -0.765625 -0.109375q-0.703125 0 -1.21875 0.375q-0.5 0.359375 -0.78125 1.03125q-0.28125 0.671875 -0.28125 1.5625l0 5.765625l-1.75 0zm9.178772 3.875l1.5625 -4.140625l-3.78125 -9.953125l1.734375 0l2.546875 6.953125q0.109375 0.28125 0.171875 0.5q0.078125 0.21875 0.140625 0.484375q0.078125 -0.265625 0.140625 -0.484375q0.078125 -0.21875 0.171875 -0.5l2.59375 -6.953125l1.78125 0l-5.3125 14.09375l-1.75 0zm9.561218 0.1875l0 -14.28125l1.75 0l0 0.859375q1.09375 -1.09375 2.609375 -1.09375q1.296875 0 2.234375 0.65625q0.953125 0.640625 1.46875 1.84375q0.515625 1.1875 0.515625 2.828125q0 1.640625 -0.515625 2.859375q-0.515625 1.203125 -1.46875 1.859375q-0.9375 0.640625 -2.234375 0.640625q-0.8125 0 -1.46875 -0.28125q-0.640625 -0.296875 -1.140625 -0.90625l0 4.1875l-1.75 0.828125zm4.140625 -5.4375q1.296875 0 1.96875 -0.96875q0.6875 -0.96875 0.6875 -2.78125q0 -1.71875 -0.71875 -2.71875q-0.71875 -1.015625 -1.9375 -1.015625q-0.78125 0 -1.40625 0.359375q-0.609375 0.359375 -0.984375 1.015625l0 4.71875q0.53125 0.703125 1.125 1.046875q0.59375 0.34375 1.265625 0.34375zm11.401245 1.609375q-2.09375 0 -3.3125 -1.421875q-1.203125 -1.4375 -1.203125 -3.90625q0 -1.65625 0.546875 -2.859375q0.546875 -1.203125 1.5625 -1.84375q1.015625 -0.65625 2.40625 -0.65625q1.40625 0 2.421875 0.640625q1.015625 0.640625 1.546875 1.84375q0.546875 1.203125 0.546875 2.84375q0 1.65625 -0.546875 2.859375q-0.546875 1.203125 -1.5625 1.859375q-1.015625 0.640625 -2.40625 0.640625zm0 -1.609375q1.296875 0 2.03125 -1.0q0.734375 -1.0 0.734375 -2.75q0 -1.75 -0.734375 -2.734375q-0.734375 -1.0 -2.03125 -1.0q-1.296875 0 -2.03125 0.984375q-0.734375 0.984375 -0.734375 2.78125q0 1.75 0.734375 2.734375q0.734375 0.984375 2.03125 0.984375zm7.269348 1.375l0 -10.21875l1.734375 0l0 10.21875l-1.734375 0zm0.859375 -12.078125q-0.453125 0 -0.78125 -0.3125q-0.3125 -0.3125 -0.3125 -0.765625q0 -0.46875 0.3125 -0.796875q0.328125 -0.328125 0.78125 -0.328125q0.46875 0 0.78125 0.328125q0.3125 0.328125 0.3125 0.796875q0 0.453125 -0.3125 0.765625q-0.3125 0.3125 -0.78125 0.3125zm4.189392 12.078125l0 -10.21875l1.75 0l0 1.03125q0.46875 -0.640625 1.125 -0.953125q0.65625 -0.3125 1.515625 -0.3125q1.859375 0 2.75 1.125q0.90625 1.125 0.90625 3.453125l0 5.875l-1.75 0l0 -6.1875q0 -1.28125 -0.578125 -1.96875q-0.5625 -0.703125 -1.609375 -0.703125q-1.171875 0 -1.765625 0.671875q-0.59375 0.65625 -0.59375 1.96875l0 6.21875l-1.75 0zm13.803772 0.234375q-1.046875 0 -1.609375 -0.625q-0.546875 -0.625 -0.546875 -1.8125l0 -6.5l-1.65625 0l0 -1.515625l1.65625 0l0 -3.375l1.734375 -0.84375l0 4.21875l2.515625 0l0 1.515625l-2.515625 0l0 5.921875q0 0.734375 0.25 1.078125q0.265625 0.328125 0.8125 0.328125q0.703125 0 1.515625 -0.546875l-0.203125 1.703125q-0.4375 0.234375 -0.921875 0.34375q-0.484375 0.109375 -1.03125 0.109375z" fill-rule="nonzero"/><path fill="#ffffff" d="m683.4148 141.37732l136.18896 0l0 82.55118l-136.18896 0z" fill-rule="evenodd"/><path stroke="#ffffff" stroke-width="1.0" stroke-linejoin="round" stroke-linecap="butt" d="m683.4148 141.37732l136.18896 0l0 82.55118l-136.18896 0z" fill-rule="evenodd"/><path fill="#ffffff" d="m684.38446 242.30553l136.18896 0l0 82.55119l-136.18896 0z" fill-rule="evenodd"/><path stroke="#ffffff" stroke-width="1.0" stroke-linejoin="round" stroke-linecap="butt" d="m684.38446 242.30553l136.18896 0l0 82.55119l-136.18896 0z" fill-rule="evenodd"/><path fill="#000000" fill-opacity="0.0" d="m571.4434 211.51585l57.338562 0l0 -26.456696l57.338623 0" fill-rule="evenodd"/><path stroke="#666666" stroke-width="2.0" stroke-linejoin="round" stroke-linecap="butt" d="m571.4434 211.51585l57.338562 0l0 -26.456696l48.338562 0" fill-rule="evenodd"/><path fill="#666666" stroke="#666666" stroke-width="2.0" stroke-linecap="butt" d="m677.12054 187.2707l6.076233 -2.2115479l-6.076233 -2.2115479z" fill-rule="evenodd"/><path fill="#000000" fill-opacity="0.0" d="m568.76263 183.06403l45.147827 0l0 -100.59843l71.5766 0" fill-rule="evenodd"/><path stroke="#666666" stroke-width="2.0" stroke-linejoin="round" stroke-linecap="butt" d="m568.76263 183.06404l45.147827 0l0 -100.59844l62.5766 0" fill-rule="evenodd"/><path fill="#666666" stroke="#666666" stroke-width="2.0" stroke-linecap="butt" d="m676.48706 84.677155l6.076172 -2.2115555l-6.076172 -2.2115479z" fill-rule="evenodd"/><path fill="#000000" fill-opacity="0.0" d="m571.4436 234.86462l67.685 0l0 68.59842l67.68506 0" fill-rule="evenodd"/><path stroke="#666666" stroke-width="2.0" stroke-linejoin="round" stroke-linecap="butt" d="m571.44354 234.86462l67.68506 0l0 68.59842l58.68506 0" fill-rule="evenodd"/><path fill="#666666" stroke="#666666" stroke-width="2.0" stroke-linecap="butt" d="m697.81366 305.6746l6.076172 -2.2115479l-6.076172 -2.2115479z" fill-rule="evenodd"/><path fill="#c3e1ff" d="m952.1181 20.002625l181.95282 0l0 320.50394l-181.95282 0z" fill-rule="evenodd"/><path stroke="#eeeeee" stroke-width="1.0" stroke-linejoin="round" stroke-linecap="butt" d="m952.1181 20.002625l181.95282 0l0 320.50394l-181.95282 0z" fill-rule="evenodd"/><path fill="#ffffff" d="m966.084 40.44882l153.03943 0l0 82.55118l-153.03943 0z" fill-rule="evenodd"/><path stroke="#ffffff" stroke-width="1.0" stroke-linejoin="round" stroke-linecap="butt" d="m966.084 40.44882l153.03943 0l0 82.55118l-153.03943 0z" fill-rule="evenodd"/><path fill="#ffffff" d="m966.7349 141.37796l153.03937 0l0 82.55118l-153.03937 0z" fill-rule="evenodd"/><path stroke="#ffffff" stroke-width="1.0" stroke-linejoin="round" stroke-linecap="butt" d="m966.7349 141.37796l153.03937 0l0 82.55118l-153.03937 0z" fill-rule="evenodd"/><path fill="#ffffff" d="m967.7034 242.30446l153.03937 0l0 82.55119l-153.03937 0z" fill-rule="evenodd"/><path stroke="#ffffff" stroke-width="1.0" stroke-linejoin="round" stroke-linecap="butt" d="m967.7034 242.30446l153.03937 0l0 82.55119l-153.03937 0z" fill-rule="evenodd"/><path fill="#000000" fill-opacity="0.0" d="m685.48706 148.71626l130.74011 0l0 67.87401l-130.74011 0z" fill-rule="evenodd"/><path fill="#000000" d="m715.3984 176.91626l0 -14.0l2.59375 0l0 5.546875l5.921875 0l0 -5.546875l2.59375 0l0 14.0l-2.59375 0l0 -5.984375l-5.921875 0l0 5.984375l-2.59375 0zm18.451233 0.234375q-2.171875 0 -3.421875 -1.421875q-1.25 -1.4375 -1.25 -3.90625q0 -1.640625 0.5625 -2.84375q0.578125 -1.21875 1.625 -1.859375q1.046875 -0.65625 2.484375 -0.65625q1.40625 0 2.453125 0.65625q1.046875 0.640625 1.59375 1.84375q0.5625 1.1875 0.5625 2.84375q0 1.65625 -0.5625 2.859375q-0.546875 1.203125 -1.59375 1.84375q-1.03125 0.640625 -2.453125 0.640625zm0 -2.390625q1.0 0 1.5625 -0.765625q0.5625 -0.78125 0.5625 -2.1875q0 -1.40625 -0.5625 -2.1875q-0.5625 -0.78125 -1.5625 -0.78125q-1.015625 0 -1.59375 0.796875q-0.5625 0.78125 -0.5625 2.1875q0 1.375 0.5625 2.15625q0.578125 0.78125 1.59375 0.78125zm10.358765 2.390625q-1.203125 0 -2.296875 -0.5q-1.09375 -0.515625 -1.734375 -1.375l1.640625 -1.375q0.5 0.53125 1.171875 0.859375q0.671875 0.3125 1.28125 0.3125q0.765625 0 1.171875 -0.25q0.40625 -0.265625 0.40625 -0.71875q0 -0.3125 -0.203125 -0.546875q-0.1875 -0.234375 -0.671875 -0.46875q-0.484375 -0.25 -1.375 -0.578125q-1.734375 -0.625 -2.453125 -1.359375q-0.71875 -0.734375 -0.71875 -1.859375q0 -1.265625 1.015625 -2.046875q1.03125 -0.78125 2.671875 -0.78125q1.125 0 2.0625 0.421875q0.9375 0.40625 1.625 1.21875l-1.625 1.359375q-0.90625 -0.921875 -2.109375 -0.921875q-0.609375 0 -0.984375 0.234375q-0.359375 0.21875 -0.359375 0.59375q0 0.375 0.4375 0.671875q0.4375 0.28125 1.625 0.671875q1.171875 0.375 1.90625 0.84375q0.734375 0.46875 1.078125 1.09375q0.34375 0.609375 0.34375 1.421875q0 1.4375 -1.046875 2.265625q-1.03125 0.8125 -2.859375 0.8125zm9.190613 0q-1.234375 0 -1.84375 -0.65625q-0.609375 -0.671875 -0.609375 -2.015625l0 -5.59375l-1.484375 0l0 -2.1875l1.484375 0l0 -3.03125l2.484375 -1.1875l0 4.21875l2.328125 0l0 2.1875l-2.328125 0l0 5.15625q0 0.46875 0.1875 0.703125q0.203125 0.234375 0.625 0.234375q0.734375 0 1.625 -0.46875l-0.296875 2.1875q-0.453125 0.234375 -1.0 0.34375q-0.53125 0.109375 -1.171875 0.109375zm10.818726 -0.234375l0.53125 -3.5625l-2.140625 0l0.3125 -2.171875l2.15625 0l0.421875 -2.859375l-2.109375 0l0.296875 -2.15625l2.171875 0l0.46875 -3.25l2.21875 0l-0.484375 3.25l2.40625 0l0.515625 -3.25l2.203125 0l-0.5 3.25l2.15625 0l-0.296875 2.15625l-2.1875 0l-0.421875 2.859375l2.125 0l-0.328125 2.171875l-2.125 0l-0.53125 3.5625l-2.234375 0l0.546875 -3.5625l-2.40625 0l-0.5625 3.5625l-2.203125 0zm3.078125 -5.734375l2.421875 0l0.421875 -2.859375l-2.40625 0l-0.4375 2.859375zm9.743103 5.734375q0 -1.546875 0.359375 -2.703125q0.375 -1.171875 1.015625 -2.0625q0.65625 -0.890625 1.515625 -1.5625q0.859375 -0.6875 1.8125 -1.21875q0.5625 -0.328125 1.0625 -0.6875q0.5 -0.359375 0.8125 -0.796875q0.3125 -0.453125 0.3125 -1.046875q0 -0.796875 -0.53125 -1.25q-0.515625 -0.46875 -1.390625 -0.46875q-0.921875 0 -1.515625 0.4375q-0.59375 0.421875 -0.9375 1.203125l-2.296875 -1.046875q0.546875 -1.390625 1.828125 -2.203125q1.296875 -0.828125 2.890625 -0.828125q1.4375 0 2.453125 0.546875q1.015625 0.53125 1.546875 1.46875q0.53125 0.921875 0.53125 2.078125q0 1.21875 -0.4375 2.046875q-0.421875 0.8125 -1.171875 1.421875q-0.75 0.59375 -1.671875 1.125q-0.90625 0.546875 -1.546875 1.0q-0.625 0.453125 -1.03125 0.9375q-0.390625 0.484375 -0.59375 1.125l6.578125 0l0 2.484375l-9.59375 0z" fill-rule="nonzero"/><path fill="#000000" d="m705.45026 200.91626l0 -14.0l8.328125 0l0 1.640625l-6.578125 0l0 4.296875l4.34375 0l0 1.640625l-4.34375 0l0 4.765625l7.015625 0l0 1.65625l-8.765625 0zm11.58313 0l0 -10.21875l1.75 0l0 1.03125q0.46875 -0.640625 1.125 -0.953125q0.65625 -0.3125 1.515625 -0.3125q1.859375 0 2.75 1.125q0.90625 1.125 0.90625 3.453125l0 5.875l-1.75 0l0 -6.1875q0 -1.28125 -0.578125 -1.96875q-0.5625 -0.703125 -1.609375 -0.703125q-1.171875 0 -1.765625 0.671875q-0.59375 0.65625 -0.59375 1.96875l0 6.21875l-1.75 0zm13.803772 0.234375q-1.046875 0 -1.609375 -0.625q-0.546875 -0.625 -0.546875 -1.8125l0 -6.5l-1.65625 0l0 -1.515625l1.65625 0l0 -3.375l1.734375 -0.84375l0 4.21875l2.515625 0l0 1.515625l-2.515625 0l0 5.921875q0 0.734375 0.25 1.078125q0.265625 0.328125 0.8125 0.328125q0.703125 0 1.515625 -0.546875l-0.203125 1.703125q-0.4375 0.234375 -0.921875 0.34375q-0.484375 0.109375 -1.03125 0.109375zm3.9161987 -0.234375l0 -10.21875l1.75 0l0 1.34375q0.34375 -0.78125 0.953125 -1.171875q0.625 -0.40625 1.453125 -0.40625q0.9375 0 1.59375 0.515625l-0.265625 1.640625q-0.328125 -0.234375 -0.6875 -0.328125q-0.359375 -0.109375 -0.765625 -0.109375q-0.703125 0 -1.21875 0.375q-0.5 0.359375 -0.78125 1.03125q-0.28125 0.671875 -0.28125 1.5625l0 5.765625l-1.75 0zm9.178772 3.875l1.5625 -4.140625l-3.78125 -9.953125l1.734375 0l2.546875 6.953125q0.109375 0.28125 0.171875 0.5q0.078125 0.21875 0.140625 0.484375q0.078125 -0.265625 0.140625 -0.484375q0.078125 -0.21875 0.171875 -0.5l2.59375 -6.953125l1.78125 0l-5.3125 14.09375l-1.75 0zm9.561218 0.1875l0 -14.28125l1.75 0l0 0.859375q1.09375 -1.09375 2.609375 -1.09375q1.296875 0 2.234375 0.65625q0.953125 0.640625 1.46875 1.84375q0.515625 1.1875 0.515625 2.828125q0 1.640625 -0.515625 2.859375q-0.515625 1.203125 -1.46875 1.859375q-0.9375 0.640625 -2.234375 0.640625q-0.8125 0 -1.46875 -0.28125q-0.640625 -0.296875 -1.140625 -0.90625l0 4.1875l-1.75 0.828125zm4.140625 -5.4375q1.296875 0 1.96875 -0.96875q0.6875 -0.96875 0.6875 -2.78125q0 -1.71875 -0.71875 -2.71875q-0.71875 -1.015625 -1.9375 -1.015625q-0.78125 0 -1.40625 0.359375q-0.609375 0.359375 -0.984375 1.015625l0 4.71875q0.53125 0.703125 1.125 1.046875q0.59375 0.34375 1.265625 0.34375zm11.401245 1.609375q-2.09375 0 -3.3125 -1.421875q-1.203125 -1.4375 -1.203125 -3.90625q0 -1.65625 0.546875 -2.859375q0.546875 -1.203125 1.5625 -1.84375q1.015625 -0.65625 2.40625 -0.65625q1.40625 0 2.421875 0.640625q1.015625 0.640625 1.546875 1.84375q0.546875 1.203125 0.546875 2.84375q0 1.65625 -0.546875 2.859375q-0.546875 1.203125 -1.5625 1.859375q-1.015625 0.640625 -2.40625 0.640625zm0 -1.609375q1.296875 0 2.03125 -1.0q0.734375 -1.0 0.734375 -2.75q0 -1.75 -0.734375 -2.734375q-0.734375 -1.0 -2.03125 -1.0q-1.296875 0 -2.03125 0.984375q-0.734375 0.984375 -0.734375 2.78125q0 1.75 0.734375 2.734375q0.734375 0.984375 2.03125 0.984375zm7.269348 1.375l0 -10.21875l1.734375 0l0 10.21875l-1.734375 0zm0.859375 -12.078125q-0.453125 0 -0.78125 -0.3125q-0.3125 -0.3125 -0.3125 -0.765625q0 -0.46875 0.3125 -0.796875q0.328125 -0.328125 0.78125 -0.328125q0.46875 0 0.78125 0.328125q0.3125 0.328125 0.3125 0.796875q0 0.453125 -0.3125 0.765625q-0.3125 0.3125 -0.78125 0.3125zm4.189392 12.078125l0 -10.21875l1.75 0l0 1.03125q0.46875 -0.640625 1.125 -0.953125q0.65625 -0.3125 1.515625 -0.3125q1.859375 0 2.75 1.125q0.90625 1.125 0.90625 3.453125l0 5.875l-1.75 0l0 -6.1875q0 -1.28125 -0.578125 -1.96875q-0.5625 -0.703125 -1.609375 -0.703125q-1.171875 0 -1.765625 0.671875q-0.59375 0.65625 -0.59375 1.96875l0 6.21875l-1.75 0zm13.803772 0.234375q-1.046875 0 -1.609375 -0.625q-0.546875 -0.625 -0.546875 -1.8125l0 -6.5l-1.65625 0l0 -1.515625l1.65625 0l0 -3.375l1.734375 -0.84375l0 4.21875l2.515625 0l0 1.515625l-2.515625 0l0 5.921875q0 0.734375 0.25 1.078125q0.265625 0.328125 0.8125 0.328125q0.703125 0 1.515625 -0.546875l-0.203125 1.703125q-0.4375 0.234375 -0.921875 0.34375q-0.484375 0.109375 -1.03125 0.109375z" fill-rule="nonzero"/><path fill="#000000" fill-opacity="0.0" d="m687.10645 248.90654l130.74017 0l0 67.87401l-130.74017 0z" fill-rule="evenodd"/><path fill="#000000" d="m717.1378 277.10654l0 -14.0l2.59375 0l0 5.546875l5.921875 0l0 -5.546875l2.59375 0l0 14.0l-2.59375 0l0 -5.984375l-5.921875 0l0 5.984375l-2.59375 0zm18.451233 0.234375q-2.171875 0 -3.421875 -1.421875q-1.25 -1.4375 -1.25 -3.90625q0 -1.640625 0.5625 -2.84375q0.578125 -1.21875 1.625 -1.859375q1.046875 -0.65625 2.484375 -0.65625q1.40625 0 2.453125 0.65625q1.046875 0.640625 1.59375 1.84375q0.5625 1.1875 0.5625 2.84375q0 1.65625 -0.5625 2.859375q-0.546875 1.203125 -1.59375 1.84375q-1.03125 0.640625 -2.453125 0.640625zm0 -2.390625q1.0 0 1.5625 -0.765625q0.5625 -0.78125 0.5625 -2.1875q0 -1.40625 -0.5625 -2.1875q-0.5625 -0.78125 -1.5625 -0.78125q-1.015625 0 -1.59375 0.796875q-0.5625 0.78125 -0.5625 2.1875q0 1.375 0.5625 2.15625q0.578125 0.78125 1.59375 0.78125zm10.358765 2.390625q-1.203125 0 -2.296875 -0.5q-1.09375 -0.515625 -1.734375 -1.375l1.640625 -1.375q0.5 0.53125 1.171875 0.859375q0.671875 0.3125 1.28125 0.3125q0.765625 0 1.171875 -0.25q0.40625 -0.265625 0.40625 -0.71875q0 -0.3125 -0.203125 -0.546875q-0.1875 -0.234375 -0.671875 -0.46875q-0.484375 -0.25 -1.375 -0.578125q-1.734375 -0.625 -2.453125 -1.359375q-0.71875 -0.734375 -0.71875 -1.859375q0 -1.265625 1.015625 -2.046875q1.03125 -0.78125 2.671875 -0.78125q1.125 0 2.0625 0.421875q0.9375 0.40625 1.625 1.21875l-1.625 1.359375q-0.90625 -0.921875 -2.109375 -0.921875q-0.609375 0 -0.984375 0.234375q-0.359375 0.21875 -0.359375 0.59375q0 0.375 0.4375 0.671875q0.4375 0.28125 1.625 0.671875q1.171875 0.375 1.90625 0.84375q0.734375 0.46875 1.078125 1.09375q0.34375 0.609375 0.34375 1.421875q0 1.4375 -1.046875 2.265625q-1.03125 0.8125 -2.859375 0.8125zm9.190613 0q-1.234375 0 -1.84375 -0.65625q-0.609375 -0.671875 -0.609375 -2.015625l0 -5.59375l-1.484375 0l0 -2.1875l1.484375 0l0 -3.03125l2.484375 -1.1875l0 4.21875l2.328125 0l0 2.1875l-2.328125 0l0 5.15625q0 0.46875 0.1875 0.703125q0.203125 0.234375 0.625 0.234375q0.734375 0 1.625 -0.46875l-0.296875 2.1875q-0.453125 0.234375 -1.0 0.34375q-0.53125 0.109375 -1.171875 0.109375zm10.818726 -0.234375l0.53125 -3.5625l-2.140625 0l0.3125 -2.171875l2.15625 0l0.421875 -2.859375l-2.109375 0l0.296875 -2.15625l2.171875 0l0.46875 -3.25l2.21875 0l-0.484375 3.25l2.40625 0l0.515625 -3.25l2.203125 0l-0.5 3.25l2.15625 0l-0.296875 2.15625l-2.1875 0l-0.421875 2.859375l2.125 0l-0.328125 2.171875l-2.125 0l-0.53125 3.5625l-2.234375 0l0.546875 -3.5625l-2.40625 0l-0.5625 3.5625l-2.203125 0zm3.078125 -5.734375l2.421875 0l0.421875 -2.859375l-2.40625 0l-0.4375 2.859375zm14.368103 5.96875q-1.765625 0 -3.0625 -0.84375q-1.28125 -0.859375 -1.90625 -2.453125l2.328125 -0.9375q0.890625 1.796875 2.640625 1.796875q1.015625 0 1.59375 -0.5q0.59375 -0.5 0.59375 -1.375q0 -0.828125 -0.609375 -1.3125q-0.59375 -0.484375 -1.59375 -0.484375l-1.359375 0l0 -2.46875l1.3125 0q0.828125 0 1.296875 -0.46875q0.46875 -0.484375 0.46875 -1.28125q0 -0.75 -0.484375 -1.21875q-0.484375 -0.484375 -1.28125 -0.484375q-0.671875 0 -1.21875 0.359375q-0.546875 0.34375 -0.921875 1.03125l-2.34375 -0.90625q0.65625 -1.390625 1.828125 -2.15625q1.171875 -0.765625 2.671875 -0.765625q1.28125 0 2.265625 0.5q0.984375 0.484375 1.53125 1.375q0.546875 0.875 0.546875 2.03125q0 0.96875 -0.453125 1.78125q-0.4375 0.796875 -1.234375 1.296875q1.015625 0.40625 1.59375 1.328125q0.578125 0.90625 0.578125 2.109375q0 1.1875 -0.609375 2.109375q-0.609375 0.90625 -1.703125 1.421875q-1.078125 0.515625 -2.46875 0.515625z" fill-rule="nonzero"/><path fill="#000000" d="m707.0697 301.10654l0 -14.0l8.328125 0l0 1.640625l-6.578125 0l0 4.296875l4.34375 0l0 1.640625l-4.34375 0l0 4.765625l7.015625 0l0 1.65625l-8.765625 0zm11.58313 0l0 -10.21875l1.75 0l0 1.03125q0.46875 -0.640625 1.125 -0.953125q0.65625 -0.3125 1.515625 -0.3125q1.859375 0 2.75 1.125q0.90625 1.125 0.90625 3.453125l0 5.875l-1.75 0l0 -6.1875q0 -1.28125 -0.578125 -1.96875q-0.5625 -0.703125 -1.609375 -0.703125q-1.171875 0 -1.765625 0.671875q-0.59375 0.65625 -0.59375 1.96875l0 6.21875l-1.75 0zm13.803711 0.234375q-1.046875 0 -1.609375 -0.625q-0.546875 -0.625 -0.546875 -1.8125l0 -6.5l-1.65625 0l0 -1.515625l1.65625 0l0 -3.375l1.734375 -0.84375l0 4.21875l2.515625 0l0 1.515625l-2.515625 0l0 5.921875q0 0.734375 0.25 1.078125q0.265625 0.328125 0.8125 0.328125q0.703125 0 1.515625 -0.546875l-0.203125 1.703125q-0.4375 0.234375 -0.921875 0.34375q-0.484375 0.109375 -1.03125 0.109375zm3.9162598 -0.234375l0 -10.21875l1.75 0l0 1.34375q0.34375 -0.78125 0.953125 -1.171875q0.625 -0.40625 1.453125 -0.40625q0.9375 0 1.59375 0.515625l-0.265625 1.640625q-0.328125 -0.234375 -0.6875 -0.328125q-0.359375 -0.109375 -0.765625 -0.109375q-0.703125 0 -1.21875 0.375q-0.5 0.359375 -0.78125 1.03125q-0.28125 0.671875 -0.28125 1.5625l0 5.765625l-1.75 0zm9.178772 3.875l1.5625 -4.140625l-3.78125 -9.953125l1.734375 0l2.546875 6.953125q0.109375 0.28125 0.171875 0.5q0.078125 0.21875 0.140625 0.484375q0.078125 -0.265625 0.140625 -0.484375q0.078125 -0.21875 0.171875 -0.5l2.59375 -6.953125l1.78125 0l-5.3125 14.09375l-1.75 0zm9.561218 0.1875l0 -14.28125l1.75 0l0 0.859375q1.09375 -1.09375 2.609375 -1.09375q1.296875 0 2.234375 0.65625q0.953125 0.640625 1.46875 1.84375q0.515625 1.1875 0.515625 2.828125q0 1.640625 -0.515625 2.859375q-0.515625 1.203125 -1.46875 1.859375q-0.9375 0.640625 -2.234375 0.640625q-0.8125 0 -1.46875 -0.28125q-0.640625 -0.296875 -1.140625 -0.90625l0 4.1875l-1.75 0.828125zm4.140625 -5.4375q1.296875 0 1.96875 -0.96875q0.6875 -0.96875 0.6875 -2.78125q0 -1.71875 -0.71875 -2.71875q-0.71875 -1.015625 -1.9375 -1.015625q-0.78125 0 -1.40625 0.359375q-0.609375 0.359375 -0.984375 1.015625l0 4.71875q0.53125 0.703125 1.125 1.046875q0.59375 0.34375 1.265625 0.34375zm11.401245 1.609375q-2.09375 0 -3.3125 -1.421875q-1.203125 -1.4375 -1.203125 -3.90625q0 -1.65625 0.546875 -2.859375q0.546875 -1.203125 1.5625 -1.84375q1.015625 -0.65625 2.40625 -0.65625q1.40625 0 2.421875 0.640625q1.015625 0.640625 1.546875 1.84375q0.546875 1.203125 0.546875 2.84375q0 1.65625 -0.546875 2.859375q-0.546875 1.203125 -1.5625 1.859375q-1.015625 0.640625 -2.40625 0.640625zm0 -1.609375q1.296875 0 2.03125 -1.0q0.734375 -1.0 0.734375 -2.75q0 -1.75 -0.734375 -2.734375q-0.734375 -1.0 -2.03125 -1.0q-1.296875 0 -2.03125 0.984375q-0.734375 0.984375 -0.734375 2.78125q0 1.75 0.734375 2.734375q0.734375 0.984375 2.03125 0.984375zm7.269348 1.375l0 -10.21875l1.734375 0l0 10.21875l-1.734375 0zm0.859375 -12.078125q-0.453125 0 -0.78125 -0.3125q-0.3125 -0.3125 -0.3125 -0.765625q0 -0.46875 0.3125 -0.796875q0.328125 -0.328125 0.78125 -0.328125q0.46875 0 0.78125 0.328125q0.3125 0.328125 0.3125 0.796875q0 0.453125 -0.3125 0.765625q-0.3125 0.3125 -0.78125 0.3125zm4.189392 12.078125l0 -10.21875l1.75 0l0 1.03125q0.46875 -0.640625 1.125 -0.953125q0.65625 -0.3125 1.515625 -0.3125q1.859375 0 2.75 1.125q0.90625 1.125 0.90625 3.453125l0 5.875l-1.75 0l0 -6.1875q0 -1.28125 -0.578125 -1.96875q-0.5625 -0.703125 -1.609375 -0.703125q-1.171875 0 -1.765625 0.671875q-0.59375 0.65625 -0.59375 1.96875l0 6.21875l-1.75 0zm13.803711 0.234375q-1.046875 0 -1.609375 -0.625q-0.546875 -0.625 -0.546875 -1.8125l0 -6.5l-1.65625 0l0 -1.515625l1.65625 0l0 -3.375l1.734375 -0.84375l0 4.21875l2.515625 0l0 1.515625l-2.515625 0l0 5.921875q0 0.734375 0.25 1.078125q0.265625 0.328125 0.8125 0.328125q0.703125 0 1.515625 -0.546875l-0.203125 1.703125q-0.4375 0.234375 -0.921875 0.34375q-0.484375 0.109375 -1.03125 0.109375z" fill-rule="nonzero"/><path fill="#000000" fill-opacity="0.0" d="m969.8793 48.527557l153.0393 0l0 67.874016l-153.0393 0z" fill-rule="evenodd"/><path fill="#000000" d="m1013.05524 76.727554l0 -13.999996l2.59375 0l0 5.546871l5.921875 0l0 -5.546871l2.593689 0l0 13.999996l-2.593689 0l0 -5.984375l-5.921875 0l0 5.984375l-2.59375 0zm18.451233 0.234375q-2.171875 0 -3.421875 -1.421875q-1.25 -1.4375 -1.25 -3.90625q0 -1.640625 0.5625 -2.84375q0.578125 -1.21875 1.625 -1.859375q1.046875 -0.65625 2.484375 -0.65625q1.40625 0 2.453125 0.65625q1.046875 0.640625 1.59375 1.84375q0.5625 1.1875 0.5625 2.84375q0 1.65625 -0.5625 2.859375q-0.546875 1.203125 -1.59375 1.84375q-1.03125 0.640625 -2.453125 0.640625zm0 -2.390625q1.0 0 1.5625 -0.765625q0.5625 -0.78125 0.5625 -2.1875q0 -1.40625 -0.5625 -2.1875q-0.5625 -0.78125 -1.5625 -0.78125q-1.015625 0 -1.59375 0.796875q-0.5625 0.78125 -0.5625 2.1875q0 1.375 0.5625 2.15625q0.578125 0.78125 1.59375 0.78125zm10.358765 2.390625q-1.203125 0 -2.296875 -0.5q-1.09375 -0.515625 -1.734375 -1.375l1.640625 -1.375q0.5 0.53125 1.171875 0.859375q0.671875 0.3125 1.28125 0.3125q0.765625 0 1.171875 -0.25q0.40625 -0.265625 0.40625 -0.71875q0 -0.3125 -0.203125 -0.546875q-0.1875 -0.234375 -0.671875 -0.46875q-0.484375 -0.25 -1.375 -0.578125q-1.734375 -0.625 -2.453125 -1.359375q-0.71875 -0.734375 -0.71875 -1.859375q0 -1.265625 1.015625 -2.046875q1.03125 -0.78125 2.671875 -0.78125q1.125 0 2.0625 0.421875q0.9375 0.40625 1.625 1.21875l-1.625 1.359375q-0.90625 -0.921875 -2.109375 -0.921875q-0.609375 0 -0.984375 0.234375q-0.359375 0.21875 -0.359375 0.59375q0 0.375 0.4375 0.671875q0.4375 0.28125 1.625 0.671875q1.171875 0.375 1.90625 0.84375q0.734375 0.46875 1.078125 1.09375q0.34375 0.609375 0.34375 1.421875q0 1.4375 -1.046875 2.265625q-1.03125 0.8125 -2.859375 0.8125zm9.190552 0q-1.234375 0 -1.84375 -0.65625q-0.609375 -0.671875 -0.609375 -2.015625l0 -5.59375l-1.484375 0l0 -2.1875l1.484375 0l0 -3.0312462l2.484375 -1.1875l0 4.218746l2.328125 0l0 2.1875l-2.328125 0l0 5.15625q0 0.46875 0.1875 0.703125q0.203125 0.234375 0.625 0.234375q0.734375 0 1.625 -0.46875l-0.296875 2.1875q-0.453125 0.234375 -1.0 0.34375q-0.53125 0.109375 -1.171875 0.109375zm10.818726 -0.234375l0.53125 -3.5625l-2.140625 0l0.3125 -2.171875l2.15625 0l0.421875 -2.859375l-2.109375 0l0.296875 -2.15625l2.171875 0l0.46875 -3.2499962l2.21875 0l-0.484375 3.2499962l2.40625 0l0.515625 -3.2499962l2.203125 0l-0.5 3.2499962l2.15625 0l-0.296875 2.15625l-2.1875 0l-0.421875 2.859375l2.125 0l-0.328125 2.171875l-2.125 0l-0.53125 3.5625l-2.234375 0l0.546875 -3.5625l-2.40625 0l-0.5625 3.5625l-2.203125 0zm3.078125 -5.734375l2.421875 0l0.421875 -2.859375l-2.40625 0l-0.4375 2.859375zm11.290039 5.734375l0 -10.453125l-2.15625 0l0 -2.03125q0.671875 0 1.203125 -0.140625q0.546875 -0.14062119 0.921875 -0.4687462q0.375 -0.328125 0.5625 -0.90625l2.0625 0l0 13.999996l-2.59375 0z" fill-rule="nonzero"/><path fill="#000000" d="m984.3046 100.727554l4.96875 -14.0l1.609375 0l4.96875 14.0l-1.78125 0l-1.203125 -3.421875l-5.5625 0l-1.171875 3.421875l-1.828125 0zm3.53125 -4.953125l4.5 0l-1.8125 -5.1875q-0.0625 -0.203125 -0.15625 -0.46875q-0.078125 -0.265625 -0.15625 -0.515625q-0.078125 -0.25 -0.125 -0.4375q-0.046875 0.1875 -0.125 0.4375q-0.078125 0.25 -0.15625 0.515625q-0.078125 0.265625 -0.15625 0.46875l-1.8125 5.1875zm10.689331 9.015625l0 -14.28125l1.75 0l0 0.859375q1.09375 -1.09375 2.609375 -1.09375q1.296875 0 2.234375 0.65625q0.953125 0.640625 1.46875 1.84375q0.515625 1.1875 0.515625 2.828125q0 1.640625 -0.515625 2.859375q-0.515625 1.203125 -1.46875 1.859375q-0.9375 0.640625 -2.234375 0.640625q-0.8125 0 -1.46875 -0.28125q-0.640625 -0.296875 -1.140625 -0.90625l0 4.1875l-1.75 0.828125zm4.140625 -5.4375q1.296875 0 1.96875 -0.96875q0.6875 -0.96875 0.6875 -2.78125q0 -1.71875 -0.71875 -2.71875q-0.71875 -1.015625 -1.9375 -1.015625q-0.78125 0 -1.40625 0.359375q-0.609375 0.359375 -0.984375 1.015625l0 4.71875q0.53125 0.703125 1.125 1.046875q0.59375 0.34375 1.265625 0.34375zm7.059387 5.4375l0 -14.28125l1.75 0l0 0.859375q1.09375 -1.09375 2.609375 -1.09375q1.296875 0 2.234375 0.65625q0.953125 0.640625 1.46875 1.84375q0.515625 1.1875 0.515625 2.828125q0 1.640625 -0.515625 2.859375q-0.515625 1.203125 -1.46875 1.859375q-0.9375 0.640625 -2.234375 0.640625q-0.8125 0 -1.46875 -0.28125q-0.640625 -0.296875 -1.140625 -0.90625l0 4.1875l-1.75 0.828125zm4.140625 -5.4375q1.296875 0 1.96875 -0.96875q0.6875 -0.96875 0.6875 -2.78125q0 -1.71875 -0.71875 -2.71875q-0.71875 -1.015625 -1.9375 -1.015625q-0.78125 0 -1.40625 0.359375q-0.609375 0.359375 -0.984375 1.015625l0 4.71875q0.53125 0.703125 1.125 1.046875q0.59375 0.34375 1.265625 0.34375zm15.5 1.609375q-1.3125 0 -2.265625 -0.640625q-0.953125 -0.640625 -1.46875 -1.828125q-0.5 -1.203125 -0.5 -2.859375q0 -1.671875 0.515625 -2.875q0.515625 -1.203125 1.484375 -1.84375q0.96875 -0.640625 2.3125 -0.640625q1.328125 0 2.25 0.609375q0.921875 0.609375 1.328125 1.765625l-1.640625 0.59375q-0.25 -0.65625 -0.75 -1.0q-0.484375 -0.359375 -1.15625 -0.359375q-1.25 0 -1.90625 0.96875q-0.65625 0.953125 -0.65625 2.78125q0 1.78125 0.640625 2.734375q0.65625 0.953125 1.859375 0.953125q0.765625 0 1.3125 -0.390625q0.546875 -0.40625 0.765625 -1.125l1.625 0.546875q-0.375 1.25 -1.359375 1.9375q-0.984375 0.671875 -2.390625 0.671875zm10.441162 0q-2.09375 0 -3.3125 -1.421875q-1.203125 -1.4375 -1.203125 -3.90625q0 -1.65625 0.546875 -2.859375q0.546875 -1.203125 1.5625 -1.84375q1.015625 -0.65625 2.40625 -0.65625q1.40625 0 2.421875 0.640625q1.015625 0.640625 1.546875 1.84375q0.546875 1.203125 0.546875 2.84375q0 1.65625 -0.546875 2.859375q-0.546875 1.203125 -1.5625 1.859375q-1.015625 0.640625 -2.40625 0.640625zm0 -1.609375q1.296875 0 2.03125 -1.0q0.734375 -1.0 0.734375 -2.75q0 -1.75 -0.734375 -2.734375q-0.734375 -1.0 -2.03125 -1.0q-1.296875 0 -2.03125 0.984375q-0.734375 0.984375 -0.734375 2.78125q0 1.75 0.734375 2.734375q0.734375 0.984375 2.03125 0.984375zm7.1381836 1.375l0 -10.21875l1.75 0l0 1.03125q0.46875 -0.640625 1.125 -0.953125q0.65625 -0.3125 1.515625 -0.3125q1.859375 0 2.75 1.125q0.90625 1.125 0.90625 3.453125l0 5.875l-1.75 0l0 -6.1875q0 -1.28125 -0.578125 -1.96875q-0.5625 -0.703125 -1.609375 -0.703125q-1.171875 0 -1.765625 0.671875q-0.59375 0.65625 -0.59375 1.96875l0 6.21875l-1.75 0zm13.803711 0.234375q-1.046875 0 -1.609375 -0.625q-0.546875 -0.625 -0.546875 -1.8125l0 -6.5l-1.65625 0l0 -1.515625l1.65625 0l0 -3.375l1.734375 -0.84375l0 4.21875l2.515625 0l0 1.515625l-2.515625 0l0 5.921875q0 0.734375 0.25 1.078125q0.265625 0.328125 0.8125 0.328125q0.703125 0 1.515625 -0.546875l-0.203125 1.703125q-0.4375 0.234375 -0.921875 0.34375q-0.484375 0.109375 -1.03125 0.109375zm7.4849854 0q-1.671875 0 -2.625 -0.90625q-0.9375 -0.921875 -0.9375 -2.53125q0 -1.03125 0.46875 -1.78125q0.46875 -0.765625 1.328125 -1.171875q0.859375 -0.421875 2.015625 -0.421875q0.75 0 1.40625 0.171875q0.65625 0.15625 1.234375 0.484375l0 -0.71875q0 -1.1875 -0.546875 -1.734375q-0.53125 -0.5625 -1.671875 -0.5625q-0.734375 0 -1.515625 0.265625q-0.78125 0.265625 -1.46875 0.75l-0.5 -1.453125q0.78125 -0.515625 1.765625 -0.796875q0.984375 -0.28125 1.9375 -0.28125q1.828125 0 2.734375 0.921875q0.90625 0.921875 0.90625 2.75l0 6.78125l-1.640625 0l0 -0.9375q-0.59375 0.5625 -1.34375 0.875q-0.75 0.296875 -1.546875 0.296875zm0.25 -1.515625q0.71875 0 1.40625 -0.34375q0.703125 -0.359375 1.234375 -1.0l0 -1.75q-0.5 -0.328125 -1.15625 -0.5q-0.65625 -0.1875 -1.234375 -0.1875q-1.125 0 -1.78125 0.515625q-0.640625 0.5 -0.640625 1.359375q0 0.890625 0.578125 1.40625q0.578125 0.5 1.59375 0.5zm7.3325195 1.28125l0 -10.21875l1.734375 0l0 10.21875l-1.734375 0zm0.859375 -12.078125q-0.453125 0 -0.78125 -0.3125q-0.3125 -0.3125 -0.3125 -0.765625q0 -0.46875 0.3125 -0.796875q0.328125 -0.328125 0.78125 -0.328125q0.46875 0 0.78125 0.328125q0.3125 0.328125 0.3125 0.796875q0 0.453125 -0.3125 0.765625q-0.3125 0.3125 -0.78125 0.3125zm4.189331 12.078125l0 -10.21875l1.75 0l0 1.03125q0.46875 -0.640625 1.125 -0.953125q0.65625 -0.3125 1.515625 -0.3125q1.859375 0 2.75 1.125q0.90625 1.125 0.90625 3.453125l0 5.875l-1.75 0l0 -6.1875q0 -1.28125 -0.578125 -1.96875q-0.5625 -0.703125 -1.609375 -0.703125q-1.171875 0 -1.765625 0.671875q-0.59375 0.65625 -0.59375 1.96875l0 6.21875l-1.75 0zm15.497559 0.234375q-1.390625 0 -2.421875 -0.6875q-1.015625 -0.6875 -1.5625 -1.890625q-0.546875 -1.21875 -0.546875 -2.78125q0 -1.6875 0.5625 -2.875q0.578125 -1.203125 1.59375 -1.828125q1.015625 -0.625 2.375 -0.625q1.15625 0 2.109375 0.515625q0.96875 0.5 1.53125 1.578125q0.578125 1.078125 0.578125 2.765625q0 0.234375 -0.015625 0.546875q0 0.3125 -0.03125 0.640625l-6.921875 0q0.09375 0.9375 0.453125 1.640625q0.359375 0.703125 0.953125 1.09375q0.59375 0.390625 1.390625 0.390625q0.65625 0 1.203125 -0.21875q0.5625 -0.234375 1.03125 -0.71875l1.03125 1.140625q-0.578125 0.5625 -1.421875 0.9375q-0.84375 0.375 -1.890625 0.375zm-2.78125 -6.15625l5.25 0q0 -0.875 -0.296875 -1.546875q-0.28125 -0.6875 -0.828125 -1.078125q-0.546875 -0.390625 -1.34375 -0.390625q-1.109375 0 -1.90625 0.71875q-0.78125 0.71875 -0.875 2.296875zm9.803711 5.921875l0 -10.21875l1.75 0l0 1.34375q0.34375 -0.78125 0.953125 -1.171875q0.625 -0.40625 1.453125 -0.40625q0.9375 0 1.59375 0.515625l-0.265625 1.640625q-0.328125 -0.234375 -0.6875 -0.328125q-0.359375 -0.109375 -0.765625 -0.109375q-0.703125 0 -1.21875 0.375q-0.5 0.359375 -0.78125 1.03125q-0.28125 0.671875 -0.28125 1.5625l0 5.765625l-1.75 0z" fill-rule="nonzero"/><path fill="#000000" fill-opacity="0.0" d="m970.2467 148.71523l153.03943 0l0 67.87401l-153.03943 0z" fill-rule="evenodd"/><path fill="#000000" d="m1011.3077 176.91522l0 -14.0l2.59375 0l0 5.546875l5.921875 0l0 -5.546875l2.59375 0l0 14.0l-2.59375 0l0 -5.984375l-5.921875 0l0 5.984375l-2.59375 0zm18.451233 0.234375q-2.171875 0 -3.421875 -1.421875q-1.25 -1.4375 -1.25 -3.90625q0 -1.640625 0.5625 -2.84375q0.578125 -1.21875 1.625 -1.859375q1.046875 -0.65625 2.484375 -0.65625q1.40625 0 2.453125 0.65625q1.046875 0.640625 1.59375 1.84375q0.5625 1.1875 0.5625 2.84375q0 1.65625 -0.5625 2.859375q-0.546875 1.203125 -1.59375 1.84375q-1.03125 0.640625 -2.453125 0.640625zm0 -2.390625q1.0 0 1.5625 -0.765625q0.5625 -0.78125 0.5625 -2.1875q0 -1.40625 -0.5625 -2.1875q-0.5625 -0.78125 -1.5625 -0.78125q-1.015625 0 -1.59375 0.796875q-0.5625 0.78125 -0.5625 2.1875q0 1.375 0.5625 2.15625q0.578125 0.78125 1.59375 0.78125zm10.358765 2.390625q-1.203125 0 -2.296875 -0.5q-1.09375 -0.515625 -1.734375 -1.375l1.640625 -1.375q0.5 0.53125 1.171875 0.859375q0.671875 0.3125 1.28125 0.3125q0.765625 0 1.171875 -0.25q0.40625 -0.265625 0.40625 -0.71875q0 -0.3125 -0.203125 -0.546875q-0.1875 -0.234375 -0.671875 -0.46875q-0.484375 -0.25 -1.375 -0.578125q-1.734375 -0.625 -2.453125 -1.359375q-0.71875 -0.734375 -0.71875 -1.859375q0 -1.265625 1.015625 -2.046875q1.03125 -0.78125 2.671875 -0.78125q1.125 0 2.0625 0.421875q0.9375 0.40625 1.625 1.21875l-1.625 1.359375q-0.90625 -0.921875 -2.109375 -0.921875q-0.609375 0 -0.984375 0.234375q-0.359375 0.21875 -0.359375 0.59375q0 0.375 0.4375 0.671875q0.4375 0.28125 1.625 0.671875q1.171875 0.375 1.90625 0.84375q0.734375 0.46875 1.078125 1.09375q0.34375 0.609375 0.34375 1.421875q0 1.4375 -1.046875 2.265625q-1.03125 0.8125 -2.859375 0.8125zm9.190552 0q-1.234375 0 -1.84375 -0.65625q-0.609375 -0.671875 -0.609375 -2.015625l0 -5.59375l-1.484375 0l0 -2.1875l1.484375 0l0 -3.03125l2.484375 -1.1875l0 4.21875l2.328125 0l0 2.1875l-2.328125 0l0 5.15625q0 0.46875 0.1875 0.703125q0.203125 0.234375 0.625 0.234375q0.734375 0 1.625 -0.46875l-0.296875 2.1875q-0.453125 0.234375 -1.0 0.34375q-0.53125 0.109375 -1.171875 0.109375zm10.818726 -0.234375l0.53125 -3.5625l-2.140625 0l0.3125 -2.171875l2.15625 0l0.421875 -2.859375l-2.109375 0l0.296875 -2.15625l2.171875 0l0.46875 -3.25l2.21875 0l-0.484375 3.25l2.40625 0l0.515625 -3.25l2.203125 0l-0.5 3.25l2.15625 0l-0.296875 2.15625l-2.1875 0l-0.421875 2.859375l2.125 0l-0.328125 2.171875l-2.125 0l-0.53125 3.5625l-2.234375 0l0.546875 -3.5625l-2.40625 0l-0.5625 3.5625l-2.203125 0zm3.078125 -5.734375l2.421875 0l0.421875 -2.859375l-2.40625 0l-0.4375 2.859375zm9.743164 5.734375q0 -1.546875 0.359375 -2.703125q0.375 -1.171875 1.015625 -2.0625q0.65625 -0.890625 1.515625 -1.5625q0.859375 -0.6875 1.8125 -1.21875q0.5625 -0.328125 1.0625 -0.6875q0.5 -0.359375 0.8125 -0.796875q0.3125 -0.453125 0.3125 -1.046875q0 -0.796875 -0.53125 -1.25q-0.515625 -0.46875 -1.390625 -0.46875q-0.921875 0 -1.515625 0.4375q-0.59375 0.421875 -0.9375 1.203125l-2.296875 -1.046875q0.546875 -1.390625 1.828125 -2.203125q1.296875 -0.828125 2.890625 -0.828125q1.4375 0 2.453125 0.546875q1.015625 0.53125 1.546875 1.46875q0.53125 0.921875 0.53125 2.078125q0 1.21875 -0.4375 2.046875q-0.421875 0.8125 -1.171875 1.421875q-0.75 0.59375 -1.671875 1.125q-0.90625 0.546875 -1.546875 1.0q-0.625 0.453125 -1.03125 0.9375q-0.390625 0.484375 -0.59375 1.125l6.578125 0l0 2.484375l-9.59375 0z" fill-rule="nonzero"/><path fill="#000000" d="m984.67206 200.91522l4.96875 -14.0l1.609375 0l4.96875 14.0l-1.78125 0l-1.203125 -3.421875l-5.5625 0l-1.171875 3.421875l-1.828125 0zm3.53125 -4.953125l4.5 0l-1.8125 -5.1875q-0.0625 -0.203125 -0.15625 -0.46875q-0.078125 -0.265625 -0.15625 -0.515625q-0.078125 -0.25 -0.125 -0.4375q-0.046875 0.1875 -0.125 0.4375q-0.078125 0.25 -0.15625 0.515625q-0.078125 0.265625 -0.15625 0.46875l-1.8125 5.1875zm10.689392 9.015625l0 -14.28125l1.75 0l0 0.859375q1.09375 -1.09375 2.609375 -1.09375q1.296875 0 2.234375 0.65625q0.953125 0.640625 1.46875 1.84375q0.515625 1.1875 0.515625 2.828125q0 1.640625 -0.515625 2.859375q-0.515625 1.203125 -1.46875 1.859375q-0.9375 0.640625 -2.234375 0.640625q-0.8125 0 -1.46875 -0.28125q-0.640625 -0.296875 -1.140625 -0.90625l0 4.1875l-1.75 0.828125zm4.140625 -5.4375q1.296875 0 1.96875 -0.96875q0.6875 -0.96875 0.6875 -2.78125q0 -1.71875 -0.71875 -2.71875q-0.71875 -1.015625 -1.9375 -1.015625q-0.78125 0 -1.40625 0.359375q-0.609375 0.359375 -0.984375 1.015625l0 4.71875q0.53125 0.703125 1.125 1.046875q0.59375 0.34375 1.265625 0.34375zm7.059326 5.4375l0 -14.28125l1.75 0l0 0.859375q1.09375 -1.09375 2.609375 -1.09375q1.296875 0 2.234375 0.65625q0.953125 0.640625 1.46875 1.84375q0.515625 1.1875 0.515625 2.828125q0 1.640625 -0.515625 2.859375q-0.515625 1.203125 -1.46875 1.859375q-0.9375 0.640625 -2.234375 0.640625q-0.8125 0 -1.46875 -0.28125q-0.640625 -0.296875 -1.140625 -0.90625l0 4.1875l-1.75 0.828125zm4.140625 -5.4375q1.296875 0 1.96875 -0.96875q0.6875 -0.96875 0.6875 -2.78125q0 -1.71875 -0.71875 -2.71875q-0.71875 -1.015625 -1.9375 -1.015625q-0.78125 0 -1.40625 0.359375q-0.609375 0.359375 -0.984375 1.015625l0 4.71875q0.53125 0.703125 1.125 1.046875q0.59375 0.34375 1.265625 0.34375zm15.5 1.609375q-1.3125 0 -2.265625 -0.640625q-0.953125 -0.640625 -1.46875 -1.828125q-0.5 -1.203125 -0.5 -2.859375q0 -1.671875 0.515625 -2.875q0.515625 -1.203125 1.484375 -1.84375q0.96875 -0.640625 2.3125 -0.640625q1.328125 0 2.25 0.609375q0.921875 0.609375 1.328125 1.765625l-1.640625 0.59375q-0.25 -0.65625 -0.75 -1.0q-0.484375 -0.359375 -1.15625 -0.359375q-1.25 0 -1.90625 0.96875q-0.65625 0.953125 -0.65625 2.78125q0 1.78125 0.640625 2.734375q0.65625 0.953125 1.859375 0.953125q0.765625 0 1.3125 -0.390625q0.546875 -0.40625 0.765625 -1.125l1.625 0.546875q-0.375 1.25 -1.359375 1.9375q-0.984375 0.671875 -2.390625 0.671875zm10.441284 0q-2.09375 0 -3.3125 -1.421875q-1.203125 -1.4375 -1.203125 -3.90625q0 -1.65625 0.546875 -2.859375q0.546875 -1.203125 1.5625 -1.84375q1.015625 -0.65625 2.40625 -0.65625q1.40625 0 2.421875 0.640625q1.015625 0.640625 1.546875 1.84375q0.546875 1.203125 0.546875 2.84375q0 1.65625 -0.546875 2.859375q-0.546875 1.203125 -1.5625 1.859375q-1.015625 0.640625 -2.40625 0.640625zm0 -1.609375q1.296875 0 2.03125 -1.0q0.734375 -1.0 0.734375 -2.75q0 -1.75 -0.734375 -2.734375q-0.734375 -1.0 -2.03125 -1.0q-1.296875 0 -2.03125 0.984375q-0.734375 0.984375 -0.734375 2.78125q0 1.75 0.734375 2.734375q0.734375 0.984375 2.03125 0.984375zm7.1380615 1.375l0 -10.21875l1.75 0l0 1.03125q0.46875 -0.640625 1.125 -0.953125q0.65625 -0.3125 1.515625 -0.3125q1.859375 0 2.75 1.125q0.90625 1.125 0.90625 3.453125l0 5.875l-1.75 0l0 -6.1875q0 -1.28125 -0.578125 -1.96875q-0.5625 -0.703125 -1.609375 -0.703125q-1.171875 0 -1.765625 0.671875q-0.59375 0.65625 -0.59375 1.96875l0 6.21875l-1.75 0zm13.803711 0.234375q-1.046875 0 -1.609375 -0.625q-0.546875 -0.625 -0.546875 -1.8125l0 -6.5l-1.65625 0l0 -1.515625l1.65625 0l0 -3.375l1.734375 -0.84375l0 4.21875l2.515625 0l0 1.515625l-2.515625 0l0 5.921875q0 0.734375 0.25 1.078125q0.265625 0.328125 0.8125 0.328125q0.703125 0 1.515625 -0.546875l-0.203125 1.703125q-0.4375 0.234375 -0.921875 0.34375q-0.484375 0.109375 -1.03125 0.109375zm7.4849854 0q-1.671875 0 -2.625 -0.90625q-0.9375 -0.921875 -0.9375 -2.53125q0 -1.03125 0.46875 -1.78125q0.46875 -0.765625 1.328125 -1.171875q0.859375 -0.421875 2.015625 -0.421875q0.75 0 1.40625 0.171875q0.65625 0.15625 1.234375 0.484375l0 -0.71875q0 -1.1875 -0.546875 -1.734375q-0.53125 -0.5625 -1.671875 -0.5625q-0.734375 0 -1.515625 0.265625q-0.78125 0.265625 -1.46875 0.75l-0.5 -1.453125q0.78125 -0.515625 1.765625 -0.796875q0.984375 -0.28125 1.9375 -0.28125q1.828125 0 2.734375 0.921875q0.90625 0.921875 0.90625 2.75l0 6.78125l-1.640625 0l0 -0.9375q-0.59375 0.5625 -1.34375 0.875q-0.75 0.296875 -1.546875 0.296875zm0.25 -1.515625q0.71875 0 1.40625 -0.34375q0.703125 -0.359375 1.234375 -1.0l0 -1.75q-0.5 -0.328125 -1.15625 -0.5q-0.65625 -0.1875 -1.234375 -0.1875q-1.125 0 -1.78125 0.515625q-0.640625 0.5 -0.640625 1.359375q0 0.890625 0.578125 1.40625q0.578125 0.5 1.59375 0.5zm7.3325195 1.28125l0 -10.21875l1.734375 0l0 10.21875l-1.734375 0zm0.859375 -12.078125q-0.453125 0 -0.78125 -0.3125q-0.3125 -0.3125 -0.3125 -0.765625q0 -0.46875 0.3125 -0.796875q0.328125 -0.328125 0.78125 -0.328125q0.46875 0 0.78125 0.328125q0.3125 0.328125 0.3125 0.796875q0 0.453125 -0.3125 0.765625q-0.3125 0.3125 -0.78125 0.3125zm4.189331 12.078125l0 -10.21875l1.75 0l0 1.03125q0.46875 -0.640625 1.125 -0.953125q0.65625 -0.3125 1.515625 -0.3125q1.859375 0 2.75 1.125q0.90625 1.125 0.90625 3.453125l0 5.875l-1.75 0l0 -6.1875q0 -1.28125 -0.578125 -1.96875q-0.5625 -0.703125 -1.609375 -0.703125q-1.171875 0 -1.765625 0.671875q-0.59375 0.65625 -0.59375 1.96875l0 6.21875l-1.75 0zm15.497559 0.234375q-1.390625 0 -2.421875 -0.6875q-1.015625 -0.6875 -1.5625 -1.890625q-0.546875 -1.21875 -0.546875 -2.78125q0 -1.6875 0.5625 -2.875q0.578125 -1.203125 1.59375 -1.828125q1.015625 -0.625 2.375 -0.625q1.15625 0 2.109375 0.515625q0.96875 0.5 1.53125 1.578125q0.578125 1.078125 0.578125 2.765625q0 0.234375 -0.015625 0.546875q0 0.3125 -0.03125 0.640625l-6.921875 0q0.09375 0.9375 0.453125 1.640625q0.359375 0.703125 0.953125 1.09375q0.59375 0.390625 1.390625 0.390625q0.65625 0 1.203125 -0.21875q0.5625 -0.234375 1.03125 -0.71875l1.03125 1.140625q-0.578125 0.5625 -1.421875 0.9375q-0.84375 0.375 -1.890625 0.375zm-2.78125 -6.15625l5.25 0q0 -0.875 -0.296875 -1.546875q-0.28125 -0.6875 -0.828125 -1.078125q-0.546875 -0.390625 -1.34375 -0.390625q-1.109375 0 -1.90625 0.71875q-0.78125 0.71875 -0.875 2.296875zm9.803711 5.921875l0 -10.21875l1.75 0l0 1.34375q0.34375 -0.78125 0.953125 -1.171875q0.625 -0.40625 1.453125 -0.40625q0.9375 0 1.59375 0.515625l-0.265625 1.640625q-0.328125 -0.234375 -0.6875 -0.328125q-0.359375 -0.109375 -0.765625 -0.109375q-0.703125 0 -1.21875 0.375q-0.5 0.359375 -0.78125 1.03125q-0.28125 0.671875 -0.28125 1.5625l0 5.765625l-1.75 0z" fill-rule="nonzero"/><path fill="#000000" fill-opacity="0.0" d="m967.7034 248.90552l153.03937 0l0 67.87402l-153.03937 0z" fill-rule="evenodd"/><path fill="#000000" d="m1008.8844 277.1055l0 -14.0l2.59375 0l0 5.546875l5.921875 0l0 -5.546875l2.59375 0l0 14.0l-2.59375 0l0 -5.984375l-5.921875 0l0 5.984375l-2.59375 0zm18.451172 0.234375q-2.171875 0 -3.421814 -1.421875q-1.25 -1.4375 -1.25 -3.90625q0 -1.640625 0.5625 -2.84375q0.578125 -1.21875 1.624939 -1.859375q1.046875 -0.65625 2.484375 -0.65625q1.40625 0 2.453125 0.65625q1.046875 0.640625 1.59375 1.84375q0.5625 1.1875 0.5625 2.84375q0 1.65625 -0.5625 2.859375q-0.546875 1.203125 -1.59375 1.84375q-1.03125 0.640625 -2.453125 0.640625zm0 -2.390625q1.0 0 1.5625 -0.765625q0.5625 -0.78125 0.5625 -2.1875q0 -1.40625 -0.5625 -2.1875q-0.5625 -0.78125 -1.5625 -0.78125q-1.015625 0 -1.59375 0.796875q-0.5625 0.78125 -0.5625 2.1875q0 1.375 0.5625 2.15625q0.578125 0.78125 1.59375 0.78125zm10.358765 2.390625q-1.203125 0 -2.296875 -0.5q-1.09375 -0.515625 -1.734375 -1.375l1.640625 -1.375q0.5 0.53125 1.171875 0.859375q0.671875 0.3125 1.28125 0.3125q0.765625 0 1.171875 -0.25q0.40625 -0.265625 0.40625 -0.71875q0 -0.3125 -0.203125 -0.546875q-0.1875 -0.234375 -0.671875 -0.46875q-0.484375 -0.25 -1.375 -0.578125q-1.734375 -0.625 -2.453125 -1.359375q-0.71875 -0.734375 -0.71875 -1.859375q0 -1.265625 1.015625 -2.046875q1.03125 -0.78125 2.671875 -0.78125q1.125 0 2.0625 0.421875q0.9375 0.40625 1.625 1.21875l-1.625 1.359375q-0.90625 -0.921875 -2.109375 -0.921875q-0.609375 0 -0.984375 0.234375q-0.359375 0.21875 -0.359375 0.59375q0 0.375 0.4375 0.671875q0.4375 0.28125 1.625 0.671875q1.171875 0.375 1.90625 0.84375q0.734375 0.46875 1.078125 1.09375q0.34375 0.609375 0.34375 1.421875q0 1.4375 -1.046875 2.265625q-1.03125 0.8125 -2.859375 0.8125zm9.190674 0q-1.234375 0 -1.84375 -0.65625q-0.609375 -0.671875 -0.609375 -2.015625l0 -5.59375l-1.484375 0l0 -2.1875l1.484375 0l0 -3.03125l2.484375 -1.1875l0 4.21875l2.328125 0l0 2.1875l-2.328125 0l0 5.15625q0 0.46875 0.1875 0.703125q0.203125 0.234375 0.625 0.234375q0.734375 0 1.625 -0.46875l-0.296875 2.1875q-0.453125 0.234375 -1.0 0.34375q-0.53125 0.109375 -1.171875 0.109375zm10.818726 -0.234375l0.53125 -3.5625l-2.140625 0l0.3125 -2.171875l2.15625 0l0.421875 -2.859375l-2.109375 0l0.296875 -2.15625l2.171875 0l0.46875 -3.25l2.21875 0l-0.484375 3.25l2.40625 0l0.515625 -3.25l2.203125 0l-0.5 3.25l2.15625 0l-0.296875 2.15625l-2.1875 0l-0.421875 2.859375l2.125 0l-0.328125 2.171875l-2.125 0l-0.53125 3.5625l-2.234375 0l0.546875 -3.5625l-2.40625 0l-0.5625 3.5625l-2.203125 0zm3.078125 -5.734375l2.421875 0l0.421875 -2.859375l-2.40625 0l-0.4375 2.859375zm14.368042 5.96875q-1.765625 0 -3.0625 -0.84375q-1.28125 -0.859375 -1.90625 -2.453125l2.328125 -0.9375q0.890625 1.796875 2.640625 1.796875q1.015625 0 1.59375 -0.5q0.59375 -0.5 0.59375 -1.375q0 -0.828125 -0.609375 -1.3125q-0.59375 -0.484375 -1.59375 -0.484375l-1.359375 0l0 -2.46875l1.3125 0q0.828125 0 1.296875 -0.46875q0.46875 -0.484375 0.46875 -1.28125q0 -0.75 -0.484375 -1.21875q-0.484375 -0.484375 -1.28125 -0.484375q-0.671875 0 -1.21875 0.359375q-0.546875 0.34375 -0.921875 1.03125l-2.34375 -0.90625q0.65625 -1.390625 1.828125 -2.15625q1.171875 -0.765625 2.671875 -0.765625q1.28125 0 2.265625 0.5q0.984375 0.484375 1.53125 1.375q0.546875 0.875 0.546875 2.03125q0 0.96875 -0.453125 1.78125q-0.4375 0.796875 -1.234375 1.296875q1.015625 0.40625 1.59375 1.328125q0.578125 0.90625 0.578125 2.109375q0 1.1875 -0.609375 2.109375q-0.609375 0.90625 -1.703125 1.421875q-1.078125 0.515625 -2.46875 0.515625z" fill-rule="nonzero"/><path fill="#000000" d="m982.1288 301.1055l4.96875 -14.0l1.609375 0l4.96875 14.0l-1.78125 0l-1.203125 -3.421875l-5.5625 0l-1.171875 3.421875l-1.828125 0zm3.53125 -4.953125l4.5 0l-1.8125 -5.1875q-0.0625 -0.203125 -0.15625 -0.46875q-0.078125 -0.265625 -0.15625 -0.515625q-0.078125 -0.25 -0.125 -0.4375q-0.046875 0.1875 -0.125 0.4375q-0.078125 0.25 -0.15625 0.515625q-0.078125 0.265625 -0.15625 0.46875l-1.8125 5.1875zm10.689331 9.015625l0 -14.28125l1.75 0l0 0.859375q1.09375 -1.09375 2.609375 -1.09375q1.296875 0 2.234375 0.65625q0.953125 0.640625 1.46875 1.84375q0.515625 1.1875 0.515625 2.828125q0 1.640625 -0.515625 2.859375q-0.515625 1.203125 -1.46875 1.859375q-0.9375 0.640625 -2.234375 0.640625q-0.8125 0 -1.46875 -0.28125q-0.640625 -0.296875 -1.140625 -0.90625l0 4.1875l-1.75 0.828125zm4.140625 -5.4375q1.296875 0 1.96875 -0.96875q0.6875 -0.96875 0.6875 -2.78125q0 -1.71875 -0.71875 -2.71875q-0.71875 -1.015625 -1.9375 -1.015625q-0.78125 0 -1.40625 0.359375q-0.609375 0.359375 -0.984375 1.015625l0 4.71875q0.53125 0.703125 1.125 1.046875q0.59375 0.34375 1.265625 0.34375zm7.059387 5.4375l0 -14.28125l1.75 0l0 0.859375q1.09375 -1.09375 2.609375 -1.09375q1.296875 0 2.234375 0.65625q0.953125 0.640625 1.46875 1.84375q0.515625 1.1875 0.515625 2.828125q0 1.640625 -0.515625 2.859375q-0.515625 1.203125 -1.46875 1.859375q-0.9375 0.640625 -2.234375 0.640625q-0.8125 0 -1.46875 -0.28125q-0.640625 -0.296875 -1.140625 -0.90625l0 4.1875l-1.75 0.828125zm4.140625 -5.4375q1.296875 0 1.96875 -0.96875q0.6875 -0.96875 0.6875 -2.78125q0 -1.71875 -0.71875 -2.71875q-0.71875 -1.015625 -1.9375 -1.015625q-0.78125 0 -1.40625 0.359375q-0.609375 0.359375 -0.984375 1.015625l0 4.71875q0.53125 0.703125 1.125 1.046875q0.59375 0.34375 1.265625 0.34375zm15.499939 1.609375q-1.3125 0 -2.265625 -0.640625q-0.953125 -0.640625 -1.46875 -1.828125q-0.5 -1.203125 -0.5 -2.859375q0 -1.671875 0.515625 -2.875q0.515625 -1.203125 1.484375 -1.84375q0.96875 -0.640625 2.3125 -0.640625q1.328125 0 2.25 0.609375q0.921875 0.609375 1.328125 1.765625l-1.640625 0.59375q-0.25 -0.65625 -0.75 -1.0q-0.484375 -0.359375 -1.15625 -0.359375q-1.25 0 -1.90625 0.96875q-0.65625 0.953125 -0.65625 2.78125q0 1.78125 0.640625 2.734375q0.65625 0.953125 1.859375 0.953125q0.765625 0 1.3125 -0.390625q0.546875 -0.40625 0.765625 -1.125l1.625 0.546875q-0.375 1.25 -1.359375 1.9375q-0.984375 0.671875 -2.390625 0.671875zm10.441284 0q-2.09375 0 -3.3125 -1.421875q-1.203125 -1.4375 -1.203125 -3.90625q0 -1.65625 0.546875 -2.859375q0.546875 -1.203125 1.5625 -1.84375q1.015625 -0.65625 2.40625 -0.65625q1.40625 0 2.421875 0.640625q1.015625 0.640625 1.546875 1.84375q0.546875 1.203125 0.546875 2.84375q0 1.65625 -0.546875 2.859375q-0.546875 1.203125 -1.5625 1.859375q-1.015625 0.640625 -2.40625 0.640625zm0 -1.609375q1.296875 0 2.03125 -1.0q0.734375 -1.0 0.734375 -2.75q0 -1.75 -0.734375 -2.734375q-0.734375 -1.0 -2.03125 -1.0q-1.296875 0 -2.03125 0.984375q-0.734375 0.984375 -0.734375 2.78125q0 1.75 0.734375 2.734375q0.734375 0.984375 2.03125 0.984375zm7.1380615 1.375l0 -10.21875l1.75 0l0 1.03125q0.46875 -0.640625 1.125 -0.953125q0.65625 -0.3125 1.515625 -0.3125q1.859375 0 2.75 1.125q0.90625 1.125 0.90625 3.453125l0 5.875l-1.75 0l0 -6.1875q0 -1.28125 -0.578125 -1.96875q-0.5625 -0.703125 -1.609375 -0.703125q-1.171875 0 -1.765625 0.671875q-0.59375 0.65625 -0.59375 1.96875l0 6.21875l-1.75 0zm13.803711 0.234375q-1.046875 0 -1.609375 -0.625q-0.546875 -0.625 -0.546875 -1.8125l0 -6.5l-1.65625 0l0 -1.515625l1.65625 0l0 -3.375l1.734375 -0.84375l0 4.21875l2.515625 0l0 1.515625l-2.515625 0l0 5.921875q0 0.734375 0.25 1.078125q0.265625 0.328125 0.8125 0.328125q0.703125 0 1.515625 -0.546875l-0.203125 1.703125q-0.4375 0.234375 -0.921875 0.34375q-0.484375 0.109375 -1.03125 0.109375zm7.4851074 0q-1.671875 0 -2.625 -0.90625q-0.9375 -0.921875 -0.9375 -2.53125q0 -1.03125 0.46875 -1.78125q0.46875 -0.765625 1.328125 -1.171875q0.859375 -0.421875 2.015625 -0.421875q0.75 0 1.40625 0.171875q0.65625 0.15625 1.234375 0.484375l0 -0.71875q0 -1.1875 -0.546875 -1.734375q-0.53125 -0.5625 -1.671875 -0.5625q-0.734375 0 -1.515625 0.265625q-0.78125 0.265625 -1.46875 0.75l-0.5 -1.453125q0.78125 -0.515625 1.765625 -0.796875q0.984375 -0.28125 1.9375 -0.28125q1.828125 0 2.734375 0.921875q0.90625 0.921875 0.90625 2.75l0 6.78125l-1.640625 0l0 -0.9375q-0.59375 0.5625 -1.34375 0.875q-0.75 0.296875 -1.546875 0.296875zm0.25 -1.515625q0.71875 0 1.40625 -0.34375q0.703125 -0.359375 1.234375 -1.0l0 -1.75q-0.5 -0.328125 -1.15625 -0.5q-0.65625 -0.1875 -1.234375 -0.1875q-1.125 0 -1.78125 0.515625q-0.640625 0.5 -0.640625 1.359375q0 0.890625 0.578125 1.40625q0.578125 0.5 1.59375 0.5zm7.3323975 1.28125l0 -10.21875l1.734375 0l0 10.21875l-1.734375 0zm0.859375 -12.078125q-0.453125 0 -0.78125 -0.3125q-0.3125 -0.3125 -0.3125 -0.765625q0 -0.46875 0.3125 -0.796875q0.328125 -0.328125 0.78125 -0.328125q0.46875 0 0.78125 0.328125q0.3125 0.328125 0.3125 0.796875q0 0.453125 -0.3125 0.765625q-0.3125 0.3125 -0.78125 0.3125zm4.189453 12.078125l0 -10.21875l1.75 0l0 1.03125q0.46875 -0.640625 1.125 -0.953125q0.65625 -0.3125 1.515625 -0.3125q1.859375 0 2.75 1.125q0.90625 1.125 0.90625 3.453125l0 5.875l-1.75 0l0 -6.1875q0 -1.28125 -0.578125 -1.96875q-0.5625 -0.703125 -1.609375 -0.703125q-1.171875 0 -1.765625 0.671875q-0.59375 0.65625 -0.59375 1.96875l0 6.21875l-1.75 0zm15.497437 0.234375q-1.390625 0 -2.421875 -0.6875q-1.015625 -0.6875 -1.5625 -1.890625q-0.546875 -1.21875 -0.546875 -2.78125q0 -1.6875 0.5625 -2.875q0.578125 -1.203125 1.59375 -1.828125q1.015625 -0.625 2.375 -0.625q1.15625 0 2.109375 0.515625q0.96875 0.5 1.53125 1.578125q0.578125 1.078125 0.578125 2.765625q0 0.234375 -0.015625 0.546875q0 0.3125 -0.03125 0.640625l-6.921875 0q0.09375 0.9375 0.453125 1.640625q0.359375 0.703125 0.953125 1.09375q0.59375 0.390625 1.390625 0.390625q0.65625 0 1.203125 -0.21875q0.5625 -0.234375 1.03125 -0.71875l1.03125 1.140625q-0.578125 0.5625 -1.421875 0.9375q-0.84375 0.375 -1.890625 0.375zm-2.78125 -6.15625l5.25 0q0 -0.875 -0.296875 -1.546875q-0.28125 -0.6875 -0.828125 -1.078125q-0.546875 -0.390625 -1.34375 -0.390625q-1.109375 0 -1.90625 0.71875q-0.78125 0.71875 -0.875 2.296875zm9.803833 5.921875l0 -10.21875l1.75 0l0 1.34375q0.34375 -0.78125 0.953125 -1.171875q0.625 -0.40625 1.453125 -0.40625q0.9375 0 1.59375 0.515625l-0.265625 1.640625q-0.328125 -0.234375 -0.6875 -0.328125q-0.359375 -0.109375 -0.765625 -0.109375q-0.703125 0 -1.21875 0.375q-0.5 0.359375 -0.78125 1.03125q-0.28125 0.671875 -0.28125 1.5625l0 5.765625l-1.75 0z" fill-rule="nonzero"/><path fill="#000000" fill-opacity="0.0" d="m816.2272 82.4656l84.86615 0l0 -18.771648l84.86615 0" fill-rule="evenodd"/><path stroke="#666666" stroke-width="2.0" stroke-linejoin="round" stroke-linecap="butt" d="m816.2272 82.4656l84.86615 0l0 -18.771648l75.86615 0" fill-rule="evenodd"/><path fill="#666666" stroke="#666666" stroke-width="2.0" stroke-linecap="butt" d="m976.9595 65.9055l6.076233 -2.2115517l-6.076233 -2.2115555z" fill-rule="evenodd"/><path fill="#000000" fill-opacity="0.0" d="m816.22833 187.51837l66.47827 0l0 -34.519684l107.72644 0" fill-rule="evenodd"/><path stroke="#666666" stroke-width="2.0" stroke-linejoin="round" stroke-linecap="butt" d="m816.22833 187.51837l66.47827 0l0 -34.519684l98.72644 0" fill-rule="evenodd"/><path fill="#666666" stroke="#666666" stroke-width="2.0" stroke-linecap="butt" d="m981.43304 155.21024l6.076233 -2.2115479l-6.076233 -2.2115479z" fill-rule="evenodd"/><path fill="#000000" fill-opacity="0.0" d="m811.75854 286.42126l107.67938 0l0 -34.519684l66.52533 0" fill-rule="evenodd"/><path stroke="#666666" stroke-width="2.0" stroke-linejoin="round" stroke-linecap="butt" d="m811.75854 286.42126l107.67944 0l0 -34.519684l57.52527 0" fill-rule="evenodd"/><path fill="#666666" stroke="#666666" stroke-width="2.0" stroke-linecap="butt" d="m976.96326 254.11313l6.076172 -2.2115479l-6.076172 -2.211563z" fill-rule="evenodd"/></g></svg>