<svg id="Capa_1" enable-background="new 0 0 552.47 552.47" height="512" viewBox="0 0 552.47 552.47" width="512" xmlns="http://www.w3.org/2000/svg"><path d="m276.235 552.47c-118.105 0-207.176-79.782-207.176-185.596 0-68.283 22.559-107.146 46.466-148.284 9.543-16.422 19.406-33.417 28.055-52.94 7.267-16.388 13.37-32.725 19.204-48.27 22.626-60.36 44.004-117.38 113.451-117.38 69.75 0 89.881 54.02 111.175 111.226 5.547 14.871 11.448 30.753 18.597 47.107 8.143 18.698 17.905 36.89 27.347 54.492 24.616 45.91 50.058 93.388 50.058 154.05-.001 105.814-89.072 185.595-207.177 185.595zm0-517.941c-43.482 0-57.729 32.574-81.114 94.973-6.053 16.152-12.426 33.113-19.979 50.142-9.408 21.244-19.76 39.065-29.775 56.296-22.407 38.609-41.779 71.942-41.779 130.935 0 86.121 74.218 151.066 172.647 151.066s172.647-64.945 172.647-151.066c0-51.98-22.323-93.641-45.96-137.73-9.762-18.209-19.861-37.025-28.561-56.987-7.418-16.995-13.556-33.45-19.305-48.877-22.323-59.938-35.001-88.752-78.821-88.752z"/><path d="m276.235 448.882c-57.122 0-103.588-46.466-103.588-103.588s46.466-103.588 103.588-103.588 103.588 46.466 103.588 103.588-46.466 103.588-103.588 103.588zm0-172.647c-38.087 0-69.059 30.972-69.059 69.059s30.972 69.059 69.059 69.059 69.059-30.972 69.059-69.059-30.972-69.059-69.059-69.059z"/></svg>