<?xml version="1.0" encoding="utf-8"?>
<svg id="master-artboard" viewBox="0 0 825 110" version="1.1" xmlns="http://www.w3.org/2000/svg" x="0px" y="0px" style="enable-background:new 0 0 825 110;" width="825px" height="110px"><defs><linearGradient id="gradient-0" gradientUnits="userSpaceOnUse" x1="825.6015625" y1="39" x2="825.6015625" y2="191.640625">
                <stop offset="0" style="stop-color: #000000"/>
                <stop offset="1" style="stop-color: #000000"/>
              </linearGradient></defs><g transform="matrix(0.18524706363677979, 0, 0, 0.18524706363677979, -8.278151988983154, 4.098542213439941)"><path d="m438.819 210.133c-8.471-16.228-17.06-32.609-24.41-49.906-6.4-15.057-11.679-29.655-16.635-43.337-19.878-54.796-42.404-116.89-119.656-116.89-76.913 0-100.712 65.15-121.693 122.61-5.228 14.293-10.694 29.316-17.196 44.406-7.537 17.433-16.313 32.965-24.817 47.988-22.067 39.008-44.882 79.341-44.882 148.293 0 109.998 89.679 192.937 208.588 192.937s208.588-82.94 208.588-192.937c0-61.448-24.342-108.079-47.887-153.164zm-160.702 241.808c-57.511 0-104.294-46.783-104.294-104.294s46.783-104.294 104.294-104.294 104.294 46.783 104.294 104.294-46.782 104.294-104.294 104.294z" style="fill: rgb(255, 255, 255);"/></g><path d="M 496.2666931152344 194.7189178466797 C 494.77337646484375 195.55892944335938 492.8133544921875 196.28225708007812 490.3866882324219 196.88893127441406 C 487.96002197265625 197.49559020996094 485.3466796875 197.79891967773438 482.54669189453125 197.79891967773438 C 478.9067077636719 197.79891967773438 475.61669921875 196.79559326171875 472.67669677734375 194.78892517089844 C 469.7366943359375 192.78225708007812 467.6133728027344 189.91226196289062 466.30670166015625 186.17892456054688 C 457.72003173828125 194.485595703125 448.66668701171875 198.63893127441406 439.1466979980469 198.63893127441406 C 432.8000183105469 198.63893127441406 427.48004150390625 196.8189239501953 423.18670654296875 193.17892456054688 C 418.89337158203125 189.53892517089844 416.7467041015625 184.312255859375 416.7467041015625 177.49893188476562 C 416.7467041015625 172.73892211914062 418.12335205078125 168.6555938720703 420.876708984375 165.24893188476562 C 423.6300354003906 161.84225463867188 427.1300354003906 159.29891967773438 431.376708984375 157.61892700195312 C 435.62335205078125 155.9389190673828 440.0333557128906 155.0989227294922 444.606689453125 155.0989227294922 C 448.6200256347656 155.0989227294922 452.2366943359375 155.47225952148438 455.4566955566406 156.21893310546875 C 458.67669677734375 156.96559143066406 461.87335205078125 158.03892517089844 465.04669189453125 159.4389190673828 L 465.04669189453125 155.37892150878906 C 465.04669189453125 152.57891845703125 463.62335205078125 150.45559692382812 460.7767028808594 149.00892639160156 C 457.9300231933594 147.562255859375 454.2666931152344 146.83892822265625 449.78668212890625 146.83892822265625 C 446.52001953125 146.83892822265625 442.7400207519531 147.3055877685547 438.4466857910156 148.23892211914062 C 434.1533508300781 149.17225646972656 429.72003173828125 150.5255889892578 425.1466979980469 152.29891967773438 L 420.9466857910156 136.33892822265625 C 432.7066955566406 131.485595703125 443.3467102050781 129.05892944335938 452.86669921875 129.05892944335938 C 463.4133605957031 129.05892944335938 471.4400329589844 131.53225708007812 476.94671630859375 136.4789276123047 C 482.453369140625 141.42559814453125 485.2066955566406 148.05226135253906 485.2066955566406 156.35891723632812 L 485.2066955566406 176.23892211914062 C 485.2066955566406 178.94558715820312 486.37335205078125 180.29891967773438 488.7066955566406 180.29891967773438 C 489.9200439453125 180.29891967773438 491.0867004394531 180.1122589111328 492.2066955566406 179.73892211914062 L 496.2666931152344 194.7189178466797 M 437.8866882324219 176.37892150878906 C 437.8866882324219 178.05892944335938 438.5867004394531 179.29559326171875 439.9866943359375 180.08892822265625 C 441.3866882324219 180.88226318359375 443.2066955566406 181.2789306640625 445.4466857910156 181.2789306640625 C 447.68670654296875 181.2789306640625 450.55670166015625 180.60226440429688 454.05670166015625 179.24893188476562 C 457.55670166015625 177.89559936523438 461.22003173828125 175.8189239501953 465.04669189453125 173.0189208984375 L 465.04669189453125 172.73892211914062 C 459.9133605957031 170.96559143066406 454.54669189453125 170.07891845703125 448.9466857910156 170.07891845703125 C 445.77337646484375 170.17225646972656 443.1366882324219 170.7322540283203 441.03668212890625 171.75892639160156 C 438.93670654296875 172.78558349609375 437.8866882324219 174.32559204101562 437.8866882324219 176.37892150878906 ZM 581.2454223632812 147.39892578125 L 572.8453979492188 147.39892578125 L 544.5653686523438 198.49893188476562 L 532.6654052734375 198.49893188476562 L 503.4053955078125 147.39892578125 L 495.4253845214844 147.39892578125 L 495.4253845214844 130.73892211914062 L 534.0653686523438 130.73892211914062 L 534.0653686523438 145.57891845703125 L 525.6654052734375 145.57891845703125 L 540.785400390625 174.138916015625 L 555.2053833007812 145.57891845703125 L 545.9653930664062 145.57891845703125 L 545.9653930664062 130.73892211914062 L 581.2454223632812 130.73892211914062 L 581.2454223632812 147.39892578125 ZM 622.823974609375 198.63893127441406 C 616.1973266601562 198.63893127441406 609.9673461914062 197.1922607421875 604.134033203125 194.29891967773438 C 598.3006591796875 191.4055938720703 593.6106567382812 187.29891967773438 590.0640258789062 181.9789276123047 C 586.517333984375 176.65892028808594 584.7440185546875 170.59225463867188 584.7440185546875 163.7789306640625 C 584.7440185546875 156.96559143066406 586.517333984375 150.89892578125 590.0640258789062 145.57891845703125 C 593.6106567382812 140.25892639160156 598.3006591796875 136.15225219726562 604.134033203125 133.25892639160156 C 609.9673461914062 130.3656005859375 616.1973266601562 128.91891479492188 622.823974609375 128.91891479492188 C 629.2639770507812 128.91891479492188 635.4006958007812 130.3656005859375 641.2340087890625 133.25892639160156 C 647.0673217773438 136.15225219726562 651.8040161132812 140.25892639160156 655.4439697265625 145.57891845703125 C 659.083984375 150.89892578125 660.9039916992188 156.96559143066406 660.9039916992188 163.7789306640625 C 660.9039916992188 170.59225463867188 659.1773681640625 176.65892028808594 655.7239990234375 181.9789276123047 C 652.2706909179688 187.29891967773438 647.6273193359375 191.4055938720703 641.7940063476562 194.29891967773438 C 635.960693359375 197.1922607421875 629.6373291015625 198.63893127441406 622.823974609375 198.63893127441406 M 622.823974609375 181.9789276123047 C 627.3040161132812 181.9789276123047 631.0606689453125 180.322265625 634.093994140625 177.00892639160156 C 637.1273193359375 173.69558715820312 638.6439819335938 169.28558349609375 638.6439819335938 163.7789306640625 C 638.6439819335938 158.2722625732422 637.1273193359375 153.8622589111328 634.093994140625 150.54891967773438 C 631.0606689453125 147.235595703125 627.3040161132812 145.57891845703125 622.823974609375 145.57891845703125 C 618.343994140625 145.57891845703125 614.5873413085938 147.235595703125 611.5540161132812 150.54891967773438 C 608.5206909179688 153.8622589111328 607.0040283203125 158.2722625732422 607.0040283203125 163.7789306640625 C 607.0040283203125 169.28558349609375 608.5206909179688 173.69558715820312 611.5540161132812 177.00892639160156 C 614.5873413085938 180.322265625 618.343994140625 181.9789276123047 622.823974609375 181.9789276123047 ZM 736.3627319335938 186.45892333984375 C 732.0693969726562 190.37892150878906 727.1927490234375 193.38893127441406 721.7327270507812 195.48892211914062 C 716.272705078125 197.58892822265625 710.6494140625 198.63893127441406 704.8627319335938 198.63893127441406 C 698.1427001953125 198.63893127441406 691.9827270507812 197.0989227294922 686.3827514648438 194.0189208984375 C 680.78271484375 190.9389190673828 676.349365234375 186.71559143066406 673.0827026367188 181.3489227294922 C 669.8160400390625 175.9822540283203 668.1827392578125 169.985595703125 668.1827392578125 163.35891723632812 C 668.1827392578125 157.1055908203125 669.6994018554688 151.34225463867188 672.7327270507812 146.0689239501953 C 675.7660522460938 140.79559326171875 679.8260498046875 136.61892700195312 684.9127197265625 133.53892517089844 C 689.9993896484375 130.45892333984375 695.43603515625 128.91891479492188 701.2227172851562 128.91891479492188 C 705.4227294921875 128.91891479492188 708.9927368164062 129.50225830078125 711.9327392578125 130.66891479492188 C 714.8727416992188 131.83560180664062 717.5093994140625 133.63226318359375 719.8427124023438 136.05892944335938 L 719.8427124023438 130.73892211914062 L 734.4027099609375 130.73892211914062 L 734.4027099609375 154.8189239501953 L 725.4427490234375 155.37892150878906 C 720.6827392578125 149.21893310546875 714.8960571289062 146.138916015625 708.0827026367188 146.138916015625 C 702.9494018554688 146.138916015625 698.72607421875 147.70225524902344 695.4127197265625 150.82891845703125 C 692.099365234375 153.95559692382812 690.4427490234375 158.03892517089844 690.4427490234375 163.07891845703125 C 690.4427490234375 168.3055877685547 692.0760498046875 172.57559204101562 695.3427124023438 175.888916015625 C 698.609375 179.20225524902344 702.716064453125 180.85891723632812 707.6627197265625 180.85891723632812 C 711.3960571289062 180.85891723632812 714.802734375 180.1822509765625 717.8827514648438 178.82891845703125 C 720.9627075195312 177.4755859375 724.2293701171875 175.39892578125 727.6827392578125 172.5989227294922 L 736.3627319335938 186.45892333984375 ZM 822.8814697265625 194.7189178466797 C 821.3881225585938 195.55892944335938 819.4281616210938 196.28225708007812 817.00146484375 196.88893127441406 C 814.5748291015625 197.49559020996094 811.9614868164062 197.79891967773438 809.1614990234375 197.79891967773438 C 805.521484375 197.79891967773438 802.2314453125 196.79559326171875 799.29150390625 194.78892517089844 C 796.3515014648438 192.78225708007812 794.2281494140625 189.91226196289062 792.9214477539062 186.17892456054688 C 784.3348388671875 194.485595703125 775.281494140625 198.63893127441406 765.761474609375 198.63893127441406 C 759.414794921875 198.63893127441406 754.0947875976562 196.8189239501953 749.8014526367188 193.17892456054688 C 745.5081176757812 189.53892517089844 743.3614501953125 184.312255859375 743.3614501953125 177.49893188476562 C 743.3614501953125 172.73892211914062 744.7381591796875 168.6555938720703 747.491455078125 165.24893188476562 C 750.2448120117188 161.84225463867188 753.7448120117188 159.29891967773438 757.991455078125 157.61892700195312 C 762.2381591796875 155.9389190673828 766.6481323242188 155.0989227294922 771.2214965820312 155.0989227294922 C 775.2348022460938 155.0989227294922 778.8515014648438 155.47225952148438 782.0714721679688 156.21893310546875 C 785.29150390625 156.96559143066406 788.4881591796875 158.03892517089844 791.6614990234375 159.4389190673828 L 791.6614990234375 155.37892150878906 C 791.6614990234375 152.57891845703125 790.2381591796875 150.45559692382812 787.3914794921875 149.00892639160156 C 784.5447998046875 147.562255859375 780.8814697265625 146.83892822265625 776.4014892578125 146.83892822265625 C 773.1348266601562 146.83892822265625 769.3547973632812 147.3055877685547 765.0614624023438 148.23892211914062 C 760.7681274414062 149.17225646972656 756.3348388671875 150.5255889892578 751.761474609375 152.29891967773438 L 747.5614624023438 136.33892822265625 C 759.3214721679688 131.485595703125 769.9614868164062 129.05892944335938 779.4814453125 129.05892944335938 C 790.0281372070312 129.05892944335938 798.0548095703125 131.53225708007812 803.5614624023438 136.4789276123047 C 809.068115234375 141.42559814453125 811.8214721679688 148.05226135253906 811.8214721679688 156.35891723632812 L 811.8214721679688 176.23892211914062 C 811.8214721679688 178.94558715820312 812.9881591796875 180.29891967773438 815.3214721679688 180.29891967773438 C 816.5347900390625 180.29891967773438 817.7014770507812 180.1122589111328 818.8214721679688 179.73892211914062 L 822.8814697265625 194.7189178466797 M 764.50146484375 176.37892150878906 C 764.50146484375 178.05892944335938 765.2014770507812 179.29559326171875 766.6015014648438 180.08892822265625 C 768.00146484375 180.88226318359375 769.8214721679688 181.2789306640625 772.0614624023438 181.2789306640625 C 774.3014526367188 181.2789306640625 777.1714477539062 180.60226440429688 780.6714477539062 179.24893188476562 C 784.1714477539062 177.89559936523438 787.8348388671875 175.8189239501953 791.6614990234375 173.0189208984375 L 791.6614990234375 172.73892211914062 C 786.5281372070312 170.96559143066406 781.1614990234375 170.07891845703125 775.5614624023438 170.07891845703125 C 772.3881225585938 170.17225646972656 769.75146484375 170.7322540283203 767.6514892578125 171.75892639160156 C 765.5514526367188 172.78558349609375 764.50146484375 174.32559204101562 764.50146484375 176.37892150878906 ZM 914.3001708984375 194.7189178466797 C 912.8068237304688 195.55892944335938 910.8701782226562 196.28225708007812 908.4901733398438 196.88893127441406 C 906.1101684570312 197.49559020996094 903.66015625 197.79891967773438 901.14013671875 197.79891967773438 C 897.4067993164062 197.79891967773438 894.0701904296875 196.95892333984375 891.130126953125 195.2789306640625 C 888.190185546875 193.5989227294922 885.9735107421875 191.2189178466797 884.4801635742188 188.13893127441406 C 876.920166015625 195.13893127441406 868.7068481445312 198.63893127441406 859.8401489257812 198.63893127441406 C 854.053466796875 198.63893127441406 848.64013671875 197.12225341796875 843.6001586914062 194.08892822265625 C 838.5601806640625 191.0555877685547 834.5001831054688 186.90225219726562 831.420166015625 181.62892150878906 C 828.3401489257812 176.3555908203125 826.8001708984375 170.49893188476562 826.8001708984375 164.05892944335938 C 826.8001708984375 157.4322509765625 828.3168334960938 151.45892333984375 831.3501586914062 146.138916015625 C 834.3834838867188 140.8189239501953 838.58349609375 136.61892700195312 843.9501342773438 133.53892517089844 C 849.3168334960938 130.45892333984375 855.3601684570312 128.91891479492188 862.0801391601562 128.91891479492188 C 869.5468139648438 128.91891479492188 876.3134765625 131.3922576904297 882.380126953125 136.33892822265625 L 882.380126953125 117.2989273071289 L 869.3601684570312 117.2989273071289 L 869.3601684570312 100.63892364501953 L 903.2401733398438 100.63892364501953 L 903.2401733398438 176.23892211914062 C 903.2401733398438 178.94558715820312 904.3601684570312 180.29891967773438 906.6001586914062 180.29891967773438 C 907.9067993164062 180.29891967773438 909.02685546875 180.1122589111328 909.9601440429688 179.73892211914062 L 914.3001708984375 194.7189178466797 M 849.0601806640625 164.05892944335938 C 849.0601806640625 168.91226196289062 850.553466796875 172.92559814453125 853.5401611328125 176.0989227294922 C 856.5267944335938 179.2722625732422 860.5867919921875 180.85891723632812 865.7201538085938 180.85891723632812 C 870.7601318359375 180.85891723632812 876.3134765625 178.4789276123047 882.380126953125 173.71893310546875 L 882.380126953125 152.29891967773438 C 877.246826171875 148.56558227539062 872.3468017578125 146.6989288330078 867.68017578125 146.6989288330078 C 861.98681640625 146.6989288330078 857.4601440429688 148.28558349609375 854.1001586914062 151.45892333984375 C 850.7401733398438 154.63226318359375 849.0601806640625 158.83226013183594 849.0601806640625 164.05892944335938 ZM 956.9986572265625 198.63893127441406 C 950.3720092773438 198.63893127441406 944.1420288085938 197.1922607421875 938.3087158203125 194.29891967773438 C 932.475341796875 191.4055938720703 927.7853393554688 187.29891967773438 924.2387084960938 181.9789276123047 C 920.6920166015625 176.65892028808594 918.918701171875 170.59225463867188 918.918701171875 163.7789306640625 C 918.918701171875 156.96559143066406 920.6920166015625 150.89892578125 924.2387084960938 145.57891845703125 C 927.7853393554688 140.25892639160156 932.475341796875 136.15225219726562 938.3087158203125 133.25892639160156 C 944.1420288085938 130.3656005859375 950.3720092773438 128.91891479492188 956.9986572265625 128.91891479492188 C 963.4386596679688 128.91891479492188 969.5753784179688 130.3656005859375 975.40869140625 133.25892639160156 C 981.2420043945312 136.15225219726562 985.9786987304688 140.25892639160156 989.61865234375 145.57891845703125 C 993.2586669921875 150.89892578125 995.0786743164062 156.96559143066406 995.0786743164062 163.7789306640625 C 995.0786743164062 170.59225463867188 993.35205078125 176.65892028808594 989.898681640625 181.9789276123047 C 986.4453735351562 187.29891967773438 981.802001953125 191.4055938720703 975.9686889648438 194.29891967773438 C 970.1353759765625 197.1922607421875 963.81201171875 198.63893127441406 956.9986572265625 198.63893127441406 M 956.9986572265625 181.9789276123047 C 961.4786987304688 181.9789276123047 965.2353515625 180.322265625 968.2686767578125 177.00892639160156 C 971.302001953125 173.69558715820312 972.8186645507812 169.28558349609375 972.8186645507812 163.7789306640625 C 972.8186645507812 158.2722625732422 971.302001953125 153.8622589111328 968.2686767578125 150.54891967773438 C 965.2353515625 147.235595703125 961.4786987304688 145.57891845703125 956.9986572265625 145.57891845703125 C 952.5186767578125 145.57891845703125 948.7620239257812 147.235595703125 945.7286987304688 150.54891967773438 C 942.6953735351562 153.8622589111328 941.1787109375 158.2722625732422 941.1787109375 163.7789306640625 C 941.1787109375 169.28558349609375 942.6953735351562 173.69558715820312 945.7286987304688 177.00892639160156 C 948.7620239257812 180.322265625 952.5186767578125 181.9789276123047 956.9986572265625 181.9789276123047 ZM 1070.537353515625 186.45892333984375 C 1066.2440185546875 190.37892150878906 1061.367431640625 193.38893127441406 1055.9073486328125 195.48892211914062 C 1050.4473876953125 197.58892822265625 1044.8240966796875 198.63893127441406 1039.037353515625 198.63893127441406 C 1032.3173828125 198.63893127441406 1026.1573486328125 197.0989227294922 1020.5574340820312 194.0189208984375 C 1014.9573974609375 190.9389190673828 1010.5240478515625 186.71559143066406 1007.2573852539062 181.3489227294922 C 1003.99072265625 175.9822540283203 1002.357421875 169.985595703125 1002.357421875 163.35891723632812 C 1002.357421875 157.1055908203125 1003.8740844726562 151.34225463867188 1006.9074096679688 146.0689239501953 C 1009.9407348632812 140.79559326171875 1014.000732421875 136.61892700195312 1019.08740234375 133.53892517089844 C 1024.174072265625 130.45892333984375 1029.6107177734375 128.91891479492188 1035.3974609375 128.91891479492188 C 1039.597412109375 128.91891479492188 1043.1673583984375 129.50225830078125 1046.107421875 130.66891479492188 C 1049.04736328125 131.83560180664062 1051.68408203125 133.63226318359375 1054.0174560546875 136.05892944335938 L 1054.0174560546875 130.73892211914062 L 1068.577392578125 130.73892211914062 L 1068.577392578125 154.8189239501953 L 1059.617431640625 155.37892150878906 C 1054.857421875 149.21893310546875 1049.07080078125 146.138916015625 1042.2574462890625 146.138916015625 C 1037.1240234375 146.138916015625 1032.9007568359375 147.70225524902344 1029.58740234375 150.82891845703125 C 1026.2740478515625 153.95559692382812 1024.617431640625 158.03892517089844 1024.617431640625 163.07891845703125 C 1024.617431640625 168.3055877685547 1026.250732421875 172.57559204101562 1029.5174560546875 175.888916015625 C 1032.7840576171875 179.20225524902344 1036.8907470703125 180.85891723632812 1041.83740234375 180.85891723632812 C 1045.57080078125 180.85891723632812 1048.9774169921875 180.1822509765625 1052.057373046875 178.82891845703125 C 1055.137451171875 177.4755859375 1058.404052734375 175.39892578125 1061.857421875 172.5989227294922 L 1070.537353515625 186.45892333984375 ZM 1113.7962646484375 154.95892333984375 C 1122.28955078125 157.4789276123047 1128.706298828125 160.65225219726562 1133.0462646484375 164.4789276123047 C 1137.38623046875 168.3055877685547 1139.5562744140625 173.1122589111328 1139.5562744140625 178.89892578125 C 1139.5562744140625 182.63226318359375 1138.48291015625 185.9922637939453 1136.3363037109375 188.9789276123047 C 1134.1895751953125 191.96559143066406 1131.2030029296875 194.322265625 1127.376220703125 196.04891967773438 C 1123.549560546875 197.7755889892578 1119.2095947265625 198.63893127441406 1114.3563232421875 198.63893127441406 C 1104.9295654296875 198.63893127441406 1097.2296142578125 195.9322509765625 1091.2562255859375 190.5189208984375 L 1091.2562255859375 196.8189239501953 L 1076.416259765625 196.8189239501953 L 1076.416259765625 174.83892822265625 L 1085.7962646484375 174.138916015625 C 1088.0362548828125 177.4055938720703 1091.5362548828125 180.0655975341797 1096.2962646484375 182.11892700195312 C 1101.0562744140625 184.17225646972656 1105.349609375 185.1989288330078 1109.17626953125 185.1989288330078 C 1111.78955078125 185.1989288330078 1113.819580078125 184.80226135253906 1115.2662353515625 184.00892639160156 C 1116.712890625 183.21559143066406 1117.436279296875 182.16558837890625 1117.436279296875 180.85891723632812 C 1117.436279296875 179.45892333984375 1116.3162841796875 178.1055908203125 1114.0762939453125 176.79891967773438 C 1111.8363037109375 175.4922637939453 1107.4029541015625 173.9055938720703 1100.7762451171875 172.03892517089844 C 1092.282958984375 169.70559692382812 1086.0296630859375 166.71893310546875 1082.0162353515625 163.07891845703125 C 1078.0029296875 159.4389190673828 1075.996337890625 154.7255859375 1075.996337890625 148.9389190673828 C 1075.996337890625 145.29891967773438 1076.976318359375 141.96224975585938 1078.936279296875 138.92892456054688 C 1080.896240234375 135.89559936523438 1083.6962890625 133.46893310546875 1087.3363037109375 131.64892578125 C 1090.976318359375 129.82891845703125 1095.129638671875 128.91891479492188 1099.7962646484375 128.91891479492188 C 1108.1962890625 128.91891479492188 1115.1029052734375 131.57891845703125 1120.5162353515625 136.89892578125 L 1120.5162353515625 130.73892211914062 L 1135.3563232421875 130.73892211914062 L 1135.3563232421875 152.57891845703125 L 1126.1163330078125 153.41893005371094 C 1121.1695556640625 146.04559326171875 1114.54296875 142.35891723632812 1106.236328125 142.35891723632812 C 1103.71630859375 142.35891723632812 1101.73291015625 142.7322540283203 1100.2862548828125 143.4789276123047 C 1098.839599609375 144.2255859375 1098.1163330078125 145.25225830078125 1098.1163330078125 146.55892944335938 C 1098.1163330078125 147.95892333984375 1099.212890625 149.24224853515625 1101.40625 150.40892028808594 C 1103.599609375 151.57559204101562 1107.7296142578125 153.09225463867188 1113.7962646484375 154.95892333984375 Z" transform="matrix(1, 0, 0, 1, -320.9200134277344, -97.26670837402344)" style="fill: rgb(255, 255, 255); white-space: pre; color: rgb(0, 0, 0);"/></svg>