<svg id="Capa_1" enable-background="new 0 0 556.235 556.235" height="512" viewBox="0 0 556.235 556.235" width="512" xmlns="http://www.w3.org/2000/svg"><path d="m438.819 210.133c-8.471-16.228-17.06-32.609-24.41-49.906-6.4-15.057-11.679-29.655-16.635-43.337-19.878-54.796-42.404-116.89-119.656-116.89-76.913 0-100.712 65.15-121.693 122.61-5.228 14.293-10.694 29.316-17.196 44.406-7.537 17.433-16.313 32.965-24.817 47.988-22.067 39.008-44.882 79.341-44.882 148.293 0 109.998 89.679 192.937 208.588 192.937s208.588-82.94 208.588-192.937c0-61.448-24.342-108.079-47.887-153.164zm-160.702 241.808c-57.511 0-104.294-46.783-104.294-104.294s46.783-104.294 104.294-104.294 104.294 46.783 104.294 104.294-46.782 104.294-104.294 104.294z"/></svg>