<svg width="24" height="24" viewBox="0 0 24 24" fill="none" xmlns="http://www.w3.org/2000/svg">
<g clip-path="url(#clip0_3257_18138)">
<path fill-rule="evenodd" clip-rule="evenodd" d="M6.36584 12.3087C6.36584 14.697 8.11341 16.1242 10.9095 15.4834V9.16304C8.08429 8.28925 6.39497 10.0368 6.36584 12.3087ZM10.9969 -0.0117188H14.8416V18.1922C11.1425 18.8038 7.61827 19.1825 5.08429 17.7553C1.82215 15.9494 1.56002 10.1533 4.15225 7.59023C5.46293 6.27955 8.08429 5.37663 10.9095 5.95916V0.221296C10.9095 0.133918 10.8804 0.0174075 10.9969 -0.0117188Z" fill="white"/>
<path fill-rule="evenodd" clip-rule="evenodd" d="M21.0745 4.0077H17.2299V-0.0117188H21.0745V4.0077Z" fill="white"/>
<path fill-rule="evenodd" clip-rule="evenodd" d="M21.0746 6.04688C21.0746 8.87212 21.0746 10.911 21.0746 14.3478C20.8999 17.7265 20.9581 20.4352 19.7057 22.0372C19.4727 22.3576 18.9484 22.8236 18.5115 23.144C18.1329 23.4061 17.463 23.9886 17.0552 23.9886C16.6475 24.0177 15.628 23.4352 15.162 23.2313C14.5504 22.9401 13.997 22.5614 13.3562 22.3867C14.8125 21.4838 16.2106 20.8139 16.764 18.9789C17.2591 17.377 17.2009 15.076 17.2009 12.8333C17.2009 10.6197 17.2009 8.02745 17.2009 6.07599L21.0746 6.04688Z" fill="white"/>
</g>
<defs>
<clipPath id="clip0_3257_18138">
<rect width="24" height="24" fill="white"/>
</clipPath>
</defs>
</svg>
