<svg width="24" height="24" viewBox="0 0 24 24" fill="none" xmlns="http://www.w3.org/2000/svg">
<path d="M7.44368 14.3556V9.10477H7.72849V9.93073C7.76213 9.8941 7.79319 9.8552 7.82146 9.8143C8.05933 9.32077 8.56106 9.0093 9.10882 9.01545C9.75819 8.99608 10.2859 9.23646 10.596 9.8143C10.7933 10.1733 10.9019 10.5742 10.9127 10.9837C10.9235 11.3932 10.8362 11.7994 10.658 12.1682C10.3691 12.8158 9.65543 13.1377 8.89145 13.0195C8.65369 12.9993 8.42478 12.9198 8.22561 12.7884C8.02645 12.657 7.86337 12.4778 7.75128 12.2671V14.3554L7.44368 14.3556ZM7.72849 10.9622L7.79229 11.5788C7.90485 12.2806 8.31977 12.6952 8.9712 12.7732C9.27711 12.8235 9.591 12.7661 9.85937 12.6109C10.1277 12.4557 10.334 12.2122 10.4429 11.9219C10.6963 11.3181 10.6776 10.6346 10.3928 10.0449C10.2765 9.78469 10.0787 9.56942 9.82927 9.43159C9.57984 9.29376 9.29231 9.24086 9.01016 9.28089C8.74531 9.30016 8.49304 9.40143 8.28839 9.57065C8.08373 9.73986 7.93686 9.9686 7.86817 10.2251C7.80751 10.4679 7.76088 10.7139 7.72849 10.962V10.9622ZM16.7282 11.6758C16.685 12.0455 16.509 12.387 16.2329 12.6367C15.9568 12.8863 15.5995 13.0272 15.2273 13.0332C14.0329 13.0933 13.4724 12.3002 13.3833 11.3849C13.3214 10.8878 13.402 10.3834 13.6159 9.9305C13.7648 9.6198 14.0088 9.36456 14.3124 9.20176C14.616 9.03897 14.9636 8.97706 15.3048 9.02502C15.6291 9.05259 15.9366 9.18146 16.1836 9.3934C16.4307 9.60533 16.6049 9.8896 16.6815 10.206C16.7421 10.4942 16.7868 10.7855 16.8152 11.0786H13.6784C13.6203 11.9085 14.0662 12.5756 14.6982 12.7365C15.4855 12.9302 16.1583 12.5891 16.4026 11.8406C16.4568 11.6485 16.5557 11.6214 16.7302 11.6758H16.7282ZM13.6761 10.813H16.4819C16.4643 9.9289 15.9138 9.28636 15.1672 9.27907C14.3241 9.2654 13.7128 9.88219 13.6761 10.813ZM17.3081 11.6952H17.5831C17.5932 11.8978 17.659 12.0937 17.7732 12.2614C17.8875 12.429 18.0457 12.5619 18.2306 12.6454C18.4628 12.7498 18.7155 12.8006 18.97 12.7939C19.2245 12.7872 19.4742 12.7232 19.7005 12.6066C19.8239 12.5511 19.9272 12.459 19.9966 12.3428C20.0659 12.2266 20.0979 12.092 20.0883 11.957C20.0954 11.8269 20.0599 11.6979 19.9871 11.5898C19.9143 11.4817 19.8083 11.4002 19.685 11.3578C19.3824 11.2452 19.0607 11.1832 18.7524 11.0843C18.4316 10.993 18.1179 10.8783 17.8139 10.7412C17.3172 10.4988 17.2864 9.55454 17.8487 9.2556C18.1367 9.09312 18.4607 9.00533 18.7913 9.00024C19.1219 8.99514 19.4485 9.07291 19.7413 9.22644C20.1045 9.42695 20.3052 9.83184 20.2455 10.2427H20.0097C20.0097 10.2313 19.9883 10.2212 19.9883 10.2096C19.9591 9.45771 19.327 9.22256 18.6485 9.28864C18.4434 9.31143 18.2491 9.3734 18.0668 9.465C17.9572 9.51504 17.8659 9.5979 17.8055 9.70212C17.7451 9.80633 17.7186 9.92675 17.7296 10.0467C17.7298 10.1667 17.7672 10.2838 17.8367 10.3817C17.9061 10.4796 18.0042 10.5536 18.1174 10.5935C18.4136 10.7022 18.728 10.772 19.0345 10.8572L19.775 11.0508C19.9433 11.1061 20.0909 11.2111 20.1982 11.3521C20.3055 11.493 20.3676 11.6632 20.3761 11.8401C20.4353 12.2377 20.2325 12.6285 19.8739 12.8096C19.2263 13.176 18.1598 13.0792 17.6847 12.616C17.4416 12.3715 17.306 12.0395 17.3087 11.695L17.3081 11.6952ZM23.8656 10.2429H23.6077C23.6077 10.208 23.594 10.1745 23.5901 10.1479C23.586 9.95453 23.5156 9.76849 23.3906 9.62093C23.2656 9.47337 23.0937 9.37326 22.9036 9.3374C22.5452 9.23459 22.1628 9.25301 21.8159 9.38981C21.6787 9.42907 21.5579 9.51167 21.4716 9.62527C21.3852 9.73887 21.338 9.87737 21.3369 10.02C21.332 10.1601 21.3756 10.2976 21.4604 10.4093C21.5452 10.5209 21.6659 10.5999 21.8022 10.6327L22.9811 10.9353C23.1086 10.9659 23.2341 11.0041 23.3571 11.0497C23.733 11.1864 23.9882 11.5355 23.9996 11.9345C24.0052 12.1297 23.9517 12.3222 23.8459 12.4865C23.7402 12.6507 23.5873 12.7792 23.4072 12.855C23.1336 12.9793 22.837 13.045 22.5365 13.0481C22.236 13.0511 21.9381 12.9913 21.6621 12.8725C21.435 12.7746 21.2434 12.6095 21.1131 12.3994C20.9827 12.1894 20.9199 11.9444 20.9329 11.6975H21.1849C21.2797 12.1543 21.5935 12.5348 22.0239 12.7148C22.4543 12.8948 22.9458 12.8506 23.3372 12.5973C23.4547 12.5362 23.5522 12.4427 23.6182 12.328C23.6841 12.2132 23.7159 12.0819 23.7095 11.9497C23.7154 11.8195 23.6786 11.6909 23.6047 11.5834C23.5309 11.476 23.424 11.3956 23.3003 11.3543C22.9977 11.2418 22.676 11.1819 22.3677 11.0809C22.0451 10.991 21.7296 10.8776 21.4235 10.7417C20.9386 10.5031 20.8999 9.56662 21.4527 9.26791C21.7442 9.09861 22.0745 9.00766 22.4116 9.00391C22.7487 9.00015 23.081 9.08372 23.3762 9.24649C23.545 9.34726 23.6809 9.49495 23.7674 9.67157C23.8538 9.8482 23.887 10.0461 23.8629 10.2413L23.8656 10.2429ZM6.97499 12.9384C6.87346 12.9768 6.76139 12.9767 6.65993 12.9381C6.55847 12.8995 6.47465 12.8251 6.42427 12.729L5.42173 11.3425L5.27636 11.1488L4.11295 12.731C4.06553 12.823 3.98624 12.8946 3.88988 12.9325C3.79352 12.9703 3.68669 12.9717 3.58934 12.9365L5.08815 10.9258L3.6937 9.10887C3.90059 9.03413 4.13118 9.11525 4.24624 9.30254L5.28524 10.7061L6.3304 9.30801C6.37817 9.21757 6.45751 9.14785 6.55334 9.11209C6.64917 9.07634 6.75479 9.07706 6.85013 9.11411L6.30898 9.83207L5.57598 10.7861C5.55564 10.8042 5.53936 10.8265 5.52822 10.8514C5.51707 10.8763 5.51131 10.9033 5.51131 10.9305C5.51131 10.9578 5.51707 10.9848 5.52822 11.0097C5.53936 11.0346 5.55564 11.0568 5.57598 11.075L6.97203 12.9384H6.97499ZM13.3389 9.0895V9.36292C13.1428 9.35006 12.9461 9.37846 12.7617 9.44629C12.5772 9.51412 12.409 9.61988 12.268 9.75673C12.1269 9.89359 12.0161 10.0585 11.9427 10.2408C11.8693 10.4231 11.835 10.6188 11.8419 10.8152C11.8419 11.4538 11.8419 12.0924 11.8419 12.731V12.9482H11.5646V9.10659H11.838V9.89382C12.1734 9.31963 12.6911 9.10659 13.3407 9.09109L13.3389 9.0895ZM0.000455779 10.9007L0.122584 10.2976C0.457981 9.10499 1.82509 8.60873 2.76566 9.34743C3.31638 9.77989 3.45377 10.3926 3.42689 11.083H0.324233C0.274105 12.3161 1.16387 13.0607 2.30198 12.6807C2.67703 12.544 2.95934 12.2323 3.0523 11.8449C3.11245 11.6512 3.21179 11.618 3.39362 11.674C3.3633 11.9101 3.27984 12.1362 3.14952 12.3354C3.01921 12.5346 2.84543 12.7016 2.64125 12.824C2.30393 13.0085 1.91692 13.0816 1.53555 13.0328C1.15418 12.9841 0.79799 12.816 0.517906 12.5526C0.240839 12.2411 0.0735961 11.8474 0.0410133 11.4316C0.0410133 11.3632 0.0182282 11.2994 0.00227857 11.2379C0.000759557 11.1229 0 11.0105 0 10.9007H0.000455779ZM0.328106 10.8173H3.13387C3.11632 9.92344 2.55216 9.28933 1.7998 9.2834C0.962217 9.27201 0.362967 9.89222 0.326056 10.8134L0.328106 10.8173Z" fill="white"/>
</svg>
