<svg width="25" height="24" viewBox="0 0 25 24" fill="none" xmlns="http://www.w3.org/2000/svg">
<path d="M7.2598 20.4396C6.33281 19.7158 5.34234 19.0174 4.66932 18.0269C3.2471 16.3 2.15504 14.2936 1.41853 12.1857C0.961384 10.8142 0.809003 9.34123 0.224876 8.03329C-0.384648 7.08091 0.326463 6.02694 1.38043 5.72218C1.85027 5.63329 2.66297 5.18885 1.6725 5.50631C0.783606 6.15393 0.694717 4.90948 1.609 4.83329C2.23123 4.7444 2.4598 4.23647 2.24392 3.77932C1.57091 3.34758 3.85662 2.86504 2.71376 2.21742C1.52011 0.922182 4.38996 0.680912 3.67884 2.14123C3.51376 3.27139 5.68519 1.93806 5.17726 3.23329C5.68519 3.85552 7.09472 3.37298 7.06932 4.24917C7.81853 4.29996 8.0725 4.93488 8.77091 4.97298C9.49472 5.30313 10.8154 5.5571 11.0693 6.3825C10.3455 6.95393 8.68202 5.20155 8.59313 6.78885C8.809 9.12536 8.75821 11.5254 9.609 13.7603C10.0154 15.1063 10.9931 16.173 11.882 17.2142C12.7328 18.2428 13.8757 18.9666 15.0439 19.5762C16.0725 20.0587 17.1773 20.3762 18.2947 20.5793C18.7519 20.2365 19.5519 18.9412 20.2503 19.4873C20.2884 20.0968 18.8407 20.7698 20.1868 20.6936C20.9741 20.4523 21.5201 21.3031 22.1677 20.5412C22.7646 21.2523 24.6439 20.0968 24.2122 21.5317C23.6408 21.9 22.8027 21.6841 22.2312 22.192C21.2915 21.7222 20.5296 22.6111 19.4884 22.4968C18.3201 22.7 17.1392 22.7889 15.9582 22.7889C14.0281 22.6365 12.0471 22.573 10.2058 21.9C9.18996 21.6206 8.17408 21.0365 7.2598 20.4396ZM8.89789 21.1508C9.91377 21.5825 10.9042 22.0523 12.009 22.192C13.7741 22.4333 15.59 22.8142 17.355 22.4714C16.555 22.1158 15.7296 22.6111 14.9296 22.2174C13.9773 22.4206 12.9487 22.1666 11.9836 22.0396C10.8788 21.5444 9.68519 21.2142 8.65662 20.5666C7.36138 20.0968 9.32964 21.1762 9.6725 21.265C10.4852 21.7222 8.78361 21.0238 8.54234 20.8333C7.86932 20.4523 7.78043 20.5285 8.47884 20.9222C8.61853 20.9984 8.75821 21.0873 8.89789 21.1508ZM6.96773 19.792C7.94551 20.1603 6.96773 19.1063 6.51059 19.1698C6.30742 18.8269 5.74869 18.6111 6.14234 18.4206C5.43123 18.6619 5.39313 17.4809 5.06297 17.646C4.31376 17.4047 4.77091 16.5666 3.86932 16.046C3.79313 15.5 2.98043 15.0301 2.71376 14.2047C2.59948 13.7857 1.79948 12.5793 2.29472 13.6968C2.71376 14.7761 3.45027 15.7031 4.0598 16.6428C4.54234 17.5317 5.10107 18.446 5.96456 19.0047C6.28202 19.2714 6.56138 19.7031 6.96773 19.792ZM4.14869 16.6936C4.18678 16.5412 4.32646 17.0111 4.14869 16.6936V16.6936ZM8.14869 20.2238C7.83123 20.1095 8.36456 20.1349 8.14869 20.2238V20.2238ZM8.68202 20.4142C8.44075 20.5666 8.61853 20.1476 8.68202 20.4142V20.4142ZM9.34234 20.6936C8.8598 20.5031 9.6598 20.4016 9.34234 20.6936V20.6936ZM10.4852 21.3285C9.87567 21.2269 10.6757 21.0492 10.4852 21.3285V21.3285ZM8.30107 19.8047C7.65345 19.8047 8.78361 19.4873 8.30107 19.8047V19.8047ZM8.7963 20.0587C8.61853 20.1349 8.78361 19.8809 8.7963 20.0587V20.0587ZM11.2979 21.6206C11.7042 21.8746 13.6471 22.1793 12.4281 21.7222C12.2122 21.7603 10.1677 21.1381 11.2979 21.6206ZM7.32329 18.5222C6.70107 18.3444 7.28519 18.3571 7.32329 18.5222V18.5222ZM8.49154 19.2079C7.85662 19.0428 8.7963 18.992 8.49154 19.2079V19.2079ZM9.46932 19.8047C8.75821 19.6396 9.90107 19.6396 9.46932 19.8047V19.8047ZM6.85345 18.0142C7.32329 18.3698 8.75821 18.065 7.57726 17.7984C7.04392 17.5063 5.83757 17.3158 6.65027 17.9762L6.85345 18.0142ZM10.1296 20.0079C9.30424 19.8174 10.3328 19.6777 10.1296 20.0079V20.0079ZM9.13916 19.2206C10.2947 19.5508 8.17408 18.4968 8.8598 19.1063L9.01218 19.1698L9.13916 19.2206ZM11.1328 20.3762C10.1423 20.2238 12.2249 20.3889 11.1328 20.3762V20.3762ZM6.4344 17.3793C6.16773 17.392 6.3963 17.1761 6.4344 17.3793V17.3793ZM12.9741 21.4047C12.6185 21.6841 13.0122 21.0365 12.9741 21.4047V21.4047ZM8.30107 18.5222C7.95821 18.5095 8.22488 18.3317 8.30107 18.5222V18.5222ZM6.53599 17.2523C5.68519 16.973 7.15821 17.2142 6.53599 17.2523V17.2523ZM4.45345 15.9063C3.76773 15.3603 4.37726 15.6015 4.45345 15.9063V15.9063ZM9.92646 19.373C9.81218 19.246 9.87567 19.3984 9.92646 19.373V19.373ZM13.3296 21.4682C13.1392 21.5444 13.3169 21.265 13.3296 21.4682V21.4682ZM9.6217 19.0682C9.08837 18.992 9.68519 18.8015 9.6217 19.0682V19.0682ZM7.08202 17.4555C6.34551 17.1381 7.55186 17.4047 7.08202 17.4555V17.4555ZM11.3741 20.1222C10.663 19.9825 12.0979 19.8301 11.3741 20.1222V20.1222ZM9.13916 18.6111C9.97726 18.7254 8.14869 18.0396 8.96138 18.5476L9.13916 18.6111ZM12.0598 20.4015C12.8471 19.9317 12.5804 21.4936 13.3804 20.5285C14.1677 19.9571 12.6947 21.2396 13.6725 20.6301C14.3836 20.1603 15.4249 20.8587 16.0725 21.0746C16.5423 21.0492 16.9995 21.4809 17.4947 21.2269C18.4344 20.973 15.6661 20.8587 16.39 20.4015C15.5392 20.6555 14.9042 20.1095 14.4852 19.5635C13.5328 19.3476 12.4154 18.8523 11.9455 18.0015C11.755 17.6841 12.2249 18.0523 11.7804 17.5317C11.209 17.0238 10.9169 16.4396 10.5233 15.8047C10.0661 15.5635 10.0027 14.8269 9.96456 15.7793C9.96456 15.1825 9.40583 14.7761 9.26615 14.9412C9.26615 14.3698 9.86297 14.6492 9.44392 14.2301C9.35503 13.6333 9.05027 13.0111 8.96138 12.3381C8.8217 12.0079 8.93599 11.3095 8.47884 12.046C8.31377 12.8206 8.42805 11.0936 8.68202 11.665C9.02488 11.0809 8.55503 11.1444 8.54234 11.2333C8.75821 10.7381 8.68202 10.0396 8.47884 10.3063C8.59313 9.78567 8.66932 8.38885 8.30107 8.63012C8.51694 8.08409 8.72011 6.12853 7.76773 6.87774C7.37408 6.87774 6.70107 7.01742 6.38361 7.1825C7.37408 7.72853 6.28202 7.38567 5.87567 7.29679C5.82488 7.80472 5.41853 7.58885 4.92329 7.58885C5.72329 7.69044 4.52964 8.41425 4.0725 8.13488C3.47567 8.41425 4.59313 9.13805 4.08519 9.35393C4.14869 9.68409 3.17091 9.23964 3.2471 10.0015C2.66297 9.76028 3.17091 10.9158 3.46297 10.5222C4.45345 10.7888 4.16138 11.3984 4.18678 11.9698C4.0217 12.3127 3.39948 11.1825 4.0471 11.2333C3.52646 10.3952 3.47567 10.9285 3.04392 11.3222C2.94234 11.3476 4.13599 11.8809 3.38678 12.1349C4.0471 12.2365 4.0598 12.8079 4.19948 13.1762C4.59313 13.5825 4.51694 12.719 4.98678 13.2142C4.68202 12.7698 3.39948 11.9698 4.44075 12.2238C4.44075 11.7793 4.25027 11.4238 4.56773 11.4365C4.88519 10.865 4.23757 12.8333 4.94869 12.1222C5.13916 12.0333 5.18996 11.5508 5.54551 12.173C6.05345 12.6809 5.73599 13.0365 5.01218 12.5793C5.13916 13.0111 5.97726 13.1762 5.82488 13.8619C5.98995 14.4587 6.21853 14.2428 6.4217 14.2047C6.58678 14.7888 6.67567 14.3571 6.67567 14.0777C7.39948 14.2301 7.2344 14.6619 7.46297 14.9666C7.97091 15.1952 6.73916 13.4301 7.60265 14.4333C8.51694 15.2587 7.94551 15.6015 7.13281 15.4619C7.65345 15.4238 7.81853 16.1603 8.46615 16.1349C9.05027 16.4142 9.45662 17.4936 8.44075 17.0365C8.08519 16.719 6.84075 16.3254 7.85662 16.9349C8.7963 17.3666 9.54551 17.6333 10.4471 18.1793C11.0947 18.6365 11.3741 19.1698 11.6154 19.2714C11.0693 19.5254 9.97726 19.0682 10.79 18.9158C10.282 18.8269 9.71059 18.5603 10.1931 19.1952C10.6122 19.5381 11.6534 19.5 11.8439 19.5381C11.6788 19.8936 11.4122 19.919 11.8566 19.9444C11.3614 20.2111 12.009 20.2492 12.0598 20.4015ZM11.0439 17.5571C10.7392 17.2396 10.663 16.6555 10.9931 17.1635C11.1582 17.2396 11.5265 18.1285 11.0439 17.5571ZM14.3201 19.6396C14.3328 19.7793 14.5106 19.6269 14.3201 19.6396V19.6396ZM10.5741 16.7952C10.5614 16.3127 10.6884 17.1508 10.5741 16.7952V16.7952ZM10.2566 16.3508C9.87567 15.6269 10.7265 16.5539 10.2566 16.3508V16.3508ZM6.30742 13.6333C6.409 14.0015 6.52329 13.5698 6.30742 13.6333V13.6333ZM9.44392 15.3349C9.58361 14.8142 9.609 15.7539 9.44392 15.3349V15.3349ZM7.2217 13.7857C7.06932 13.5063 7.55186 14.0523 7.2217 13.7857V13.7857ZM9.12646 14.3952C8.77091 13.5952 9.38043 13.9635 9.20265 14.5222L9.12646 14.3952ZM5.85027 12.2111C5.68519 11.9444 5.43122 11.1825 5.50742 10.9412C5.58361 11.3222 6.32011 12.592 5.86297 11.4619C5.36773 10.5222 6.4598 11.7666 6.57408 12.0079C6.62488 12.2365 6.26932 11.9444 6.51059 12.4904C6.06615 11.8682 6.25662 12.8333 5.85027 12.2111ZM4.8344 11.5127C4.8725 10.9031 5.06297 11.9317 4.8344 11.5127V11.5127ZM5.29154 11.665C5.50742 11.2079 5.6598 12.3127 5.29154 11.665V11.665ZM4.18678 10.8142C3.80583 10.4333 3.53916 10.0904 4.19948 10.5857C4.45345 10.5984 3.62805 9.79837 4.26297 10.3317C4.93599 10.4587 4.60583 11.4238 4.18678 10.8142ZM4.77091 10.8015C4.88519 11.0174 4.98678 10.5857 4.77091 10.8015V10.8015ZM5.12646 10.9158C4.7963 10.2936 5.53281 11.1825 5.12646 10.9158V10.9158ZM4.41535 10.2428C3.32329 9.26504 5.79948 10.7508 4.59313 10.4206L4.41535 10.2428ZM7.56456 12.0714C7.09472 11.792 7.43757 10.065 7.60265 11.246C8.0598 11.0936 7.57726 11.8555 7.92011 11.8428C7.86932 12.3254 7.71694 12.4904 7.56456 12.0714ZM8.73281 12.7571C8.77091 12.2365 8.8217 13.1127 8.73281 12.7571V12.7571ZM8.52964 12.5539C8.52964 12.8206 8.58043 12.3381 8.52964 12.5539V12.5539ZM4.63122 9.92536C3.92011 8.94758 6.67567 10.9158 5.08837 10.1666C4.92329 10.1285 4.72011 10.1031 4.63122 9.92536ZM6.87884 11.1063C6.80265 10.2936 7.01853 11.246 6.87884 11.1063V11.1063ZM8.58043 12.1984C8.58043 12.5031 8.70742 11.7285 8.58043 12.1984V12.1984ZM4.74551 9.5444C5.16456 9.45551 6.48519 10.2809 5.27884 9.78567C5.13916 9.63329 4.8471 9.70948 4.74551 9.5444ZM8.33916 11.3476C8.38996 10.5095 8.59313 10.8523 8.33916 11.4619V11.3476ZM5.05027 9.25234C5.21535 8.99837 4.59313 8.12218 5.13916 8.93488C5.36773 9.12536 5.82488 9.25234 5.43123 9.32853C6.05345 9.87456 5.27884 9.48091 5.05027 9.25234ZM8.16138 11.0809C8.26297 11.6396 8.27567 10.1285 8.16138 11.0809V11.0809ZM4.69472 8.37615C4.77091 8.55393 4.8217 8.32536 4.69472 8.37615V8.37615ZM5.50742 8.85869C5.71059 8.41425 5.88837 9.34123 5.50742 8.85869V8.85869ZM7.79313 10.1285C7.79313 9.96345 7.84392 10.3825 7.79313 10.1285V10.1285ZM7.66615 9.83647C7.34869 9.04917 7.95821 10.2555 7.66615 9.83647V9.83647ZM7.46297 9.32853C7.41218 8.99837 7.65345 9.73488 7.46297 9.32853V9.32853ZM7.78043 8.8079C7.56456 8.42694 8.0598 7.11901 8.11059 7.93171C7.88202 8.56663 8.0471 8.92218 8.19948 8.07139C8.50424 7.39837 8.14869 9.37932 7.78043 8.8079ZM8.11059 6.86504C8.13599 7.00472 8.21218 6.75075 8.11059 6.86504V6.86504ZM7.56456 17.5952C7.43757 17.4809 7.58996 17.6714 7.56456 17.5952V17.5952ZM8.69472 18.1666C9.31694 18.3317 9.31694 18.065 8.74551 17.9888C8.44075 17.7095 7.48837 17.4047 8.33916 17.9508C8.40265 18.1031 8.58043 18.0904 8.69472 18.1666ZM6.47249 16.6936C6.81535 16.9476 7.76773 17.4174 6.96773 16.7952C7.2344 16.4777 6.4471 16.3127 6.71377 16.0968C6.04075 15.6904 6.19313 15.7285 6.65027 15.7412C5.85027 15.3857 6.76456 15.4111 6.72646 15.2206C6.4217 15.1571 5.18996 14.6746 5.91377 15.2587C5.17726 14.8904 5.73599 15.3984 5.52011 15.3476C4.77091 15.1444 6.19313 15.919 5.40583 15.7285C5.83757 16.0714 6.56138 16.6047 5.58361 16.0841C5.44392 16.2746 6.26932 16.5539 6.47249 16.6936ZM7.65345 17.3666C6.94234 16.8079 9.07567 17.8238 7.65345 17.3666V17.3666ZM13.6598 21.0111C13.4566 21.2523 13.6725 20.719 13.6598 21.0111V21.0111ZM14.2693 21.265C14.5995 20.9476 14.282 21.773 14.8154 21.1889C14.8154 20.7698 14.8027 20.5158 14.2058 21.0365C14.0408 21.1254 13.9646 21.5063 14.2693 21.265ZM4.46615 15.1063C3.76773 14.7127 4.36456 14.7127 4.46615 15.1063V15.1063ZM5.12646 15.5381C4.25027 15.1698 4.88519 15.1317 5.12646 15.5381V15.5381ZM8.88519 17.7984C9.25345 18.1285 10.5614 18.0396 9.32964 17.8365C9.13916 17.5698 8.16138 17.6333 8.88519 17.7984ZM14.0408 20.9857C13.4947 21.2015 14.5995 20.5158 14.0408 20.9857V20.9857ZM15.209 21.7984C14.9677 21.8619 15.209 21.646 15.209 21.7984V21.7984ZM15.209 21.5825C14.6122 21.6206 15.8312 20.9222 15.209 21.5825V21.5825ZM2.85345 13.7476C2.32011 12.9857 2.52329 12.6428 2.01535 12.0333C1.91376 11.5635 1.13916 10.4841 1.609 11.6269C2.04075 12.2873 2.16773 13.3158 2.85345 13.7476ZM15.0185 21.3666C14.5487 21.0492 16.1614 20.6301 15.0185 21.3666V21.3666ZM15.8947 21.7095C15.5265 21.6079 16.4661 21.2269 15.8947 21.7095V21.7095ZM4.27567 14.2682C3.84392 14.2428 4.44075 14.0269 4.27567 14.2682V14.2682ZM15.7042 21.4809C16.263 21.1254 15.5773 21.1762 15.6027 21.519L15.7042 21.4809ZM8.14869 16.719C7.85662 16.7444 8.13599 16.4777 8.14869 16.719V16.719ZM8.61853 16.9857C8.38996 17.0365 8.46615 16.6809 8.61853 16.9857V16.9857ZM16.6058 21.7222C17.3169 21.2015 16.1741 21.6206 16.4534 21.8238L16.6058 21.7222ZM16.3265 21.5952C15.7169 21.8111 16.9106 21.1 16.3265 21.5952V21.5952ZM17.7233 22.5222C17.2534 22.4333 18.1169 22.2555 17.7233 22.5222V22.5222ZM4.63122 14.0904C5.15186 14.2047 6.72646 15.373 5.79948 14.1666C5.32964 14.0269 5.609 12.8714 5.12646 13.0746C5.45662 13.6206 5.39313 13.8492 4.70742 13.5063C3.85662 13.0873 4.22488 13.7095 4.38996 13.8873C4.17408 13.9381 4.69472 14.0904 4.63122 14.0904ZM2.24392 12.2111C2.33281 11.8301 1.38043 10.0777 1.78678 11.3349C1.95186 11.6015 1.92646 12.0968 2.24392 12.2111ZM6.62488 14.9031C6.35821 14.6873 6.61218 14.8777 6.62488 14.9031V14.9031ZM7.28519 15.0682C6.54869 14.8904 7.28519 14.6492 7.28519 15.0682V15.0682ZM13.0376 18.6873C12.6058 18.6746 12.9233 18.4079 13.0376 18.6873V18.6873ZM13.3042 18.8904C13.1519 18.9158 13.2661 18.7254 13.3042 18.8904V18.8904ZM15.59 20.3254C15.3106 20.3 15.8058 20.1603 15.59 20.3254V20.3254ZM3.43758 12.5158C2.76456 12.3381 4.0725 12.2746 3.43758 12.5158V12.5158ZM12.5296 18.2428C12.1233 18.3444 12.5169 17.8365 12.5296 18.2428V18.2428ZM3.19631 11.9444C2.81535 11.8555 3.58996 11.8047 3.19631 11.9444V11.9444ZM4.36456 12.5031C4.23757 12.5539 4.35186 12.3762 4.36456 12.5031V12.5031ZM18.6122 21.2396C19.1328 21.1381 20.3138 21.5063 20.5042 21.1C19.8693 21.0873 18.3328 20.6555 18.2566 21.2015L18.3963 21.2269L18.6122 21.2396ZM4.73281 12.6047C4.41535 12.5793 4.74551 12.1857 4.73281 12.6047V12.6047ZM1.6598 10.4714C1.12646 10.3444 1.52011 9.68409 1.6598 10.4714V10.4714ZM2.3963 10.6492C1.72329 10.4206 2.3963 10.3952 2.3963 10.6492V10.6492ZM2.81535 10.8523C2.68837 10.7635 2.71377 10.9793 2.81535 10.8523V10.8523ZM5.44392 12.5412C5.15186 12.465 5.57091 12.4269 5.44392 12.5412V12.5412ZM2.53599 10.3952C1.68519 10.3063 2.4598 9.79837 2.53599 10.3952V10.3952ZM1.02488 9.41742C0.885193 9.51901 1.01218 9.15075 1.02488 9.41742V9.41742ZM1.25345 9.25234C1.06297 9.29044 1.21535 8.92218 1.25345 9.25234V9.25234ZM2.48519 9.98885C3.00583 9.78567 1.53281 9.5698 2.38361 9.95075L2.48519 9.98885ZM19.0058 20.1857C18.5868 20.0968 19.3487 19.8809 19.0058 20.1857V20.1857ZM20.9995 21.2269C20.6693 21.2777 21.1392 20.8333 20.9995 21.2269V21.2269ZM2.61218 9.34123C2.20583 9.41742 2.67567 8.96028 2.61218 9.34123V9.34123ZM0.859797 8.16028C0.770908 7.61425 0.783606 6.67456 1.68519 6.99202C0.478844 7.23329 2.52329 8.49044 2.25662 7.49996C2.76456 7.52536 3.2471 7.1952 2.98043 7.69044C3.98361 7.57615 4.66932 6.71266 5.6344 6.83964C6.38361 6.73806 7.209 6.66186 8.0217 6.3571C8.68202 6.30631 9.32964 5.5952 8.96138 5.16345C8.0598 5.08726 7.10742 5.20155 6.10424 5.40472C4.98678 5.63329 3.97091 6.07774 2.85345 6.26821C1.76138 6.42059 3.06932 6.67456 2.76456 6.72536C2.19313 6.92853 3.45027 7.05552 2.68837 7.27139C2.21853 7.1825 1.73599 7.01742 1.93916 6.53488C0.897892 6.67456 -0.0290923 7.10631 0.796305 8.17298L0.859797 8.16028ZM3.38678 6.87774C3.62805 5.97615 4.70742 7.62694 3.79313 6.99202C3.67884 6.91583 3.48837 6.85234 3.38678 6.87774ZM3.42488 6.44599C3.61535 6.58567 3.78043 6.17933 3.42488 6.44599V6.44599ZM3.88202 6.44599C3.92011 6.02694 4.91059 6.66186 4.0471 6.59837L3.88202 6.44599ZM4.49154 6.20472C4.55503 6.43329 4.72011 5.93806 4.49154 6.20472V6.20472ZM4.65662 6.09044C5.02488 5.64599 6.77726 5.79837 5.49472 6.05234C5.15186 5.79837 4.88519 6.20472 4.65662 6.09044ZM6.92964 5.74758C6.86615 4.51583 8.0598 6.17933 6.92964 5.74758V5.74758ZM7.57726 5.73488C7.81853 5.11266 8.49154 5.48091 7.69154 5.6079C7.70424 5.68409 7.65345 5.93805 7.57726 5.73488ZM2.35821 9.02377C1.609 8.64282 3.06932 8.59202 2.35821 9.02377V9.02377ZM2.87884 9.16345C2.34551 9.06186 3.13281 8.90948 2.87884 9.16345V9.16345ZM1.34234 8.07139C0.872495 7.9571 1.74869 7.76663 1.34234 8.07139V8.07139ZM22.1804 21.1127C21.8757 21.2777 22.1931 20.7571 22.1804 21.1127V21.1127ZM20.0598 19.665C19.7931 19.7031 20.1233 19.2587 20.0598 19.665V19.665ZM22.7646 21.2523C23.3233 21.2523 24.4788 21.0746 23.2471 21.0746C23.0566 21.1127 22.1296 21.1 22.7646 21.2523ZM3.33599 8.90948C3.79313 8.88409 4.0471 8.40155 3.2471 8.43964C2.00265 8.31266 4.33916 8.87139 3.08202 8.70631C2.92964 8.82059 3.33599 8.94758 3.33599 8.90948ZM3.74234 9.11266C3.60265 9.27774 3.69154 8.8206 3.74234 9.11266V9.11266ZM4.22488 7.84282C3.94551 7.77933 4.41535 7.60155 4.22488 7.84282V7.84282ZM2.70107 5.30313C3.51377 5.02377 4.63123 4.71901 5.01218 5.44282C4.61853 4.97298 4.8598 4.50313 5.22805 5.20155C5.74869 5.89996 6.01535 4.88409 5.6725 4.65552C6.06615 5.13806 6.49789 5.36663 5.92646 4.68091C6.54869 3.93171 4.69472 4.7825 4.26297 4.7698C4.0725 4.85869 2.18043 5.25234 2.70107 5.30313ZM3.18361 4.40155C3.65345 4.04599 4.78361 4.60472 4.0598 4.05869C3.98361 3.9825 2.4471 4.46504 3.18361 4.40155ZM4.8725 4.46504C5.41853 4.47774 4.64392 3.72853 5.29154 4.07139C5.18996 3.72853 4.54234 3.66504 4.22488 3.52536C4.0344 3.84282 4.58043 4.46504 4.8725 4.46504ZM3.47567 2.92853C3.14551 3.05552 3.66615 2.67456 3.47567 2.92853V2.92853ZM4.16138 3.09361C5.03757 2.97933 3.93281 2.71266 3.98361 3.08091L4.16138 3.09361ZM2.87884 2.07774C2.25662 1.27774 4.0344 2.21742 3.41218 1.36663C2.87884 0.960277 2.37091 1.84917 2.87884 2.07774ZM10.79 6.3444C11.0693 5.84917 9.6217 5.67139 10.5995 6.16663C10.6884 6.20472 10.6757 6.3825 10.79 6.3444Z" fill="white"/>
</svg>
