<svg width="24" height="24" viewBox="0 0 24 24" fill="none" xmlns="http://www.w3.org/2000/svg">
<path d="M23.9037 11.4759C23.7326 11.3092 21.536 8.61495 21.1652 8.17053C20.7658 7.72611 20.5946 7.80943 20.3379 7.83721C20.0812 7.86499 17.3141 8.33718 17.0003 8.36496C16.6865 8.42051 16.4868 8.53162 16.6865 8.80938C16.8576 9.05937 18.6833 11.5592 19.0827 12.1425L11.8084 13.8369L6.04604 4.42073C5.81783 4.08742 5.76078 3.97631 5.2473 4.00409C4.73382 4.03186 0.711563 4.36518 0.426297 4.36518C0.14103 4.39295 -0.172763 4.50406 0.112504 5.17069C0.39777 5.83732 4.96203 15.3924 5.07614 15.6701C5.19025 15.9479 5.53257 16.3923 6.30278 16.2256C7.10153 16.0312 9.84009 15.3368 11.352 14.9479C12.1507 16.3367 13.7482 19.1699 14.062 19.5866C14.4614 20.1421 14.7467 20.031 15.3457 19.8643C15.8307 19.7254 22.8197 17.2811 23.1335 17.1423C23.4473 17.0034 23.647 16.92 23.4188 16.6145C23.2476 16.3923 21.4219 13.9758 20.452 12.7258C21.1081 12.5592 23.4758 11.9481 23.7326 11.8648C24.0178 11.7814 24.0749 11.6426 23.9037 11.4759ZM10.6959 14.1146C10.6103 14.1424 6.531 15.0868 6.33131 15.1424C6.1031 15.1979 6.1031 15.1701 6.1031 15.0868C6.04604 15.0035 1.25357 5.33735 1.16799 5.22624C1.11094 5.11514 1.11094 5.00403 1.16799 5.00403C1.22504 5.00403 5.01909 4.67072 5.13319 4.67072C5.27583 4.67072 5.2473 4.69849 5.30435 4.78182C5.30435 4.78182 10.6388 13.7536 10.7244 13.8924C10.8385 14.0313 10.7815 14.0869 10.6959 14.1146ZM22.1636 16.1979C22.2206 16.309 22.3062 16.3645 22.078 16.4201C21.8783 16.5034 15.2031 18.6977 15.0605 18.7533C14.9178 18.8088 14.8323 18.8366 14.6611 18.5866C14.4899 18.3366 12.3219 14.6979 12.3219 14.6979L19.425 12.8925C19.5962 12.8369 19.6533 12.8092 19.7674 12.9758C19.8815 13.1703 22.1065 16.1145 22.1636 16.1979ZM22.62 11.3092C22.4489 11.337 19.8529 11.9759 19.8529 11.9759L17.7134 9.14269C17.6564 9.05937 17.5993 8.97604 17.742 8.94826C17.8846 8.92048 20.3094 8.50384 20.4235 8.47606C20.5376 8.44829 20.6232 8.42051 20.7658 8.61495C20.9084 8.7816 22.7341 11.0593 22.8197 11.1426C22.9053 11.2259 22.7912 11.2815 22.62 11.3092Z" fill="#FB503B"/>
</svg>
