<svg width="24" height="24" viewBox="0 0 24 24" fill="none" xmlns="http://www.w3.org/2000/svg">
<path d="M5.66299 8.7818H10.1896V9.14211H6.07793V11.8539H9.94442V12.2142H6.07793V15.1914H10.2368V15.5518H5.66299V8.7818ZM10.5951 8.7818H11.0761L13.2074 11.7591L15.3858 8.7818L18.3488 5L13.4808 12.072L15.9893 15.5518H15.4895L13.2074 12.3849L10.9158 15.5518H10.4254L12.9527 12.072L10.5951 8.7818ZM16.1685 9.14211V8.7818H21.327V9.14211H18.9505V15.5518H18.5356V9.14211H16.1685ZM0 8.7818H0.518675L7.6709 19.5L4.71523 15.5518L0.433801 9.29382L0.41494 15.5518H0V8.7818ZM21.2852 15.0827C21.2004 15.0827 21.1368 15.0169 21.1368 14.9319C21.1368 14.8469 21.2004 14.7811 21.2852 14.7811C21.371 14.7811 21.4335 14.8469 21.4335 14.9319C21.4335 15.0169 21.371 15.0827 21.2852 15.0827ZM21.6929 14.686H21.9149C21.918 14.8064 22.0058 14.8874 22.1349 14.8874C22.2793 14.8874 22.361 14.8004 22.361 14.6374V13.6052H22.5871V14.6384C22.5871 14.9319 22.4175 15.1009 22.137 15.1009C21.8736 15.1009 21.6929 14.937 21.6929 14.686ZM22.8828 14.6728H23.1068C23.126 14.8115 23.2612 14.8995 23.456 14.8995C23.6377 14.8995 23.7709 14.8054 23.7709 14.6759C23.7709 14.5646 23.6861 14.4978 23.4934 14.4522L23.3056 14.4067C23.0422 14.345 22.9221 14.2174 22.9221 14.0029C22.9221 13.7428 23.1341 13.5698 23.452 13.5698C23.7477 13.5698 23.9637 13.7428 23.9768 13.9887H23.7568C23.7356 13.8541 23.6185 13.7701 23.449 13.7701C23.2703 13.7701 23.1512 13.8562 23.1512 13.9877C23.1512 14.092 23.2279 14.1517 23.4177 14.1962L23.5781 14.2357C23.8769 14.3055 24 14.4269 24 14.6465C24 14.9259 23.784 15.1009 23.4389 15.1009C23.1159 15.1009 22.8989 14.9339 22.8828 14.6728Z" fill="white"/>
</svg>
