<svg width="1519" height="317" viewBox="0 0 1519 317" fill="none" xmlns="http://www.w3.org/2000/svg">
<circle cx="1367" cy="110.025" r="2" fill="white"/>
<circle cx="1064" cy="13" r="2" fill="white"/>
<circle cx="644" cy="315" r="2" fill="white"/>
<circle cx="334" cy="233" r="2" fill="white"/>
<circle cx="2" cy="300" r="2" fill="white"/>
<circle cx="144" cy="27" r="2" fill="white"/>
<circle cx="1517" cy="315" r="2" fill="white"/>
<path d="M1405.5 43.125L1403.5 43.925C1403.3 44.025 1403 44.325 1402.9 44.525L1402.1 46.525C1401.7 47.525 1400.3 47.425 1399.9 46.425L1399.3 44.325C1399.2 43.925 1398.9 43.625 1398.5 43.525L1396.8 43.025C1395.7 42.725 1395.7 41.125 1396.8 40.825L1398.5 40.325C1398.9 40.225 1399.1 39.925 1399.3 39.525L1399.8 37.825C1400.1 36.725 1401.7 36.725 1402 37.825L1402.5 39.525C1402.6 39.925 1402.9 40.125 1403.3 40.325L1405.5 41.025C1406.5 41.325 1406.5 42.725 1405.5 43.125Z" fill="white"/>
<path d="M1098.52 279.125L1096.53 279.925C1096.33 280.025 1096.03 280.325 1095.93 280.525L1095.12 282.525C1094.72 283.525 1093.33 283.425 1092.93 282.425L1092.33 280.325C1092.23 279.925 1091.93 279.625 1091.53 279.525L1089.83 279.025C1088.73 278.725 1088.73 277.125 1089.83 276.825L1091.53 276.325C1091.93 276.225 1092.12 275.925 1092.33 275.525L1092.83 273.825C1093.12 272.725 1094.72 272.725 1095.03 273.825L1095.53 275.525C1095.62 275.925 1095.93 276.125 1096.33 276.325L1098.52 277.025C1099.52 277.325 1099.52 278.725 1098.52 279.125Z" fill="white"/>
<path d="M824.525 21.125L822.525 21.925C822.325 22.025 822.025 22.325 821.925 22.525L821.125 24.525C820.725 25.525 819.325 25.425 818.925 24.425L818.325 22.325C818.225 21.925 817.925 21.625 817.525 21.525L815.825 21.025C814.725 20.725 814.725 19.125 815.825 18.825L817.525 18.325C817.925 18.225 818.125 17.925 818.325 17.525L818.825 15.825C819.125 14.725 820.725 14.725 821.025 15.825L821.525 17.525C821.625 17.925 821.925 18.125 822.325 18.325L824.525 19.025C825.525 19.325 825.525 20.725 824.525 21.125Z" fill="white"/>
<path d="M226.525 269.125L224.525 269.925C224.325 270.025 224.025 270.325 223.925 270.525L223.125 272.525C222.725 273.525 221.325 273.425 220.925 272.425L220.325 270.325C220.225 269.925 219.925 269.625 219.525 269.525L217.825 269.025C216.725 268.725 216.725 267.125 217.825 266.825L219.525 266.325C219.925 266.225 220.125 265.925 220.325 265.525L220.825 263.825C221.125 262.725 222.725 262.725 223.025 263.825L223.525 265.525C223.625 265.925 223.925 266.125 224.325 266.325L226.525 267.025C227.525 267.325 227.525 268.725 226.525 269.125Z" fill="white"/>
<path d="M69.525 6.125L67.525 6.925C67.325 7.025 67.025 7.325 66.925 7.525L66.125 9.525C65.725 10.525 64.325 10.425 63.925 9.425L63.325 7.325C63.225 6.925 62.925 6.625 62.525 6.525L60.825 6.025C59.725 5.725 59.725 4.125 60.825 3.825L62.525 3.325C62.925 3.225 63.125 2.925 63.325 2.525L63.825 0.825C64.125 -0.275 65.725 -0.275 66.025 0.825L66.525 2.525C66.625 2.925 66.925 3.125 67.325 3.325L69.525 4.025C70.525 4.325 70.525 5.725 69.525 6.125Z" fill="white"/>
</svg>
