<svg width="782" height="1356" viewBox="0 0 782 1356" fill="none" xmlns="http://www.w3.org/2000/svg">
<path opacity="0.5" d="M661.7 924.964C652.857 947.211 642.106 968.52 629.421 988.794C572.051 1079.53 462.09 1157.14 352.295 1104.77C317.742 1088.25 289.918 1059.37 254.248 1045.63C210.032 1028.6 160.203 1036.98 114.626 1050.02C26.316 1075.13 -56.8986 1116.17 -145.486 1140.63C-234.073 1165.09 -332.738 1171.65 -414.248 1129.41C-495.759 1087.16 -550.197 984.454 -514.799 899.808C-494.187 850.389 -448.256 815.099 -426.909 766.104C-400.751 706.089 -415.495 637.156 -412.809 571.835C-408.84 476.147 -365.63 384.335 -301.454 313.202C-237.278 242.068 -153.316 190.686 -63.9222 156.484C35.6896 118.301 145.806 100.391 249.763 124.403C358.566 149.498 448.185 233.981 511.142 322.503C584.035 424.927 656.08 540.416 682.285 664.874C700.315 750.319 694.235 843.156 661.7 924.964Z" fill="#EEEDE4"/>
</svg>
