<svg width="470" height="851" viewBox="0 0 470 851" fill="none" xmlns="http://www.w3.org/2000/svg">
<path opacity="0.5" d="M503.789 838.254C501.107 853.519 389.065 851.189 375.425 850.373C331.004 847.693 287.05 838.021 245.545 822.057C164.166 790.596 85.9352 738.16 44.6628 659.856C-4.65418 566.287 -17.9453 449.646 29.3897 352.465C51.6581 306.555 83.6034 266.121 115.898 226.619C154.139 179.66 193.663 133.167 241.231 95.6461C281.687 63.7185 328.206 38.7823 378.922 28.2951C431.97 17.3419 479.888 -2.81682 535.851 0.329327C566.98 2.07719 597.992 9.76778 625.624 24.3333C637.283 30.5091 656.053 39.598 663.515 50.9008C673.308 65.5828 667.829 74.3222 663.632 92.1503C645.56 169.289 627.839 246.428 610.351 323.567C575.374 477.263 541.913 631.424 513.116 786.401C509.968 803.647 506.82 820.892 503.789 838.254Z" fill="#EEEDE4"/>
</svg>
