<?xml version="1.0" encoding="UTF-8" standalone="no"?>
<svg
   height="339.33691mm"
   viewBox="0 0 323.53992 339.33691"
   width="323.53992mm"
   version="1.1"
   id="svg1578"
   sodipodi:docname="urgent-ticket-flow.svg"
   inkscape:version="1.1.2 (b8e25be8, 2022-02-05)"
   xmlns:inkscape="http://www.inkscape.org/namespaces/inkscape"
   xmlns:sodipodi="http://sodipodi.sourceforge.net/DTD/sodipodi-0.dtd"
   xmlns="http://www.w3.org/2000/svg"
   xmlns:svg="http://www.w3.org/2000/svg">
  <defs
     id="defs1582" />
  <sodipodi:namedview
     id="namedview1580"
     pagecolor="#ffffff"
     bordercolor="#666666"
     borderopacity="1.0"
     inkscape:pageshadow="2"
     inkscape:pageopacity="0.0"
     inkscape:pagecheckerboard="0"
     inkscape:document-units="mm"
     showgrid="false"
     inkscape:zoom="0.56060926"
     inkscape:cx="610.94246"
     inkscape:cy="684.07718"
     inkscape:window-width="1296"
     inkscape:window-height="969"
     inkscape:window-x="0"
     inkscape:window-y="25"
     inkscape:window-maximized="0"
     inkscape:current-layer="g1576" />
  <marker
     id="a"
     orient="auto"
     overflow="visible"
     refX="0"
     refY="0">
    <path
       d="m0 0 5-5-17.5 5 17.5 5z"
       fill="#46d1eb"
       fill-rule="evenodd"
       stroke="#46d1eb"
       stroke-width="1pt"
       transform="matrix(-.8 0 0 -.8 -10 0)"
       id="path793" />
  </marker>
  <marker
     id="b"
     orient="auto"
     overflow="visible"
     refX="0"
     refY="0">
    <path
       d="m0 0 5-5-17.5 5 17.5 5z"
       fill="#eb4646"
       fill-rule="evenodd"
       stroke="#eb4646"
       stroke-width="1pt"
       transform="matrix(-.8 0 0 -.8 -10 0)"
       id="path796" />
  </marker>
  <linearGradient
     id="c"
     gradientTransform="matrix(0 36.63 -36.63 0 30.03 6.57)"
     gradientUnits="userSpaceOnUse"
     x1="0"
     x2="1"
     y1="0"
     y2="0">
    <stop
       offset="0"
       stop-color="#2684ff"
       id="stop799" />
    <stop
       offset=".82"
       stop-color="#0052cc"
       id="stop801" />
    <stop
       offset="1"
       stop-color="#0052cc"
       id="stop803" />
  </linearGradient>
  <linearGradient
     id="d"
     gradientTransform="matrix(12.27 25.68 -25.68 12.27 19.05 42.17)"
     gradientUnits="userSpaceOnUse"
     x1="0"
     x2="1"
     y1="0"
     y2="0">
    <stop
       offset="0"
       stop-color="#2684ff"
       id="stop806" />
    <stop
       offset=".62"
       stop-color="#0052cc"
       id="stop808" />
    <stop
       offset="1"
       stop-color="#0052cc"
       id="stop810" />
  </linearGradient>
  <linearGradient
     id="e"
     gradientUnits="userSpaceOnUse"
     x1="419.98151052491"
     x2="436.76942099952"
     y1="287.11795049455"
     y2="287.11795049455">
    <stop
       offset="0"
       stop-color="#ea571c"
       id="stop813" />
    <stop
       offset=".1151"
       stop-color="#e95026"
       id="stop815" />
    <stop
       offset=".3315"
       stop-color="#e83e3a"
       id="stop817" />
    <stop
       offset=".6176"
       stop-color="#e61850"
       id="stop819" />
  </linearGradient>
  <g
     transform="translate(-166.6827 39.656577)"
     id="g1576">
    <path
       d="m749.5332 241.34459v611.8962h-357.59375v429.29241h830.88865v-429.29241-611.8962z"
       fill="#efd79d"
       fill-opacity=".384314"
       fill-rule="evenodd"
       opacity=".921"
       transform="matrix(.26458333 0 0 .26458333 166.6827 -39.656577)"
       id="path822" />
    <g
       transform="matrix(.04782336 0 0 .04782336 307.59474 -39.656577)"
       id="g846">
      <circle
         cx="254"
         cy="254"
         fill="#90dfaa"
         r="254"
         id="circle824" />
      <path
         d="m255.2 363.2c-.4 0-.8.4-1.6.4-.4 0-.8-.4-1.6-.4z"
         fill="#e6e9ee"
         id="path826" />
      <path
         d="m458.4 404c-46 62.8-120.8 104-204.8 104s-158.4-40.8-204.8-104c36-38.4 84.8-58.8 125.6-69.2-3.6 29.2 11.6 68.4 12 67.2 15.2-35.2 66.8-38.4 66.8-38.4s51.6 2.8 67.2 38.4c.4.8 15.6-38 12-67.2 41.2 10.4 90 30.8 126 69.2z"
         fill="#e6e9ee"
         id="path828" />
      <path
         d="m316.8 308c0 5.2-3.2 32.8-61.6 55.2h-3.2c-58.4-22.4-61.6-50-61.6-55.2.4-10.4 2.8-20.8 7.2-30.4 16 18 35.2 30 56 30 20.4 0 40-11.6 56-30 4.4 9.6 7.2 20 7.2 30.4z"
         fill="#ffd05b"
         id="path830" />
      <path
         d="m288.4 372.4-12.8 25.6h-44l-12.8-25.6c17.6-7.6 34.8-8.8 34.8-8.8s17.6 1.2 34.8 8.8z"
         fill="#f1543f"
         id="path832" />
      <path
         d="m218 505.6c11.6 1.6 23.6 2.4 36 2.4 12 0 24-.8 36-2.4l-14-107.2h-44z"
         fill="#ff7058"
         id="path834" />
      <path
         d="m316.8 307.2s2.8 32-63.2 56.4c0 0 51.6 2.8 67.2 38.4.4 1.6 30.4-76-4-94.8z"
         fill="#fff"
         id="path836" />
      <path
         d="m190.4 307.2c-34 18.8-4.4 96-3.6 94.8 15.2-35.2 67.2-38.4 67.2-38.4-66.4-24.4-63.6-56.4-63.6-56.4z"
         fill="#fff"
         id="path838" />
      <path
         d="m312.8 285.6c-16.8 18-36.8 29.6-59.2 29.6s-42.4-11.6-59.2-29.6c.8-2.8 2-5.6 3.2-8 16 18 35.2 30 56 30s40-11.6 56-30c1.2 2.4 2.4 5.2 3.2 8z"
         fill="#f9b54c"
         id="path840" />
      <path
         d="m362.8 224.4c-8.4 14-21.2 22.4-30.8 20.8-19.2 35.6-47.2 62-78.4 62s-59.2-26.8-78.4-62c-9.6 1.2-22.4-6.8-30.8-20.8-10-16.4-10.4-34.4-.8-40.4 2.4-1.2 4.8-2 7.6-1.6 6.4 16.4 15.2 26.4 15.2 26.4-9.2-50.8 28.4-56.4 22-105.2 0 0 23.6 52.4 91.2 15.6l-5.2 10c94.4-21.2 62.8 90 62 92.8 10.8-13.6 17.6-27.2 21.6-39.6 1.6 0 3.6.8 4.8 1.6 10.4 5.6 10 24 0 40.4z"
         fill="#ffd05b"
         id="path842" />
      <path
         d="m308 50.8c7.6-.8 20 6 20 6-34-38.8-89.6-14-89.6-14 18.8-16 35.6-14.4 35.6-14.4-79.6-12-93.2 35.6-93.2 35.6-3.6-5.6-3.6-13.6-3.2-17.6-5.6 9.6.4 28.8.4 28.8-5.6-14-25.2-11.6-25.2-11.6 16.8 2.8 19.6 13.2 19.6 13.2-42 15.6-34.8 59.2-34.8 59.2l10-12c-12.4 47.6 19.2 84.4 19.2 84.4-9.2-50.8 28.4-56.4 22-105.2 0 0 23.6 52.4 91.2 15.6l-5.2 10c95.6-21.6 62 93.2 62 93.2 34-43.2 28.8-87.6 28.8-87.6l4 16c10.8-72-61.6-99.6-61.6-99.6z"
         fill="#324a5e"
         id="path844" />
    </g>
    <text
       font-family="sans-serif"
       font-size="5.28881px"
       letter-spacing="0"
       stroke-width="0.13222"
       word-spacing="0"
       x="283.9502"
       y="42.278908"
       id="text850"><tspan
         stroke-width="0.13222"
         x="283.9502"
         y="42.278908"
         id="tspan848">Urgent Priority Issue Filed</tspan></text>
    <g
       transform="matrix(.65161938 0 0 .65161938 253.5698 203.74497)"
       id="g940">
      <text
         font-family="sans-serif"
         font-size="10.583333"
         letter-spacing="0"
         stroke-width=".264583"
         word-spacing="0"
         x="-62.599354"
         y="57.846622"
         id="text854"><tspan
           font-size="9.877778"
           stroke-width=".264583"
           text-anchor="middle"
           x="-62.599354"
           y="57.846622"
           id="tspan852">Cloud Infrastructure Problem</tspan></text>
      <g
         transform="matrix(.57793381 0 0 .57793381 -79.793093 10.248613)"
         id="g938">
        <g
           id="g930">
          <path
             d="m54.892 19h-50.784c-1.992 0-3.608-1.616-3.608-3.608v-11.784c0-1.992 1.616-3.608 3.608-3.608h50.783c1.993 0 3.609 1.616 3.609 3.608v11.783c0 1.993-1.616 3.609-3.608 3.609z"
             fill="#556080"
             id="path856" />
          <path
             d="m54.892 38h-50.784c-1.992 0-3.608-1.616-3.608-3.608v-11.784c0-1.992 1.616-3.608 3.608-3.608h50.783c1.993 0 3.608 1.616 3.608 3.608v11.783c.001 1.993-1.615 3.609-3.607 3.609z"
             fill="#38454f"
             id="path858" />
          <path
             d="m54.892 57h-50.784c-1.992 0-3.608-1.616-3.608-3.608v-11.784c0-1.992 1.616-3.608 3.608-3.608h50.783c1.993 0 3.608 1.616 3.608 3.608v11.783c.001 1.993-1.615 3.609-3.607 3.609z"
             fill="#556080"
             id="path860" />
          <g
             fill="#8697cb"
             id="g928">
            <circle
               cx="10"
               cy="9.5"
               r="3.5"
               id="circle862" />
            <circle
               cx="49.5"
               cy="8"
               r="1"
               id="circle864" />
            <circle
               cx="45.5"
               cy="8"
               r="1"
               id="circle866" />
            <circle
               cx="51.5"
               cy="11"
               r="1"
               id="circle868" />
            <circle
               cx="47.5"
               cy="11"
               r="1"
               id="circle870" />
            <circle
               cx="41.5"
               cy="8"
               r="1"
               id="circle872" />
            <circle
               cx="43.5"
               cy="11"
               r="1"
               id="circle874" />
            <circle
               cx="37.5"
               cy="8"
               r="1"
               id="circle876" />
            <circle
               cx="39.5"
               cy="11"
               r="1"
               id="circle878" />
            <circle
               cx="33.5"
               cy="8"
               r="1"
               id="circle880" />
            <circle
               cx="35.5"
               cy="11"
               r="1"
               id="circle882" />
            <circle
               cx="10"
               cy="28.5"
               r="3.5"
               id="circle884" />
            <circle
               cx="49.5"
               cy="27"
               r="1"
               id="circle886" />
            <circle
               cx="45.5"
               cy="27"
               r="1"
               id="circle888" />
            <circle
               cx="51.5"
               cy="30"
               r="1"
               id="circle890" />
            <circle
               cx="47.5"
               cy="30"
               r="1"
               id="circle892" />
            <circle
               cx="41.5"
               cy="27"
               r="1"
               id="circle894" />
            <circle
               cx="43.5"
               cy="30"
               r="1"
               id="circle896" />
            <circle
               cx="37.5"
               cy="27"
               r="1"
               id="circle898" />
            <circle
               cx="39.5"
               cy="30"
               r="1"
               id="circle900" />
            <circle
               cx="33.5"
               cy="27"
               r="1"
               id="circle902" />
            <circle
               cx="35.5"
               cy="30"
               r="1"
               id="circle904" />
            <circle
               cx="10"
               cy="47.5"
               r="3.5"
               id="circle906" />
            <circle
               cx="49.5"
               cy="46"
               r="1"
               id="circle908" />
            <circle
               cx="45.5"
               cy="46"
               r="1"
               id="circle910" />
            <circle
               cx="51.5"
               cy="49"
               r="1"
               id="circle912" />
            <circle
               cx="47.5"
               cy="49"
               r="1"
               id="circle914" />
            <circle
               cx="41.5"
               cy="46"
               r="1"
               id="circle916" />
            <circle
               cx="43.5"
               cy="49"
               r="1"
               id="circle918" />
            <circle
               cx="37.5"
               cy="46"
               r="1"
               id="circle920" />
            <circle
               cx="39.5"
               cy="49"
               r="1"
               id="circle922" />
            <circle
               cx="33.5"
               cy="46"
               r="1"
               id="circle924" />
            <circle
               cx="35.5"
               cy="49"
               r="1"
               id="circle926" />
          </g>
        </g>
        <g
           id="g936">
          <path
             d="m53.545 48.111c-.051-3.936-3.163-7.111-6.999-7.111-2.568 0-4.806 1.426-6.025 3.546-.421-.141-.87-.22-1.337-.22-2.063 0-3.785 1.492-4.208 3.484-1.755.865-2.976 2.706-2.976 4.831 0 2.948 2.343 5.359 5.208 5.359h10.775c.061 0 .119-.007.18-.009.06.002.119.009.18.009h4.31c2.667 0 4.849-2.245 4.849-4.989-.002-2.43-1.714-4.465-3.957-4.9z"
             fill="#48a0dc"
             id="path932" />
          <path
             d="m52.651 59h-4.31c-.063 0-.126-.004-.188-.008-.047.004-.108.008-.171.008h-10.774c-3.423 0-6.208-2.853-6.208-6.358 0-2.262 1.209-4.372 3.116-5.503.686-2.235 2.746-3.813 5.066-3.813.296 0 .592.025.884.076 1.496-2.116 3.914-3.402 6.48-3.402 4.102 0 7.524 3.225 7.954 7.332 2.358.806 4 3.079 4 5.679 0 3.302-2.624 5.989-5.849 5.989zm-4.537-2.009.186.006 4.351.003c2.122 0 3.849-1.79 3.849-3.989 0-1.917-1.323-3.564-3.146-3.919l-.799-.155-.011-.813c-.043-3.377-2.733-6.124-5.998-6.124-2.135 0-4.063 1.139-5.158 3.045l-.409.711-.777-.261c-.332-.112-.675-.169-1.019-.169-1.54 0-2.898 1.133-3.229 2.692l-.102.475-.435.214c-1.469.725-2.417 2.269-2.417 3.935 0 2.403 1.888 4.358 4.208 4.358z"
             fill="#b1d3ef"
             id="path934" />
        </g>
      </g>
    </g>
    <g
       transform="matrix(.69371638 0 0 .69371638 240.14363 69.167948)"
       id="g992">
      <g
         transform="matrix(.09364717 0 0 .09364717 89.265649 195.77663)"
         id="g986">
        <path
           d="m463 66.8v329.4c0 4.15-3.36 7.5-7.5 7.5h-448c-4.15 0-7.5-3.35-7.5-7.5v-329.4c0-4.14 3.35-7.5 7.5-7.5h448c4.14 0 7.5 3.36 7.5 7.5zm-15 321.9v-244.24h-433v244.24zm0-259.24v-55.16h-433v55.16z"
           id="path942" />
        <path
           d="m448 74.3v55.16h-433v-55.16zm-15.36 41.58v-28c0-4.14-3.36-7.5-7.5-7.5h-318.98c-4.14 0-7.5 3.36-7.5 7.5v28c0 4.14 3.36 7.5 7.5 7.5h318.98c4.14 0 7.5-3.36 7.5-7.5zm-344.31-14c0-1.98-.8-3.91-2.2-5.31-1.39-1.39-3.32-2.19-5.3-2.19-1.97 0-3.91.8-5.31 2.19-1.39 1.4-2.19 3.33-2.19 5.31 0 1.97.8 3.9 2.19 5.3 1.4 1.4 3.34 2.2 5.31 2.2 1.98 0 3.91-.8 5.3-2.2 1.4-1.4 2.2-3.33 2.2-5.3zm-24.24 0c0-1.98-.8-3.91-2.2-5.31-1.39-1.39-3.33-2.19-5.3-2.19s-3.9.8-5.3 2.19c-1.4 1.4-2.2 3.33-2.2 5.31 0 1.97.8 3.91 2.2 5.3 1.4 1.4 3.33 2.2 5.3 2.2s3.91-.8 5.3-2.2c1.4-1.4 2.2-3.33 2.2-5.3zm-24.24 0c0-1.97-.8-3.91-2.19-5.31-1.4-1.39-3.33-2.19-5.31-2.19-1.97 0-3.91.8-5.3 2.19-1.4 1.4-2.2 3.33-2.2 5.31 0 1.97.8 3.91 2.2 5.3 1.4 1.4 3.33 2.2 5.3 2.2 1.98 0 3.91-.8 5.31-2.2 1.39-1.4 2.19-3.33 2.19-5.3z"
           fill="#3dd0f2"
           id="path944" />
        <path
           d="m432.64 87.88v28c0 4.14-3.36 7.5-7.5 7.5h-318.98c-4.14 0-7.5-3.36-7.5-7.5v-28c0-4.14 3.36-7.5 7.5-7.5h318.98c4.14 0 7.5 3.36 7.5 7.5zm-15 20.5v-13h-303.98v13z"
           id="path946" />
        <path
           d="m411.09 284.42v71.34c0 4.14-3.36 7.5-7.5 7.5h-88c-4.14 0-7.5-3.36-7.5-7.5v-71.34c0-4.15 3.36-7.5 7.5-7.5h88c4.14 0 7.5 3.35 7.5 7.5zm-15 63.84v-56.34h-73v56.34z"
           id="path948" />
        <path
           d="m403.59 169.9c4.14 0 7.5 3.36 7.5 7.5 0 4.15-3.36 7.5-7.5 7.5h-88c-4.14 0-7.5-3.35-7.5-7.5 0-4.14 3.36-7.5 7.5-7.5z"
           id="path950" />
        <path
           d="m403.59 205.57c4.14 0 7.5 3.36 7.5 7.5 0 4.15-3.36 7.5-7.5 7.5h-88c-4.14 0-7.5-3.35-7.5-7.5 0-4.14 3.36-7.5 7.5-7.5z"
           id="path952" />
        <path
           d="m403.59 241.25c4.14 0 7.5 3.35 7.5 7.5 0 4.14-3.36 7.5-7.5 7.5h-88c-4.14 0-7.5-3.36-7.5-7.5 0-4.15 3.36-7.5 7.5-7.5z"
           id="path954" />
        <path
           d="m323.09 291.92001h73v56.34h-73z"
           fill="#f48c6c"
           id="path956" />
        <path
           d="m282.99 177.4v71.35c0 4.14-3.35 7.5-7.5 7.5h-87.99c-4.14 0-7.5-3.36-7.5-7.5v-71.35c0-4.14 3.36-7.5 7.5-7.5h87.99c4.15 0 7.5 3.36 7.5 7.5zm-15 63.85v-56.35h-72.99v56.35z"
           id="path958" />
        <path
           d="m275.49 276.92c4.15 0 7.5 3.35 7.5 7.5 0 4.14-3.35 7.5-7.5 7.5h-87.99c-4.14 0-7.5-3.36-7.5-7.5 0-4.15 3.36-7.5 7.5-7.5z"
           id="path960" />
        <path
           d="m275.49 312.59c4.15 0 7.5 3.36 7.5 7.5s-3.35 7.5-7.5 7.5h-87.99c-4.14 0-7.5-3.36-7.5-7.5s3.36-7.5 7.5-7.5z"
           id="path962" />
        <path
           d="m275.49 348.26c4.15 0 7.5 3.36 7.5 7.5s-3.35 7.5-7.5 7.5h-87.99c-4.14 0-7.5-3.36-7.5-7.5s3.36-7.5 7.5-7.5z"
           id="path964" />
        <path
           d="m195 184.89999h72.989998v56.349998h-72.989998z"
           fill="#f48c6c"
           id="path966" />
        <path
           d="m147.4 169.9c4.15 0 7.5 3.36 7.5 7.5 0 4.15-3.35 7.5-7.5 7.5h-87.99c-4.14 0-7.5-3.35-7.5-7.5 0-4.14 3.36-7.5 7.5-7.5z"
           id="path968" />
        <path
           d="m147.4 205.57c4.15 0 7.5 3.36 7.5 7.5 0 4.15-3.35 7.5-7.5 7.5h-87.99c-4.14 0-7.5-3.35-7.5-7.5 0-4.14 3.36-7.5 7.5-7.5z"
           id="path970" />
        <path
           d="m147.4 241.25c4.15 0 7.5 3.35 7.5 7.5 0 4.14-3.35 7.5-7.5 7.5h-87.99c-4.14 0-7.5-3.36-7.5-7.5 0-4.15 3.36-7.5 7.5-7.5z"
           id="path972" />
        <path
           d="m147.4 276.92c4.15 0 7.5 3.35 7.5 7.5 0 4.14-3.35 7.5-7.5 7.5h-87.99c-4.14 0-7.5-3.36-7.5-7.5 0-4.15 3.36-7.5 7.5-7.5z"
           id="path974" />
        <path
           d="m147.4 312.59c4.15 0 7.5 3.36 7.5 7.5s-3.35 7.5-7.5 7.5h-87.99c-4.14 0-7.5-3.36-7.5-7.5s3.36-7.5 7.5-7.5z"
           id="path976" />
        <path
           d="m147.4 348.26c4.15 0 7.5 3.36 7.5 7.5s-3.35 7.5-7.5 7.5h-87.99c-4.14 0-7.5-3.36-7.5-7.5s3.36-7.5 7.5-7.5z"
           id="path978" />
        <path
           d="m86.13 96.57c1.4 1.4 2.2 3.33 2.2 5.31 0 1.97-.8 3.9-2.2 5.3-1.39 1.4-3.32 2.2-5.3 2.2-1.97 0-3.91-.8-5.31-2.2-1.39-1.4-2.19-3.33-2.19-5.3 0-1.98.8-3.91 2.19-5.31 1.4-1.39 3.34-2.19 5.31-2.19 1.98 0 3.91.8 5.3 2.19z"
           id="path980" />
        <path
           d="m61.89 96.57c1.4 1.4 2.2 3.33 2.2 5.31 0 1.97-.8 3.9-2.2 5.3-1.39 1.4-3.33 2.2-5.3 2.2s-3.9-.8-5.3-2.2c-1.4-1.39-2.2-3.33-2.2-5.3 0-1.98.8-3.91 2.2-5.31 1.4-1.39 3.33-2.19 5.3-2.19s3.91.8 5.3 2.19z"
           id="path982" />
        <path
           d="m37.66 96.57c1.39 1.4 2.19 3.34 2.19 5.31s-.8 3.9-2.19 5.3c-1.4 1.4-3.33 2.2-5.31 2.2-1.97 0-3.9-.8-5.3-2.2-1.4-1.39-2.2-3.33-2.2-5.3 0-1.98.8-3.91 2.2-5.31 1.39-1.39 3.33-2.19 5.3-2.19 1.98 0 3.91.8 5.31 2.19z"
           id="path984" />
      </g>
      <text
         font-family="sans-serif"
         font-size="10.583333"
         letter-spacing="0"
         stroke-width=".264583"
         word-spacing="0"
         x="111.32841"
         y="248.49638"
         id="text990"><tspan
           font-size="9.877778"
           stroke-width=".264583"
           text-anchor="middle"
           x="111.32841"
           y="248.49638"
           id="tspan988">Application Problem</tspan></text>
    </g>
    <text
       font-family="sans-serif"
       font-size="5.288806"
       letter-spacing="0"
       stroke-width=".13222"
       word-spacing="0"
       x="206.53314"
       xml:space="preserve"
       y="36.241058"
       id="text998"><tspan
         stroke-width=".13222"
         text-anchor="middle"
         x="207.37502"
         y="36.241058"
         id="tspan994">Automated monitoring </tspan><tspan
         stroke-width=".13222"
         text-anchor="middle"
         x="206.53314"
         y="41.662369"
         id="tspan996">detects problem</tspan></text>
    <text
       font-family="sans-serif"
       font-size="5.288806"
       letter-spacing="0"
       word-spacing="0"
       x="218.19839"
       y="101.37615"
       id="text1002"><tspan
         x="218.19839"
         y="101.37615"
         id="tspan1000">On-call is automatically paged</tspan></text>
    <g
       transform="matrix(.05818112 0 0 .05818112 208.802936 135.598978)"
       id="g1060">
      <path
         d="m361.931 0h-211.862c-14.626 0-26.483 11.857-26.483 26.483v459.034c0 14.626 11.857 26.483 26.483 26.483h211.862c14.626 0 26.483-11.857 26.483-26.483v-459.034c0-14.626-11.857-26.483-26.483-26.483zm-141.241 35.31c0-4.875 3.953-8.828 8.828-8.828h52.966c4.875 0 8.828 3.953 8.828 8.828 0 4.875-3.953 8.828-8.828 8.828h-52.966c-4.876 0-8.828-3.953-8.828-8.828zm-26.483-8.827c4.875 0 8.828 3.953 8.828 8.828s-3.953 8.828-8.828 8.828-8.828-3.953-8.828-8.828 3.953-8.828 8.828-8.828zm61.793 467.862c-9.751 0-17.655-7.905-17.655-17.655 0-9.751 7.904-17.655 17.655-17.655s17.655 7.904 17.655 17.655c0 9.75-7.904 17.655-17.655 17.655zm114.759-158.897v105.931h-229.518v-105.931-264.827h229.517v264.827z"
         fill="#707384"
         id="path1004" />
      <path
         d="m141.241 335.448h70.621c0-4.875 3.953-8.828 8.828-8.828s8.828 3.953 8.828 8.828h17.655c0-4.875 3.953-8.828 8.828-8.828s8.828 3.953 8.828 8.828h17.655c0-4.875 3.953-8.828 8.828-8.828s8.828 3.953 8.828 8.828h70.621v-264.827h-229.52zm158.897-220.689c0-4.875 3.953-8.828 8.828-8.828h35.31c4.875 0 8.828 3.953 8.828 8.828v35.31c0 4.875-3.953 8.828-8.828 8.828h-35.31c-4.875 0-8.828-3.953-8.828-8.828zm0 70.62c0-4.875 3.953-8.828 8.828-8.828h35.31c4.875 0 8.828 3.953 8.828 8.828v35.31c0 4.875-3.953 8.828-8.828 8.828h-35.31c-4.875 0-8.828-3.953-8.828-8.828zm0 70.621c0-4.875 3.953-8.828 8.828-8.828h35.31c4.875 0 8.828 3.953 8.828 8.828v35.31c0 4.875-3.953 8.828-8.828 8.828h-35.31c-4.875 0-8.828-3.953-8.828-8.828zm-70.621-141.241c0-4.875 3.953-8.828 8.828-8.828h35.31c4.875 0 8.828 3.953 8.828 8.828v35.31c0 4.875-3.953 8.828-8.828 8.828h-35.31c-4.875 0-8.828-3.953-8.828-8.828zm0 70.62c0-4.875 3.953-8.828 8.828-8.828h35.31c4.875 0 8.828 3.953 8.828 8.828v35.31c0 4.875-3.953 8.828-8.828 8.828h-35.31c-4.875 0-8.828-3.953-8.828-8.828zm0 70.621c0-4.875 3.953-8.828 8.828-8.828h35.31c4.875 0 8.828 3.953 8.828 8.828v35.31c0 4.875-3.953 8.828-8.828 8.828h-35.31c-4.875 0-8.828-3.953-8.828-8.828zm-70.62-141.241c0-4.875 3.953-8.828 8.828-8.828h35.31c4.875 0 8.828 3.953 8.828 8.828v35.31c0 4.875-3.953 8.828-8.828 8.828h-35.31c-4.875 0-8.828-3.953-8.828-8.828zm0 70.62c0-4.875 3.953-8.828 8.828-8.828h35.31c4.875 0 8.828 3.953 8.828 8.828v35.31c0 4.875-3.953 8.828-8.828 8.828h-35.31c-4.875 0-8.828-3.953-8.828-8.828zm0 70.621c0-4.875 3.953-8.828 8.828-8.828h35.31c4.875 0 8.828 3.953 8.828 8.828v35.31c0 4.875-3.953 8.828-8.828 8.828h-35.31c-4.875 0-8.828-3.953-8.828-8.828z"
         fill="#63afdb"
         id="path1006" />
      <path
         d="m291.31 344.276c-4.875 0-8.828-3.953-8.828-8.828h-17.655c0 4.875-3.953 8.828-8.828 8.828s-8.828-3.953-8.828-8.828h-17.655c0 4.875-3.953 8.828-8.828 8.828s-8.828-3.953-8.828-8.828h-70.621v105.931h229.517v-105.931h-70.621c.003 4.875-3.95 8.828-8.825 8.828zm-79.448 61.793c0 4.875-3.953 8.828-8.828 8.828h-35.31c-4.875 0-8.828-3.953-8.828-8.828v-35.31c0-4.875 3.953-8.828 8.828-8.828h35.31c4.875 0 8.828 3.953 8.828 8.828zm70.621 0c0 4.875-3.953 8.828-8.828 8.828h-35.31c-4.875 0-8.828-3.953-8.828-8.828v-35.31c0-4.875 3.953-8.828 8.828-8.828h35.31c4.875 0 8.828 3.953 8.828 8.828zm26.483-44.138h35.31c4.875 0 8.828 3.953 8.828 8.828v35.31c0 4.875-3.953 8.828-8.828 8.828h-35.31c-4.875 0-8.828-3.953-8.828-8.828v-35.31c0-4.875 3.952-8.828 8.828-8.828z"
         fill="#468cbe"
         id="path1008" />
      <g
         fill="#464655"
         id="g1016">
        <path
           d="m229.517 44.138h52.966c4.875 0 8.828-3.953 8.828-8.828 0-4.875-3.953-8.828-8.828-8.828h-52.966c-4.875 0-8.828 3.953-8.828 8.828.001 4.875 3.953 8.828 8.828 8.828z"
           id="path1010" />
        <circle
           cx="194.207"
           cy="35.310001"
           r="8.828"
           id="circle1012" />
        <circle
           cx="256"
           cy="476.69"
           r="17.655001"
           id="circle1014" />
      </g>
      <path
         d="m273.655 361.931h-35.31c-4.875 0-8.828 3.953-8.828 8.828v35.31c0 4.875 3.953 8.828 8.828 8.828h35.31c4.875 0 8.828-3.953 8.828-8.828v-35.31c0-4.875-3.953-8.828-8.828-8.828zm-17.655 44.138c-9.751 0-17.655-7.905-17.655-17.655 0-9.751 7.904-17.655 17.655-17.655s17.655 7.904 17.655 17.655c0 9.75-7.904 17.655-17.655 17.655z"
         fill="#63afdb"
         id="path1018" />
      <path
         d="m300.138 406.069c0 4.875 3.953 8.828 8.828 8.828h35.31c4.875 0 8.828-3.953 8.828-8.828v-35.31c0-4.875-3.953-8.828-8.828-8.828h-35.31c-4.875 0-8.828 3.953-8.828 8.828z"
         fill="#ff6469"
         id="path1020" />
      <path
         d="m203.034 361.931h-35.31c-4.875 0-8.828 3.953-8.828 8.828v35.31c0 4.875 3.953 8.828 8.828 8.828h35.31c4.875 0 8.828-3.953 8.828-8.828v-35.31c0-4.875-3.952-8.828-8.828-8.828z"
         fill="#00dccd"
         id="path1022" />
      <path
         d="m238.345 300.138h35.31c4.875 0 8.828-3.953 8.828-8.828v-35.31c0-4.875-3.953-8.828-8.828-8.828h-35.31c-4.875 0-8.828 3.953-8.828 8.828v35.31c0 4.875 3.953 8.828 8.828 8.828z"
         fill="#ffdc69"
         id="path1024" />
      <path
         d="m308.966 300.138h35.31c4.875 0 8.828-3.953 8.828-8.828v-35.31c0-4.875-3.953-8.828-8.828-8.828h-35.31c-4.875 0-8.828 3.953-8.828 8.828v35.31c0 4.875 3.952 8.828 8.828 8.828zm0-26.483c0-4.875 3.953-8.828 8.828-8.828h17.655c4.875 0 8.828 3.953 8.828 8.828 0 4.875-3.953 8.828-8.828 8.828h-17.655c-4.876 0-8.828-3.953-8.828-8.828z"
         fill="#fff"
         id="path1026" />
      <path
         d="m167.724 300.138h35.31c4.875 0 8.828-3.953 8.828-8.828v-35.31c0-4.875-3.953-8.828-8.828-8.828h-35.31c-4.875 0-8.828 3.953-8.828 8.828v35.31c.001 4.875 3.953 8.828 8.828 8.828zm0-26.483c0-4.875 3.953-8.828 8.828-8.828h17.655c4.875 0 8.828 3.953 8.828 8.828 0 4.875-3.953 8.828-8.828 8.828h-17.655c-4.875 0-8.828-3.953-8.828-8.828z"
         fill="#468cbe"
         id="path1028" />
      <path
         d="m238.345 229.517h35.31c4.875 0 8.828-3.953 8.828-8.828v-35.31c0-4.875-3.953-8.828-8.828-8.828h-35.31c-4.875 0-8.828 3.953-8.828 8.828v35.31c0 4.876 3.953 8.828 8.828 8.828zm0-26.483c0-4.875 3.953-8.828 8.828-8.828h17.655c4.875 0 8.828 3.953 8.828 8.828 0 4.875-3.953 8.828-8.828 8.828h-17.655c-4.876 0-8.828-3.952-8.828-8.828z"
         fill="#464655"
         id="path1030" />
      <path
         d="m308.966 229.517h35.31c4.875 0 8.828-3.953 8.828-8.828v-35.31c0-4.875-3.953-8.828-8.828-8.828h-35.31c-4.875 0-8.828 3.953-8.828 8.828v35.31c0 4.876 3.952 8.828 8.828 8.828z"
         fill="#ffa055"
         id="path1032" />
      <path
         d="m167.724 229.517h35.31c4.875 0 8.828-3.953 8.828-8.828v-35.31c0-4.875-3.953-8.828-8.828-8.828h-35.31c-4.875 0-8.828 3.953-8.828 8.828v35.31c.001 4.876 3.953 8.828 8.828 8.828zm17.655-44.138c9.751 0 17.655 7.904 17.655 17.655 0 9.75-7.904 17.655-17.655 17.655s-17.655-7.905-17.655-17.655c0-9.751 7.904-17.655 17.655-17.655z"
         fill="#a0d778"
         id="path1034" />
      <path
         d="m238.345 158.897h35.31c4.875 0 8.828-3.953 8.828-8.828v-35.31c0-4.875-3.953-8.828-8.828-8.828h-35.31c-4.875 0-8.828 3.953-8.828 8.828v35.31c0 4.875 3.953 8.828 8.828 8.828z"
         fill="#ff6469"
         id="path1036" />
      <path
         d="m308.966 158.897h35.31c4.875 0 8.828-3.953 8.828-8.828v-35.31c0-4.875-3.953-8.828-8.828-8.828h-35.31c-4.875 0-8.828 3.953-8.828 8.828v35.31c0 4.875 3.952 8.828 8.828 8.828zm17.655-44.138c9.751 0 17.655 7.904 17.655 17.655 0 9.75-7.904 17.655-17.655 17.655s-17.655-7.905-17.655-17.655c0-9.751 7.904-17.655 17.655-17.655z"
         fill="#00dccd"
         id="path1038" />
      <path
         d="m167.724 158.897h35.31c4.875 0 8.828-3.953 8.828-8.828v-35.31c0-4.875-3.953-8.828-8.828-8.828h-35.31c-4.875 0-8.828 3.953-8.828 8.828v35.31c.001 4.875 3.953 8.828 8.828 8.828z"
         fill="#ffdc69"
         id="path1040" />
      <circle
         cx="185.379"
         cy="203.034"
         fill="#ffdc69"
         r="17.655001"
         id="circle1042" />
      <circle
         cx="256"
         cy="388.414"
         fill="#ffdc69"
         r="17.655001"
         id="circle1044" />
      <circle
         cx="326.621"
         cy="132.414"
         fill="#ff6469"
         r="17.655001"
         id="circle1046" />
      <path
         d="m247.172 211.862h17.655c4.875 0 8.828-3.953 8.828-8.828 0-4.875-3.953-8.828-8.828-8.828h-17.655c-4.875 0-8.828 3.953-8.828 8.828.001 4.876 3.953 8.828 8.828 8.828z"
         fill="#468cbe"
         id="path1048" />
      <path
         d="m317.793 282.483h17.655c4.875 0 8.828-3.953 8.828-8.828 0-4.875-3.953-8.828-8.828-8.828h-17.655c-4.875 0-8.828 3.953-8.828 8.828.001 4.875 3.953 8.828 8.828 8.828z"
         fill="#ff6469"
         id="path1050" />
      <path
         d="m176.552 282.483h17.655c4.875 0 8.828-3.953 8.828-8.828 0-4.875-3.953-8.828-8.828-8.828h-17.655c-4.875 0-8.828 3.953-8.828 8.828 0 4.875 3.953 8.828 8.828 8.828z"
         fill="#fff"
         id="path1052" />
      <circle
         cx="220.69"
         cy="335.448"
         fill="#464655"
         r="8.828"
         id="circle1054" />
      <circle
         cx="256"
         cy="335.448"
         fill="#fff"
         r="8.828"
         id="circle1056" />
      <circle
         cx="291.31"
         cy="335.448"
         fill="#fff"
         r="8.828"
         id="circle1058" />
    </g>
    <g
       transform="matrix(.47500495 0 0 .47500495 102.172123 -53.356119)"
       id="g1130">
      <g
         transform="matrix(.33170106 0 0 .33170106 323.12557 334.98836)"
         id="g1092">
        <path
           d="m93.965883 223.40161v10.78653c0 1.64042-1.069975 3.08928-2.63816 3.57188l-16.37665 5.03872c-3.135842.9652-5.275792 3.86265-5.275792 7.14349v27.17879c0 5.15964 4.182798 9.34244 9.342438 9.34244h4.671219 49.048192v-63.06185z"
           fill="#d29b6e"
           stroke-width=".264583"
           id="path1062" />
        <path
           d="m107.0453 251.42919c-9.042933 0-17.015623-4.74689-21.597677-11.85995l-10.49655 3.22977c-3.135842.96493-5.275792 3.86238-5.275792 7.14322v27.17879c0 5.15964 4.182798 9.34244 9.342438 9.34244h4.671219 49.048192v-60.72637c.00027 14.1306-11.56123 25.6921-25.69183 25.6921z"
           fill="#59d8ff"
           stroke-width=".264583"
           id="path1064" />
        <g
           fill="#00c3f0"
           transform="matrix(.26458333 0 0 .26458333 62.668321 165.01071)"
           id="g1070">
          <path
             d="m264.828 229.517c0 53.407-43.697 97.103-97.103 97.103-34.178 0-64.311-17.941-81.629-44.825l-17.483 5.379c19.891 34.113 56.776 57.101 99.112 57.101 40.951 0 76.794-21.517 97.103-53.795z"
             id="path1066" />
          <path
             d="m176.552 414.897h-88.276c-4.875 0-8.828-3.953-8.828-8.828v-41.996c0-7.023-2.791-13.76-7.756-18.727l-40.238-40.238c-3.129 4.583-4.971 10.06-4.971 15.893v102.723c0 19.501 15.809 35.31 35.31 35.31h17.655 123.586v-17.655c0-14.626-11.856-26.482-26.482-26.482z"
             id="path1068" />
        </g>
        <g
           stroke-width=".264583"
           id="g1090">
          <path
             d="m126.89831 207.05221h-.34661l-.82126-16.3494h-37.078184v16.3494h-1.459706c-1.934898 0-3.503348 1.56872-3.503348 3.50335v4.67122c0 1.9349 1.568715 3.50335 3.503348 3.50335h2.214298l.379413 2.37146c.285485 1.78382 1.207558 3.40413 2.595562 4.56088l7.49935 6.24946c1.007267.83926 2.277267 1.29911 3.588807 1.29911h7.15142c1.31128 0 2.58128-.45985 3.58881-1.29911l7.49935-6.24946c1.38801-1.15649 2.30981-2.7768 2.59556-4.56088l.37942-2.37146h2.21377c1.93489 0 3.50334-1.56872 3.50334-3.50335v-4.67122c0-1.9349-1.56871-3.50335-3.50334-3.50335z"
             fill="#f0c087"
             id="path1072" />
          <path
             d="m125.73044 190.70255h-23.35636-13.721824v16.3494h-1.459706c-1.934898 0-3.503348 1.56871-3.503348 3.50334v4.67122c0 1.9349 1.568715 3.50335 3.503348 3.50335h2.214298l.379413 2.3712c.285485 1.78408 1.207558 3.40413 2.595562 4.56088l7.49935 6.24946c1.007267.83926 2.277267 1.29911 3.588277 1.29911h2.95302l-3.32952-9.98802c-.47625-1.42875-.71914-2.92497-.71914-4.43125v-14.0753c0-1.28984 1.0459-2.33574 2.33574-2.33574s2.33575 0 3.26999-1.12236c1.42346.72787 3.0189 1.12236 4.67122 1.12236 1.65259 0 3.24749-.39449 4.67122-1.12236 1.42346.72787 3.01889 1.12236 4.67122 1.12236.23495 0 .46407-.0159.69162-.0418l3.63008.005z"
             fill="#e6af78"
             id="path1074" />
          <path
             d="m135.07287 190.23556c0-2.58789-1.76345-4.74451-4.14761-5.38956.2593-.64532.41037-1.3462.41037-2.08466 0-3.09588-2.50957-5.60546-5.60546-5.60546-.11403 0-.2204.027-.33285.0336-.76279-2.18969-2.8231-3.77057-5.27261-3.77057-.60166 0-1.17211.11218-1.71186.29395-1.19644-1.31895-2.90697-2.16244-4.82811-2.16244-.49557 0-.9734.0656-1.43722.16986-1.3372-1.25545-3.12367-2.03835-5.10249-2.03835s-3.76528.7829-5.10249 2.03835c-.46381-.10424-.94218-.16986-1.43722-.16986-1.783022 0-3.395657.71781-4.575434 1.8751-.03228-.00053-.06297-.007-.09578-.007-2.449512 0-4.509823 1.58115-5.272616 3.77058-.112448-.007-.219075-.0336-.332846-.0336-3.09589 0-5.605463 2.50957-5.605463 5.60546 0 .73819.151342 1.43907.410105 2.08465-2.383896.64506-4.14708 2.80167-4.14708 5.38956 0 1.44225.559859 2.74347 1.45468 3.73698-.894821.99325-1.45468 2.29473-1.45468 3.73697 0 2.0746 1.140619 3.86107 2.818342 4.82548.08308 2.50666 2.128573 4.51723 4.655873 4.51723h2.042054c.913342 0 1.692804-.6604 1.843088-1.56131l1.303866-7.8232c.14023.0106.273844.0421.416719.0421 1.952361 0 3.667654-1.00012 4.671219-2.51407 1.003829 1.51368 2.718853 2.51407 4.671223 2.51407 1.95236 0 3.66765-1.00012 4.67121-2.51407 1.00383 1.51368 2.71886 2.51407 4.67122 2.51407s3.66766-1.00012 4.67122-2.51407c1.00383 1.51368 2.71886 2.51407 4.67122 2.51407.14235 0 .27649-.0315.41672-.0421l1.30387 7.8232c.15028.90091.92974 1.56131 1.84308 1.56131h2.50905c2.57968 0 4.67122-2.09153 4.67122-4.67122 0-.0484-.013-.0934-.0143-.14155 1.4179-1.01151 2.35002-2.65351 2.35002-4.52967 0-1.44224-.55985-2.74373-1.45494-3.73698.89482-.99377 1.45468-2.29499 1.45468-3.73724z"
             fill="#694b4b"
             id="path1076" />
          <path
             d="m105.6774 193.63969c-2.18969-.7628-3.77058-2.82311-3.77058-5.27262 0-1.44224.55986-2.74373 1.45468-3.73697-.89482-.99325-1.45468-2.29473-1.45468-3.73698 0-2.58789 1.76345-4.74451 4.14761-5.38956-.25929-.64532-.4101-1.3462-.4101-2.08465 0-1.43986.55853-2.7395 1.45071-3.73195-.0169 0-.0323-.005-.0492-.005-1.97881 0-3.76528.7829-5.10248 2.03835-.46382-.10424-.94219-.16986-1.43722-.16986-1.783028 0-3.395664.71781-4.575441 1.8751-.03228-.00053-.06297-.007-.09578-.007-2.449512 0-4.509823 1.58115-5.272617 3.77058-.112447-.007-.219075-.0336-.332845-.0336-3.09589 0-5.605463 2.50957-5.605463 5.60546 0 .73819.151342 1.43907.410104 2.08465-2.38416.64506-4.147608 2.80167-4.147608 5.38956 0 1.44225.559858 2.74347 1.454679 3.73698-.894821.99325-1.454679 2.29473-1.454679 3.73697 0 2.0746 1.140619 3.86107 2.818342 4.82548.08308 2.50666 2.128573 4.51723 4.655873 4.51723h2.042054c.913341 0 1.692804-.6604 1.843087-1.56131l1.303867-7.8232c.140229.0106.273844.0421.416719.0421 1.95236 0 3.667654-1.00012 4.671218-2.51407 1.00383 1.51368 2.71886 2.51407 4.67122 2.51407 1.28931 0 2.45189-.46593 3.39804-1.19856-.64002-.66649-1.0623-1.53988-1.0623-2.53841-.00053-.1143.0228-.22173.0328-.33312z"
             fill="#5a4146"
             id="path1078" />
          <path
             d="m102.37408 274.78554h7.00696c3.86979 0 7.00696 3.13717 7.00696 7.00696v4.67122h-14.01392z"
             fill="#e6af78"
             id="path1080" />
          <path
             d="m191.12803 270.11406h-70.06881c-3.8698 0-7.00696-3.13716-7.00696-7.00696v-42.04123c0-3.8698 3.13716-7.00696 7.00696-7.00696h70.06907c3.8698 0 7.00696 3.13716 7.00696 7.00696v42.0415c-.00026 3.86979-3.13743 7.00669-7.00722 7.00669z"
             fill="#d5dced"
             id="path1082" />
          <path
             d="m170.10741 286.46346-4.13094-30.98059c-.30956-2.32066-2.28891-4.05368-4.63047-4.05368h-10.50528c-2.3413 0-4.32091 1.73302-4.63048 4.05368l-4.13067 30.98059v4.67122h28.02757v-4.67122z"
             fill="#afb9d2"
             id="path1084" />
          <circle
             cx="156.09349"
             cy="237.41527"
             fill="#fff"
             r="4.671219"
             id="circle1086" />
          <path
             d="m195.79924 295.80616h-130.795178c-1.289843 0-2.335741-1.0459-2.335741-2.33574v-4.67122c0-1.28985 1.045898-2.33574 2.335741-2.33574h130.795448c1.28984 0 2.33574 1.04589 2.33574 2.33574v4.67122c-.00026 1.28984-1.04616 2.33574-2.33601 2.33574z"
             fill="#f5dcb4"
             id="path1088" />
        </g>
      </g>
      <text
         font-family="sans-serif"
         font-size="10.583333"
         letter-spacing="0"
         word-spacing="0"
         x="369.89227"
         y="463.01221"
         id="text1096"><tspan
           font-size="9.877778"
           text-anchor="middle"
           x="369.89227"
           y="463.01221"
           id="tspan1094">Customer Success Engineer</tspan></text>
      <g
         stroke-width=".264583"
         transform="translate(224.71486 346.81529)"
         id="g1128">
        <path
           d="m173.35878 88.871193h15.636874v6.217708h-15.636874z"
           stroke="#000"
           id="path1098" />
        <path
           d="m173.35878 102.3914h15.636874v2.116667h-15.636874z"
           stroke="#000"
           id="path1100" />
        <path
           d="m173.35878 97.099731h15.636874v3.175h-15.636874z"
           stroke="#000"
           id="path1102" />
        <g
           fill="#252626"
           id="g1126">
          <path
             d="m94.486489 96.464731h1.984375v1.164167c.264583-.396875.608541-.740833 1.031875-.978958.449791-.264584.9525-.396875 1.455208-.370417.926042 0 1.772713.396875 2.381253 1.084792.68791.846666 1.03187 1.957917.97896 3.042705.0794 1.13771-.29105 2.24896-.97896 3.12209-.58209.71437-1.455211 1.11125-2.381253 1.08479-.423333 0-.820208-.0794-1.217083-.26459-.423334-.23812-.820209-.52916-1.137709-.89958v4.04813h-2.116666zm2.090208 3.862919c-.05292.71437.132292 1.40229.555625 2.01083.3175.39688.79375.635 1.296458.635.47625 0 .926042-.21167 1.243542-.58208.370418-.58209.555628-1.27.476248-1.93146.0529-.661458-.13229-1.322916-.502706-1.878542-.291042-.396875-.767292-.608542-1.243542-.608542-.502708 0-.978958.211667-1.296458.608542-.370417.476251-.555625 1.111251-.529167 1.746252z"
             id="path1104" />
          <path
             d="m103.27066 104.48161v-11.059587h2.11666v11.086037h-2.11666z"
             id="path1106" />
          <path
             d="m108.45649 98.898899-1.93146-.343959c.15875-.687917.52917-1.296459 1.08479-1.719792.71438-.423333 1.53459-.608542 2.35479-.555625.71438-.02646 1.42875.07937 2.11667.343958.39688.185209.74083.47625.97896.846667.23812.608542.34396 1.243542.29104 1.905001v2.487081c0 .52917.0265 1.03188.10583 1.56104.0794.37042.21167.74084.37042 1.08479h-2.09021c-.0529-.13229-.13229-.34395-.21166-.635-.0265-.13229-.0529-.21166-.0794-.23812-.34396.34396-.74084.60854-1.16417.79375s-.87313.26458-1.32292.26458c-.71437.0265-1.40229-.21166-1.95791-.66146-.47625-.44979-.74084-1.05833-.71438-1.69333 0-.42333.10583-.84667.3175-1.21708.21167-.34396.52917-.635.89958-.82021.52917-.23813 1.11125-.396875 1.69334-.502708.71437-.105833 1.40229-.291042 2.06375-.555625v-.238125c.0264-.317501-.0794-.635001-.29105-.873126-.34396-.211666-.74083-.291041-1.13771-.264583-.3175-.02646-.60854.05292-.87312.211667-.23813.238125-.42334.502708-.50271.820209zm2.83104 1.719791c-.26458.0794-.68792.18521-1.29646.3175-.39687.0529-.79375.18521-1.16416.37042-.26459.15875-.42334.44979-.42334.74083s.13229.58208.34396.76729c.23813.21167.52917.34396.84667.3175.39687 0 .79375-.13229 1.08479-.37042.23812-.15875.42333-.42333.50271-.68791.0794-.34396.10583-.68792.0794-1.03188z"
             id="path1108" />
          <path
             d="m118.4842 96.464731v1.693334h-1.45521v3.227915c0 .37042 0 .76729.0529 1.13771.0265.10583.10583.21167.18521.26458.10583.0794.23812.10584.34395.10584.29105-.0265.58209-.10584.84667-.21167l.18521 1.64042c-.52917.21166-1.11125.3175-1.66688.3175-.34395 0-.71437-.0529-1.03187-.18521-.26459-.10584-.50271-.26459-.66146-.50271-.15875-.23813-.26458-.52917-.29104-.82021-.0529-.50271-.0794-1.00542-.0529-1.48167v-3.492495h-1.00542v-1.693334h.97896v-1.5875l2.11667-1.243541v2.831041z"
             id="path1110" />
          <path
             d="m119.09274 96.464731h1.16417v-.608541c-.0265-.502709.0529-1.031875.21166-1.508125.15875-.343959.44979-.635.79375-.820209.44979-.238125.9525-.343958 1.45521-.3175.60854 0 1.19063.07937 1.77271.264584l-.29104 1.481666c-.3175-.07937-.635-.105833-.97896-.132291-.23813-.02646-.47625.05292-.66146.211666-.15875.238125-.23812.529167-.21167.820209v.555625h1.5875v1.640416h-1.5875v6.429379h-2.11666v-6.376462h-1.16417v-1.640417z"
             id="path1112" />
          <path
             d="m124.38441 100.35411c0-.714378.21166-1.428753.55562-2.037295.3175-.635.84667-1.164167 1.48167-1.508125.66146-.370417 1.37583-.555625 2.11666-.555625 1.11125-.02646 2.19605.396875 2.9898 1.190625.76729.79375 1.19062 1.878542 1.16416 2.98979.0265 1.11125-.39687 2.2225-1.16416 3.01625-.7673.79375-1.85209 1.21708-2.96334 1.19063-.74083 0-1.45521-.15875-2.09021-.50271-.66145-.3175-1.19062-.82021-1.53458-1.45521-.39687-.71438-.58208-1.50813-.55562-2.32833zm2.16958.10583c-.0529.66146.13229 1.29646.55562 1.82562.66146.7673 1.82563.84667 2.59292.18521.0529-.0529.13229-.10583.18521-.18521.39687-.52916.60854-1.19062.55562-1.85208.0529-.661456-.15875-1.296456-.55562-1.799165-.66146-.767292-1.85208-.846667-2.61938-.185209-.0529.05292-.13229.105834-.1852.185209-.37042.529167-.58209 1.164167-.52917 1.825625z"
             id="path1114" />
          <path
             d="m135.54982 104.48161h-2.11666v-8.043337h1.95791v1.137708c.23813-.423333.52917-.767291.89959-1.058333.26458-.185208.58208-.264583.92604-.264583.50271 0 .97896.132291 1.40229.396875l-.66146 1.852083c-.29104-.211667-.635-.343958-1.00542-.343958-.26458 0-.52916.07938-.76729.238125-.23812.238125-.42333.555625-.47625.899584-.15875.899586-.21166 1.799166-.18521 2.698746z"
             id="path1116" />
          <path
             d="m139.25399 96.464731h1.95792v1.084792c.58208-.79375 1.50812-1.27 2.48708-1.27.47625 0 .92604.105833 1.32292.3175.39687.238125.71437.555625.92604.9525.3175-.396875.68791-.714375 1.13771-.9525.39687-.211667.84666-.3175 1.29645-.3175.52917-.02646 1.03188.105833 1.48167.343958.42333.238125.74083.608542.92604 1.058334.18521.529166.23813 1.084791.21167 1.640417v5.159378h-2.11667v-4.577295c.0529-.529166-.0265-1.058334-.21166-1.534584-.18521-.291041-.55563-.47625-.89959-.449791-.29104 0-.58208.105833-.84666.264583-.26459.185208-.4498.47625-.55563.793751-.13229.529166-.18521 1.084786-.15875 1.640416v3.83646h-2.11667v-4.39209c.0265-.502703 0-1.005411-.10583-1.50812-.0529-.211667-.18521-.370417-.34396-.502709-.18521-.132291-.42333-.185208-.635-.15875-.3175 0-.60854.07937-.87312.264584-.26459.185208-.44979.449791-.55563.767292-.13229.529167-.18521 1.084793-.15875 1.640413v3.91584h-2.11666v-8.043337h-.0529z"
             id="path1118" />
          <path
             d="m152.08628 104.48161v-2.11667h2.11667v2.11667z"
             id="path1120" />
          <path
             d="m155.02316 102.17973 2.11666-.3175c.0529.37042.26459.71438.55563.9525.34396.23813.74083.34396 1.16416.3175.42334.0265.87313-.0794 1.24355-.29104.1852-.13229.29104-.3175.29104-.55563 0-.15875-.0529-.29104-.15875-.39687-.21167-.15875-.44979-.23813-.71438-.29104-1.71979-.37042-2.80458-.71438-3.25437-1.03188-.60854-.39687-.97896-1.084788-.9525-1.799164 0-.687916.29104-1.322916.82021-1.74625.74083-.529166 1.64041-.79375 2.54-.714375.84666-.05292 1.69333.132292 2.43416.555625.55563.370417.92604.9525 1.08479 1.5875l-2.01083.370417c-.0794-.291042-.23812-.555625-.47625-.714375-.3175-.185208-.66146-.264583-1.03187-.238125-.42334-.02646-.82021.05292-1.19063.238125-.15875.07937-.23812.264583-.23812.423333s.0794.291042.21166.370418c.635.291041 1.29646.47625 1.98438.608541.84666.132292 1.66687.449792 2.35479.9525.44979.39687.68792.97896.66146 1.5875 0 .74083-.34396 1.42875-.92604 1.905-.79375.58208-1.74625.87312-2.72521.79375-.92604.0529-1.82563-.18521-2.59292-.66146-.60854-.50271-1.03187-1.16417-1.19062-1.905z"
             id="path1122" />
          <path
             d="m165.4742 93.422023v4.074583c.89958-1.137708 2.46062-1.508125 3.78354-.926041.34396.15875.66146.396875.89958.687916.18521.291042.34396.608542.39688.926042.0794.529167.13229 1.058334.10583 1.587501v4.709586h-2.11667v-4.23334c.0265-.529163-.0265-1.084788-.13229-1.587497-.0794-.238125-.23812-.423333-.42333-.555625-.23813-.132292-.50271-.211667-.76729-.185208-.34396 0-.66146.07937-.9525.264583-.29104.185208-.50271.449792-.60854.767292-.15875.502709-.21167 1.005417-.18521 1.534585v4.02166h-2.11667v-11.086037z"
             id="path1124" />
        </g>
      </g>
    </g>
    <g
       transform="matrix(.02962039 0 0 .02962039 236.92139 139.820769)"
       id="g1146">
      <path
         d="m256.06 64.4 229.956 398.302h-460.032l230.016-398.402z"
         fill="#fff"
         id="path1132" />
      <path
         d="m256.06 64.4 229.956 398.302h-229.956z"
         fill="#d8d7da"
         id="path1134" />
      <path
         d="m256 34.295-256 443.41h512zm-204.032 413.405 204.032-353.395 204.032 353.395z"
         fill="#e60020"
         id="path1136" />
      <path
         d="m235.717 215.924v110.267h40.566v-110.267zm0 139.672v42.087h40.566v-42.087z"
         fill="#3c3a41"
         id="path1138" />
      <path
         d="m256 215.924h20.283001v110.267h-20.283001z"
         fill="#17171a"
         id="path1140" />
      <path
         d="m256 355.59601h20.283001v42.087002h-20.283001z"
         fill="#17171a"
         id="path1142" />
      <path
         d="m256 34.295 256 443.41h-256v-30.005h204.032l-204.032-353.395z"
         fill="#c1011b"
         id="path1144" />
    </g>
    <g
       transform="matrix(.0406721 0 0 .0406721 442.8794 261.04618)"
       id="g1182">
      <path
         d="m393.6 359.467v-208c0-74.667-61.867-136.534-137.6-136.534s-137.6 60.8-137.6 136.533v209.067h275.2z"
         fill="#40596b"
         id="path1148" />
      <path
         d="m404.267 176h-22.4v-27.733c0-69.333-56.533-125.867-126.933-125.867s-125.867 55.467-125.867 124.8v27.733h-22.4v-27.733c1.066-81.067 67.2-147.2 149.333-147.2s148.267 66.133 148.267 147.2z"
         fill="#cdd6e0"
         id="path1150" />
      <path
         d="m305.067 283.733 19.2 26.667-68.267 201.6v-267.733z"
         fill="#f8b64c"
         id="path1152" />
      <path
         d="m492.8 429.867c-5.333-53.333-51.2-71.467-51.2-71.467-71.467-32-116.267-48-116.267-48l-69.333 201.6h251.733z"
         fill="#ff7058"
         id="path1154" />
      <path
         d="m324.267 310.4 57.6 76.8-46.933-6.4-78.934 131.2c22.4-149.333 68.267-201.6 68.267-201.6z"
         fill="#f2f2f2"
         id="path1156" />
      <path
         d="m206.933 283.733-19.2 26.667 68.267 201.6v-267.733z"
         fill="#f8b64c"
         id="path1158" />
      <path
         d="m187.733 310.4s-44.8 16-116.267 48c0 0-45.867 18.133-51.2 71.467l-15.999 82.133h251.733z"
         fill="#ff7058"
         id="path1160" />
      <path
         d="m187.733 310.4-57.6 76.8 46.933-6.4 78.934 131.2c-22.4-149.333-68.267-201.6-68.267-201.6z"
         fill="#f2f2f2"
         id="path1162" />
      <path
         d="m256 36.267c-64 0-116.267 51.2-116.267 115.2v58.667c0 62.933 52.267 115.2 116.267 115.2 64 0 116.267-51.2 116.267-115.2v-58.667c0-64-52.267-115.2-116.267-115.2z"
         fill="#ffd15c"
         id="path1164" />
      <path
         d="m352 283.733h-76.8v-21.333h76.8c17.067 0 29.867-13.867 29.867-29.867v-58.667h22.4v58.667c0 27.734-23.467 51.2-52.267 51.2z"
         fill="#cdd6e0"
         id="path1166" />
      <path
         d="m284.8 293.333h-30.933c-8.533 0-16-7.467-16-16v-10.667c0-8.533 7.467-16 16-16h30.933c8.533 0 16 7.467 16 16v10.667c0 9.6-7.467 16-16 16z"
         fill="#40596b"
         id="path1168" />
      <path
         d="m139.733 138.667c103.467 8.533 160-4.267 220.8-54.4-14.933 12.8-13.867-30.933-32-37.333-26.667 1.067-26.667-7.467-50.133-16-26.667 0-42.667 9.6-70.4 4.267-23.467 14.933-26.667 20.267-46.933 39.467-13.867 13.865-21.334 63.999-21.334 63.999z"
         fill="#40596b"
         id="path1170" />
      <path
         d="m139.733 220.8h-8.533c-22.4 0-40.533-18.133-40.533-40.533v-2.133c0-22.4 18.133-40.533 40.533-40.533h8.533z"
         fill="#ff7058"
         id="path1172" />
      <path
         d="m372.267 138.667h8.533c22.4 0 40.533 18.133 40.533 40.533v2.133c0 22.4-18.133 40.533-40.533 40.533h-8.533z"
         fill="#ff7058"
         id="path1174" />
      <g
         fill="#f1543f"
         id="g1180">
        <path
           d="m381.867 388.267-46.934-6.4-78.933 130.133 88.533-113.067z"
           id="path1176" />
        <path
           d="m130.133 388.267 46.934-6.4 78.933 130.133-88.533-113.067z"
           id="path1178" />
      </g>
    </g>
    <text
       font-family="sans-serif"
       font-size="4.763294"
       letter-spacing="0"
       stroke-width=".119082"
       word-spacing="0"
       x="454.29636"
       y="294.76828"
       id="text1186"><tspan
         font-size="4.445741"
         stroke-width=".119082"
         text-anchor="middle"
         x="454.29636"
         y="294.76828"
         id="tspan1184">Application Support Specialist</tspan></text>
    <g
       transform="matrix(.0590591 0 0 .0590591 391.54608 264.07908)"
       id="g1244">
      <path
         d="m361.931 0h-211.862c-14.626 0-26.483 11.857-26.483 26.483v459.034c0 14.626 11.857 26.483 26.483 26.483h211.862c14.626 0 26.483-11.857 26.483-26.483v-459.034c0-14.626-11.857-26.483-26.483-26.483zm-141.241 35.31c0-4.875 3.953-8.828 8.828-8.828h52.966c4.875 0 8.828 3.953 8.828 8.828 0 4.875-3.953 8.828-8.828 8.828h-52.966c-4.876 0-8.828-3.953-8.828-8.828zm-26.483-8.827c4.875 0 8.828 3.953 8.828 8.828s-3.953 8.828-8.828 8.828-8.828-3.953-8.828-8.828 3.953-8.828 8.828-8.828zm61.793 467.862c-9.751 0-17.655-7.905-17.655-17.655 0-9.751 7.904-17.655 17.655-17.655s17.655 7.904 17.655 17.655c0 9.75-7.904 17.655-17.655 17.655zm114.759-158.897v105.931h-229.518v-105.931-264.827h229.517v264.827z"
         fill="#707384"
         id="path1188" />
      <path
         d="m141.241 335.448h70.621c0-4.875 3.953-8.828 8.828-8.828s8.828 3.953 8.828 8.828h17.655c0-4.875 3.953-8.828 8.828-8.828s8.828 3.953 8.828 8.828h17.655c0-4.875 3.953-8.828 8.828-8.828s8.828 3.953 8.828 8.828h70.621v-264.827h-229.52zm158.897-220.689c0-4.875 3.953-8.828 8.828-8.828h35.31c4.875 0 8.828 3.953 8.828 8.828v35.31c0 4.875-3.953 8.828-8.828 8.828h-35.31c-4.875 0-8.828-3.953-8.828-8.828zm0 70.62c0-4.875 3.953-8.828 8.828-8.828h35.31c4.875 0 8.828 3.953 8.828 8.828v35.31c0 4.875-3.953 8.828-8.828 8.828h-35.31c-4.875 0-8.828-3.953-8.828-8.828zm0 70.621c0-4.875 3.953-8.828 8.828-8.828h35.31c4.875 0 8.828 3.953 8.828 8.828v35.31c0 4.875-3.953 8.828-8.828 8.828h-35.31c-4.875 0-8.828-3.953-8.828-8.828zm-70.621-141.241c0-4.875 3.953-8.828 8.828-8.828h35.31c4.875 0 8.828 3.953 8.828 8.828v35.31c0 4.875-3.953 8.828-8.828 8.828h-35.31c-4.875 0-8.828-3.953-8.828-8.828zm0 70.62c0-4.875 3.953-8.828 8.828-8.828h35.31c4.875 0 8.828 3.953 8.828 8.828v35.31c0 4.875-3.953 8.828-8.828 8.828h-35.31c-4.875 0-8.828-3.953-8.828-8.828zm0 70.621c0-4.875 3.953-8.828 8.828-8.828h35.31c4.875 0 8.828 3.953 8.828 8.828v35.31c0 4.875-3.953 8.828-8.828 8.828h-35.31c-4.875 0-8.828-3.953-8.828-8.828zm-70.62-141.241c0-4.875 3.953-8.828 8.828-8.828h35.31c4.875 0 8.828 3.953 8.828 8.828v35.31c0 4.875-3.953 8.828-8.828 8.828h-35.31c-4.875 0-8.828-3.953-8.828-8.828zm0 70.62c0-4.875 3.953-8.828 8.828-8.828h35.31c4.875 0 8.828 3.953 8.828 8.828v35.31c0 4.875-3.953 8.828-8.828 8.828h-35.31c-4.875 0-8.828-3.953-8.828-8.828zm0 70.621c0-4.875 3.953-8.828 8.828-8.828h35.31c4.875 0 8.828 3.953 8.828 8.828v35.31c0 4.875-3.953 8.828-8.828 8.828h-35.31c-4.875 0-8.828-3.953-8.828-8.828z"
         fill="#63afdb"
         id="path1190" />
      <path
         d="m291.31 344.276c-4.875 0-8.828-3.953-8.828-8.828h-17.655c0 4.875-3.953 8.828-8.828 8.828s-8.828-3.953-8.828-8.828h-17.655c0 4.875-3.953 8.828-8.828 8.828s-8.828-3.953-8.828-8.828h-70.621v105.931h229.517v-105.931h-70.621c.003 4.875-3.95 8.828-8.825 8.828zm-79.448 61.793c0 4.875-3.953 8.828-8.828 8.828h-35.31c-4.875 0-8.828-3.953-8.828-8.828v-35.31c0-4.875 3.953-8.828 8.828-8.828h35.31c4.875 0 8.828 3.953 8.828 8.828zm70.621 0c0 4.875-3.953 8.828-8.828 8.828h-35.31c-4.875 0-8.828-3.953-8.828-8.828v-35.31c0-4.875 3.953-8.828 8.828-8.828h35.31c4.875 0 8.828 3.953 8.828 8.828zm26.483-44.138h35.31c4.875 0 8.828 3.953 8.828 8.828v35.31c0 4.875-3.953 8.828-8.828 8.828h-35.31c-4.875 0-8.828-3.953-8.828-8.828v-35.31c0-4.875 3.952-8.828 8.828-8.828z"
         fill="#468cbe"
         id="path1192" />
      <g
         fill="#464655"
         id="g1200">
        <path
           d="m229.517 44.138h52.966c4.875 0 8.828-3.953 8.828-8.828 0-4.875-3.953-8.828-8.828-8.828h-52.966c-4.875 0-8.828 3.953-8.828 8.828.001 4.875 3.953 8.828 8.828 8.828z"
           id="path1194" />
        <circle
           cx="194.207"
           cy="35.310001"
           r="8.828"
           id="circle1196" />
        <circle
           cx="256"
           cy="476.69"
           r="17.655001"
           id="circle1198" />
      </g>
      <path
         d="m273.655 361.931h-35.31c-4.875 0-8.828 3.953-8.828 8.828v35.31c0 4.875 3.953 8.828 8.828 8.828h35.31c4.875 0 8.828-3.953 8.828-8.828v-35.31c0-4.875-3.953-8.828-8.828-8.828zm-17.655 44.138c-9.751 0-17.655-7.905-17.655-17.655 0-9.751 7.904-17.655 17.655-17.655s17.655 7.904 17.655 17.655c0 9.75-7.904 17.655-17.655 17.655z"
         fill="#63afdb"
         id="path1202" />
      <path
         d="m300.138 406.069c0 4.875 3.953 8.828 8.828 8.828h35.31c4.875 0 8.828-3.953 8.828-8.828v-35.31c0-4.875-3.953-8.828-8.828-8.828h-35.31c-4.875 0-8.828 3.953-8.828 8.828z"
         fill="#ff6469"
         id="path1204" />
      <path
         d="m203.034 361.931h-35.31c-4.875 0-8.828 3.953-8.828 8.828v35.31c0 4.875 3.953 8.828 8.828 8.828h35.31c4.875 0 8.828-3.953 8.828-8.828v-35.31c0-4.875-3.952-8.828-8.828-8.828z"
         fill="#00dccd"
         id="path1206" />
      <path
         d="m238.345 300.138h35.31c4.875 0 8.828-3.953 8.828-8.828v-35.31c0-4.875-3.953-8.828-8.828-8.828h-35.31c-4.875 0-8.828 3.953-8.828 8.828v35.31c0 4.875 3.953 8.828 8.828 8.828z"
         fill="#ffdc69"
         id="path1208" />
      <path
         d="m308.966 300.138h35.31c4.875 0 8.828-3.953 8.828-8.828v-35.31c0-4.875-3.953-8.828-8.828-8.828h-35.31c-4.875 0-8.828 3.953-8.828 8.828v35.31c0 4.875 3.952 8.828 8.828 8.828zm0-26.483c0-4.875 3.953-8.828 8.828-8.828h17.655c4.875 0 8.828 3.953 8.828 8.828 0 4.875-3.953 8.828-8.828 8.828h-17.655c-4.876 0-8.828-3.953-8.828-8.828z"
         fill="#fff"
         id="path1210" />
      <path
         d="m167.724 300.138h35.31c4.875 0 8.828-3.953 8.828-8.828v-35.31c0-4.875-3.953-8.828-8.828-8.828h-35.31c-4.875 0-8.828 3.953-8.828 8.828v35.31c.001 4.875 3.953 8.828 8.828 8.828zm0-26.483c0-4.875 3.953-8.828 8.828-8.828h17.655c4.875 0 8.828 3.953 8.828 8.828 0 4.875-3.953 8.828-8.828 8.828h-17.655c-4.875 0-8.828-3.953-8.828-8.828z"
         fill="#468cbe"
         id="path1212" />
      <path
         d="m238.345 229.517h35.31c4.875 0 8.828-3.953 8.828-8.828v-35.31c0-4.875-3.953-8.828-8.828-8.828h-35.31c-4.875 0-8.828 3.953-8.828 8.828v35.31c0 4.876 3.953 8.828 8.828 8.828zm0-26.483c0-4.875 3.953-8.828 8.828-8.828h17.655c4.875 0 8.828 3.953 8.828 8.828 0 4.875-3.953 8.828-8.828 8.828h-17.655c-4.876 0-8.828-3.952-8.828-8.828z"
         fill="#464655"
         id="path1214" />
      <path
         d="m308.966 229.517h35.31c4.875 0 8.828-3.953 8.828-8.828v-35.31c0-4.875-3.953-8.828-8.828-8.828h-35.31c-4.875 0-8.828 3.953-8.828 8.828v35.31c0 4.876 3.952 8.828 8.828 8.828z"
         fill="#ffa055"
         id="path1216" />
      <path
         d="m167.724 229.517h35.31c4.875 0 8.828-3.953 8.828-8.828v-35.31c0-4.875-3.953-8.828-8.828-8.828h-35.31c-4.875 0-8.828 3.953-8.828 8.828v35.31c.001 4.876 3.953 8.828 8.828 8.828zm17.655-44.138c9.751 0 17.655 7.904 17.655 17.655 0 9.75-7.904 17.655-17.655 17.655s-17.655-7.905-17.655-17.655c0-9.751 7.904-17.655 17.655-17.655z"
         fill="#a0d778"
         id="path1218" />
      <path
         d="m238.345 158.897h35.31c4.875 0 8.828-3.953 8.828-8.828v-35.31c0-4.875-3.953-8.828-8.828-8.828h-35.31c-4.875 0-8.828 3.953-8.828 8.828v35.31c0 4.875 3.953 8.828 8.828 8.828z"
         fill="#ff6469"
         id="path1220" />
      <path
         d="m308.966 158.897h35.31c4.875 0 8.828-3.953 8.828-8.828v-35.31c0-4.875-3.953-8.828-8.828-8.828h-35.31c-4.875 0-8.828 3.953-8.828 8.828v35.31c0 4.875 3.952 8.828 8.828 8.828zm17.655-44.138c9.751 0 17.655 7.904 17.655 17.655 0 9.75-7.904 17.655-17.655 17.655s-17.655-7.905-17.655-17.655c0-9.751 7.904-17.655 17.655-17.655z"
         fill="#00dccd"
         id="path1222" />
      <path
         d="m167.724 158.897h35.31c4.875 0 8.828-3.953 8.828-8.828v-35.31c0-4.875-3.953-8.828-8.828-8.828h-35.31c-4.875 0-8.828 3.953-8.828 8.828v35.31c.001 4.875 3.953 8.828 8.828 8.828z"
         fill="#ffdc69"
         id="path1224" />
      <circle
         cx="185.379"
         cy="203.034"
         fill="#ffdc69"
         r="17.655001"
         id="circle1226" />
      <circle
         cx="256"
         cy="388.414"
         fill="#ffdc69"
         r="17.655001"
         id="circle1228" />
      <circle
         cx="326.621"
         cy="132.414"
         fill="#ff6469"
         r="17.655001"
         id="circle1230" />
      <path
         d="m247.172 211.862h17.655c4.875 0 8.828-3.953 8.828-8.828 0-4.875-3.953-8.828-8.828-8.828h-17.655c-4.875 0-8.828 3.953-8.828 8.828.001 4.876 3.953 8.828 8.828 8.828z"
         fill="#468cbe"
         id="path1232" />
      <path
         d="m317.793 282.483h17.655c4.875 0 8.828-3.953 8.828-8.828 0-4.875-3.953-8.828-8.828-8.828h-17.655c-4.875 0-8.828 3.953-8.828 8.828.001 4.875 3.953 8.828 8.828 8.828z"
         fill="#ff6469"
         id="path1234" />
      <path
         d="m176.552 282.483h17.655c4.875 0 8.828-3.953 8.828-8.828 0-4.875-3.953-8.828-8.828-8.828h-17.655c-4.875 0-8.828 3.953-8.828 8.828 0 4.875 3.953 8.828 8.828 8.828z"
         fill="#fff"
         id="path1236" />
      <circle
         cx="220.69"
         cy="335.448"
         fill="#464655"
         r="8.828"
         id="circle1238" />
      <circle
         cx="256"
         cy="335.448"
         fill="#fff"
         r="8.828"
         id="circle1240" />
      <circle
         cx="291.31"
         cy="335.448"
         fill="#fff"
         r="8.828"
         id="circle1242" />
    </g>
    <g
       transform="matrix(.02962039 0 0 .02962039 420.61378 265.29043)"
       id="g1260">
      <path
         d="m256 64.3.06.1 229.956 398.302h-460.032z"
         fill="#fff"
         id="path1246" />
      <path
         d="m486.016 462.702h-229.956v-398.302z"
         fill="#d8d7da"
         id="path1248" />
      <path
         d="m256 34.295-256 443.41h512zm-204.032 413.405 204.032-353.395 204.032 353.395z"
         fill="#e60020"
         id="path1250" />
      <path
         d="m235.717 215.924v110.267h40.566v-110.267zm0 139.672v42.087h40.566v-42.087z"
         fill="#3c3a41"
         id="path1252" />
      <path
         d="m256 215.924h20.283001v110.267h-20.283001z"
         fill="#17171a"
         id="path1254" />
      <path
         d="m256 355.59601h20.283001v42.087002h-20.283001z"
         fill="#17171a"
         id="path1256" />
      <path
         d="m512 477.705h-256v-30.005h204.032l-204.032-353.395v-60.01z"
         fill="#c1011b"
         id="path1258" />
    </g>
    <g
       fill="none"
       id="g1276">
      <path
         d="m319.63749-7.2363296v26.1632016"
         stroke="#000"
         stroke-width="2.846621"
         id="path1262" />
      <path
         d="m206.86661 47.257441v17.105251h50.24667v11.759859"
         stroke="#000"
         stroke-width="3"
         id="path1264" />
      <path
         d="m257.11328 64.362692h62.80834v-19.377043"
         stroke="#000"
         stroke-width="3"
         id="path1266" />
      <path
         d="m256.64103 106.80925v29.05857"
         stroke="#000"
         stroke-width="3"
         id="path1268" />
      <path
         d="m258.00927 172.36532v18.14286h-47.24702v15.57761"
         stroke="#000"
         stroke-width="3"
         id="path1270" />
      <path
         d="m258.00927 190.50818h60.09822v15.40205"
         stroke="#000"
         stroke-width="3"
         id="path1272" />
      <path
         d="m317.70657 246.05233v21.10731"
         stroke="#000"
         stroke-width="2.556822"
         id="path1274" />
    </g>
    <text
       font-family="sans-serif"
       font-size="5.288806"
       letter-spacing="0"
       word-spacing="0"
       x="284.14032"
       y="289.52637"
       id="text1280"><tspan
         x="284.14032"
         y="289.52637"
         id="tspan1278">App Support On-call is paged</tspan></text>
    <path
       d="m364.40957 278.00968h23.81758"
       fill="none"
       stroke="#000"
       stroke-width="2.598354"
       id="path1282" />
    <g
       fill="#b9d1e2"
       transform="matrix(.03168628 0 0 .03168628 431.69899 137.48213)"
       id="g1290">
      <path
         d="m223.383 255.164-9.54-33.76c-71.4 63.126-130.786 5.012-141.612-11.675l5.504-3.399c2.433-1.508 3.857-4.221 3.707-7.081-.149-2.857-1.846-5.41-4.423-6.654l-49.377-23.802c-1.08-.523-2.239-.782-3.399-.782-1.433 0-2.861.398-4.121 1.175-2.279 1.403-3.682 3.871-3.722 6.548l-.841 54.812c-.045 2.861 1.478 5.519 3.965 6.937 1.205.682 2.539 1.02 3.872 1.02 1.429 0 2.857-.389 4.121-1.169l2.633-1.627c45.271 73.442 149.175 80.638 205.414 32.69-5.901-2.299-10.444-7.072-12.181-13.233z"
         id="path1284" />
      <path
         d="m56.666 169.026c-5.809-31.47 15.082-95.47 84.416-103.008v.836c0 2.861 1.563 5.499 4.071 6.873 1.174.647 2.474.965 3.767.965 1.469 0 2.936-.413 4.221-1.234l46.196-29.5c2.26-1.443 3.623-3.931 3.623-6.608 0-2.678-1.363-5.166-3.618-6.609l-46.202-29.507c-1.284-.821-2.752-1.234-4.221-1.234-1.293 0-2.593.318-3.767.965-2.508 1.374-4.071 4.011-4.071 6.873v8.639c-67.344-.288-138.97 63.38-134.354 149.255 0 0 10.425-10.112 17.517-10.112 5.963 0 7.03 1.168 32.422 13.406z"
         id="path1286" />
      <path
         d="m292.123 212.351c-.592-2.802-2.662-5.061-5.405-5.887l-5.652-1.707c16.622-46.53 11.226-126.807-66.247-171.649.293 1.383.532 2.787.532 4.24 0 6.942-3.494 13.317-9.346 17.054l-26.679 17.035c23.634 6.821 77.648 48.932 54.274 118.997l-3.384-1.02c-.746-.223-1.508-.338-2.265-.338-2.025 0-4.006.792-5.488 2.249-2.045 2.005-2.832 4.966-2.056 7.723l14.899 52.746c.727 2.574 2.717 4.599 5.275 5.375.741.223 1.507.333 2.265.333 1.846 0 3.662-.658 5.105-1.892l41.604-35.691c2.175-1.864 3.16-4.766 2.568-7.568z"
         id="path1288" />
    </g>
    <g
       transform="matrix(.14624576 0 0 .14624576 437.80961 122.07366)"
       id="g1342">
      <g
         transform="matrix(.09364717 0 0 .09364717 89.265649 195.77663)"
         id="g1336">
        <path
           d="m463 66.8v329.4c0 4.15-3.36 7.5-7.5 7.5h-448c-4.15 0-7.5-3.35-7.5-7.5v-329.4c0-4.14 3.35-7.5 7.5-7.5h448c4.14 0 7.5 3.36 7.5 7.5zm-15 321.9v-244.24h-433v244.24zm0-259.24v-55.16h-433v55.16z"
           id="path1292" />
        <path
           d="m448 74.3v55.16h-433v-55.16zm-15.36 41.58v-28c0-4.14-3.36-7.5-7.5-7.5h-318.98c-4.14 0-7.5 3.36-7.5 7.5v28c0 4.14 3.36 7.5 7.5 7.5h318.98c4.14 0 7.5-3.36 7.5-7.5zm-344.31-14c0-1.98-.8-3.91-2.2-5.31-1.39-1.39-3.32-2.19-5.3-2.19-1.97 0-3.91.8-5.31 2.19-1.39 1.4-2.19 3.33-2.19 5.31 0 1.97.8 3.9 2.19 5.3 1.4 1.4 3.34 2.2 5.31 2.2 1.98 0 3.91-.8 5.3-2.2 1.4-1.4 2.2-3.33 2.2-5.3zm-24.24 0c0-1.98-.8-3.91-2.2-5.31-1.39-1.39-3.33-2.19-5.3-2.19s-3.9.8-5.3 2.19c-1.4 1.4-2.2 3.33-2.2 5.31 0 1.97.8 3.91 2.2 5.3 1.4 1.4 3.33 2.2 5.3 2.2s3.91-.8 5.3-2.2c1.4-1.4 2.2-3.33 2.2-5.3zm-24.24 0c0-1.97-.8-3.91-2.19-5.31-1.4-1.39-3.33-2.19-5.31-2.19-1.97 0-3.91.8-5.3 2.19-1.4 1.4-2.2 3.33-2.2 5.31 0 1.97.8 3.91 2.2 5.3 1.4 1.4 3.33 2.2 5.3 2.2 1.98 0 3.91-.8 5.31-2.2 1.39-1.4 2.19-3.33 2.19-5.3z"
           fill="#3dd0f2"
           id="path1294" />
        <path
           d="m432.64 87.88v28c0 4.14-3.36 7.5-7.5 7.5h-318.98c-4.14 0-7.5-3.36-7.5-7.5v-28c0-4.14 3.36-7.5 7.5-7.5h318.98c4.14 0 7.5 3.36 7.5 7.5zm-15 20.5v-13h-303.98v13z"
           id="path1296" />
        <path
           d="m411.09 284.42v71.34c0 4.14-3.36 7.5-7.5 7.5h-88c-4.14 0-7.5-3.36-7.5-7.5v-71.34c0-4.15 3.36-7.5 7.5-7.5h88c4.14 0 7.5 3.35 7.5 7.5zm-15 63.84v-56.34h-73v56.34z"
           id="path1298" />
        <path
           d="m403.59 169.9c4.14 0 7.5 3.36 7.5 7.5 0 4.15-3.36 7.5-7.5 7.5h-88c-4.14 0-7.5-3.35-7.5-7.5 0-4.14 3.36-7.5 7.5-7.5z"
           id="path1300" />
        <path
           d="m403.59 205.57c4.14 0 7.5 3.36 7.5 7.5 0 4.15-3.36 7.5-7.5 7.5h-88c-4.14 0-7.5-3.35-7.5-7.5 0-4.14 3.36-7.5 7.5-7.5z"
           id="path1302" />
        <path
           d="m403.59 241.25c4.14 0 7.5 3.35 7.5 7.5 0 4.14-3.36 7.5-7.5 7.5h-88c-4.14 0-7.5-3.36-7.5-7.5 0-4.15 3.36-7.5 7.5-7.5z"
           id="path1304" />
        <path
           d="m323.09 291.92001h73v56.34h-73z"
           fill="#f48c6c"
           id="path1306" />
        <path
           d="m282.99 177.4v71.35c0 4.14-3.35 7.5-7.5 7.5h-87.99c-4.14 0-7.5-3.36-7.5-7.5v-71.35c0-4.14 3.36-7.5 7.5-7.5h87.99c4.15 0 7.5 3.36 7.5 7.5zm-15 63.85v-56.35h-72.99v56.35z"
           id="path1308" />
        <path
           d="m275.49 276.92c4.15 0 7.5 3.35 7.5 7.5 0 4.14-3.35 7.5-7.5 7.5h-87.99c-4.14 0-7.5-3.36-7.5-7.5 0-4.15 3.36-7.5 7.5-7.5z"
           id="path1310" />
        <path
           d="m275.49 312.59c4.15 0 7.5 3.36 7.5 7.5s-3.35 7.5-7.5 7.5h-87.99c-4.14 0-7.5-3.36-7.5-7.5s3.36-7.5 7.5-7.5z"
           id="path1312" />
        <path
           d="m275.49 348.26c4.15 0 7.5 3.36 7.5 7.5s-3.35 7.5-7.5 7.5h-87.99c-4.14 0-7.5-3.36-7.5-7.5s3.36-7.5 7.5-7.5z"
           id="path1314" />
        <path
           d="m195 184.89999h72.989998v56.349998h-72.989998z"
           fill="#f48c6c"
           id="path1316" />
        <path
           d="m147.4 169.9c4.15 0 7.5 3.36 7.5 7.5 0 4.15-3.35 7.5-7.5 7.5h-87.99c-4.14 0-7.5-3.35-7.5-7.5 0-4.14 3.36-7.5 7.5-7.5z"
           id="path1318" />
        <path
           d="m147.4 205.57c4.15 0 7.5 3.36 7.5 7.5 0 4.15-3.35 7.5-7.5 7.5h-87.99c-4.14 0-7.5-3.35-7.5-7.5 0-4.14 3.36-7.5 7.5-7.5z"
           id="path1320" />
        <path
           d="m147.4 241.25c4.15 0 7.5 3.35 7.5 7.5 0 4.14-3.35 7.5-7.5 7.5h-87.99c-4.14 0-7.5-3.36-7.5-7.5 0-4.15 3.36-7.5 7.5-7.5z"
           id="path1322" />
        <path
           d="m147.4 276.92c4.15 0 7.5 3.35 7.5 7.5 0 4.14-3.35 7.5-7.5 7.5h-87.99c-4.14 0-7.5-3.36-7.5-7.5 0-4.15 3.36-7.5 7.5-7.5z"
           id="path1324" />
        <path
           d="m147.4 312.59c4.15 0 7.5 3.36 7.5 7.5s-3.35 7.5-7.5 7.5h-87.99c-4.14 0-7.5-3.36-7.5-7.5s3.36-7.5 7.5-7.5z"
           id="path1326" />
        <path
           d="m147.4 348.26c4.15 0 7.5 3.36 7.5 7.5s-3.35 7.5-7.5 7.5h-87.99c-4.14 0-7.5-3.36-7.5-7.5s3.36-7.5 7.5-7.5z"
           id="path1328" />
        <path
           d="m86.13 96.57c1.4 1.4 2.2 3.33 2.2 5.31 0 1.97-.8 3.9-2.2 5.3-1.39 1.4-3.32 2.2-5.3 2.2-1.97 0-3.91-.8-5.31-2.2-1.39-1.4-2.19-3.33-2.19-5.3 0-1.98.8-3.91 2.19-5.31 1.4-1.39 3.34-2.19 5.31-2.19 1.98 0 3.91.8 5.3 2.19z"
           id="path1330" />
        <path
           d="m61.89 96.57c1.4 1.4 2.2 3.33 2.2 5.31 0 1.97-.8 3.9-2.2 5.3-1.39 1.4-3.33 2.2-5.3 2.2s-3.9-.8-5.3-2.2c-1.4-1.39-2.2-3.33-2.2-5.3 0-1.98.8-3.91 2.2-5.31 1.4-1.39 3.33-2.19 5.3-2.19s3.91.8 5.3 2.19z"
           id="path1332" />
        <path
           d="m37.66 96.57c1.39 1.4 2.19 3.34 2.19 5.31s-.8 3.9-2.19 5.3c-1.4 1.4-3.33 2.2-5.31 2.2-1.97 0-3.9-.8-5.3-2.2-1.4-1.39-2.2-3.33-2.2-5.3 0-1.98.8-3.91 2.2-5.31 1.39-1.39 3.33-2.19 5.3-2.19 1.98 0 3.91.8 5.31 2.19z"
           id="path1334" />
      </g>
      <text
         font-family="sans-serif"
         font-size="10.583333"
         letter-spacing="0"
         stroke-width=".264583"
         word-spacing="0"
         x="111.32841"
         y="248.49638"
         id="text1340"><tspan
           font-size="9.877778"
           stroke-width=".264583"
           text-anchor="middle"
           x="111.32841"
           y="248.49638"
           id="tspan1338">Application Problem</tspan></text>
    </g>
    <g
       transform="matrix(.14624576 0 0 .14624576 427.8842 127.02181)"
       id="g1432">
      <text
         font-family="sans-serif"
         font-size="10.583333"
         letter-spacing="0"
         stroke-width=".264583"
         word-spacing="0"
         x="-62.599354"
         y="57.846622"
         id="text1346"><tspan
           font-size="9.877778"
           stroke-width=".264583"
           text-anchor="middle"
           x="-62.599354"
           y="57.846622"
           id="tspan1344">Cloud Infrastructure Problem</tspan></text>
      <g
         transform="matrix(.57793381 0 0 .57793381 -79.793093 10.248613)"
         id="g1430">
        <g
           id="g1422">
          <path
             d="m54.892 19h-50.784c-1.992 0-3.608-1.616-3.608-3.608v-11.784c0-1.992 1.616-3.608 3.608-3.608h50.783c1.993 0 3.609 1.616 3.609 3.608v11.783c0 1.993-1.616 3.609-3.608 3.609z"
             fill="#556080"
             id="path1348" />
          <path
             d="m54.892 38h-50.784c-1.992 0-3.608-1.616-3.608-3.608v-11.784c0-1.992 1.616-3.608 3.608-3.608h50.783c1.993 0 3.608 1.616 3.608 3.608v11.783c.001 1.993-1.615 3.609-3.607 3.609z"
             fill="#38454f"
             id="path1350" />
          <path
             d="m54.892 57h-50.784c-1.992 0-3.608-1.616-3.608-3.608v-11.784c0-1.992 1.616-3.608 3.608-3.608h50.783c1.993 0 3.608 1.616 3.608 3.608v11.783c.001 1.993-1.615 3.609-3.607 3.609z"
             fill="#556080"
             id="path1352" />
          <g
             fill="#8697cb"
             id="g1420">
            <circle
               cx="10"
               cy="9.5"
               r="3.5"
               id="circle1354" />
            <circle
               cx="49.5"
               cy="8"
               r="1"
               id="circle1356" />
            <circle
               cx="45.5"
               cy="8"
               r="1"
               id="circle1358" />
            <circle
               cx="51.5"
               cy="11"
               r="1"
               id="circle1360" />
            <circle
               cx="47.5"
               cy="11"
               r="1"
               id="circle1362" />
            <circle
               cx="41.5"
               cy="8"
               r="1"
               id="circle1364" />
            <circle
               cx="43.5"
               cy="11"
               r="1"
               id="circle1366" />
            <circle
               cx="37.5"
               cy="8"
               r="1"
               id="circle1368" />
            <circle
               cx="39.5"
               cy="11"
               r="1"
               id="circle1370" />
            <circle
               cx="33.5"
               cy="8"
               r="1"
               id="circle1372" />
            <circle
               cx="35.5"
               cy="11"
               r="1"
               id="circle1374" />
            <circle
               cx="10"
               cy="28.5"
               r="3.5"
               id="circle1376" />
            <circle
               cx="49.5"
               cy="27"
               r="1"
               id="circle1378" />
            <circle
               cx="45.5"
               cy="27"
               r="1"
               id="circle1380" />
            <circle
               cx="51.5"
               cy="30"
               r="1"
               id="circle1382" />
            <circle
               cx="47.5"
               cy="30"
               r="1"
               id="circle1384" />
            <circle
               cx="41.5"
               cy="27"
               r="1"
               id="circle1386" />
            <circle
               cx="43.5"
               cy="30"
               r="1"
               id="circle1388" />
            <circle
               cx="37.5"
               cy="27"
               r="1"
               id="circle1390" />
            <circle
               cx="39.5"
               cy="30"
               r="1"
               id="circle1392" />
            <circle
               cx="33.5"
               cy="27"
               r="1"
               id="circle1394" />
            <circle
               cx="35.5"
               cy="30"
               r="1"
               id="circle1396" />
            <circle
               cx="10"
               cy="47.5"
               r="3.5"
               id="circle1398" />
            <circle
               cx="49.5"
               cy="46"
               r="1"
               id="circle1400" />
            <circle
               cx="45.5"
               cy="46"
               r="1"
               id="circle1402" />
            <circle
               cx="51.5"
               cy="49"
               r="1"
               id="circle1404" />
            <circle
               cx="47.5"
               cy="49"
               r="1"
               id="circle1406" />
            <circle
               cx="41.5"
               cy="46"
               r="1"
               id="circle1408" />
            <circle
               cx="43.5"
               cy="49"
               r="1"
               id="circle1410" />
            <circle
               cx="37.5"
               cy="46"
               r="1"
               id="circle1412" />
            <circle
               cx="39.5"
               cy="49"
               r="1"
               id="circle1414" />
            <circle
               cx="33.5"
               cy="46"
               r="1"
               id="circle1416" />
            <circle
               cx="35.5"
               cy="49"
               r="1"
               id="circle1418" />
          </g>
        </g>
        <g
           id="g1428">
          <path
             d="m53.545 48.111c-.051-3.936-3.163-7.111-6.999-7.111-2.568 0-4.806 1.426-6.025 3.546-.421-.141-.87-.22-1.337-.22-2.063 0-3.785 1.492-4.208 3.484-1.755.865-2.976 2.706-2.976 4.831 0 2.948 2.343 5.359 5.208 5.359h10.775c.061 0 .119-.007.18-.009.06.002.119.009.18.009h4.31c2.667 0 4.849-2.245 4.849-4.989-.002-2.43-1.714-4.465-3.957-4.9z"
             fill="#48a0dc"
             id="path1424" />
          <path
             d="m52.651 59h-4.31c-.063 0-.126-.004-.188-.008-.047.004-.108.008-.171.008h-10.774c-3.423 0-6.208-2.853-6.208-6.358 0-2.262 1.209-4.372 3.116-5.503.686-2.235 2.746-3.813 5.066-3.813.296 0 .592.025.884.076 1.496-2.116 3.914-3.402 6.48-3.402 4.102 0 7.524 3.225 7.954 7.332 2.358.806 4 3.079 4 5.679 0 3.302-2.624 5.989-5.849 5.989zm-4.537-2.009.186.006 4.351.003c2.122 0 3.849-1.79 3.849-3.989 0-1.917-1.323-3.564-3.146-3.919l-.799-.155-.011-.813c-.043-3.377-2.733-6.124-5.998-6.124-2.135 0-4.063 1.139-5.158 3.045l-.409.711-.777-.261c-.332-.112-.675-.169-1.019-.169-1.54 0-2.898 1.133-3.229 2.692l-.102.475-.435.214c-1.469.725-2.417 2.269-2.417 3.935 0 2.403 1.888 4.358 4.208 4.358z"
             fill="#b1d3ef"
             id="path1426" />
        </g>
      </g>
    </g>
    <path
       d="m454.39284 133.44775v-4.1458h-30.95536"
       fill="none"
       marker-end="url(#b)"
       stroke="#eb4646"
       stroke-width=".438737"
       id="path1434" />
    <path
       d="m419.11368 149.49739v5.69357h29.29703"
       fill="none"
       marker-end="url(#a)"
       stroke="#46d1eb"
       stroke-width=".438737"
       id="path1436" />
    <path
       d="m418.53656 136.15735v11.76669"
       fill="none"
       stroke="#000"
       stroke-width=".937008"
       id="path1438" />
    <path
       d="m454.26211 135.29772v15.59544"
       fill="none"
       stroke="#000"
       stroke-width="1.078736"
       id="path1440" />
    <text
       font-family="sans-serif"
       font-size="5.288806"
       letter-spacing="0"
       stroke-width=".13222"
       word-spacing="0"
       x="436.54657"
       y="166.42795"
       id="text1446"><tspan
         stroke-width=".13222"
         text-anchor="middle"
         x="436.54657"
         y="166.42795"
         id="tspan1442">App Support can escalate Urgent</tspan><tspan
         stroke-width=".13222"
         text-anchor="middle"
         x="436.54657"
         y="172.90759"
         id="tspan1444">Infrastructure Issues</tspan></text>
    <path
       d="m433.61523 183.56445v71.62891h3v-71.62891z"
       fill-rule="evenodd"
       id="path1448" />
    <path
       d="m370.9707 30.255859v3h66.38672v86.164061h3v-89.164061z"
       fill-rule="evenodd"
       id="path1450" />
    <text
       stroke-width=".264583"
       x="-143.89815"
       y="216.86812"
       id="text1454"><tspan
         stroke-width=".264583"
         x="-143.89815"
         y="224.64439"
         id="tspan1452" /></text>
    <text
       stroke-width=".264583"
       x="-143.39688"
       y="17.400755"
       id="text1458"><tspan
         stroke-width=".264583"
         x="-143.39688"
         y="23.457233"
         id="tspan1456" /></text>
    <text
       stroke-width=".264583"
       x="-143.39688"
       y="135.93613"
       id="text1462"><tspan
         stroke-width=".264583"
         x="-143.39688"
         y="141.9926"
         id="tspan1460" /></text>
    <text
       stroke-width=".264583"
       x="-143.89815"
       y="327.43344"
       id="text1466"><tspan
         stroke-width=".264583"
         x="-143.89815"
         y="333.48993"
         id="tspan1464" /></text>
    <g
       fill="#2aa9e0"
       transform="matrix(0.03856985,0,0,0.03856985,444.25616,284.87008)"
       id="g1508">
      <path
         d="m 243.936,25 h -21.889 l 0.036,40.955 c 0,11.969 -5.131,21.652 -17.1,21.652 -11.974,0 -17.152,-9.683 -17.152,-21.652 V 25.04 h -21.832 l -0.006,40.915 c 0,23.651 15.203,42.82 38.858,42.82 23.648,0 39.078,-19.169 39.078,-42.82 z"
         id="path1492" />
      <path
         d="m 441.30899,0.045 h 21.781 v 106.616 h -21.781 z"
         id="path1494" />
      <path
         d="M 479.17,2.062 V 0.146 h 8.487 v 1.915 h -3.104 v 8.441 h -2.277 v -8.44 z"
         id="path1496" />
      <path
         d="m 492.051,0.146 2.423,7.121 h 0.029 l 2.29,-7.121 H 500 v 10.356 h -2.132 v -7.34 h -0.029 l -2.538,7.34 h -1.756 l -2.538,-7.267 h -0.028 v 7.267 h -2.132 V 0.146 Z"
         id="path1498" />
      <path
         d="m 148.194,24.109 c -18.775,-4.333 -30.619,14.319 -31.111,15.319 -0.242,0.491 -0.251,0.777 -1.083,0.755 -0.687,-0.014 -0.766,-0.755 -0.766,-0.755 l -2.33,-14.268 h -19.51 v 81.43 h 21.871 V 62.514 c 0,-3.602 9.7,-20.872 28.492,-16.426 9.504,2.248 13.535,6.281 13.535,6.281 0,0 0,-15.718 0,-24.806 -3.517,-1.834 -5.93,-2.723 -9.098,-3.454 z"
         id="path1500" />
      <path
         d="m 273.616,133.411 v -29.3 c 0.002,0 0.005,0.003 0.007,0.005 l 0.003,-10.972 c 0,0 0.035,-0.878 0.826,-0.889 0.706,-0.008 0.863,0.46 1.035,0.889 1.658,4.126 10.779,19.847 31.018,14.916 18.118,-5.104 31.407,-21.741 31.407,-41.5 0,-23.805 -19.303,-43.111 -43.114,-43.111 -23.811,0 -43.113,19.306 -43.113,43.111 v 66.85 h 21.931 z m 21.2,-88.668 c 12.055,0 21.825,9.772 21.825,21.818 0,12.056 -9.77,21.829 -21.825,21.829 -12.053,0 -21.82,-9.772 -21.82,-21.829 0.001,-12.046 9.768,-21.818 21.82,-21.818 z"
         id="path1502" />
      <path
         d="m 410.536,106.627 h 21.931 V 66.561 c 0,-23.805 -19.3,-43.111 -43.112,-43.111 -23.812,0 -43.115,19.306 -43.115,43.111 0,19.758 13.29,36.395 31.408,41.5 20.24,4.931 29.357,-10.79 31.018,-14.916 0.172,-0.429 0.327,-0.896 1.035,-0.889 0.791,0.011 0.824,0.889 0.824,0.889 m 0.632,-26.584 c 0,12.056 -9.771,21.829 -21.821,21.829 -12.053,0 -21.825,-9.772 -21.825,-21.829 0,-12.046 9.772,-21.818 21.825,-21.818 12.051,0 21.821,9.772 21.821,21.818 z"
         id="path1504" />
      <path
         d="M 24.879,106.457 H 0 V 0 h 26.695 c 32.325,0 56.841,5.931 56.841,53.229 0,46.84 -25.969,53.228 -58.657,53.228 z m 5.94,-88.004 h -8.795 v 69.533 l 9.032,0.231 c 18.522,0 30.452,-1.686 30.452,-34.989 0,-31.937 -10.532,-34.775 -30.689,-34.775 z"
         id="path1506" />
    </g>
    <path
       d="m383.03107 273.27279 12.88161 4.73689-12.88161 4.73689c2.05795-2.79666 2.04609-6.62297 0-9.47378z"
       fill-rule="evenodd"
       stroke="#000"
       stroke-linejoin="round"
       stroke-width=".736875"
       id="path1510" />
    <path
       d="m430.28441 190.68244 4.73689-12.88161 4.73689 12.88161c-2.79666-2.05795-6.62297-2.04609-9.47378 0z"
       fill-rule="evenodd"
       stroke="#000"
       stroke-linejoin="round"
       stroke-width=".736875"
       id="path1512" />
    <path
       d="m378.89956 36.100359-12.88161-4.73689 12.88161-4.73689c-2.05795 2.79666-2.04609 6.62297 0 9.47378z"
       fill-rule="evenodd"
       stroke="#000"
       stroke-linejoin="round"
       stroke-width=".736875"
       id="path1514" />
    <path
       d="m374.88208-34.68457h8.427612v8.746272h-8.427612z"
       fill="#efd79d"
       fill-opacity=".385965"
       fill-rule="evenodd"
       stroke="#000"
       stroke-width=".177186"
       id="path1516" />
    <text
       font-family="sans-serif"
       font-size="4.806371"
       letter-spacing="0"
       stroke-width=".120159"
       word-spacing="0"
       x="385.39587"
       y="-28.985458"
       id="text1520"><tspan
         stroke-width=".120159"
         x="385.39587"
         y="-28.985458"
         id="tspan1518">Application support agreement required</tspan></text>
    <path
       d="m324.37438 11.284504-4.73689 12.88161-4.7369-12.88161c2.79666 2.05795 6.62297 2.04609 9.47379 0z"
       fill-rule="evenodd"
       stroke="#000"
       stroke-linejoin="round"
       stroke-width=".736875"
       id="path1522" />
    <path
       d="m261.37792 67.19456-4.73689 12.88161-4.7369-12.88161c2.79666 2.05795 6.62297 2.04609 9.47379 0z"
       fill-rule="evenodd"
       stroke="#000"
       stroke-linejoin="round"
       stroke-width=".736875"
       id="path1524" />
    <path
       d="m261.37792 128.04873-4.73689 12.88161-4.7369-12.88161c2.79666 2.05795 6.62297 2.04609 9.47379 0z"
       fill-rule="evenodd"
       stroke="#000"
       stroke-linejoin="round"
       stroke-width=".736875"
       id="path1526" />
    <path
       d="m322.76126 195.78205-4.73689 12.88161-4.7369-12.88161c2.79666 2.05795 6.62297 2.04609 9.47379 0z"
       fill-rule="evenodd"
       stroke="#000"
       stroke-linejoin="round"
       stroke-width=".736875"
       id="path1528" />
    <path
       d="m215.34042 196.84038-4.73689 12.88161-4.7369-12.88161c2.79666 2.05795 6.62297 2.04609 9.47379 0z"
       fill-rule="evenodd"
       stroke="#000"
       stroke-linejoin="round"
       stroke-width=".736875"
       id="path1530" />
    <path
       d="m322.23209 257.69456-4.73689 12.88161-4.7369-12.88161c2.79666 2.05795 6.62297 2.04609 9.47379 0z"
       fill-rule="evenodd"
       stroke="#000"
       stroke-linejoin="round"
       stroke-width=".736875"
       id="path1532" />
    <text
       font-family="sans-serif"
       font-size="5.288806"
       letter-spacing="0"
       stroke-width=".13222"
       word-spacing="0"
       x="306.43967"
       y="-9.314841"
       id="text1536"><tspan
         stroke-width=".13222"
         x="306.43967"
         y="-9.314841"
         id="tspan1534">Customer</tspan></text>
    <g
       transform="matrix(.15767741 0 0 .15767741 216.90749 81.125909)"
       id="g1548">
      <path
         d="m268.79 53.58c-2.85 5.88-8.19 8.9-15 8.9-11.75 0-17.62-10.06-17.62-23.14 0-12.55 6.14-23.14 18.51-23.14 6.5 0 11.48 2.94 14.15 8.72v-7.83h7.48v40.5c0 13.08-6.14 21.89-22.08 21.89-5.381.155-10.747-.658-15.84-2.4v-7.48c4.987 1.713 10.217 2.615 15.49 2.67 11.12 0 15-6 15-14.24zm-111.25 25.42h-7.65v-61.91h7.65v8c2.85-5.87 8.19-8.9 15-8.9 11.84 0 17.8 10.06 17.8 23.14 0 12.55-6.23 23.14-18.69 23.14-6.45.01-11.44-2.93-14.11-8.71zm55.72-16.52c-5.349.127-10.654-1-15.49-3.29v-8.1c4.857 2.695 10.288 4.19 15.84 4.36 5.88 0 8.9-2.4 8.9-5.87s-2.58-5.34-11-7.39c-9.88-2.4-14.07-6.23-14.07-13.53 0-7.74 6-12.46 16.11-12.46 4.962-.074 9.871 1.022 14.33 3.2v7.93c-5.34-2.68-9.7-4.1-14.42-4.1-5.6 0-8.63 2-8.63 5.43 0 3.12 2.14 5.07 10.32 7 9.85 2.43 14.85 6.08 14.85 13.83 0 7.39-4.82 12.99-16.74 12.99zm-129.05-30.26c0-17.62 10.14-30 28.21-30s28.13 12.37 28.13 30c0 17.8-10.15 30.26-28.13 30.26s-28.21-12.48-28.21-30.26zm208.7 10.55c1.07 7.57 6 12.46 16.46 12.46 4.616-.003 9.195-.815 13.53-2.4v7c-3.65 1.94-9.25 2.65-13.79 2.65-16.65 0-23.95-9.61-23.95-23.23 0-13.44 7.48-23 21-23 13.71 0 19.22 9.52 19.22 23.05v3.47zm114.36 0c1.07 7.57 6 12.46 16.47 12.46 4.615-.005 9.195-.817 13.53-2.4v7c-3.65 1.94-9.27 2.65-13.8 2.65-16.65 0-23.94-9.61-23.94-23.23 0-13.44 7.47-23 21-23 13.71 0 19.23 9.52 19.23 23.05v3.47zm-16.61 18.82h-7.66v-44.5h7.66zm-48.52 0h-7.65v-44.5h7.65v7.3c2.778-5.145 8.224-8.315 14.07-8.19 10.23 0 16.11 7 16.11 19.31l-.02 26.08h-7.66v-26.88c0-8-3.2-11.57-10.5-11.57-7.12 0-12 4.72-12 13.71zm-171.6-38.27c-6.86 0-13 4.36-13 14.24v3.56c0 9.88 5.61 14.24 12.11 14.24 8.63 0 13.08-5.69 13.08-16 0-10.7-4.27-16.04-12.19-16.04zm85.255 32.04c6.848-.002 12.995-4.362 12.995-14.24v-3.56c0-9.88-5.61-14.24-12.1-14.24-8.64 0-13.09 5.7-13.09 16 0 10.678 4.268 16.038 12.195 16.04h-.005.01zm-163.585-23.14c0 12.37 5.78 22.61 20.2 22.61s20.11-10.24 20.11-22.61c0-12.1-5.78-22.34-20.11-22.34s-20.19 10.24-20.19 22.34zm200.61 3.92h24.83c-.44-8.28-4.18-13-11.84-13-8.1 0-12.19 5.25-12.99 13zm114.36 0h24.82c-.44-8.28-4.18-13-11.83-13-8.09 0-12.17 5.25-12.99 13zm-20.29-36.14c.117-.008.235-.012.352-.012 2.743 0 5 2.257 5 5 0 .117-.004.235-.012.352 0 2.929-2.411 5.34-5.34 5.34s-5.34-2.411-5.34-5.34c-.008-.117-.012-.235-.012-.352 0-2.743 2.257-5 5-5 .117 0 .235.004.352.012z"
         fill="#253858"
         id="path1538" />
      <circle
         cx="30.030001"
         cy="18.48"
         fill="url(#c)"
         r="17.84"
         id="circle1540" />
      <g
         id="g1546">
        <path
           d="m28.51 71.7c-11.65-7.432-21.341-17.562-28.25-29.53-.166-.297-.253-.632-.253-.973 0-.763.437-1.462 1.123-1.797l13.51-6.63c.94-.458 2.088-.106 2.61.8 6.83 11.447 16.932 20.591 29 26.25-4.451 4.485-9.381 8.469-14.7 11.88-.929.58-2.111.58-3.04 0z"
           fill="url(#d)"
           id="path1542" />
        <path
           d="m31.55 71.7c11.652-7.43 21.343-17.56 28.25-29.53.167-.298.255-.635.255-.977 0-.76-.434-1.457-1.115-1.793l-13.52-6.63c-.94-.458-2.088-.106-2.61.8-6.828 11.448-16.931 20.592-29 26.25 4.449 4.488 9.378 8.472 14.7 11.88.929.58 2.111.58 3.04 0z"
           fill="#2684ff"
           id="path1544" />
      </g>
    </g>
    <g
       transform="matrix(.15767741 0 0 .15767741 282.91011 271.57903)"
       id="g1560">
      <path
         d="m268.79 53.58c-2.85 5.88-8.19 8.9-15 8.9-11.75 0-17.62-10.06-17.62-23.14 0-12.55 6.14-23.14 18.51-23.14 6.5 0 11.48 2.94 14.15 8.72v-7.83h7.48v40.5c0 13.08-6.14 21.89-22.08 21.89-5.381.155-10.747-.658-15.84-2.4v-7.48c4.987 1.713 10.217 2.615 15.49 2.67 11.12 0 15-6 15-14.24zm-111.25 25.42h-7.65v-61.91h7.65v8c2.85-5.87 8.19-8.9 15-8.9 11.84 0 17.8 10.06 17.8 23.14 0 12.55-6.23 23.14-18.69 23.14-6.45.01-11.44-2.93-14.11-8.71zm55.72-16.52c-5.349.127-10.654-1-15.49-3.29v-8.1c4.857 2.695 10.288 4.19 15.84 4.36 5.88 0 8.9-2.4 8.9-5.87s-2.58-5.34-11-7.39c-9.88-2.4-14.07-6.23-14.07-13.53 0-7.74 6-12.46 16.11-12.46 4.962-.074 9.871 1.022 14.33 3.2v7.93c-5.34-2.68-9.7-4.1-14.42-4.1-5.6 0-8.63 2-8.63 5.43 0 3.12 2.14 5.07 10.32 7 9.85 2.43 14.85 6.08 14.85 13.83 0 7.39-4.82 12.99-16.74 12.99zm-129.05-30.26c0-17.62 10.14-30 28.21-30s28.13 12.37 28.13 30c0 17.8-10.15 30.26-28.13 30.26s-28.21-12.48-28.21-30.26zm208.7 10.55c1.07 7.57 6 12.46 16.46 12.46 4.616-.003 9.195-.815 13.53-2.4v7c-3.65 1.94-9.25 2.65-13.79 2.65-16.65 0-23.95-9.61-23.95-23.23 0-13.44 7.48-23 21-23 13.71 0 19.22 9.52 19.22 23.05v3.47zm114.36 0c1.07 7.57 6 12.46 16.47 12.46 4.615-.005 9.195-.817 13.53-2.4v7c-3.65 1.94-9.27 2.65-13.8 2.65-16.65 0-23.94-9.61-23.94-23.23 0-13.44 7.47-23 21-23 13.71 0 19.23 9.52 19.23 23.05v3.47zm-16.61 18.82h-7.66v-44.5h7.66zm-48.52 0h-7.65v-44.5h7.65v7.3c2.778-5.145 8.224-8.315 14.07-8.19 10.23 0 16.11 7 16.11 19.31l-.02 26.08h-7.66v-26.88c0-8-3.2-11.57-10.5-11.57-7.12 0-12 4.72-12 13.71zm-171.6-38.27c-6.86 0-13 4.36-13 14.24v3.56c0 9.88 5.61 14.24 12.11 14.24 8.63 0 13.08-5.69 13.08-16 0-10.7-4.27-16.04-12.19-16.04zm85.255 32.04c6.848-.002 12.995-4.362 12.995-14.24v-3.56c0-9.88-5.61-14.24-12.1-14.24-8.64 0-13.09 5.7-13.09 16 0 10.678 4.268 16.038 12.195 16.04h-.005.01zm-163.585-23.14c0 12.37 5.78 22.61 20.2 22.61s20.11-10.24 20.11-22.61c0-12.1-5.78-22.34-20.11-22.34s-20.19 10.24-20.19 22.34zm200.61 3.92h24.83c-.44-8.28-4.18-13-11.84-13-8.1 0-12.19 5.25-12.99 13zm114.36 0h24.82c-.44-8.28-4.18-13-11.83-13-8.09 0-12.17 5.25-12.99 13zm-20.29-36.14c.117-.008.235-.012.352-.012 2.743 0 5 2.257 5 5 0 .117-.004.235-.012.352 0 2.929-2.411 5.34-5.34 5.34s-5.34-2.411-5.34-5.34c-.008-.117-.012-.235-.012-.352 0-2.743 2.257-5 5-5 .117 0 .235.004.352.012z"
         fill="#253858"
         id="path1550" />
      <circle
         cx="30.030001"
         cy="18.48"
         fill="url(#c)"
         r="17.84"
         id="circle1552" />
      <g
         id="g1558">
        <path
           d="m28.51 71.7c-11.65-7.432-21.341-17.562-28.25-29.53-.166-.297-.253-.632-.253-.973 0-.763.437-1.462 1.123-1.797l13.51-6.63c.94-.458 2.088-.106 2.61.8 6.83 11.447 16.932 20.591 29 26.25-4.451 4.485-9.381 8.469-14.7 11.88-.929.58-2.111.58-3.04 0z"
           fill="url(#d)"
           id="path1554" />
        <path
           d="m31.55 71.7c11.652-7.43 21.343-17.56 28.25-29.53.167-.298.255-.635.255-.977 0-.76-.434-1.457-1.115-1.793l-13.52-6.63c-.94-.458-2.088-.106-2.61.8-6.828 11.448-16.931 20.592-29 26.25 4.449 4.488 9.378 8.472 14.7 11.88.929.58 2.111.58 3.04 0z"
           fill="#2684ff"
           id="path1556" />
      </g>
    </g>
    <path
       d="m433.12418 285.03294h-1.10574l-1.53621 1.53621-.34084-.32079-.55288.55289.34084.32078-.84202.84202-.00063-.00052c-.22343.18458-.65372.43835-.96559.43835-.18937 0-.36882-.0419-.53109-.11531 0 0 2.14107-2.17154 2.27811-2.30861l-.11667-.12239c-.49269-.50516-1.08401-.80488-1.64614-.80488-1.14311 0-2.07307.92999-2.07307 2.07307 0 1.14311.92999 2.07311 2.07307 2.07311.53471 0 1.0032-.1785 1.58516-.73136l.79166-.79043 1.43937 1.44003h1.10575l-1.99222-1.99295 2.08917-2.08918zm-6.29702 2.07503c0-.71344.58043-1.29386 1.29387-1.29386.25655 0 .49546.0755.69653.205l-1.78527 1.78527c-.12921-.20129-.20513-.43994-.20513-.69641zm-6.61355-.22144.56287-.56739v2.86671h-.79496v-1.73574c0-.21113.0834-.41368.23209-.56358zm.56287-1.95092v.49614c0 .00053-.00032.00091-.00063.002l-.6029.60286c-.0706.0706-.19144.0206-.19144-.0793v-1.02123c0-.0009.00091-.002.002-.002h.79067c.00091.00002.002.00091.002.002zm15.99294 3.7426-.004-1.59946c-.0237-1.12269-.94426-2.02866-2.07251-2.02866-1.14311 0-2.07311.92999-2.07311 2.0731 0 1.14308.93 2.07308 2.07311 2.07308.48095 0 .92419-.16468 1.27631-.44057l-.004.72031.80343-.7978zm-2.09208-.2454c-.71345 0-1.29391-.58045-1.29391-1.29387 0-.71347.58043-1.29389 1.29391-1.29389.71343 0 1.29386.58042 1.29386 1.29389 0 .71342-.58043 1.29387-1.29386 1.29387zm-11.08716-3.39315c-.48095 0-.92418.16467-1.27631.44057l.004-.72031-.80343.79777.004 1.60044.00052-.00091c.0237 1.12268.94427 2.02865 2.07252 2.02865 1.14311 0 2.07308-.92999 2.07308-2.0731.00002-1.14306-.92997-2.07305-2.07308-2.07305zm.0158 3.35123c-.71345 0-1.29387-.58044-1.29387-1.29391 0-.71344.58042-1.29386 1.29387-1.29386.71344 0 1.29389.58042 1.29389 1.29386-.00003.71345-.58045 1.29391-1.29389 1.29391z"
       fill="url(#e)"
       id="path1562" />
    <g
       fill-rule="evenodd"
       transform="matrix(.70030702 0 0 .70030702 166.41423 2.423182)"
       id="g1568">
      <path
         d="m4.887 19.195v17.76h2.618v-12.96l8.65 12.96h2.438v-17.76h-2.618v13.1l-8.47-13.1zm22.738 3.85c-3.362 0-5.75 2.464-5.75 7.1 0 4.67 2.36 7.135 5.75 7.135 3.336 0 5.723-2.464 5.723-7.135 0-4.645-2.412-7.1-5.723-7.1zm0 2.258c2.002 0 3.413 1.668 3.413 4.876 0 3.182-1.412 4.85-3.413 4.85-2.053 0-3.413-1.668-3.413-4.85 0-3.208 1.386-4.876 3.413-4.876zm17.775-6.503v6.134c-.898-1.104-2.207-1.9-3.978-1.9-3.747 0-5.133 3.62-5.133 7.135s1.386 7.1 5.133 7.1c1.873 0 3.234-.898 4.132-2.08v1.745h2.284v-18.934zm-3.362 16.22c-2.592 0-3.44-2.3-3.44-4.85s.847-4.902 3.413-4.902c1.617 0 2.67.95 3.388 2.207v5.364c-.72 1.3-1.77 2.18-3.362 2.18zm20.644-4.02.05-.898c0-4.543-2.412-7.058-5.75-7.058s-5.723 2.515-5.723 7.058c0 4.773 2.643 7.186 5.877 7.186 2.438 0 3.952-1.36 4.696-2.387l-1.614-1.4c-.616.898-1.642 1.6-2.977 1.6-1.796 0-3.413-1.258-3.696-4.08zm-5.682-5.748c1.822 0 3.157 1.335 3.44 3.927h-6.904c.257-2.515 1.6-3.927 3.465-3.927zm28.815-5.54c0 1.107-.898 2.005-2.005 2.005s-2.005-.898-2.005-2.005.898-2.005 2.005-2.005 2.005.898 2.005 2.005z"
         fill="#f60"
         id="path1564" />
      <path
         d="m66.275 19.195v17.76h2.618v-6.62h4.773c3.62 0 6.006-1.874 6.006-5.57 0-3.67-2.387-5.57-6.006-5.57zm2.618 2.387h4.8c2.104 0 3.516 1.052 3.516 3.208 0 2.18-1.4 3.234-3.516 3.234h-4.8zm16.194 15.373v-13.577h-2.437v13.576zm3.9-13.577v13.576h2.438v-9.214c.744-1.796 1.95-2.387 3.388-2.387 1.796 0 2.977.898 2.977 3.26v8.34h2.438v-8.597c0-3.798-1.9-5.312-4.645-5.312-1.848 0-3.285.693-4.286 2.002v-1.668zm19.736-.333c-3.773 0-5.16 3.413-5.16 6.672s1.386 6.673 5.16 6.673c1.848 0 3.207-.796 4.106-1.9v.488c0 2.926-1.617 4.26-5.415 5.132l.283 2.182c5.184-1 7.417-3.003 7.417-7.93v-10.982h-2.285v1.6c-.898-1.104-2.258-1.924-4.106-1.924zm.616 2.207c1.694 0 2.77.898 3.5 2.207v4.568c-.72 1.283-1.796 2.233-3.516 2.233-2.592 0-3.44-2.18-3.44-4.517 0-2.3.847-4.5 3.465-4.5z"
         fill="#313131"
         id="path1566" />
    </g>
    <path
       d="m328.782 34.357296c.71466.01722 1.40347-.249695 1.92009-.749093l.94712 1.024624c-.62854.64577-1.49818 1.127942-2.84999 1.127942-2.32477 0-3.82297-1.54124-3.82297-3.62492 0-2.066467 1.57569-3.624926 3.60771-3.624926 2.30756 0 3.6077 1.756493 3.49578 4.18459h-5.4417c.18942 1.016014.90408 1.661783 2.14396 1.661783m1.65317-2.81556c-.14638-.938519-.70605-1.63595-1.83399-1.63595-1.05045 0-1.77372.594107-1.96314 1.63595zm-37.41162 2.738065 4.1932-4.262081h-4.09848v-1.334591h6.03579v1.369035l-4.18459 4.253471h4.24487v1.334592h-6.19079zm10.89199.0775c.71465.01722 1.40348-.249695 1.92009-.749093l.94714 1.024623c-.62856.64577-1.4982 1.127943-2.85001 1.127943-2.31617 0-3.82296-1.54124-3.82296-3.62492 0-2.066467 1.57567-3.624927 3.60771-3.624927 2.30755 0 3.6077 1.756493 3.49576 4.18459h-5.44169c.19803 1.016014.90408 1.661784 2.14396 1.661784m1.66177-2.81556c-.14635-.938519-.70603-1.63595-1.83396-1.63595-1.05047 0-1.77374.594106-1.96315 1.63595zm10.69397.602722c0-2.230063 1.66178-3.616318 3.49577-3.616318.9213 0 1.79954.404684 2.31616 1.041844v-4.107095h1.48097v10.160117h-1.48097v-.964356c-.53384.680212-1.41209 1.102114-2.33338 1.102114-1.77372 0-3.47855-1.403473-3.47855-3.616311m5.89804-.01722c0-1.239876-.93853-2.255885-2.20424-2.255885-1.23988 0-2.20422.99018-2.20422 2.255885 0 1.265712.96434 2.264501 2.20422 2.264501 1.26571.0087 2.20424-1.0074 2.20424-2.264501m10.87475 2.014805 1.34322-.697432c.36162.64577 1.05045 1.033234 1.79093 1.016015.8352 0 1.27432-.430516 1.27432-.9213 0-.559669-.80937-.680213-1.68762-.861028-1.18821-.249695-2.41948-.63716-2.41948-2.075076 0-1.102115 1.05044-2.118124 2.69501-2.100903 1.30015 0 2.26451.516615 2.80696 1.35181l-1.2485.688822c-.31858-.490783-.86963-.792142-1.56707-.792142-.80076 0-1.20543.387459-1.20543.835194 0 .499399.64577.63716 1.65316.861028 1.14518.249697 2.44534.628551 2.44534 2.07507 0 .964353-.83522 2.255892-2.82418 2.238673-1.44653 0-2.47115-.585497-3.05666-1.618731m9.90182-1.610122-1.171 1.282936v1.808155h-1.48096v-10.160117h1.48096v6.647125l3.14275-3.444105h1.79955l-2.72084 2.979151 2.79833 3.977947h-1.679zm-31.15196-4.012384c-1.76509 0-3.23745 1.145166-3.23745 3.030819v4.072656h1.5154v-3.874622c0-1.145168.65438-1.825376 1.77372-1.825376s1.679.680208 1.679 1.825376v3.874622h1.5068v-4.064047c0-1.894262-1.47235-3.039428-3.23747-3.039428"
       id="path1570" />
    <path
       d="m426.78701 153.39114c.1262.003.24784-.0441.33907-.13228l.16724.18093c-.11099.11404-.26455.19919-.50327.19919-.41052 0-.67508-.27217-.67508-.64011 0-.36491.27825-.64011.63707-.64011.40749 0 .63707.31017.61731.73893h-.96093c.0334.17942.15965.29345.37859.29345m.29193-.49719c-.0258-.16573-.12468-.28888-.32386-.28888-.18549 0-.31321.10491-.34666.28888zm-6.60637.48351.74046-.75262h-.72373v-.23568h1.06584v.24175l-.73894.75111h.74958v.23567h-1.09321zm1.92338.0137c.12619.003.24783-.0441.33906-.13227l.16725.18093c-.11099.11404-.26456.19918-.50327.19918-.40901 0-.67508-.27216-.67508-.64011 0-.36491.27824-.64011.63707-.64011.40748 0 .63706.31017.6173.73894h-.96093c.035.17941.15965.29344.3786.29344m.29344-.49718c-.0258-.16573-.12467-.28889-.32385-.28889-.1855 0-.31322.10491-.34667.28889zm1.88841.10643c0-.3938.29344-.63859.6173-.63859.16269 0 .31777.0715.409.18398v-.72526h.26152v1.79413h-.26152v-.17029c-.0943.12012-.24935.19462-.41204.19462-.31321 0-.61426-.24784-.61426-.63859m1.0415-.003c0-.21894-.16572-.39836-.38923-.39836-.21895 0-.38924.17485-.38924.39836 0 .2235.17029.39988.38924.39988.22351.002.38923-.1779.38923-.39988m1.92034.35579.23719-.12316c.0639.11403.18549.18245.31625.17941.14749 0 .22503-.076.22503-.16268 0-.0988-.14293-.12012-.29801-.15205-.20982-.0441-.42725-.11251-.42725-.36643 0-.19462.1855-.37403.4759-.37099.22959 0 .39989.0912.49567.23871l-.22046.12164c-.0563-.0867-.15357-.13988-.27673-.13988-.1414 0-.21286.0684-.21286.14748 0 .0882.11404.11251.29193.15204.20222.0441.43181.111.43181.36643 0 .17029-.14749.39836-.49871.39532-.25544 0-.43637-.10339-.53976-.28584m1.74852-.28433-.20679.22655v.31929h-.26151v-1.79413h.26151v1.17379l.55497-.60818h.31777l-.48046.52607.49415.70245h-.29648zm-5.501-.70853c-.31169 0-.57169.20222-.57169.5352v.71917h.2676v-.6842c0-.20222.11555-.32233.31321-.32233s.29649.12011.29649.32233v.6842h.26608v-.71765c0-.3345-.25999-.53672-.57169-.53672"
       id="path1572" />
    <path
       d="m449.65425 132.25371c.1262.003.24784-.0441.33907-.13228l.16724.18093c-.11099.11404-.26455.19919-.50327.19919-.41052 0-.67508-.27217-.67508-.64011 0-.36491.27825-.64011.63707-.64011.40749 0 .63707.31017.61731.73893h-.96093c.0334.17942.15965.29345.37859.29345m.29193-.49719c-.0258-.16573-.12468-.28888-.32386-.28888-.18549 0-.31321.10491-.34666.28888zm-6.60637.48351.74046-.75262h-.72373v-.23568h1.06584v.24175l-.73894.75111h.74958v.23567h-1.09321zm1.92338.0137c.12619.003.24783-.0441.33906-.13227l.16725.18093c-.11099.11404-.26456.19918-.50327.19918-.40901 0-.67508-.27216-.67508-.64011 0-.36491.27824-.64011.63707-.64011.40748 0 .63706.31017.6173.73894h-.96093c.035.17941.15965.29344.3786.29344m.29344-.49718c-.0258-.16573-.12467-.28889-.32385-.28889-.1855 0-.31322.10491-.34667.28889zm1.88841.10643c0-.3938.29344-.63859.6173-.63859.16269 0 .31777.0715.409.18398v-.72526h.26152v1.79413h-.26152v-.17029c-.0943.12012-.24935.19462-.41204.19462-.31321 0-.61426-.24784-.61426-.63859m1.0415-.003c0-.21894-.16572-.39836-.38923-.39836-.21895 0-.38924.17485-.38924.39836 0 .2235.17029.39988.38924.39988.22351.002.38923-.1779.38923-.39988m1.92034.35579.23719-.12316c.0639.11403.18549.18245.31625.17941.14749 0 .22503-.076.22503-.16268 0-.0988-.14293-.12012-.29801-.15205-.20982-.0441-.42725-.11251-.42725-.36643 0-.19462.1855-.37403.4759-.37099.22959 0 .39989.0912.49567.23871l-.22046.12164c-.0563-.0867-.15357-.13988-.27673-.13988-.1414 0-.21286.0684-.21286.14748 0 .0882.11404.11251.29193.15204.20222.0441.43181.111.43181.36643 0 .17029-.14749.39836-.49871.39532-.25544 0-.43637-.10339-.53976-.28584m1.74852-.28433-.20679.22655v.31929h-.26151v-1.79413h.26151v1.17379l.55497-.60818h.31777l-.48046.52607.49415.70245h-.29648zm-5.501-.70853c-.31169 0-.57169.20222-.57169.5352v.71917h.2676v-.6842c0-.20222.11555-.32233.31321-.32233s.29649.12011.29649.32233v.6842h.26608v-.71765c0-.3345-.25999-.53672-.57169-.53672"
       id="path1574" />
  </g>
</svg>