<svg width="31" height="35" viewBox="0 0 31 35" fill="none" xmlns="http://www.w3.org/2000/svg">
<g clip-path="url(#clip0)">
<path fill-rule="evenodd" clip-rule="evenodd" d="M21.2571 5.7749C21.2571 5.7749 19.22 4.8999 18.0686 4.1999C18.0686 4.1999 16.5629 3.3249 14.0829 0.0874023C14.0829 0.0874023 14.1714 3.7624 10.1857 5.6874C3.89714 8.1374 0 13.2999 0 19.8624C0 28.1749 6.90857 34.9999 15.3229 34.9999C23.8257 34.9999 30.6457 28.1749 30.6457 19.8624C30.7343 9.7124 21.2571 5.7749 21.2571 5.7749ZM4.25143 14.0874C1.86 14.6124 2.03714 13.3874 2.48 12.3374C2.65714 11.7249 3.27714 11.0249 3.27714 11.0249C4.87143 8.4874 8.41429 6.6499 8.41429 6.6499C8.85714 6.4749 9.65429 6.0374 10.3629 5.6874C11.78 4.8999 12.1343 4.4624 12.1343 4.4624C14.1714 2.5374 13.9943 0.174902 13.9943 0.0874023C15.7657 3.5874 13.64 5.1624 13.64 5.1624C14.1714 5.6874 13.9943 6.2124 13.9943 6.2124C11.2486 12.0749 4.25143 14.0874 4.25143 14.0874ZM22.7629 32.4624C22.5857 32.5499 20.3714 33.5999 17.8029 33.5999C16.3857 33.5999 14.88 33.2499 13.5514 32.3749C13.1086 32.0249 12.9314 31.4124 13.1971 30.9749C13.2857 30.7999 13.8171 30.1874 15.0571 30.9749C15.1457 31.0624 18.0686 32.9874 22.5857 30.5374C22.94 30.3624 23.3829 30.4499 23.56 30.7999C23.8257 31.1499 23.9143 31.8499 22.7629 32.4624ZM16.5629 28.7874L16.6514 28.6999C16.74 28.6124 18.2457 26.6874 20.46 26.9499C20.8143 26.9499 22.0543 27.0374 22.8514 28.5249C22.94 28.6999 23.1171 29.3124 22.7629 29.7499C22.5857 29.9249 22.32 30.0999 21.7886 29.9249C21.4343 29.8374 21.2571 29.4874 21.2571 29.3124C21.1686 29.0499 21.08 28.8749 20.1943 28.7874C19.4857 28.6999 19.0429 29.0499 18.5114 29.4874C18.2457 29.7499 17.8914 30.0124 17.5371 30.0999C17.4486 30.1874 17.36 30.1874 17.1829 30.1874C17.0057 30.1874 16.8286 30.0999 16.6514 30.0124C16.3857 29.7499 16.2971 29.3999 16.5629 28.7874ZM26.66 28.9624C26.66 28.9624 25.8629 29.2249 25.0657 28.3499C25.0657 28.3499 22.6743 25.6374 21.5229 25.1999C21.5229 25.1999 20.8143 24.9374 19.9286 25.2874C19.9286 25.2874 19.3086 25.3749 16.9171 26.9499C16.9171 26.9499 12.8429 29.4874 10.8057 29.1374C10.8057 29.1374 6.2 29.2249 6.82 24.4124C6.82 24.4124 7.79429 18.9874 14.1714 20.2124C14.1714 20.2124 15.5886 20.4749 18.1571 22.4874C18.1571 22.4874 19.9286 23.7999 20.8143 23.7999C20.8143 23.7999 21.5229 23.8874 23.1171 22.9249C23.1171 22.9249 26.2171 20.5624 27.3686 20.6499C27.5457 20.6499 29.5829 20.5624 29.5829 23.8874C29.4943 23.7999 29.5829 27.6499 26.66 28.9624Z" fill="#008ECE"/>
</g>
<defs>
<clipPath id="clip0">
<rect width="31" height="35" fill="white"/>
</clipPath>
</defs>
</svg>
