<svg width="37" height="26" viewBox="0 0 37 26" fill="none" xmlns="http://www.w3.org/2000/svg">
<g clip-path="url(#clip0)">
<path d="M36.8695 12.139C36.6055 11.8682 33.2178 7.48969 32.6459 6.76746C32.03 6.04524 31.766 6.18066 31.3701 6.2258C30.9741 6.27094 26.7066 7.0383 26.2226 7.08344C25.7387 7.17371 25.4307 7.35427 25.7387 7.80566C26.0026 8.21191 28.8183 12.2744 29.4343 13.2223L18.2155 15.9758L9.32843 0.673715C8.97647 0.132048 8.88848 -0.0485075 8.09656 -0.0033686C7.30465 0.0417703 1.10132 0.583437 0.661363 0.583437C0.22141 0.628576 -0.262538 0.809131 0.177415 1.89246C0.617368 2.9758 7.65661 18.5036 7.83259 18.955C8.00857 19.4064 8.53651 20.1286 9.72439 19.8577C10.9563 19.5418 15.1798 18.4133 17.5115 17.7814C18.7434 20.0383 21.2071 24.6425 21.6911 25.3195C22.307 26.2223 22.747 26.0418 23.6709 25.7709C24.4188 25.5452 35.1976 21.573 35.6816 21.3473C36.1655 21.1216 36.4735 20.9862 36.1215 20.4897C35.8576 20.1286 33.0419 16.2015 31.546 14.1702C32.5579 13.8994 36.2095 12.9064 36.6055 12.7709C37.0454 12.6355 37.1334 12.4098 36.8695 12.139ZM16.4997 16.4272C16.3677 16.4723 10.0763 18.007 9.76838 18.0973C9.41642 18.1876 9.41642 18.1425 9.41642 18.007C9.32843 17.8716 1.93723 2.1633 1.80524 1.98274C1.71725 1.80219 1.71725 1.62163 1.80524 1.62163C1.89323 1.62163 7.7446 1.07996 7.92058 1.07996C8.14056 1.07996 8.09656 1.1251 8.18455 1.26052C8.18455 1.26052 16.4117 15.8404 16.5436 16.0661C16.7196 16.2918 16.6316 16.382 16.4997 16.4272ZM34.1857 19.8126C34.2737 19.9932 34.4057 20.0834 34.0538 20.1737C33.7458 20.3091 23.4509 23.8751 23.2309 23.9654C23.011 24.0557 22.879 24.1008 22.615 23.6945C22.351 23.2883 19.0074 17.3751 19.0074 17.3751L29.9622 14.4411C30.2262 14.3508 30.3142 14.3057 30.4901 14.5765C30.6661 14.8925 34.0978 19.6772 34.1857 19.8126ZM34.8897 11.8682C34.6257 11.9133 30.6221 12.9515 30.6221 12.9515L27.3225 8.34733C27.2345 8.21191 27.1465 8.07649 27.3665 8.03135C27.5865 7.98621 31.3261 7.30913 31.502 7.26399C31.678 7.21885 31.81 7.17371 32.03 7.48969C32.25 7.76052 35.0657 11.4619 35.1976 11.5973C35.3296 11.7327 35.1536 11.823 34.8897 11.8682Z" fill="#FB503B"/>
</g>
<defs>
<clipPath id="clip0">
<rect width="37" height="26" fill="white"/>
</clipPath>
</defs>
</svg>
