<svg width="31" height="35" viewBox="0 0 31 35" fill="none" xmlns="http://www.w3.org/2000/svg">
<path d="M29.0685 7.58249L16.6004 0.343848C16.2026 0.119086 15.7535 0.000976562 15.2966 0.000976562C14.8397 0.000976562 14.3906 0.119086 13.9928 0.343848L1.42493 7.58249C1.00943 7.8055 0.659386 8.13317 0.409458 8.53306C0.15953 8.93294 0.0183901 9.39117 0 9.86237V24.3254C0.0187501 24.7984 0.159916 25.2584 0.409676 25.6605C0.659435 26.0627 1.00924 26.3931 1.42493 26.6195L4.75926 28.5004C5.61663 29.0244 6.60437 29.2961 7.60911 29.2842C8.12339 29.3247 8.64022 29.2498 9.12184 29.0649C9.60345 28.88 10.0377 28.5899 10.3928 28.2157C10.7479 27.8415 11.0148 27.3926 11.1742 26.902C11.3336 26.4114 11.3813 25.8913 11.3139 25.3798V11.1306C11.3139 10.9311 11.2142 10.6176 11.0147 10.6176H9.41876C9.21927 10.6176 8.7633 10.9311 8.7633 11.1306V25.3798C8.7633 26.477 7.76585 27.5742 5.91344 26.648L2.46514 24.6674C2.40592 24.6316 2.35662 24.5816 2.32177 24.5218C2.28692 24.4621 2.2676 24.3945 2.26563 24.3254V9.86237C2.26563 9.71988 2.42238 9.59164 2.53637 9.52039L15.1042 2.296C15.1675 2.26108 15.2386 2.24276 15.3108 2.24276C15.3831 2.24276 15.4542 2.26108 15.5175 2.296L27.9286 9.52039C28.0426 9.52039 27.9286 9.71988 27.9286 9.86237V24.3254C27.9286 24.4679 27.9286 24.5961 27.9286 24.6674L15.4605 31.8918C15.4074 31.9261 15.3456 31.9444 15.2824 31.9444C15.2192 31.9444 15.1573 31.9261 15.1042 31.8918L11.9124 29.9966C11.8674 29.9689 11.8156 29.9542 11.7628 29.9542C11.7099 29.9542 11.6581 29.9689 11.6132 29.9966C11.0192 30.3588 10.3826 30.646 9.71802 30.8516C9.51853 30.8516 9.20503 31.0511 9.832 31.4073L14.0213 33.8724C14.4175 34.1088 14.8709 34.232 15.3322 34.2287C15.7983 34.2339 16.2568 34.1107 16.6574 33.8724L29.0685 26.648C29.4535 26.4061 29.7672 26.0661 29.9775 25.663C30.1878 25.2599 30.2872 24.8081 30.2655 24.3539V9.86237C30.2876 9.41011 30.1883 8.96016 29.9779 8.55925C29.7674 8.15833 29.4534 7.82107 29.0685 7.58249ZM19.2081 22.0313C15.888 22.0313 15.1613 21.1193 14.9333 19.4664C14.9333 19.2954 14.748 19.0817 14.577 19.0817H12.9526C12.8482 19.0987 12.7534 19.1527 12.6854 19.2338C12.6174 19.3148 12.5807 19.4176 12.5821 19.5234C12.5821 21.6323 13.7363 24.1972 19.2223 24.1972C23.1978 24.1972 25.4635 22.644 25.4635 19.9224C25.4635 17.2008 23.6396 16.5025 19.7638 15.9896C15.8879 15.4766 15.489 15.2201 15.489 14.3082C15.489 13.3962 15.8167 12.5555 18.7093 12.5555C21.2742 12.5555 22.2289 13.1112 22.6136 14.8354C22.6327 14.9158 22.6781 14.9876 22.7427 15.0392C22.8072 15.0908 22.8872 15.1194 22.9698 15.1204H24.5943C24.696 15.1197 24.7934 15.0787 24.865 15.0064C24.8996 14.9712 24.9253 14.9283 24.9402 14.8812C24.955 14.8342 24.9586 14.7843 24.9505 14.7356C24.7083 11.7433 22.7134 10.3469 18.7093 10.3469C15.1327 10.3469 13.0096 11.8573 13.0096 14.3936C13.0096 16.93 15.1327 17.8847 18.5668 18.2267C22.6706 18.6257 22.9841 19.2242 22.9841 20.0364C22.9699 21.3758 21.8442 22.0313 19.2081 22.0313Z" fill="#83CD29"/>
</svg>
