<svg width="44" height="21" viewBox="0 0 44 21" fill="none" xmlns="http://www.w3.org/2000/svg">
<path d="M8.75103 6.99623C9.23469 6.93179 9.72635 6.96487 10.197 7.09351C10.6677 7.22216 11.1078 7.44378 11.4914 7.74528C11.74 8.12417 11.8989 8.55481 11.9559 9.00438C12.0128 9.45394 11.9665 9.91059 11.8203 10.3395C11.7114 11.4167 11.203 12.4139 10.3953 13.1347C9.41659 13.7566 8.26295 14.045 7.10679 13.9569H4.91446L6.30293 6.99623H8.75103ZM0 20.9175H3.65388L4.51254 16.5328H7.52698C8.68689 16.5755 9.84621 16.4337 10.9616 16.1127C11.8381 15.7839 12.6351 15.2734 13.3001 14.6146C14.4593 13.5568 15.2472 12.1539 15.5472 10.6136C15.7604 9.83248 15.7871 9.01225 15.6253 8.21894C15.4635 7.42562 15.1176 6.68141 14.6155 6.04623C14.0223 5.45167 13.3058 4.99461 12.5166 4.70734C11.7274 4.42007 10.8847 4.30959 10.0482 4.38371H3.21541L0 20.9175Z" fill="black"/>
<path d="M18.2695 -0.000976562H21.9234L21.0647 4.38367H24.2436C25.7137 4.22656 27.1902 4.61682 28.3907 5.47984C28.7896 5.93462 29.062 6.48621 29.1806 7.07938C29.2992 7.67254 29.2599 8.28646 29.0667 8.85967L27.4042 16.5328H23.7503L25.1388 9.22506C25.239 8.94738 25.2763 8.65088 25.2478 8.35702C25.2194 8.06317 25.126 7.77931 24.9743 7.52601C24.4446 7.14992 23.7901 6.99285 23.1474 7.08754H20.3887L18.5435 16.4415H14.8896L18.2695 -0.000976562Z" fill="black"/>
<path d="M36.8492 6.99721C37.3328 6.93277 37.8245 6.96584 38.2952 7.09449C38.7658 7.22314 39.206 7.44475 39.5896 7.74626C39.8345 8.12675 39.9911 8.55722 40.048 9.00612C40.1049 9.45501 40.0606 9.91094 39.9184 10.3405C39.7947 11.4172 39.2813 12.4114 38.4752 13.1357C37.497 13.7588 36.3429 14.0473 35.1867 13.9578H32.9943L34.3463 7.05202L36.8492 6.99721ZM28.0981 20.9185H31.752L32.6107 16.5338H35.6251C36.7607 16.5688 37.8947 16.427 38.9867 16.1136C39.8859 15.7983 40.7034 15.2865 41.38 14.6155C42.5637 13.552 43.3606 12.1254 43.6454 10.5597C43.869 9.78315 43.9062 8.96473 43.7538 8.17107C43.6014 7.37741 43.2638 6.63094 42.7685 5.9924C42.1788 5.39825 41.4655 4.94128 40.6793 4.65394C39.8931 4.36661 39.0532 4.25597 38.2194 4.32988H31.2953L28.0981 20.9185Z" fill="black"/>
</svg>
