<svg width="34" height="35" viewBox="0 0 34 35" fill="none" xmlns="http://www.w3.org/2000/svg">
<path d="M16.7301 0.00429273C15.4255 0.00544608 14.1233 0.115159 12.8369 0.332297C9.3857 0.945521 8.75821 2.22901 8.75821 4.61061V7.69099H16.9155V8.73205H5.70635C4.50389 8.70218 3.3295 9.09784 2.39024 9.84924C1.45099 10.6006 0.807197 11.6595 0.572378 12.8392C-0.190793 15.5532 -0.190793 18.4251 0.572378 21.1392C1.15708 23.5635 2.5404 25.2749 4.92199 25.2749H7.7742V21.5812C7.80661 20.2474 8.34997 18.9769 9.29208 18.0322C10.2342 17.0874 11.5031 16.5405 12.8369 16.5043H20.9942C21.5348 16.5006 22.0693 16.3902 22.5671 16.1794C23.0649 15.9687 23.5162 15.6617 23.8952 15.2762C24.2741 14.8906 24.5732 14.4341 24.7753 13.9327C24.9774 13.4313 25.0785 12.8949 25.0728 12.3544V4.58209C25.0111 3.50101 24.567 2.4771 23.8198 1.69335C23.0726 0.909595 22.0711 0.417065 20.9942 0.303775C19.5831 0.0900126 18.1572 -0.0101362 16.7301 0.00429273ZM12.3092 2.51424C12.6178 2.50857 12.9211 2.5949 13.1805 2.76223C13.4398 2.92956 13.6435 3.1703 13.7655 3.4538C13.8876 3.73729 13.9224 4.0507 13.8657 4.35408C13.809 4.65747 13.6632 4.93711 13.447 5.15737C13.2308 5.37762 12.9539 5.52853 12.6516 5.59086C12.3494 5.65318 12.0354 5.62411 11.7496 5.50734C11.4639 5.39057 11.2195 5.1914 11.0474 4.93519C10.8753 4.67898 10.7833 4.37733 10.7833 4.06869C10.7832 3.66132 10.9431 3.2702 11.2284 2.97949C11.5138 2.68878 11.9019 2.52171 12.3092 2.51424Z" fill="url(#paint0_linear)"/>
<path d="M26.0856 8.73262V12.3549C26.0712 13.7112 25.5309 15.0089 24.5785 15.9746C23.6261 16.9402 22.336 17.4985 20.9801 17.5317H12.8371C11.7475 17.5503 10.7087 17.9953 9.94348 18.7712C9.17829 19.5471 8.74771 20.5919 8.74414 21.6816V29.4539C8.74414 31.6786 10.6694 32.9764 12.8228 33.6039C15.4776 34.4401 18.3253 34.4401 20.9801 33.6039C23.0337 33.0192 25.0588 31.8212 25.0588 29.4539V26.345H16.9015V25.304H29.1517C31.519 25.304 32.4032 23.6497 33.2303 21.1683C34.074 18.4562 34.074 15.5519 33.2303 12.8398C32.6456 10.4867 31.519 8.7041 29.1517 8.7041L26.0856 8.73262ZM21.4935 28.4271C21.8033 28.4215 22.1077 28.5086 22.3677 28.6772C22.6276 28.8458 22.8313 29.0882 22.9524 29.3734C23.0736 29.6586 23.1068 29.9735 23.0477 30.2776C22.9887 30.5818 22.84 30.8614 22.6209 31.0805C22.4018 31.2996 22.1223 31.4482 21.8181 31.5073C21.5139 31.5663 21.1991 31.5331 20.9139 31.412C20.6287 31.2908 20.3863 31.0872 20.2176 30.8272C20.049 30.5673 19.9619 30.2628 19.9676 29.9531C19.9713 29.5495 20.1333 29.1635 20.4186 28.8782C20.704 28.5928 21.09 28.4308 21.4935 28.4271Z" fill="url(#paint1_linear)"/>
<defs>
<linearGradient id="paint0_linear" x1="-2.10128" y1="1.56773" x2="16.7697" y2="17.5194" gradientUnits="userSpaceOnUse">
<stop stop-color="#5A9FD4"/>
<stop offset="1" stop-color="#306998"/>
</linearGradient>
<linearGradient id="paint1_linear" x1="23.6703" y1="27.7105" x2="16.8761" y2="18.2562" gradientUnits="userSpaceOnUse">
<stop stop-color="#FFD43B"/>
<stop offset="1" stop-color="#FFE873"/>
</linearGradient>
</defs>
</svg>
