<svg width="34" height="34" viewBox="0 0 34 34" fill="none" xmlns="http://www.w3.org/2000/svg">
<path fill-rule="evenodd" clip-rule="evenodd" d="M34 17C34 26.3888 26.3888 34 17 34C7.61116 34 0 26.3888 0 17C0 7.61116 7.61116 0 17 0C26.3888 0 34 7.61116 34 17ZM20.0481 8.60727C21.1685 7.29227 22.6739 6.34184 24.3985 6.28169C26.122 6.2252 27.424 7.00562 27.4664 8.24061C27.4836 8.7663 27.1813 9.78996 26.1299 9.82396C25.3448 9.85218 24.8018 9.38298 24.7772 8.66898C24.7688 8.40694 24.8363 8.17889 25.0152 7.91107C25.0454 7.85206 25.0715 7.80206 25.094 7.75895C25.2025 7.55099 25.2273 7.50345 25.2234 7.37911C25.2077 6.92978 24.5282 6.912 24.3426 6.92141C21.7946 7.0051 21.123 10.4449 20.5785 13.2412L20.3117 14.7158C21.779 14.9313 22.8209 14.6661 23.402 14.29C23.897 13.9694 23.7094 13.6432 23.5131 13.3016C23.3849 13.0784 23.2529 12.8488 23.3048 12.6098C23.4392 11.9937 23.9989 11.6971 24.4446 11.6845C25.067 11.6699 25.5116 12.3154 25.4975 12.9713C25.476 14.0551 24.0371 15.5454 21.1602 15.4847C20.8097 15.4763 20.4875 15.4522 20.1861 15.4162L19.6438 18.4118L19.629 18.481C19.1446 20.7437 18.4884 23.8086 16.2019 26.4855C14.2174 28.8446 12.2035 29.2118 11.3017 29.2426C9.61477 29.2997 8.49593 28.4 8.45565 27.1995C8.41695 26.0373 9.44529 25.4023 10.1201 25.3792C11.0208 25.3494 11.6438 26.0017 11.6679 26.7538C11.6904 27.3905 11.3582 27.5892 11.1385 27.709C11.1172 27.7262 11.0941 27.7435 11.0706 27.7612C10.932 27.8653 10.7715 27.9857 10.7792 28.2101C10.7844 28.3221 10.9052 28.5794 11.2792 28.5679C11.9708 28.5441 12.4368 28.2121 12.7662 27.9774C12.7767 27.9699 12.787 27.9626 12.7972 27.9554C14.4407 26.5854 15.0731 24.1992 15.9016 19.8535L16.0743 18.8L16.0881 18.7309C16.3674 17.3359 16.6779 15.7861 17.1487 14.2418C16.7955 13.9762 16.4854 13.6911 16.1809 13.411C15.4861 12.7721 14.8201 12.1598 13.7366 11.8655C12.669 11.5752 12.0173 11.8221 11.5596 12.4007C11.0172 13.0864 11.1971 13.9788 11.7212 14.5024L12.5864 15.459C13.6482 16.6857 14.2278 17.6393 14.0097 18.9229C13.6634 20.9723 11.2222 22.5436 8.33639 21.657C5.87322 20.8975 5.41344 19.1536 5.70897 18.1926C5.96947 17.3469 6.64162 17.1873 7.2986 17.3887C8.00267 17.6058 8.2778 18.461 8.07642 19.1185C8.07438 19.1248 8.07223 19.1315 8.06995 19.1385C8.04714 19.2092 8.01162 19.3195 7.94408 19.4622C7.91026 19.5384 7.86425 19.6102 7.81736 19.6835C7.75182 19.7858 7.68456 19.8909 7.64645 20.014C7.48796 20.5303 8.19516 20.897 8.68734 21.0471C9.78954 21.3871 10.8639 20.8101 11.1375 19.9188C11.3906 19.0992 10.8728 18.5275 10.6578 18.3082L9.61477 17.1905C9.13775 16.6585 8.0874 15.1766 8.59953 13.5117C8.79725 12.8709 9.21307 12.1893 9.81674 11.7384C11.0909 10.7891 12.4766 10.6327 13.7958 11.0113C15.0785 11.3812 15.8607 12.1107 16.6218 12.8205C16.8735 13.0552 17.1228 13.2877 17.3872 13.5043C17.9819 11.7588 18.8074 10.0489 20.0481 8.60727Z" fill="#1A171B"/>
</svg>
