<svg width="24" height="24" viewBox="0 0 24 24" fill="none" xmlns="http://www.w3.org/2000/svg">
<path d="M17.9 16.5999C17.5 16.6999 17.3 16.6999 16.9 16.6999C13.9 16.6999 9.4 5.9999 9.4 2.4999C9.4 1.1999 9.7 0.799902 10.1 0.399902C6.4 0.799902 1.9 2.1999 0.5 3.8999C0.2 4.3999 0 4.9999 0 5.8999C0 11.4999 5.9 23.9999 10.1 23.9999C12 23.9999 15.2 20.8999 17.9 16.5999Z" fill="#FF8700"/>
<path d="M15.9999 0C19.8999 0 23.6999 0.6 23.6999 2.8C23.6999 7.2 20.8999 12.6 19.4999 12.6C16.9999 12.6 13.7999 5.5 13.7999 1.9C13.6999 0.3 14.3999 0 15.9999 0Z" fill="#FF8700"/>
</svg>
