<svg width="35" height="34" viewBox="0 0 35 34" fill="none" xmlns="http://www.w3.org/2000/svg">
<g clip-path="url(#clip0)">
<path d="M28.3599 6.06723H29.7536L28.7211 5.1311C25.7991 2.48183 21.8121 0.877946 17.5377 0.877946C11.7098 0.877946 6.55345 3.80341 3.63109 8.25096L3.05043 9.13467L4.10659 9.08337C5.04001 9.03804 5.97457 9.01531 6.92835 8.99244L6.96645 8.99152C7.78626 8.97186 8.62004 8.95187 9.47145 8.91692V9.10552H7.93886C7.65499 9.10552 7.39344 9.25365 7.26075 9.51144C7.14151 9.7431 7.15652 10.0009 7.25268 10.2139L13.0778 26.8249L13.5885 28.2813L14.0934 26.8228L17.6694 16.4927L17.7332 16.3086L17.6642 16.1264L15.3144 9.91755C15.2618 9.76552 15.1685 9.53233 14.9387 9.37287C14.7135 9.21656 14.4521 9.19693 14.244 9.19693H12.9937V9.003C15.776 9.08064 18.5613 9.08053 21.4229 9.0027V9.19693H20.1727C20.0621 9.19693 19.943 9.20316 19.8297 9.22733C19.7199 9.25073 19.5646 9.30141 19.4333 9.42896C19.1219 9.73148 19.2376 10.1292 19.2876 10.2749L19.2888 10.2784L25.0293 26.6421L25.5318 28.0746L24.6549 30.4855L24.1706 31.8171L25.4165 31.1421C30.4687 28.405 33.9794 23.1124 33.9794 17.0481C33.9794 14.3088 33.2989 11.6585 32.0292 9.38138L31.0222 9.66539C31.1119 11.8432 30.3897 14.5945 29.6409 16.7775L25.9504 26.924L26.0469 26.634L28.1164 20.4203C28.1165 20.4198 28.1167 20.4192 28.1169 20.4187C28.7687 18.4951 28.9671 16.9663 28.8787 15.6897C28.79 14.4074 28.4141 13.412 27.9654 12.5584C27.7434 12.136 27.5028 11.7472 27.2766 11.3847L27.2375 11.3219C27.0231 10.9784 26.825 10.661 26.6514 10.3383C26.2892 9.66537 26.0539 9.00543 26.0743 8.19409L26.0745 8.19409V8.18059C26.0745 7.36753 26.3655 6.86608 26.7546 6.5553C27.1624 6.22957 27.7376 6.06723 28.3599 6.06723ZM23.0674 32.1865L23.6044 32.0126L23.4047 31.4847L18.323 18.0463L17.8054 16.6775L17.3135 18.0558L12.42 31.7684L12.2224 32.3222L12.7916 32.4697C14.2327 32.843 15.8794 33.1268 17.5377 33.1268C19.49 33.1268 21.3351 32.7474 23.0674 32.1865ZM10.4432 31.5235L11.6305 32.0698L11.1714 30.8461L3.45471 10.2771L3.0058 9.08056L2.46416 10.2381C1.48806 12.3242 1.00189 14.5965 1.00189 16.9567C1.00189 23.3957 4.90015 28.9729 10.4432 31.5235ZM17.5377 0.582184C26.9484 0.582184 34.5037 7.94366 34.5037 17.0481C34.5037 26.1525 26.9484 33.514 17.5377 33.514C8.13075 33.514 0.571686 26.0648 0.571686 16.9567C0.571686 7.85596 8.1231 0.582184 17.5377 0.582184Z" fill="#464342" stroke="black"/>
</g>
<defs>
<clipPath id="clip0">
<rect width="35" height="34" fill="white"/>
</clipPath>
</defs>
</svg>
